<?xml version="1.0" encoding="UTF-8"?>
<svg width="432px" height="126px" viewBox="0 0 432 126" version="1.1" xmlns="http://www.w3.org/2000/svg" xmlns:xlink="http://www.w3.org/1999/xlink">
    <!-- Generator: Sketch 52.6 (67491) - http://www.bohemiancoding.com/sketch -->
    <title>flow1</title>
    <desc>Created with Sketch.</desc>
    <defs>
        <rect id="path-1" x="0" y="0" width="432" height="126"></rect>
    </defs>
    <g id="Page-4" stroke="none" stroke-width="1" fill="none" fill-rule="evenodd">
        <g id="flow1">
            <mask id="mask-2" fill="white">
                <use xlink:href="#path-1"></use>
            </mask>
            <rect stroke="#F1F1F1" stroke-width="2" x="1" y="1" width="430" height="124"></rect>
            <path d="M0,123 L434,123" id="Line-2" stroke="#FFABCC" stroke-width="6" mask="url(#mask-2)"></path>
            <path d="M33.7063519,79.8823529 L40.3663519,79.8823529 L40.3663519,81.0523529 L37.6663519,81.0523529 L37.6663519,89.2123529 L40.3663519,89.2123529 L40.3663519,90.3823529 L33.7063519,90.3823529 L33.7063519,89.2123529 L36.4063519,89.2123529 L36.4063519,81.0523529 L33.7063519,81.0523529 L33.7063519,79.8823529 Z M48.6913519,89.2423529 L48.5113519,89.2423529 C48.3913513,89.4723541 48.2388529,89.6723521 48.0538519,89.8423529 C47.868851,90.0123538 47.668853,90.1523524 47.4538519,90.2623529 C47.2388509,90.3723535 47.0113531,90.4548527 46.7713519,90.5098529 C46.5313507,90.5648532 46.301353,90.5923529 46.0813519,90.5923529 C45.5813494,90.5923529 45.1163541,90.5073538 44.6863519,90.3373529 C44.2563498,90.1673521 43.8788536,89.9223545 43.5538519,89.6023529 C43.2288503,89.2823513 42.9738529,88.8848553 42.7888519,88.4098529 C42.603851,87.9348506 42.5113519,87.392356 42.5113519,86.7823529 L42.5113519,86.5423529 C42.5113519,85.9423499 42.606351,85.4048553 42.7963519,84.9298529 C42.9863529,84.4548506 43.2413503,84.0548546 43.5613519,83.7298529 C43.8813535,83.4048513 44.2563498,83.1573538 44.6863519,82.9873529 C45.1163541,82.8173521 45.5713495,82.7323529 46.0513519,82.7323529 C46.5613545,82.7323529 47.0388497,82.8448518 47.4838519,83.0698529 C47.9288542,83.2948541 48.2713507,83.6423506 48.5113519,84.1123529 L48.6913519,84.1123529 L48.6913519,79.8823529 L49.8613519,79.8823529 L49.8613519,90.3823529 L48.6913519,90.3823529 L48.6913519,89.2423529 Z M46.2013519,89.4823529 C46.5513537,89.4823529 46.8763504,89.4173536 47.1763519,89.2873529 C47.4763534,89.1573523 47.7388508,88.9723541 47.9638519,88.7323529 C48.1888531,88.4923517 48.3663513,88.2048546 48.4963519,87.8698529 C48.6263526,87.5348513 48.6913519,87.162355 48.6913519,86.7523529 L48.6913519,86.5723529 C48.6913519,86.1723509 48.6263526,85.8048546 48.4963519,85.4698529 C48.3663513,85.1348513 48.1888531,84.8473541 47.9638519,84.6073529 C47.7388508,84.3673517 47.4738535,84.1798536 47.1688519,84.0448529 C46.8638504,83.9098523 46.5413536,83.8423529 46.2013519,83.8423529 C45.8513502,83.8423529 45.5238535,83.9073523 45.2188519,84.0373529 C44.9138504,84.1673536 44.6488531,84.3523517 44.4238519,84.5923529 C44.1988508,84.8323541 44.0238526,85.1173513 43.8988519,85.4473529 C43.7738513,85.7773546 43.7113519,86.1423509 43.7113519,86.5423529 L43.7113519,86.7823529 C43.7113519,87.202355 43.7738513,87.5773513 43.8988519,87.9073529 C44.0238526,88.2373546 44.1988508,88.5198518 44.4238519,88.7548529 C44.6488531,88.9898541 44.9113504,89.1698523 45.2113519,89.2948529 C45.5113534,89.4198536 45.8413501,89.4823529 46.2013519,89.4823529 Z M52.9663519,87.0223529 C52.9963521,87.7623566 53.2263498,88.3573507 53.6563519,88.8073529 C54.0863541,89.2573552 54.6863481,89.4823529 55.4563519,89.4823529 C55.8063537,89.4823529 56.1113506,89.4423533 56.3713519,89.3623529 C56.6313532,89.2823525 56.853851,89.1723536 57.0388519,89.0323529 C57.2238529,88.8923522 57.3738514,88.7298539 57.4888519,88.5448529 C57.6038525,88.359852 57.6963516,88.162354 57.7663519,87.9523529 L58.8763519,88.2523529 C58.6663509,88.9423564 58.2788548,89.5048508 57.7138519,89.9398529 C57.1488491,90.3748551 56.3863567,90.5923529 55.4263519,90.5923529 C54.8963493,90.5923529 54.4088542,90.4998539 53.9638519,90.3148529 C53.5188497,90.129852 53.1363535,89.8673546 52.8163519,89.5273529 C52.4963503,89.1873512 52.2463528,88.7823553 52.0663519,88.3123529 C51.886351,87.8423506 51.7963519,87.3223558 51.7963519,86.7523529 L51.7963519,86.3923529 C51.7963519,85.8723503 51.888851,85.3873552 52.0738519,84.9373529 C52.2588529,84.4873507 52.5163503,84.0998546 52.8463519,83.7748529 C53.1763536,83.4498513 53.5638497,83.1948539 54.0088519,83.0098529 C54.4538542,82.824852 54.9363493,82.7323529 55.4563519,82.7323529 C56.066355,82.7323529 56.5938497,82.8448518 57.0388519,83.0698529 C57.4838542,83.2948541 57.8488505,83.5723513 58.1338519,83.9023529 C58.4188534,84.2323546 58.6288513,84.592351 58.7638519,84.9823529 C58.8988526,85.3723549 58.9663519,85.7323513 58.9663519,86.0623529 L58.9663519,87.0223529 L52.9663519,87.0223529 Z M55.4563519,83.8423529 C55.1263503,83.8423529 54.8188534,83.8948524 54.5338519,83.9998529 C54.2488505,84.1048535 53.998853,84.252352 53.7838519,84.4423529 C53.5688509,84.6323539 53.3938526,84.8548517 53.2588519,85.1098529 C53.1238513,85.3648542 53.0363521,85.6423514 52.9963519,85.9423529 L57.7963519,85.9423529 C57.7763518,85.6223513 57.6988526,85.3323542 57.5638519,85.0723529 C57.4288513,84.8123516 57.253853,84.5923538 57.0388519,84.4123529 C56.8238509,84.232352 56.5788533,84.0923534 56.3038519,83.9923529 C56.0288506,83.8923524 55.7463534,83.8423529 55.4563519,83.8423529 Z M62.4613519,90.3823529 L61.2913519,90.3823529 L61.2913519,82.9423529 L62.4613519,82.9423529 L62.4613519,84.2023529 L62.6413519,84.2023529 C63.1013542,83.222348 63.9013462,82.7323529 65.0413519,82.7323529 C65.9013562,82.7323529 66.5863494,82.9998503 67.0963519,83.5348529 C67.6063545,84.0698556 67.8613519,84.8723476 67.8613519,85.9423529 L67.8613519,90.3823529 L66.6913519,90.3823529 L66.6913519,86.1823529 C66.6913519,85.402349 66.5163537,84.8173549 66.1663519,84.4273529 C65.8163502,84.037351 65.3413549,83.8423529 64.7413519,83.8423529 C64.0313484,83.8423529 63.473854,84.0848505 63.0688519,84.5698529 C62.6638499,85.0548554 62.4613519,85.7023489 62.4613519,86.5123529 L62.4613519,90.3823529 Z M70.2163519,82.9423529 L72.5563519,82.9423529 L72.5563519,79.8823529 L73.7263519,79.8823529 L73.7263519,82.9423529 L76.6063519,82.9423529 L76.6063519,84.0223529 L73.7263519,84.0223529 L73.7263519,88.8523529 C73.7263519,89.1523544 73.8613506,89.3023529 74.1313519,89.3023529 L76.2463519,89.3023529 L76.2463519,90.3823529 L73.7113519,90.3823529 C73.3713502,90.3823529 73.093853,90.272354 72.8788519,90.0523529 C72.6638509,89.8323518 72.5563519,89.5523546 72.5563519,89.2123529 L72.5563519,84.0223529 L70.2163519,84.0223529 L70.2163519,82.9423529 Z M81.9613519,80.7223529 C81.9613519,80.4323515 82.0638509,80.184854 82.2688519,79.9798529 C82.473853,79.7748519 82.7213505,79.6723529 83.0113519,79.6723529 C83.3013534,79.6723529 83.5488509,79.7748519 83.7538519,79.9798529 C83.958853,80.184854 84.0613519,80.4323515 84.0613519,80.7223529 C84.0613519,81.0123544 83.958853,81.2598519 83.7538519,81.4648529 C83.5488509,81.669854 83.3013534,81.7723529 83.0113519,81.7723529 C82.7213505,81.7723529 82.473853,81.669854 82.2688519,81.4648529 C82.0638509,81.2598519 81.9613519,81.0123544 81.9613519,80.7223529 Z M79.8313519,89.3023529 L82.4413519,89.3023529 L82.4413519,84.0223529 L80.1013519,84.0223529 L80.1013519,82.9423529 L83.6113519,82.9423529 L83.6113519,89.3023529 L86.0413519,89.3023529 L86.0413519,90.3823529 L79.8313519,90.3823529 L79.8313519,89.3023529 Z M88.7563519,82.9423529 L91.0513519,82.9423529 L91.0513519,81.0523529 C91.0513519,80.7123512 91.1588509,80.432354 91.3738519,80.2123529 C91.588853,79.9923518 91.8663502,79.8823529 92.2063519,79.8823529 L95.1463519,79.8823529 L95.1463519,80.9623529 L92.6263519,80.9623529 C92.3563506,80.9623529 92.2213519,81.1123514 92.2213519,81.4123529 L92.2213519,82.9423529 L95.3263519,82.9423529 L95.3263519,84.0223529 L92.2213519,84.0223529 L92.2213519,90.3823529 L91.0513519,90.3823529 L91.0513519,84.0223529 L88.7563519,84.0223529 L88.7563519,82.9423529 Z M103.411352,89.0323529 L103.231352,89.0323529 C102.991351,89.5123553 102.676354,89.8923515 102.286352,90.1723529 C101.89635,90.4523543 101.401355,90.5923529 100.801352,90.5923529 C100.39135,90.5923529 100.013854,90.5248536 99.6688519,90.3898529 C99.3238502,90.2548523 99.0288532,90.0523543 98.7838519,89.7823529 C98.5388507,89.5123516 98.3488526,89.1773549 98.2138519,88.7773529 C98.0788513,88.3773509 98.0113519,87.9123556 98.0113519,87.3823529 L98.0113519,82.9423529 L99.1813519,82.9423529 L99.1813519,87.2323529 C99.1813519,88.0123568 99.3413503,88.5823511 99.6613519,88.9423529 C99.9813535,89.3023547 100.471349,89.4823529 101.131352,89.4823529 C101.841355,89.4823529 102.39885,89.2398554 102.803852,88.7548529 C103.208854,88.2698505 103.411352,87.622357 103.411352,86.8123529 L103.411352,82.9423529 L104.581352,82.9423529 L104.581352,92.2123529 C104.581352,92.5523546 104.473853,92.8323518 104.258852,93.0523529 C104.043851,93.272354 103.766354,93.3823529 103.426352,93.3823529 L99.1813519,93.3823529 L99.1813519,92.3023529 L103.006352,92.3023529 C103.276353,92.3023529 103.411352,92.1523544 103.411352,91.8523529 L103.411352,89.0323529 Z M121.771352,89.1223529 L121.591352,89.1223529 C121.351351,89.6223554 121.018854,89.9923517 120.593852,90.2323529 C120.16885,90.4723541 119.721354,90.5923529 119.251352,90.5923529 C118.761349,90.5923529 118.306354,90.5098538 117.886352,90.3448529 C117.46635,90.1798521 117.098854,89.9348546 116.783852,89.6098529 C116.46885,89.2848513 116.221353,88.8873553 116.041352,88.4173529 C115.861351,87.9473506 115.771352,87.402356 115.771352,86.7823529 L115.771352,86.5423529 C115.771352,85.9323499 115.861351,85.3923553 116.041352,84.9223529 C116.221353,84.4523506 116.46885,84.0548546 116.783852,83.7298529 C117.098854,83.4048513 117.46635,83.1573538 117.886352,82.9873529 C118.306354,82.8173521 118.75135,82.7323529 119.221352,82.7323529 C119.731354,82.7323529 120.19385,82.8448518 120.608852,83.0698529 C121.023854,83.2948541 121.351351,83.6423506 121.591352,84.1123529 L121.771352,84.1123529 L121.771352,82.9423529 L122.941352,82.9423529 L122.941352,88.8523529 C122.941352,89.1523544 123.076351,89.3023529 123.346352,89.3023529 L123.721352,89.3023529 L123.721352,90.3823529 L122.926352,90.3823529 C122.58635,90.3823529 122.308853,90.272354 122.093852,90.0523529 C121.878851,89.8323518 121.771352,89.5523546 121.771352,89.2123529 L121.771352,89.1223529 Z M119.371352,89.4823529 C119.721354,89.4823529 120.04385,89.4173536 120.338852,89.2873529 C120.633853,89.1573523 120.886351,88.9723541 121.096352,88.7323529 C121.306353,88.4923517 121.471351,88.2048546 121.591352,87.8698529 C121.711353,87.5348513 121.771352,87.162355 121.771352,86.7523529 L121.771352,86.5723529 C121.771352,86.1723509 121.711353,85.8048546 121.591352,85.4698529 C121.471351,85.1348513 121.303853,84.8473541 121.088852,84.6073529 C120.873851,84.3673517 120.618853,84.1798536 120.323852,84.0448529 C120.02885,83.9098523 119.711354,83.8423529 119.371352,83.8423529 C119.02135,83.8423529 118.701353,83.9073523 118.411352,84.0373529 C118.12135,84.1673536 117.868853,84.3498518 117.653852,84.5848529 C117.438851,84.8198541 117.271353,85.1048513 117.151352,85.4398529 C117.031351,85.7748546 116.971352,86.1423509 116.971352,86.5423529 L116.971352,86.7823529 C116.971352,87.6323572 117.19385,88.2948506 117.638852,88.7698529 C118.083854,89.2448553 118.661348,89.4823529 119.371352,89.4823529 Z M141.886352,90.3823529 L140.716352,90.3823529 L140.716352,85.0423529 C140.716352,84.6923512 140.636353,84.4048541 140.476352,84.1798529 C140.316351,83.9548518 140.061354,83.8423529 139.711352,83.8423529 C139.38135,83.8423529 139.113853,83.9648517 138.908852,84.2098529 C138.703851,84.4548542 138.601352,84.8323504 138.601352,85.3423529 L138.601352,90.3823529 L137.431352,90.3823529 L137.431352,84.9823529 C137.431352,84.6523513 137.341353,84.379854 137.161352,84.1648529 C136.981351,83.9498519 136.741353,83.8423529 136.441352,83.8423529 C136.08135,83.8423529 135.803853,83.9723516 135.608852,84.2323529 C135.413851,84.4923542 135.316352,84.8323508 135.316352,85.2523529 L135.316352,90.3823529 L134.146352,90.3823529 L134.146352,82.9423529 L135.316352,82.9423529 L135.316352,83.7523529 L135.496352,83.7523529 C135.626353,83.4023512 135.816351,83.1448538 136.066352,82.9798529 C136.316353,82.8148521 136.61135,82.7323529 136.951352,82.7323529 C137.311354,82.7323529 137.608851,82.827352 137.843852,83.0173529 C138.078853,83.2073539 138.241351,83.4523514 138.331352,83.7523529 L138.511352,83.7523529 C138.851354,83.0723495 139.391348,82.7323529 140.131352,82.7323529 C140.691355,82.7323529 141.12385,82.9098512 141.428852,83.2648529 C141.733853,83.6198547 141.886352,84.0823501 141.886352,84.6523529 L141.886352,90.3823529 Z M150.931352,86.7523529 C150.931352,87.372356 150.828853,87.9198506 150.623852,88.3948529 C150.418851,88.8698553 150.146354,89.2698513 149.806352,89.5948529 C149.46635,89.9198546 149.068854,90.1673521 148.613852,90.3373529 C148.15885,90.5073538 147.686354,90.5923529 147.196352,90.5923529 C146.696349,90.5923529 146.221354,90.5073538 145.771352,90.3373529 C145.32135,90.1673521 144.926354,89.9198546 144.586352,89.5948529 C144.24635,89.2698513 143.973853,88.8698553 143.768852,88.3948529 C143.563851,87.9198506 143.461352,87.372356 143.461352,86.7523529 L143.461352,86.5723529 C143.461352,85.9623499 143.563851,85.4198553 143.768852,84.9448529 C143.973853,84.4698506 144.24885,84.0673546 144.593852,83.7373529 C144.938854,83.4073513 145.33635,83.1573538 145.786352,82.9873529 C146.236354,82.8173521 146.706349,82.7323529 147.196352,82.7323529 C147.686354,82.7323529 148.15635,82.8173521 148.606352,82.9873529 C149.056354,83.1573538 149.45385,83.4073513 149.798852,83.7373529 C150.143854,84.0673546 150.418851,84.4698506 150.623852,84.9448529 C150.828853,85.4198553 150.931352,85.9623499 150.931352,86.5723529 L150.931352,86.7523529 Z M147.196352,89.4823529 C147.556354,89.4823529 147.88885,89.4198536 148.193852,89.2948529 C148.498853,89.1698523 148.766351,88.9873541 148.996352,88.7473529 C149.226353,88.5073517 149.406351,88.2198546 149.536352,87.8848529 C149.666353,87.5498513 149.731352,87.172355 149.731352,86.7523529 L149.731352,86.5723529 C149.731352,86.1723509 149.666353,85.8048546 149.536352,85.4698529 C149.406351,85.1348513 149.226353,84.8473541 148.996352,84.6073529 C148.766351,84.3673517 148.496353,84.1798536 148.186352,84.0448529 C147.87635,83.9098523 147.546354,83.8423529 147.196352,83.8423529 C146.84635,83.8423529 146.516353,83.9098523 146.206352,84.0448529 C145.89635,84.1798536 145.626353,84.3673517 145.396352,84.6073529 C145.166351,84.8473541 144.986353,85.1348513 144.856352,85.4698529 C144.726351,85.8048546 144.661352,86.1723509 144.661352,86.5723529 L144.661352,86.7523529 C144.661352,87.172355 144.726351,87.5498513 144.856352,87.8848529 C144.986353,88.2198546 145.166351,88.5073517 145.396352,88.7473529 C145.626353,88.9873541 145.89385,89.1698523 146.198852,89.2948529 C146.503853,89.4198536 146.83635,89.4823529 147.196352,89.4823529 Z M158.851352,89.2423529 L158.671352,89.2423529 C158.551351,89.4723541 158.398853,89.6723521 158.213852,89.8423529 C158.028851,90.0123538 157.828853,90.1523524 157.613852,90.2623529 C157.398851,90.3723535 157.171353,90.4548527 156.931352,90.5098529 C156.691351,90.5648532 156.461353,90.5923529 156.241352,90.5923529 C155.741349,90.5923529 155.276354,90.5073538 154.846352,90.3373529 C154.41635,90.1673521 154.038854,89.9223545 153.713852,89.6023529 C153.38885,89.2823513 153.133853,88.8848553 152.948852,88.4098529 C152.763851,87.9348506 152.671352,87.392356 152.671352,86.7823529 L152.671352,86.5423529 C152.671352,85.9423499 152.766351,85.4048553 152.956352,84.9298529 C153.146353,84.4548506 153.40135,84.0548546 153.721352,83.7298529 C154.041354,83.4048513 154.41635,83.1573538 154.846352,82.9873529 C155.276354,82.8173521 155.73135,82.7323529 156.211352,82.7323529 C156.721354,82.7323529 157.19885,82.8448518 157.643852,83.0698529 C158.088854,83.2948541 158.431351,83.6423506 158.671352,84.1123529 L158.851352,84.1123529 L158.851352,79.8823529 L160.021352,79.8823529 L160.021352,90.3823529 L158.851352,90.3823529 L158.851352,89.2423529 Z M156.361352,89.4823529 C156.711354,89.4823529 157.03635,89.4173536 157.336352,89.2873529 C157.636353,89.1573523 157.898851,88.9723541 158.123852,88.7323529 C158.348853,88.4923517 158.526351,88.2048546 158.656352,87.8698529 C158.786353,87.5348513 158.851352,87.162355 158.851352,86.7523529 L158.851352,86.5723529 C158.851352,86.1723509 158.786353,85.8048546 158.656352,85.4698529 C158.526351,85.1348513 158.348853,84.8473541 158.123852,84.6073529 C157.898851,84.3673517 157.633853,84.1798536 157.328852,84.0448529 C157.02385,83.9098523 156.701354,83.8423529 156.361352,83.8423529 C156.01135,83.8423529 155.683853,83.9073523 155.378852,84.0373529 C155.07385,84.1673536 154.808853,84.3523517 154.583852,84.5923529 C154.358851,84.8323541 154.183853,85.1173513 154.058852,85.4473529 C153.933851,85.7773546 153.871352,86.1423509 153.871352,86.5423529 L153.871352,86.7823529 C153.871352,87.202355 153.933851,87.5773513 154.058852,87.9073529 C154.183853,88.2373546 154.358851,88.5198518 154.583852,88.7548529 C154.808853,88.9898541 155.07135,89.1698523 155.371352,89.2948529 C155.671353,89.4198536 156.00135,89.4823529 156.361352,89.4823529 Z M163.126352,87.0223529 C163.156352,87.7623566 163.38635,88.3573507 163.816352,88.8073529 C164.246354,89.2573552 164.846348,89.4823529 165.616352,89.4823529 C165.966354,89.4823529 166.271351,89.4423533 166.531352,89.3623529 C166.791353,89.2823525 167.013851,89.1723536 167.198852,89.0323529 C167.383853,88.8923522 167.533851,88.7298539 167.648852,88.5448529 C167.763853,88.359852 167.856352,88.162354 167.926352,87.9523529 L169.036352,88.2523529 C168.826351,88.9423564 168.438855,89.5048508 167.873852,89.9398529 C167.308849,90.3748551 166.546357,90.5923529 165.586352,90.5923529 C165.056349,90.5923529 164.568854,90.4998539 164.123852,90.3148529 C163.67885,90.129852 163.296354,89.8673546 162.976352,89.5273529 C162.65635,89.1873512 162.406353,88.7823553 162.226352,88.3123529 C162.046351,87.8423506 161.956352,87.3223558 161.956352,86.7523529 L161.956352,86.3923529 C161.956352,85.8723503 162.048851,85.3873552 162.233852,84.9373529 C162.418853,84.4873507 162.67635,84.0998546 163.006352,83.7748529 C163.336354,83.4498513 163.72385,83.1948539 164.168852,83.0098529 C164.613854,82.824852 165.096349,82.7323529 165.616352,82.7323529 C166.226355,82.7323529 166.75385,82.8448518 167.198852,83.0698529 C167.643854,83.2948541 168.008851,83.5723513 168.293852,83.9023529 C168.578853,84.2323546 168.788851,84.592351 168.923852,84.9823529 C169.058853,85.3723549 169.126352,85.7323513 169.126352,86.0623529 L169.126352,87.0223529 L163.126352,87.0223529 Z M165.616352,83.8423529 C165.28635,83.8423529 164.978853,83.8948524 164.693852,83.9998529 C164.408851,84.1048535 164.158853,84.252352 163.943852,84.4423529 C163.728851,84.6323539 163.553853,84.8548517 163.418852,85.1098529 C163.283851,85.3648542 163.196352,85.6423514 163.156352,85.9423529 L167.956352,85.9423529 C167.936352,85.6223513 167.858853,85.3323542 167.723852,85.0723529 C167.588851,84.8123516 167.413853,84.5923538 167.198852,84.4123529 C166.983851,84.232352 166.738853,84.0923534 166.463852,83.9923529 C166.188851,83.8923524 165.906353,83.8423529 165.616352,83.8423529 Z M171.451352,89.3023529 L174.151352,89.3023529 L174.151352,80.9623529 L171.541352,80.9623529 L171.541352,79.8823529 L175.321352,79.8823529 L175.321352,89.3023529 L178.021352,89.3023529 L178.021352,90.3823529 L171.451352,90.3823529 L171.451352,89.3023529 Z M180.631352,89.3023529 L183.331352,89.3023529 L183.331352,80.9623529 L180.721352,80.9623529 L180.721352,79.8823529 L184.501352,79.8823529 L184.501352,89.3023529 L187.201352,89.3023529 L187.201352,90.3823529 L180.631352,90.3823529 L180.631352,89.3023529 Z M192.121352,80.7223529 C192.121352,80.4323515 192.223851,80.184854 192.428852,79.9798529 C192.633853,79.7748519 192.88135,79.6723529 193.171352,79.6723529 C193.461353,79.6723529 193.708851,79.7748519 193.913852,79.9798529 C194.118853,80.184854 194.221352,80.4323515 194.221352,80.7223529 C194.221352,81.0123544 194.118853,81.2598519 193.913852,81.4648529 C193.708851,81.669854 193.461353,81.7723529 193.171352,81.7723529 C192.88135,81.7723529 192.633853,81.669854 192.428852,81.4648529 C192.223851,81.2598519 192.121352,81.0123544 192.121352,80.7223529 Z M189.991352,89.3023529 L192.601352,89.3023529 L192.601352,84.0223529 L190.261352,84.0223529 L190.261352,82.9423529 L193.771352,82.9423529 L193.771352,89.3023529 L196.201352,89.3023529 L196.201352,90.3823529 L189.991352,90.3823529 L189.991352,89.3023529 Z M200.161352,90.3823529 L198.991352,90.3823529 L198.991352,82.9423529 L200.161352,82.9423529 L200.161352,84.2023529 L200.341352,84.2023529 C200.801354,83.222348 201.601346,82.7323529 202.741352,82.7323529 C203.601356,82.7323529 204.286349,82.9998503 204.796352,83.5348529 C205.306354,84.0698556 205.561352,84.8723476 205.561352,85.9423529 L205.561352,90.3823529 L204.391352,90.3823529 L204.391352,86.1823529 C204.391352,85.402349 204.216354,84.8173549 203.866352,84.4273529 C203.51635,84.037351 203.041355,83.8423529 202.441352,83.8423529 C201.731348,83.8423529 201.173854,84.0848505 200.768852,84.5698529 C200.36385,85.0548554 200.161352,85.7023489 200.161352,86.5123529 L200.161352,90.3823529 Z M213.826352,89.2423529 L213.646352,89.2423529 C213.406351,89.6923552 213.078854,90.0298518 212.663852,90.2548529 C212.24885,90.4798541 211.796354,90.5923529 211.306352,90.5923529 C210.806349,90.5923529 210.336354,90.5073538 209.896352,90.3373529 C209.45635,90.1673521 209.068854,89.9223545 208.733852,89.6023529 C208.39885,89.2823513 208.133853,88.8848553 207.938852,88.4098529 C207.743851,87.9348506 207.646352,87.392356 207.646352,86.7823529 L207.646352,86.5423529 C207.646352,85.9423499 207.746351,85.4048553 207.946352,84.9298529 C208.146353,84.4548506 208.41135,84.0548546 208.741352,83.7298529 C209.071354,83.4048513 209.45635,83.1573538 209.896352,82.9873529 C210.336354,82.8173521 210.79635,82.7323529 211.276352,82.7323529 C211.816355,82.7323529 212.28885,82.8498518 212.693852,83.0848529 C213.098854,83.3198541 213.416351,83.6623507 213.646352,84.1123529 L213.826352,84.1123529 L213.826352,82.9423529 L214.996352,82.9423529 L214.996352,92.2123529 C214.996352,92.5523546 214.888853,92.8323518 214.673852,93.0523529 C214.458851,93.272354 214.181354,93.3823529 213.841352,93.3823529 L208.996352,93.3823529 L208.996352,92.3023529 L213.421352,92.3023529 C213.691353,92.3023529 213.826352,92.1523544 213.826352,91.8523529 L213.826352,89.2423529 Z M211.336352,89.4823529 C211.686354,89.4823529 212.01135,89.4173536 212.311352,89.2873529 C212.611353,89.1573523 212.873851,88.9723541 213.098852,88.7323529 C213.323853,88.4923517 213.501351,88.2048546 213.631352,87.8698529 C213.761353,87.5348513 213.826352,87.162355 213.826352,86.7523529 L213.826352,86.5723529 C213.826352,86.1723509 213.761353,85.8048546 213.631352,85.4698529 C213.501351,85.1348513 213.323853,84.8473541 213.098852,84.6073529 C212.873851,84.3673517 212.608853,84.1798536 212.303852,84.0448529 C211.99885,83.9098523 211.676354,83.8423529 211.336352,83.8423529 C210.98635,83.8423529 210.658853,83.9073523 210.353852,84.0373529 C210.04885,84.1673536 209.783853,84.3523517 209.558852,84.5923529 C209.333851,84.8323541 209.158853,85.1173513 209.033852,85.4473529 C208.908851,85.7773546 208.846352,86.1423509 208.846352,86.5423529 L208.846352,86.7823529 C208.846352,87.202355 208.908851,87.5773513 209.033852,87.9073529 C209.158853,88.2373546 209.333851,88.5198518 209.558852,88.7548529 C209.783853,88.9898541 210.04635,89.1698523 210.346352,89.2948529 C210.646353,89.4198536 210.97635,89.4823529 211.336352,89.4823529 Z M227.431352,93.3823529 L226.261352,93.3823529 L226.261352,82.9423529 L227.431352,82.9423529 L227.431352,84.1123529 L227.611352,84.1123529 C227.871353,83.6623507 228.23135,83.3198541 228.691352,83.0848529 C229.151354,82.8498518 229.651349,82.7323529 230.191352,82.7323529 C230.651354,82.7323529 231.08635,82.8173521 231.496352,82.9873529 C231.906354,83.1573538 232.26885,83.4023513 232.583852,83.7223529 C232.898854,84.0423545 233.148851,84.4373506 233.333852,84.9073529 C233.518853,85.3773553 233.611352,85.9123499 233.611352,86.5123529 L233.611352,86.8123529 C233.611352,87.422356 233.521353,87.9623506 233.341352,88.4323529 C233.161351,88.9023553 232.913854,89.2973513 232.598852,89.6173529 C232.28385,89.9373545 231.916354,90.1798521 231.496352,90.3448529 C231.07635,90.5098538 230.631354,90.5923529 230.161352,90.5923529 C229.921351,90.5923529 229.676353,90.5648532 229.426352,90.5098529 C229.176351,90.4548527 228.938853,90.3698535 228.713852,90.2548529 C228.488851,90.1398524 228.281353,89.9998538 228.091352,89.8348529 C227.901351,89.6698521 227.741353,89.4723541 227.611352,89.2423529 L227.431352,89.2423529 L227.431352,93.3823529 Z M229.921352,89.4823529 C230.281354,89.4823529 230.61135,89.4198536 230.911352,89.2948529 C231.211353,89.1698523 231.473851,88.9923541 231.698852,88.7623529 C231.923853,88.5323518 232.098851,88.2523546 232.223852,87.9223529 C232.348853,87.5923513 232.411352,87.222355 232.411352,86.8123529 L232.411352,86.5123529 C232.411352,86.1123509 232.348853,85.7498546 232.223852,85.4248529 C232.098851,85.0998513 231.923853,84.8198541 231.698852,84.5848529 C231.473851,84.3498518 231.208853,84.1673536 230.903852,84.0373529 C230.59885,83.9073523 230.271354,83.8423529 229.921352,83.8423529 C229.57135,83.8423529 229.246353,83.9098523 228.946352,84.0448529 C228.64635,84.1798536 228.383853,84.3673517 228.158852,84.6073529 C227.933851,84.8473541 227.756353,85.1348513 227.626352,85.4698529 C227.496351,85.8048546 227.431352,86.1723509 227.431352,86.5723529 L227.431352,86.7523529 C227.431352,87.162355 227.496351,87.5348513 227.626352,87.8698529 C227.756353,88.2048546 227.933851,88.4923517 228.158852,88.7323529 C228.383853,88.9723541 228.64635,89.1573523 228.946352,89.2873529 C229.246353,89.4173536 229.57135,89.4823529 229.921352,89.4823529 Z M235.291352,82.9423529 L237.991352,82.9423529 L237.991352,83.9323529 L238.171352,83.9323529 C238.361353,83.5223509 238.63135,83.2198539 238.981352,83.0248529 C239.331354,82.829852 239.73135,82.7323529 240.181352,82.7323529 C240.931356,82.7323529 241.53635,82.9773505 241.996352,83.4673529 C242.456354,83.9573554 242.701352,84.6723482 242.731352,85.6123529 L241.501352,85.7923529 C241.501352,85.1023495 241.336354,84.6048545 241.006352,84.2998529 C240.67635,83.9948514 240.271354,83.8423529 239.791352,83.8423529 C239.48135,83.8423529 239.213853,83.9023523 238.988852,84.0223529 C238.763851,84.1423535 238.576353,84.3073519 238.426352,84.5173529 C238.276351,84.727354 238.166352,84.9723515 238.096352,85.2523529 C238.026352,85.5323543 237.991352,85.8323513 237.991352,86.1523529 L237.991352,89.3023529 L239.881352,89.3023529 L239.881352,90.3823529 L235.111352,90.3823529 L235.111352,89.3023529 L236.821352,89.3023529 L236.821352,84.0223529 L235.291352,84.0223529 L235.291352,82.9423529 Z M251.911352,86.7523529 C251.911352,87.372356 251.808853,87.9198506 251.603852,88.3948529 C251.398851,88.8698553 251.126354,89.2698513 250.786352,89.5948529 C250.44635,89.9198546 250.048854,90.1673521 249.593852,90.3373529 C249.13885,90.5073538 248.666354,90.5923529 248.176352,90.5923529 C247.676349,90.5923529 247.201354,90.5073538 246.751352,90.3373529 C246.30135,90.1673521 245.906354,89.9198546 245.566352,89.5948529 C245.22635,89.2698513 244.953853,88.8698553 244.748852,88.3948529 C244.543851,87.9198506 244.441352,87.372356 244.441352,86.7523529 L244.441352,86.5723529 C244.441352,85.9623499 244.543851,85.4198553 244.748852,84.9448529 C244.953853,84.4698506 245.22885,84.0673546 245.573852,83.7373529 C245.918854,83.4073513 246.31635,83.1573538 246.766352,82.9873529 C247.216354,82.8173521 247.686349,82.7323529 248.176352,82.7323529 C248.666354,82.7323529 249.13635,82.8173521 249.586352,82.9873529 C250.036354,83.1573538 250.43385,83.4073513 250.778852,83.7373529 C251.123854,84.0673546 251.398851,84.4698506 251.603852,84.9448529 C251.808853,85.4198553 251.911352,85.9623499 251.911352,86.5723529 L251.911352,86.7523529 Z M248.176352,89.4823529 C248.536354,89.4823529 248.86885,89.4198536 249.173852,89.2948529 C249.478853,89.1698523 249.746351,88.9873541 249.976352,88.7473529 C250.206353,88.5073517 250.386351,88.2198546 250.516352,87.8848529 C250.646353,87.5498513 250.711352,87.172355 250.711352,86.7523529 L250.711352,86.5723529 C250.711352,86.1723509 250.646353,85.8048546 250.516352,85.4698529 C250.386351,85.1348513 250.206353,84.8473541 249.976352,84.6073529 C249.746351,84.3673517 249.476353,84.1798536 249.166352,84.0448529 C248.85635,83.9098523 248.526354,83.8423529 248.176352,83.8423529 C247.82635,83.8423529 247.496353,83.9098523 247.186352,84.0448529 C246.87635,84.1798536 246.606353,84.3673517 246.376352,84.6073529 C246.146351,84.8473541 245.966353,85.1348513 245.836352,85.4698529 C245.706351,85.8048546 245.641352,86.1723509 245.641352,86.5723529 L245.641352,86.7523529 C245.641352,87.172355 245.706351,87.5498513 245.836352,87.8848529 C245.966353,88.2198546 246.146351,88.5073517 246.376352,88.7473529 C246.606353,88.9873541 246.87385,89.1698523 247.178852,89.2948529 C247.483853,89.4198536 247.81635,89.4823529 248.176352,89.4823529 Z M254.971352,90.3823529 L253.801352,90.3823529 L253.801352,79.8823529 L254.971352,79.8823529 L254.971352,84.1123529 L255.151352,84.1123529 C255.411353,83.6623507 255.77135,83.3198541 256.231352,83.0848529 C256.691354,82.8498518 257.191349,82.7323529 257.731352,82.7323529 C258.191354,82.7323529 258.62635,82.8173521 259.036352,82.9873529 C259.446354,83.1573538 259.80885,83.4023513 260.123852,83.7223529 C260.438854,84.0423545 260.688851,84.4373506 260.873852,84.9073529 C261.058853,85.3773553 261.151352,85.9123499 261.151352,86.5123529 L261.151352,86.8123529 C261.151352,87.422356 261.061353,87.9623506 260.881352,88.4323529 C260.701351,88.9023553 260.453854,89.2973513 260.138852,89.6173529 C259.82385,89.9373545 259.456354,90.1798521 259.036352,90.3448529 C258.61635,90.5098538 258.171354,90.5923529 257.701352,90.5923529 C257.461351,90.5923529 257.216353,90.5648532 256.966352,90.5098529 C256.716351,90.4548527 256.478853,90.3698535 256.253852,90.2548529 C256.028851,90.1398524 255.821353,89.9998538 255.631352,89.8348529 C255.441351,89.6698521 255.281353,89.4723541 255.151352,89.2423529 L254.971352,89.2423529 L254.971352,90.3823529 Z M257.461352,89.4823529 C257.821354,89.4823529 258.15135,89.4198536 258.451352,89.2948529 C258.751353,89.1698523 259.013851,88.9923541 259.238852,88.7623529 C259.463853,88.5323518 259.638851,88.2523546 259.763852,87.9223529 C259.888853,87.5923513 259.951352,87.222355 259.951352,86.8123529 L259.951352,86.5123529 C259.951352,86.1123509 259.888853,85.7498546 259.763852,85.4248529 C259.638851,85.0998513 259.463853,84.8198541 259.238852,84.5848529 C259.013851,84.3498518 258.748853,84.1673536 258.443852,84.0373529 C258.13885,83.9073523 257.811354,83.8423529 257.461352,83.8423529 C257.11135,83.8423529 256.786353,83.9098523 256.486352,84.0448529 C256.18635,84.1798536 255.923853,84.3673517 255.698852,84.6073529 C255.473851,84.8473541 255.296353,85.1348513 255.166352,85.4698529 C255.036351,85.8048546 254.971352,86.1723509 254.971352,86.5723529 L254.971352,86.7523529 C254.971352,87.162355 255.036351,87.5348513 255.166352,87.8698529 C255.296353,88.2048546 255.473851,88.4923517 255.698852,88.7323529 C255.923853,88.9723541 256.18635,89.1573523 256.486352,89.2873529 C256.786353,89.4173536 257.11135,89.4823529 257.461352,89.4823529 Z M263.251352,89.3023529 L265.951352,89.3023529 L265.951352,80.9623529 L263.341352,80.9623529 L263.341352,79.8823529 L267.121352,79.8823529 L267.121352,89.3023529 L269.821352,89.3023529 L269.821352,90.3823529 L263.251352,90.3823529 L263.251352,89.3023529 Z M273.286352,87.0223529 C273.316352,87.7623566 273.54635,88.3573507 273.976352,88.8073529 C274.406354,89.2573552 275.006348,89.4823529 275.776352,89.4823529 C276.126354,89.4823529 276.431351,89.4423533 276.691352,89.3623529 C276.951353,89.2823525 277.173851,89.1723536 277.358852,89.0323529 C277.543853,88.8923522 277.693851,88.7298539 277.808852,88.5448529 C277.923853,88.359852 278.016352,88.162354 278.086352,87.9523529 L279.196352,88.2523529 C278.986351,88.9423564 278.598855,89.5048508 278.033852,89.9398529 C277.468849,90.3748551 276.706357,90.5923529 275.746352,90.5923529 C275.216349,90.5923529 274.728854,90.4998539 274.283852,90.3148529 C273.83885,90.129852 273.456354,89.8673546 273.136352,89.5273529 C272.81635,89.1873512 272.566353,88.7823553 272.386352,88.3123529 C272.206351,87.8423506 272.116352,87.3223558 272.116352,86.7523529 L272.116352,86.3923529 C272.116352,85.8723503 272.208851,85.3873552 272.393852,84.9373529 C272.578853,84.4873507 272.83635,84.0998546 273.166352,83.7748529 C273.496354,83.4498513 273.88385,83.1948539 274.328852,83.0098529 C274.773854,82.824852 275.256349,82.7323529 275.776352,82.7323529 C276.386355,82.7323529 276.91385,82.8448518 277.358852,83.0698529 C277.803854,83.2948541 278.168851,83.5723513 278.453852,83.9023529 C278.738853,84.2323546 278.948851,84.592351 279.083852,84.9823529 C279.218853,85.3723549 279.286352,85.7323513 279.286352,86.0623529 L279.286352,87.0223529 L273.286352,87.0223529 Z M275.776352,83.8423529 C275.44635,83.8423529 275.138853,83.8948524 274.853852,83.9998529 C274.568851,84.1048535 274.318853,84.252352 274.103852,84.4423529 C273.888851,84.6323539 273.713853,84.8548517 273.578852,85.1098529 C273.443851,85.3648542 273.356352,85.6423514 273.316352,85.9423529 L278.116352,85.9423529 C278.096352,85.6223513 278.018853,85.3323542 277.883852,85.0723529 C277.748851,84.8123516 277.573853,84.5923538 277.358852,84.4123529 C277.143851,84.232352 276.898853,84.0923534 276.623852,83.9923529 C276.348851,83.8923524 276.066353,83.8423529 275.776352,83.8423529 Z M288.766352,90.3823529 L287.596352,90.3823529 L287.596352,85.0423529 C287.596352,84.6923512 287.516353,84.4048541 287.356352,84.1798529 C287.196351,83.9548518 286.941354,83.8423529 286.591352,83.8423529 C286.26135,83.8423529 285.993853,83.9648517 285.788852,84.2098529 C285.583851,84.4548542 285.481352,84.8323504 285.481352,85.3423529 L285.481352,90.3823529 L284.311352,90.3823529 L284.311352,84.9823529 C284.311352,84.6523513 284.221353,84.379854 284.041352,84.1648529 C283.861351,83.9498519 283.621353,83.8423529 283.321352,83.8423529 C282.96135,83.8423529 282.683853,83.9723516 282.488852,84.2323529 C282.293851,84.4923542 282.196352,84.8323508 282.196352,85.2523529 L282.196352,90.3823529 L281.026352,90.3823529 L281.026352,82.9423529 L282.196352,82.9423529 L282.196352,83.7523529 L282.376352,83.7523529 C282.506353,83.4023512 282.696351,83.1448538 282.946352,82.9798529 C283.196353,82.8148521 283.49135,82.7323529 283.831352,82.7323529 C284.191354,82.7323529 284.488851,82.827352 284.723852,83.0173529 C284.958853,83.2073539 285.121351,83.4523514 285.211352,83.7523529 L285.391352,83.7523529 C285.731354,83.0723495 286.271348,82.7323529 287.011352,82.7323529 C287.571355,82.7323529 288.00385,82.9098512 288.308852,83.2648529 C288.613853,83.6198547 288.766352,84.0823501 288.766352,84.6523529 L288.766352,90.3823529 Z M299.716352,82.9423529 L302.056352,82.9423529 L302.056352,79.8823529 L303.226352,79.8823529 L303.226352,82.9423529 L306.106352,82.9423529 L306.106352,84.0223529 L303.226352,84.0223529 L303.226352,88.8523529 C303.226352,89.1523544 303.361351,89.3023529 303.631352,89.3023529 L305.746352,89.3023529 L305.746352,90.3823529 L303.211352,90.3823529 C302.87135,90.3823529 302.593853,90.272354 302.378852,90.0523529 C302.163851,89.8323518 302.056352,89.5523546 302.056352,89.2123529 L302.056352,84.0223529 L299.716352,84.0223529 L299.716352,82.9423529 Z M316.171352,86.7523529 C316.171352,87.372356 316.068853,87.9198506 315.863852,88.3948529 C315.658851,88.8698553 315.386354,89.2698513 315.046352,89.5948529 C314.70635,89.9198546 314.308854,90.1673521 313.853852,90.3373529 C313.39885,90.5073538 312.926354,90.5923529 312.436352,90.5923529 C311.936349,90.5923529 311.461354,90.5073538 311.011352,90.3373529 C310.56135,90.1673521 310.166354,89.9198546 309.826352,89.5948529 C309.48635,89.2698513 309.213853,88.8698553 309.008852,88.3948529 C308.803851,87.9198506 308.701352,87.372356 308.701352,86.7523529 L308.701352,86.5723529 C308.701352,85.9623499 308.803851,85.4198553 309.008852,84.9448529 C309.213853,84.4698506 309.48885,84.0673546 309.833852,83.7373529 C310.178854,83.4073513 310.57635,83.1573538 311.026352,82.9873529 C311.476354,82.8173521 311.946349,82.7323529 312.436352,82.7323529 C312.926354,82.7323529 313.39635,82.8173521 313.846352,82.9873529 C314.296354,83.1573538 314.69385,83.4073513 315.038852,83.7373529 C315.383854,84.0673546 315.658851,84.4698506 315.863852,84.9448529 C316.068853,85.4198553 316.171352,85.9623499 316.171352,86.5723529 L316.171352,86.7523529 Z M312.436352,89.4823529 C312.796354,89.4823529 313.12885,89.4198536 313.433852,89.2948529 C313.738853,89.1698523 314.006351,88.9873541 314.236352,88.7473529 C314.466353,88.5073517 314.646351,88.2198546 314.776352,87.8848529 C314.906353,87.5498513 314.971352,87.172355 314.971352,86.7523529 L314.971352,86.5723529 C314.971352,86.1723509 314.906353,85.8048546 314.776352,85.4698529 C314.646351,85.1348513 314.466353,84.8473541 314.236352,84.6073529 C314.006351,84.3673517 313.736353,84.1798536 313.426352,84.0448529 C313.11635,83.9098523 312.786354,83.8423529 312.436352,83.8423529 C312.08635,83.8423529 311.756353,83.9098523 311.446352,84.0448529 C311.13635,84.1798536 310.866353,84.3673517 310.636352,84.6073529 C310.406351,84.8473541 310.226353,85.1348513 310.096352,85.4698529 C309.966351,85.8048546 309.901352,86.1723509 309.901352,86.5723529 L309.901352,86.7523529 C309.901352,87.172355 309.966351,87.5498513 310.096352,87.8848529 C310.226353,88.2198546 310.406351,88.5073517 310.636352,88.7473529 C310.866353,88.9873541 311.13385,89.1698523 311.438852,89.2948529 C311.743853,89.4198536 312.07635,89.4823529 312.436352,89.4823529 Z M329.056352,84.8623529 C329.056352,85.2223547 329.20885,85.497352 329.513852,85.6873529 C329.818853,85.8773539 330.376348,86.0023526 331.186352,86.0623529 C332.056356,86.1323533 332.71885,86.3398512 333.173852,86.6848529 C333.628854,87.0298547 333.856352,87.5323496 333.856352,88.1923529 L333.856352,88.2823529 C333.856352,88.6423547 333.783853,88.9648515 333.638852,89.2498529 C333.493851,89.5348544 333.293853,89.7773519 333.038852,89.9773529 C332.783851,90.1773539 332.473854,90.3298524 332.108852,90.4348529 C331.74385,90.5398535 331.346354,90.5923529 330.916352,90.5923529 C330.336349,90.5923529 329.838854,90.5148537 329.423852,90.3598529 C329.00885,90.2048522 328.663853,89.9998542 328.388852,89.7448529 C328.113851,89.4898517 327.906353,89.1998546 327.766352,88.8748529 C327.626351,88.5498513 327.546352,88.2223546 327.526352,87.8923529 L328.636352,87.6223529 C328.686352,88.1923558 328.90635,88.6498512 329.296352,88.9948529 C329.686354,89.3398547 330.206349,89.5123529 330.856352,89.5123529 C331.406355,89.5123529 331.84885,89.404854 332.183852,89.1898529 C332.518854,88.9748519 332.686352,88.6723549 332.686352,88.2823529 C332.686352,87.8623508 332.521354,87.5623538 332.191352,87.3823529 C331.86135,87.202352 331.326356,87.0873532 330.586352,87.0373529 C329.726348,86.9773526 329.066354,86.7773546 328.606352,86.4373529 C328.14635,86.0973512 327.916352,85.6023562 327.916352,84.9523529 L327.916352,84.8623529 C327.916352,84.5123512 327.991351,84.2048543 328.141352,83.9398529 C328.291353,83.6748516 328.493851,83.4523538 328.748852,83.2723529 C329.003853,83.092352 329.29135,82.9573534 329.611352,82.8673529 C329.931354,82.7773525 330.26635,82.7323529 330.616352,82.7323529 C331.106354,82.7323529 331.53635,82.7998523 331.906352,82.9348529 C332.276354,83.0698536 332.586351,83.2448519 332.836352,83.4598529 C333.086353,83.674854 333.278851,83.9223515 333.413852,84.2023529 C333.548853,84.4823543 333.636352,84.7623515 333.676352,85.0423529 L332.566352,85.3123529 C332.516352,84.8323505 332.323854,84.4573543 331.988852,84.1873529 C331.65385,83.9173516 331.216355,83.7823529 330.676352,83.7823529 C330.466351,83.7823529 330.263853,83.8048527 330.068852,83.8498529 C329.873851,83.8948532 329.701353,83.9623525 329.551352,84.0523529 C329.401351,84.1423534 329.281352,84.2548523 329.191352,84.3898529 C329.101351,84.5248536 329.056352,84.682352 329.056352,84.8623529 Z M343.711352,86.7523529 C343.711352,87.372356 343.608853,87.9198506 343.403852,88.3948529 C343.198851,88.8698553 342.926354,89.2698513 342.586352,89.5948529 C342.24635,89.9198546 341.848854,90.1673521 341.393852,90.3373529 C340.93885,90.5073538 340.466354,90.5923529 339.976352,90.5923529 C339.476349,90.5923529 339.001354,90.5073538 338.551352,90.3373529 C338.10135,90.1673521 337.706354,89.9198546 337.366352,89.5948529 C337.02635,89.2698513 336.753853,88.8698553 336.548852,88.3948529 C336.343851,87.9198506 336.241352,87.372356 336.241352,86.7523529 L336.241352,86.5723529 C336.241352,85.9623499 336.343851,85.4198553 336.548852,84.9448529 C336.753853,84.4698506 337.02885,84.0673546 337.373852,83.7373529 C337.718854,83.4073513 338.11635,83.1573538 338.566352,82.9873529 C339.016354,82.8173521 339.486349,82.7323529 339.976352,82.7323529 C340.466354,82.7323529 340.93635,82.8173521 341.386352,82.9873529 C341.836354,83.1573538 342.23385,83.4073513 342.578852,83.7373529 C342.923854,84.0673546 343.198851,84.4698506 343.403852,84.9448529 C343.608853,85.4198553 343.711352,85.9623499 343.711352,86.5723529 L343.711352,86.7523529 Z M339.976352,89.4823529 C340.336354,89.4823529 340.66885,89.4198536 340.973852,89.2948529 C341.278853,89.1698523 341.546351,88.9873541 341.776352,88.7473529 C342.006353,88.5073517 342.186351,88.2198546 342.316352,87.8848529 C342.446353,87.5498513 342.511352,87.172355 342.511352,86.7523529 L342.511352,86.5723529 C342.511352,86.1723509 342.446353,85.8048546 342.316352,85.4698529 C342.186351,85.1348513 342.006353,84.8473541 341.776352,84.6073529 C341.546351,84.3673517 341.276353,84.1798536 340.966352,84.0448529 C340.65635,83.9098523 340.326354,83.8423529 339.976352,83.8423529 C339.62635,83.8423529 339.296353,83.9098523 338.986352,84.0448529 C338.67635,84.1798536 338.406353,84.3673517 338.176352,84.6073529 C337.946351,84.8473541 337.766353,85.1348513 337.636352,85.4698529 C337.506351,85.8048546 337.441352,86.1723509 337.441352,86.5723529 L337.441352,86.7523529 C337.441352,87.172355 337.506351,87.5498513 337.636352,87.8848529 C337.766353,88.2198546 337.946351,88.5073517 338.176352,88.7473529 C338.406353,88.9873541 338.67385,89.1698523 338.978852,89.2948529 C339.283853,89.4198536 339.61635,89.4823529 339.976352,89.4823529 Z M345.871352,89.3023529 L348.571352,89.3023529 L348.571352,80.9623529 L345.961352,80.9623529 L345.961352,79.8823529 L349.741352,79.8823529 L349.741352,89.3023529 L352.441352,89.3023529 L352.441352,90.3823529 L345.871352,90.3823529 L345.871352,89.3023529 Z M359.476352,90.3823529 L357.166352,90.3823529 L354.571352,82.9423529 L355.951352,82.9423529 L358.231352,89.8423529 L358.411352,89.8423529 L360.691352,82.9423529 L362.071352,82.9423529 L359.476352,90.3823529 Z M365.086352,87.0223529 C365.116352,87.7623566 365.34635,88.3573507 365.776352,88.8073529 C366.206354,89.2573552 366.806348,89.4823529 367.576352,89.4823529 C367.926354,89.4823529 368.231351,89.4423533 368.491352,89.3623529 C368.751353,89.2823525 368.973851,89.1723536 369.158852,89.0323529 C369.343853,88.8923522 369.493851,88.7298539 369.608852,88.5448529 C369.723853,88.359852 369.816352,88.162354 369.886352,87.9523529 L370.996352,88.2523529 C370.786351,88.9423564 370.398855,89.5048508 369.833852,89.9398529 C369.268849,90.3748551 368.506357,90.5923529 367.546352,90.5923529 C367.016349,90.5923529 366.528854,90.4998539 366.083852,90.3148529 C365.63885,90.129852 365.256354,89.8673546 364.936352,89.5273529 C364.61635,89.1873512 364.366353,88.7823553 364.186352,88.3123529 C364.006351,87.8423506 363.916352,87.3223558 363.916352,86.7523529 L363.916352,86.3923529 C363.916352,85.8723503 364.008851,85.3873552 364.193852,84.9373529 C364.378853,84.4873507 364.63635,84.0998546 364.966352,83.7748529 C365.296354,83.4498513 365.68385,83.1948539 366.128852,83.0098529 C366.573854,82.824852 367.056349,82.7323529 367.576352,82.7323529 C368.186355,82.7323529 368.71385,82.8448518 369.158852,83.0698529 C369.603854,83.2948541 369.968851,83.5723513 370.253852,83.9023529 C370.538853,84.2323546 370.748851,84.592351 370.883852,84.9823529 C371.018853,85.3723549 371.086352,85.7323513 371.086352,86.0623529 L371.086352,87.0223529 L365.086352,87.0223529 Z M367.576352,83.8423529 C367.24635,83.8423529 366.938853,83.8948524 366.653852,83.9998529 C366.368851,84.1048535 366.118853,84.252352 365.903852,84.4423529 C365.688851,84.6323539 365.513853,84.8548517 365.378852,85.1098529 C365.243851,85.3648542 365.156352,85.6423514 365.116352,85.9423529 L369.916352,85.9423529 C369.896352,85.6223513 369.818853,85.3323542 369.683852,85.0723529 C369.548851,84.8123516 369.373853,84.5923538 369.158852,84.4123529 C368.943851,84.232352 368.698853,84.0923534 368.423852,83.9923529 C368.148851,83.8923524 367.866353,83.8423529 367.576352,83.8423529 Z" id="Identify-a-modelling" fill="#343434" mask="url(#mask-2)"></path>
            <path d="M41.5713519,37.8602941 L41.5713519,54.3602941 L37.4213519,54.3602941 L37.4213519,42.0852941 C36.1380122,43.2519666 34.8380252,43.9519596 33.5213519,44.1852941 L33.1213519,40.6352941 C33.9713562,40.5352936 34.9171801,40.197797 35.9588519,39.6227941 C37.0005238,39.0477912 37.7296832,38.4602971 38.1463519,37.8602941 L41.5713519,37.8602941 Z" id="1" fill="#FFABCC" mask="url(#mask-2)"></path>
        </g>
    </g>
</svg>