<?xml version="1.0" encoding="UTF-8"?>
<svg width="432px" height="126px" viewBox="0 0 432 126" version="1.1" xmlns="http://www.w3.org/2000/svg" xmlns:xlink="http://www.w3.org/1999/xlink">
    <!-- Generator: Sketch 52.6 (67491) - http://www.bohemiancoding.com/sketch -->
    <title>flow2</title>
    <desc>Created with Sketch.</desc>
    <defs>
        <rect id="path-1" x="0" y="0" width="432" height="126"></rect>
    </defs>
    <g id="Page-4" stroke="none" stroke-width="1" fill="none" fill-rule="evenodd">
        <g id="flow2">
            <mask id="mask-2" fill="white">
                <use xlink:href="#path-1"></use>
            </mask>
            <rect stroke="#F1F1F1" stroke-width="2" x="1" y="1" width="430" height="124"></rect>
            <path d="M0,123 L434,123" id="Line-2" stroke="#FFABCC" stroke-width="6" mask="url(#mask-2)"></path>
            <path d="M33.5413519,79.8823529 L36.9913519,79.8823529 C38.2913584,79.8823529 39.2413489,80.1923498 39.8413519,80.8123529 C40.4413549,81.432356 40.7413519,82.4223461 40.7413519,83.7823529 L40.7413519,86.4823529 C40.7413519,87.8423597 40.4413549,88.8323498 39.8413519,89.4523529 C39.2413489,90.072356 38.2913584,90.3823529 36.9913519,90.3823529 L33.5413519,90.3823529 L33.5413519,89.1973529 L34.4413519,89.1973529 L34.4413519,81.0523529 L33.5413519,81.0523529 L33.5413519,79.8823529 Z M36.8113519,89.2123529 C37.2713542,89.2123529 37.6688503,89.1673534 38.0038519,89.0773529 C38.3388536,88.9873525 38.6163508,88.834854 38.8363519,88.6198529 C39.056353,88.4048519 39.2188514,88.1173547 39.3238519,87.7573529 C39.4288525,87.3973511 39.4813519,86.9423557 39.4813519,86.3923529 L39.4813519,83.8723529 C39.4813519,83.3223502 39.4288525,82.8673547 39.3238519,82.5073529 C39.2188514,82.1473511 39.056353,81.859854 38.8363519,81.6448529 C38.6163508,81.4298519 38.3388536,81.2773534 38.0038519,81.1873529 C37.6688503,81.0973525 37.2713542,81.0523529 36.8113519,81.0523529 L35.7013519,81.0523529 L35.7013519,89.2123529 L36.8113519,89.2123529 Z M43.7863519,87.0223529 C43.8163521,87.7623566 44.0463498,88.3573507 44.4763519,88.8073529 C44.9063541,89.2573552 45.5063481,89.4823529 46.2763519,89.4823529 C46.6263537,89.4823529 46.9313506,89.4423533 47.1913519,89.3623529 C47.4513532,89.2823525 47.673851,89.1723536 47.8588519,89.0323529 C48.0438529,88.8923522 48.1938514,88.7298539 48.3088519,88.5448529 C48.4238525,88.359852 48.5163516,88.162354 48.5863519,87.9523529 L49.6963519,88.2523529 C49.4863509,88.9423564 49.0988548,89.5048508 48.5338519,89.9398529 C47.9688491,90.3748551 47.2063567,90.5923529 46.2463519,90.5923529 C45.7163493,90.5923529 45.2288542,90.4998539 44.7838519,90.3148529 C44.3388497,90.129852 43.9563535,89.8673546 43.6363519,89.5273529 C43.3163503,89.1873512 43.0663528,88.7823553 42.8863519,88.3123529 C42.706351,87.8423506 42.6163519,87.3223558 42.6163519,86.7523529 L42.6163519,86.3923529 C42.6163519,85.8723503 42.708851,85.3873552 42.8938519,84.9373529 C43.0788529,84.4873507 43.3363503,84.0998546 43.6663519,83.7748529 C43.9963536,83.4498513 44.3838497,83.1948539 44.8288519,83.0098529 C45.2738542,82.824852 45.7563493,82.7323529 46.2763519,82.7323529 C46.886355,82.7323529 47.4138497,82.8448518 47.8588519,83.0698529 C48.3038542,83.2948541 48.6688505,83.5723513 48.9538519,83.9023529 C49.2388534,84.2323546 49.4488513,84.592351 49.5838519,84.9823529 C49.7188526,85.3723549 49.7863519,85.7323513 49.7863519,86.0623529 L49.7863519,87.0223529 L43.7863519,87.0223529 Z M46.2763519,83.8423529 C45.9463503,83.8423529 45.6388534,83.8948524 45.3538519,83.9998529 C45.0688505,84.1048535 44.818853,84.252352 44.6038519,84.4423529 C44.3888509,84.6323539 44.2138526,84.8548517 44.0788519,85.1098529 C43.9438513,85.3648542 43.8563521,85.6423514 43.8163519,85.9423529 L48.6163519,85.9423529 C48.5963518,85.6223513 48.5188526,85.3323542 48.3838519,85.0723529 C48.2488513,84.8123516 48.073853,84.5923538 47.8588519,84.4123529 C47.6438509,84.232352 47.3988533,84.0923534 47.1238519,83.9923529 C46.8488506,83.8923524 46.5663534,83.8423529 46.2763519,83.8423529 Z M53.6563519,84.8623529 C53.6563519,85.2223547 53.8088504,85.497352 54.1138519,85.6873529 C54.4188535,85.8773539 54.9763479,86.0023526 55.7863519,86.0623529 C56.6563563,86.1323533 57.3188497,86.3398512 57.7738519,86.6848529 C58.2288542,87.0298547 58.4563519,87.5323496 58.4563519,88.1923529 L58.4563519,88.2823529 C58.4563519,88.6423547 58.3838527,88.9648515 58.2388519,89.2498529 C58.0938512,89.5348544 57.8938532,89.7773519 57.6388519,89.9773529 C57.3838507,90.1773539 57.0738538,90.3298524 56.7088519,90.4348529 C56.3438501,90.5398535 55.9463541,90.5923529 55.5163519,90.5923529 C54.936349,90.5923529 54.438854,90.5148537 54.0238519,90.3598529 C53.6088499,90.2048522 53.2638533,89.9998542 52.9888519,89.7448529 C52.7138506,89.4898517 52.5063526,89.1998546 52.3663519,88.8748529 C52.2263512,88.5498513 52.146352,88.2223546 52.1263519,87.8923529 L53.2363519,87.6223529 C53.2863522,88.1923558 53.50635,88.6498512 53.8963519,88.9948529 C54.2863539,89.3398547 54.8063487,89.5123529 55.4563519,89.5123529 C56.0063547,89.5123529 56.4488503,89.404854 56.7838519,89.1898529 C57.1188536,88.9748519 57.2863519,88.6723549 57.2863519,88.2823529 C57.2863519,87.8623508 57.1213536,87.5623538 56.7913519,87.3823529 C56.4613503,87.202352 55.9263556,87.0873532 55.1863519,87.0373529 C54.3263476,86.9773526 53.6663542,86.7773546 53.2063519,86.4373529 C52.7463496,86.0973512 52.5163519,85.6023562 52.5163519,84.9523529 L52.5163519,84.8623529 C52.5163519,84.5123512 52.5913512,84.2048543 52.7413519,83.9398529 C52.8913527,83.6748516 53.0938507,83.4523538 53.3488519,83.2723529 C53.6038532,83.092352 53.8913503,82.9573534 54.2113519,82.8673529 C54.5313535,82.7773525 54.8663502,82.7323529 55.2163519,82.7323529 C55.7063544,82.7323529 56.1363501,82.7998523 56.5063519,82.9348529 C56.8763538,83.0698536 57.1863507,83.2448519 57.4363519,83.4598529 C57.6863532,83.674854 57.8788513,83.9223515 58.0138519,84.2023529 C58.1488526,84.4823543 58.2363517,84.7623515 58.2763519,85.0423529 L57.1663519,85.3123529 C57.1163517,84.8323505 56.9238536,84.4573543 56.5888519,84.1873529 C56.2538503,83.9173516 55.8163546,83.7823529 55.2763519,83.7823529 C55.0663509,83.7823529 54.8638529,83.8048527 54.6688519,83.8498529 C54.473851,83.8948532 54.3013527,83.9623525 54.1513519,84.0523529 C54.0013512,84.1423534 53.8813524,84.2548523 53.7913519,84.3898529 C53.7013515,84.5248536 53.6563519,84.682352 53.6563519,84.8623529 Z M63.6013519,80.7223529 C63.6013519,80.4323515 63.7038509,80.184854 63.9088519,79.9798529 C64.113853,79.7748519 64.3613505,79.6723529 64.6513519,79.6723529 C64.9413534,79.6723529 65.1888509,79.7748519 65.3938519,79.9798529 C65.598853,80.184854 65.7013519,80.4323515 65.7013519,80.7223529 C65.7013519,81.0123544 65.598853,81.2598519 65.3938519,81.4648529 C65.1888509,81.669854 64.9413534,81.7723529 64.6513519,81.7723529 C64.3613505,81.7723529 64.113853,81.669854 63.9088519,81.4648529 C63.7038509,81.2598519 63.6013519,81.0123544 63.6013519,80.7223529 Z M61.4713519,89.3023529 L64.0813519,89.3023529 L64.0813519,84.0223529 L61.7413519,84.0223529 L61.7413519,82.9423529 L65.2513519,82.9423529 L65.2513519,89.3023529 L67.6813519,89.3023529 L67.6813519,90.3823529 L61.4713519,90.3823529 L61.4713519,89.3023529 Z M76.1263519,89.2423529 L75.9463519,89.2423529 C75.7063507,89.6923552 75.378854,90.0298518 74.9638519,90.2548529 C74.5488499,90.4798541 74.0963544,90.5923529 73.6063519,90.5923529 C73.1063494,90.5923529 72.6363541,90.5073538 72.1963519,90.3373529 C71.7563497,90.1673521 71.3688536,89.9223545 71.0338519,89.6023529 C70.6988503,89.2823513 70.4338529,88.8848553 70.2388519,88.4098529 C70.043851,87.9348506 69.9463519,87.392356 69.9463519,86.7823529 L69.9463519,86.5423529 C69.9463519,85.9423499 70.0463509,85.4048553 70.2463519,84.9298529 C70.4463529,84.4548506 70.7113503,84.0548546 71.0413519,83.7298529 C71.3713536,83.4048513 71.7563497,83.1573538 72.1963519,82.9873529 C72.6363541,82.8173521 73.0963495,82.7323529 73.5763519,82.7323529 C74.1163546,82.7323529 74.5888499,82.8498518 74.9938519,83.0848529 C75.398854,83.3198541 75.7163508,83.6623507 75.9463519,84.1123529 L76.1263519,84.1123529 L76.1263519,82.9423529 L77.2963519,82.9423529 L77.2963519,92.2123529 C77.2963519,92.5523546 77.188853,92.8323518 76.9738519,93.0523529 C76.7588509,93.272354 76.4813536,93.3823529 76.1413519,93.3823529 L71.2963519,93.3823529 L71.2963519,92.3023529 L75.7213519,92.3023529 C75.9913533,92.3023529 76.1263519,92.1523544 76.1263519,91.8523529 L76.1263519,89.2423529 Z M73.6363519,89.4823529 C73.9863537,89.4823529 74.3113504,89.4173536 74.6113519,89.2873529 C74.9113534,89.1573523 75.1738508,88.9723541 75.3988519,88.7323529 C75.6238531,88.4923517 75.8013513,88.2048546 75.9313519,87.8698529 C76.0613526,87.5348513 76.1263519,87.162355 76.1263519,86.7523529 L76.1263519,86.5723529 C76.1263519,86.1723509 76.0613526,85.8048546 75.9313519,85.4698529 C75.8013513,85.1348513 75.6238531,84.8473541 75.3988519,84.6073529 C75.1738508,84.3673517 74.9088535,84.1798536 74.6038519,84.0448529 C74.2988504,83.9098523 73.9763536,83.8423529 73.6363519,83.8423529 C73.2863502,83.8423529 72.9588535,83.9073523 72.6538519,84.0373529 C72.3488504,84.1673536 72.0838531,84.3523517 71.8588519,84.5923529 C71.6338508,84.8323541 71.4588526,85.1173513 71.3338519,85.4473529 C71.2088513,85.7773546 71.1463519,86.1423509 71.1463519,86.5423529 L71.1463519,86.7823529 C71.1463519,87.202355 71.2088513,87.5773513 71.3338519,87.9073529 C71.4588526,88.2373546 71.6338508,88.5198518 71.8588519,88.7548529 C72.0838531,88.9898541 72.3463504,89.1698523 72.6463519,89.2948529 C72.9463534,89.4198536 73.2763501,89.4823529 73.6363519,89.4823529 Z M80.8213519,90.3823529 L79.6513519,90.3823529 L79.6513519,82.9423529 L80.8213519,82.9423529 L80.8213519,84.2023529 L81.0013519,84.2023529 C81.4613542,83.222348 82.2613462,82.7323529 83.4013519,82.7323529 C84.2613562,82.7323529 84.9463494,82.9998503 85.4563519,83.5348529 C85.9663545,84.0698556 86.2213519,84.8723476 86.2213519,85.9423529 L86.2213519,90.3823529 L85.0513519,90.3823529 L85.0513519,86.1823529 C85.0513519,85.402349 84.8763537,84.8173549 84.5263519,84.4273529 C84.1763502,84.037351 83.7013549,83.8423529 83.1013519,83.8423529 C82.3913484,83.8423529 81.833854,84.0848505 81.4288519,84.5698529 C81.0238499,85.0548554 80.8213519,85.7023489 80.8213519,86.5123529 L80.8213519,90.3823529 Z M103.411352,89.1223529 L103.231352,89.1223529 C102.991351,89.6223554 102.658854,89.9923517 102.233852,90.2323529 C101.80885,90.4723541 101.361354,90.5923529 100.891352,90.5923529 C100.401349,90.5923529 99.946354,90.5098538 99.5263519,90.3448529 C99.1063498,90.1798521 98.7388535,89.9348546 98.4238519,89.6098529 C98.1088504,89.2848513 97.8613528,88.8873553 97.6813519,88.4173529 C97.501351,87.9473506 97.4113519,87.402356 97.4113519,86.7823529 L97.4113519,86.5423529 C97.4113519,85.9323499 97.501351,85.3923553 97.6813519,84.9223529 C97.8613528,84.4523506 98.1088504,84.0548546 98.4238519,83.7298529 C98.7388535,83.4048513 99.1063498,83.1573538 99.5263519,82.9873529 C99.946354,82.8173521 100.39135,82.7323529 100.861352,82.7323529 C101.371354,82.7323529 101.83385,82.8448518 102.248852,83.0698529 C102.663854,83.2948541 102.991351,83.6423506 103.231352,84.1123529 L103.411352,84.1123529 L103.411352,82.9423529 L104.581352,82.9423529 L104.581352,88.8523529 C104.581352,89.1523544 104.716351,89.3023529 104.986352,89.3023529 L105.361352,89.3023529 L105.361352,90.3823529 L104.566352,90.3823529 C104.22635,90.3823529 103.948853,90.272354 103.733852,90.0523529 C103.518851,89.8323518 103.411352,89.5523546 103.411352,89.2123529 L103.411352,89.1223529 Z M101.011352,89.4823529 C101.361354,89.4823529 101.68385,89.4173536 101.978852,89.2873529 C102.273853,89.1573523 102.526351,88.9723541 102.736352,88.7323529 C102.946353,88.4923517 103.111351,88.2048546 103.231352,87.8698529 C103.351353,87.5348513 103.411352,87.162355 103.411352,86.7523529 L103.411352,86.5723529 C103.411352,86.1723509 103.351353,85.8048546 103.231352,85.4698529 C103.111351,85.1348513 102.943853,84.8473541 102.728852,84.6073529 C102.513851,84.3673517 102.258853,84.1798536 101.963852,84.0448529 C101.66885,83.9098523 101.351354,83.8423529 101.011352,83.8423529 C100.66135,83.8423529 100.341353,83.9073523 100.051352,84.0373529 C99.7613505,84.1673536 99.508853,84.3498518 99.2938519,84.5848529 C99.0788509,84.8198541 98.9113525,85.1048513 98.7913519,85.4398529 C98.6713513,85.7748546 98.6113519,86.1423509 98.6113519,86.5423529 L98.6113519,86.7823529 C98.6113519,87.6323572 98.8338497,88.2948506 99.2788519,88.7698529 C99.7238542,89.2448553 100.301348,89.4823529 101.011352,89.4823529 Z M116.116352,82.9423529 L118.456352,82.9423529 L118.456352,79.8823529 L119.626352,79.8823529 L119.626352,82.9423529 L122.506352,82.9423529 L122.506352,84.0223529 L119.626352,84.0223529 L119.626352,88.8523529 C119.626352,89.1523544 119.761351,89.3023529 120.031352,89.3023529 L122.146352,89.3023529 L122.146352,90.3823529 L119.611352,90.3823529 C119.27135,90.3823529 118.993853,90.272354 118.778852,90.0523529 C118.563851,89.8323518 118.456352,89.5523546 118.456352,89.2123529 L118.456352,84.0223529 L116.116352,84.0223529 L116.116352,82.9423529 Z M126.721352,90.3823529 L125.551352,90.3823529 L125.551352,79.8823529 L126.721352,79.8823529 L126.721352,84.2923529 L126.901352,84.2923529 C127.131353,83.8123505 127.45385,83.4323543 127.868852,83.1523529 C128.283854,82.8723515 128.791349,82.7323529 129.391352,82.7323529 C130.201356,82.7323529 130.858849,82.9998503 131.363852,83.5348529 C131.868854,84.0698556 132.121352,84.8723476 132.121352,85.9423529 L132.121352,90.3823529 L130.951352,90.3823529 L130.951352,86.1823529 C130.951352,85.402349 130.776354,84.8173549 130.426352,84.4273529 C130.07635,84.037351 129.601355,83.8423529 129.001352,83.8423529 C128.291348,83.8423529 127.733854,84.0848505 127.328852,84.5698529 C126.92385,85.0548554 126.721352,85.7023489 126.721352,86.5123529 L126.721352,90.3823529 Z M135.586352,87.0223529 C135.616352,87.7623566 135.84635,88.3573507 136.276352,88.8073529 C136.706354,89.2573552 137.306348,89.4823529 138.076352,89.4823529 C138.426354,89.4823529 138.731351,89.4423533 138.991352,89.3623529 C139.251353,89.2823525 139.473851,89.1723536 139.658852,89.0323529 C139.843853,88.8923522 139.993851,88.7298539 140.108852,88.5448529 C140.223853,88.359852 140.316352,88.162354 140.386352,87.9523529 L141.496352,88.2523529 C141.286351,88.9423564 140.898855,89.5048508 140.333852,89.9398529 C139.768849,90.3748551 139.006357,90.5923529 138.046352,90.5923529 C137.516349,90.5923529 137.028854,90.4998539 136.583852,90.3148529 C136.13885,90.129852 135.756354,89.8673546 135.436352,89.5273529 C135.11635,89.1873512 134.866353,88.7823553 134.686352,88.3123529 C134.506351,87.8423506 134.416352,87.3223558 134.416352,86.7523529 L134.416352,86.3923529 C134.416352,85.8723503 134.508851,85.3873552 134.693852,84.9373529 C134.878853,84.4873507 135.13635,84.0998546 135.466352,83.7748529 C135.796354,83.4498513 136.18385,83.1948539 136.628852,83.0098529 C137.073854,82.824852 137.556349,82.7323529 138.076352,82.7323529 C138.686355,82.7323529 139.21385,82.8448518 139.658852,83.0698529 C140.103854,83.2948541 140.468851,83.5723513 140.753852,83.9023529 C141.038853,84.2323546 141.248851,84.592351 141.383852,84.9823529 C141.518853,85.3723549 141.586352,85.7323513 141.586352,86.0623529 L141.586352,87.0223529 L135.586352,87.0223529 Z M138.076352,83.8423529 C137.74635,83.8423529 137.438853,83.8948524 137.153852,83.9998529 C136.868851,84.1048535 136.618853,84.252352 136.403852,84.4423529 C136.188851,84.6323539 136.013853,84.8548517 135.878852,85.1098529 C135.743851,85.3648542 135.656352,85.6423514 135.616352,85.9423529 L140.416352,85.9423529 C140.396352,85.6223513 140.318853,85.3323542 140.183852,85.0723529 C140.048851,84.8123516 139.873853,84.5923538 139.658852,84.4123529 C139.443851,84.232352 139.198853,84.0923534 138.923852,83.9923529 C138.648851,83.8923524 138.366353,83.8423529 138.076352,83.8423529 Z M150.931352,86.7523529 C150.931352,87.372356 150.828853,87.9198506 150.623852,88.3948529 C150.418851,88.8698553 150.146354,89.2698513 149.806352,89.5948529 C149.46635,89.9198546 149.068854,90.1673521 148.613852,90.3373529 C148.15885,90.5073538 147.686354,90.5923529 147.196352,90.5923529 C146.696349,90.5923529 146.221354,90.5073538 145.771352,90.3373529 C145.32135,90.1673521 144.926354,89.9198546 144.586352,89.5948529 C144.24635,89.2698513 143.973853,88.8698553 143.768852,88.3948529 C143.563851,87.9198506 143.461352,87.372356 143.461352,86.7523529 L143.461352,86.5723529 C143.461352,85.9623499 143.563851,85.4198553 143.768852,84.9448529 C143.973853,84.4698506 144.24885,84.0673546 144.593852,83.7373529 C144.938854,83.4073513 145.33635,83.1573538 145.786352,82.9873529 C146.236354,82.8173521 146.706349,82.7323529 147.196352,82.7323529 C147.686354,82.7323529 148.15635,82.8173521 148.606352,82.9873529 C149.056354,83.1573538 149.45385,83.4073513 149.798852,83.7373529 C150.143854,84.0673546 150.418851,84.4698506 150.623852,84.9448529 C150.828853,85.4198553 150.931352,85.9623499 150.931352,86.5723529 L150.931352,86.7523529 Z M147.196352,89.4823529 C147.556354,89.4823529 147.88885,89.4198536 148.193852,89.2948529 C148.498853,89.1698523 148.766351,88.9873541 148.996352,88.7473529 C149.226353,88.5073517 149.406351,88.2198546 149.536352,87.8848529 C149.666353,87.5498513 149.731352,87.172355 149.731352,86.7523529 L149.731352,86.5723529 C149.731352,86.1723509 149.666353,85.8048546 149.536352,85.4698529 C149.406351,85.1348513 149.226353,84.8473541 148.996352,84.6073529 C148.766351,84.3673517 148.496353,84.1798536 148.186352,84.0448529 C147.87635,83.9098523 147.546354,83.8423529 147.196352,83.8423529 C146.84635,83.8423529 146.516353,83.9098523 146.206352,84.0448529 C145.89635,84.1798536 145.626353,84.3673517 145.396352,84.6073529 C145.166351,84.8473541 144.986353,85.1348513 144.856352,85.4698529 C144.726351,85.8048546 144.661352,86.1723509 144.661352,86.5723529 L144.661352,86.7523529 C144.661352,87.172355 144.726351,87.5498513 144.856352,87.8848529 C144.986353,88.2198546 145.166351,88.5073517 145.396352,88.7473529 C145.626353,88.9873541 145.89385,89.1698523 146.198852,89.2948529 C146.503853,89.4198536 146.83635,89.4823529 147.196352,89.4823529 Z M152.671352,82.9423529 L155.371352,82.9423529 L155.371352,83.9323529 L155.551352,83.9323529 C155.741353,83.5223509 156.01135,83.2198539 156.361352,83.0248529 C156.711354,82.829852 157.11135,82.7323529 157.561352,82.7323529 C158.311356,82.7323529 158.91635,82.9773505 159.376352,83.4673529 C159.836354,83.9573554 160.081352,84.6723482 160.111352,85.6123529 L158.881352,85.7923529 C158.881352,85.1023495 158.716354,84.6048545 158.386352,84.2998529 C158.05635,83.9948514 157.651354,83.8423529 157.171352,83.8423529 C156.86135,83.8423529 156.593853,83.9023523 156.368852,84.0223529 C156.143851,84.1423535 155.956353,84.3073519 155.806352,84.5173529 C155.656351,84.727354 155.546352,84.9723515 155.476352,85.2523529 C155.406352,85.5323543 155.371352,85.8323513 155.371352,86.1523529 L155.371352,89.3023529 L157.261352,89.3023529 L157.261352,90.3823529 L152.491352,90.3823529 L152.491352,89.3023529 L154.201352,89.3023529 L154.201352,84.0223529 L152.671352,84.0223529 L152.671352,82.9423529 Z M163.126352,87.0223529 C163.156352,87.7623566 163.38635,88.3573507 163.816352,88.8073529 C164.246354,89.2573552 164.846348,89.4823529 165.616352,89.4823529 C165.966354,89.4823529 166.271351,89.4423533 166.531352,89.3623529 C166.791353,89.2823525 167.013851,89.1723536 167.198852,89.0323529 C167.383853,88.8923522 167.533851,88.7298539 167.648852,88.5448529 C167.763853,88.359852 167.856352,88.162354 167.926352,87.9523529 L169.036352,88.2523529 C168.826351,88.9423564 168.438855,89.5048508 167.873852,89.9398529 C167.308849,90.3748551 166.546357,90.5923529 165.586352,90.5923529 C165.056349,90.5923529 164.568854,90.4998539 164.123852,90.3148529 C163.67885,90.129852 163.296354,89.8673546 162.976352,89.5273529 C162.65635,89.1873512 162.406353,88.7823553 162.226352,88.3123529 C162.046351,87.8423506 161.956352,87.3223558 161.956352,86.7523529 L161.956352,86.3923529 C161.956352,85.8723503 162.048851,85.3873552 162.233852,84.9373529 C162.418853,84.4873507 162.67635,84.0998546 163.006352,83.7748529 C163.336354,83.4498513 163.72385,83.1948539 164.168852,83.0098529 C164.613854,82.824852 165.096349,82.7323529 165.616352,82.7323529 C166.226355,82.7323529 166.75385,82.8448518 167.198852,83.0698529 C167.643854,83.2948541 168.008851,83.5723513 168.293852,83.9023529 C168.578853,84.2323546 168.788851,84.592351 168.923852,84.9823529 C169.058853,85.3723549 169.126352,85.7323513 169.126352,86.0623529 L169.126352,87.0223529 L163.126352,87.0223529 Z M165.616352,83.8423529 C165.28635,83.8423529 164.978853,83.8948524 164.693852,83.9998529 C164.408851,84.1048535 164.158853,84.252352 163.943852,84.4423529 C163.728851,84.6323539 163.553853,84.8548517 163.418852,85.1098529 C163.283851,85.3648542 163.196352,85.6423514 163.156352,85.9423529 L167.956352,85.9423529 C167.936352,85.6223513 167.858853,85.3323542 167.723852,85.0723529 C167.588851,84.8123516 167.413853,84.5923538 167.198852,84.4123529 C166.983851,84.232352 166.738853,84.0923534 166.463852,83.9923529 C166.188851,83.8923524 165.906353,83.8423529 165.616352,83.8423529 Z M171.196352,82.9423529 L173.536352,82.9423529 L173.536352,79.8823529 L174.706352,79.8823529 L174.706352,82.9423529 L177.586352,82.9423529 L177.586352,84.0223529 L174.706352,84.0223529 L174.706352,88.8523529 C174.706352,89.1523544 174.841351,89.3023529 175.111352,89.3023529 L177.226352,89.3023529 L177.226352,90.3823529 L174.691352,90.3823529 C174.35135,90.3823529 174.073853,90.272354 173.858852,90.0523529 C173.643851,89.8323518 173.536352,89.5523546 173.536352,89.2123529 L173.536352,84.0223529 L171.196352,84.0223529 L171.196352,82.9423529 Z M182.941352,80.7223529 C182.941352,80.4323515 183.043851,80.184854 183.248852,79.9798529 C183.453853,79.7748519 183.70135,79.6723529 183.991352,79.6723529 C184.281353,79.6723529 184.528851,79.7748519 184.733852,79.9798529 C184.938853,80.184854 185.041352,80.4323515 185.041352,80.7223529 C185.041352,81.0123544 184.938853,81.2598519 184.733852,81.4648529 C184.528851,81.669854 184.281353,81.7723529 183.991352,81.7723529 C183.70135,81.7723529 183.453853,81.669854 183.248852,81.4648529 C183.043851,81.2598519 182.941352,81.0123544 182.941352,80.7223529 Z M180.811352,89.3023529 L183.421352,89.3023529 L183.421352,84.0223529 L181.081352,84.0223529 L181.081352,82.9423529 L184.591352,82.9423529 L184.591352,89.3023529 L187.021352,89.3023529 L187.021352,90.3823529 L180.811352,90.3823529 L180.811352,89.3023529 Z M196.771352,87.7423529 C196.691352,88.152355 196.553853,88.5323512 196.358852,88.8823529 C196.163851,89.2323547 195.916353,89.5348517 195.616352,89.7898529 C195.31635,90.0448542 194.966354,90.2423522 194.566352,90.3823529 C194.16635,90.5223536 193.721354,90.5923529 193.231352,90.5923529 C192.711349,90.5923529 192.218854,90.5073538 191.753852,90.3373529 C191.28885,90.1673521 190.881354,89.9198546 190.531352,89.5948529 C190.18135,89.2698513 189.903853,88.8723553 189.698852,88.4023529 C189.493851,87.9323506 189.391352,87.392356 189.391352,86.7823529 L189.391352,86.6023529 C189.391352,86.0023499 189.493851,85.4623553 189.698852,84.9823529 C189.903853,84.5023505 190.18135,84.0973546 190.531352,83.7673529 C190.881354,83.4373513 191.28885,83.1823538 191.753852,83.0023529 C192.218854,82.822352 192.711349,82.7323529 193.231352,82.7323529 C193.701354,82.7323529 194.13635,82.8023522 194.536352,82.9423529 C194.936354,83.0823536 195.28885,83.2798517 195.593852,83.5348529 C195.898853,83.7898542 196.148851,84.0923512 196.343852,84.4423529 C196.538853,84.7923547 196.671352,85.1723509 196.741352,85.5823529 L195.571352,85.8523529 C195.541352,85.5923516 195.468853,85.3398542 195.353852,85.0948529 C195.238851,84.8498517 195.083853,84.6348539 194.888852,84.4498529 C194.693851,84.264852 194.456353,84.1173535 194.176352,84.0073529 C193.896351,83.8973524 193.571354,83.8423529 193.201352,83.8423529 C192.84135,83.8423529 192.503854,83.9098523 192.188852,84.0448529 C191.87385,84.1798536 191.596353,84.3698517 191.356352,84.6148529 C191.116351,84.8598542 190.928853,85.1523512 190.793852,85.4923529 C190.658851,85.8323546 190.591352,86.2023509 190.591352,86.6023529 L190.591352,86.7823529 C190.591352,87.202355 190.658851,87.5798513 190.793852,87.9148529 C190.928853,88.2498546 191.116351,88.5323518 191.356352,88.7623529 C191.596353,88.9923541 191.87635,89.1698523 192.196352,89.2948529 C192.516354,89.4198536 192.86135,89.4823529 193.231352,89.4823529 C193.601354,89.4823529 193.923851,89.4248535 194.198852,89.3098529 C194.473853,89.1948524 194.708851,89.0448539 194.903852,88.8598529 C195.098853,88.674852 195.253851,88.4623541 195.368852,88.2223529 C195.483853,87.9823517 195.561352,87.7323542 195.601352,87.4723529 L196.771352,87.7423529 Z M204.391352,89.1223529 L204.211352,89.1223529 C203.971351,89.6223554 203.638854,89.9923517 203.213852,90.2323529 C202.78885,90.4723541 202.341354,90.5923529 201.871352,90.5923529 C201.381349,90.5923529 200.926354,90.5098538 200.506352,90.3448529 C200.08635,90.1798521 199.718854,89.9348546 199.403852,89.6098529 C199.08885,89.2848513 198.841353,88.8873553 198.661352,88.4173529 C198.481351,87.9473506 198.391352,87.402356 198.391352,86.7823529 L198.391352,86.5423529 C198.391352,85.9323499 198.481351,85.3923553 198.661352,84.9223529 C198.841353,84.4523506 199.08885,84.0548546 199.403852,83.7298529 C199.718854,83.4048513 200.08635,83.1573538 200.506352,82.9873529 C200.926354,82.8173521 201.37135,82.7323529 201.841352,82.7323529 C202.351354,82.7323529 202.81385,82.8448518 203.228852,83.0698529 C203.643854,83.2948541 203.971351,83.6423506 204.211352,84.1123529 L204.391352,84.1123529 L204.391352,82.9423529 L205.561352,82.9423529 L205.561352,88.8523529 C205.561352,89.1523544 205.696351,89.3023529 205.966352,89.3023529 L206.341352,89.3023529 L206.341352,90.3823529 L205.546352,90.3823529 C205.20635,90.3823529 204.928853,90.272354 204.713852,90.0523529 C204.498851,89.8323518 204.391352,89.5523546 204.391352,89.2123529 L204.391352,89.1223529 Z M201.991352,89.4823529 C202.341354,89.4823529 202.66385,89.4173536 202.958852,89.2873529 C203.253853,89.1573523 203.506351,88.9723541 203.716352,88.7323529 C203.926353,88.4923517 204.091351,88.2048546 204.211352,87.8698529 C204.331353,87.5348513 204.391352,87.162355 204.391352,86.7523529 L204.391352,86.5723529 C204.391352,86.1723509 204.331353,85.8048546 204.211352,85.4698529 C204.091351,85.1348513 203.923853,84.8473541 203.708852,84.6073529 C203.493851,84.3673517 203.238853,84.1798536 202.943852,84.0448529 C202.64885,83.9098523 202.331354,83.8423529 201.991352,83.8423529 C201.64135,83.8423529 201.321353,83.9073523 201.031352,84.0373529 C200.74135,84.1673536 200.488853,84.3498518 200.273852,84.5848529 C200.058851,84.8198541 199.891353,85.1048513 199.771352,85.4398529 C199.651351,85.7748546 199.591352,86.1423509 199.591352,86.5423529 L199.591352,86.7823529 C199.591352,87.6323572 199.81385,88.2948506 200.258852,88.7698529 C200.703854,89.2448553 201.281348,89.4823529 201.991352,89.4823529 Z M208.171352,89.3023529 L210.871352,89.3023529 L210.871352,80.9623529 L208.261352,80.9623529 L208.261352,79.8823529 L212.041352,79.8823529 L212.041352,89.3023529 L214.741352,89.3023529 L214.741352,90.3823529 L208.171352,90.3823529 L208.171352,89.3023529 Z M233.686352,90.3823529 L232.516352,90.3823529 L232.516352,85.0423529 C232.516352,84.6923512 232.436353,84.4048541 232.276352,84.1798529 C232.116351,83.9548518 231.861354,83.8423529 231.511352,83.8423529 C231.18135,83.8423529 230.913853,83.9648517 230.708852,84.2098529 C230.503851,84.4548542 230.401352,84.8323504 230.401352,85.3423529 L230.401352,90.3823529 L229.231352,90.3823529 L229.231352,84.9823529 C229.231352,84.6523513 229.141353,84.379854 228.961352,84.1648529 C228.781351,83.9498519 228.541353,83.8423529 228.241352,83.8423529 C227.88135,83.8423529 227.603853,83.9723516 227.408852,84.2323529 C227.213851,84.4923542 227.116352,84.8323508 227.116352,85.2523529 L227.116352,90.3823529 L225.946352,90.3823529 L225.946352,82.9423529 L227.116352,82.9423529 L227.116352,83.7523529 L227.296352,83.7523529 C227.426353,83.4023512 227.616351,83.1448538 227.866352,82.9798529 C228.116353,82.8148521 228.41135,82.7323529 228.751352,82.7323529 C229.111354,82.7323529 229.408851,82.827352 229.643852,83.0173529 C229.878853,83.2073539 230.041351,83.4523514 230.131352,83.7523529 L230.311352,83.7523529 C230.651354,83.0723495 231.191348,82.7323529 231.931352,82.7323529 C232.491355,82.7323529 232.92385,82.9098512 233.228852,83.2648529 C233.533853,83.6198547 233.686352,84.0823501 233.686352,84.6523529 L233.686352,90.3823529 Z M242.731352,86.7523529 C242.731352,87.372356 242.628853,87.9198506 242.423852,88.3948529 C242.218851,88.8698553 241.946354,89.2698513 241.606352,89.5948529 C241.26635,89.9198546 240.868854,90.1673521 240.413852,90.3373529 C239.95885,90.5073538 239.486354,90.5923529 238.996352,90.5923529 C238.496349,90.5923529 238.021354,90.5073538 237.571352,90.3373529 C237.12135,90.1673521 236.726354,89.9198546 236.386352,89.5948529 C236.04635,89.2698513 235.773853,88.8698553 235.568852,88.3948529 C235.363851,87.9198506 235.261352,87.372356 235.261352,86.7523529 L235.261352,86.5723529 C235.261352,85.9623499 235.363851,85.4198553 235.568852,84.9448529 C235.773853,84.4698506 236.04885,84.0673546 236.393852,83.7373529 C236.738854,83.4073513 237.13635,83.1573538 237.586352,82.9873529 C238.036354,82.8173521 238.506349,82.7323529 238.996352,82.7323529 C239.486354,82.7323529 239.95635,82.8173521 240.406352,82.9873529 C240.856354,83.1573538 241.25385,83.4073513 241.598852,83.7373529 C241.943854,84.0673546 242.218851,84.4698506 242.423852,84.9448529 C242.628853,85.4198553 242.731352,85.9623499 242.731352,86.5723529 L242.731352,86.7523529 Z M238.996352,89.4823529 C239.356354,89.4823529 239.68885,89.4198536 239.993852,89.2948529 C240.298853,89.1698523 240.566351,88.9873541 240.796352,88.7473529 C241.026353,88.5073517 241.206351,88.2198546 241.336352,87.8848529 C241.466353,87.5498513 241.531352,87.172355 241.531352,86.7523529 L241.531352,86.5723529 C241.531352,86.1723509 241.466353,85.8048546 241.336352,85.4698529 C241.206351,85.1348513 241.026353,84.8473541 240.796352,84.6073529 C240.566351,84.3673517 240.296353,84.1798536 239.986352,84.0448529 C239.67635,83.9098523 239.346354,83.8423529 238.996352,83.8423529 C238.64635,83.8423529 238.316353,83.9098523 238.006352,84.0448529 C237.69635,84.1798536 237.426353,84.3673517 237.196352,84.6073529 C236.966351,84.8473541 236.786353,85.1348513 236.656352,85.4698529 C236.526351,85.8048546 236.461352,86.1723509 236.461352,86.5723529 L236.461352,86.7523529 C236.461352,87.172355 236.526351,87.5498513 236.656352,87.8848529 C236.786353,88.2198546 236.966351,88.5073517 237.196352,88.7473529 C237.426353,88.9873541 237.69385,89.1698523 237.998852,89.2948529 C238.303853,89.4198536 238.63635,89.4823529 238.996352,89.4823529 Z M250.651352,89.2423529 L250.471352,89.2423529 C250.351351,89.4723541 250.198853,89.6723521 250.013852,89.8423529 C249.828851,90.0123538 249.628853,90.1523524 249.413852,90.2623529 C249.198851,90.3723535 248.971353,90.4548527 248.731352,90.5098529 C248.491351,90.5648532 248.261353,90.5923529 248.041352,90.5923529 C247.541349,90.5923529 247.076354,90.5073538 246.646352,90.3373529 C246.21635,90.1673521 245.838854,89.9223545 245.513852,89.6023529 C245.18885,89.2823513 244.933853,88.8848553 244.748852,88.4098529 C244.563851,87.9348506 244.471352,87.392356 244.471352,86.7823529 L244.471352,86.5423529 C244.471352,85.9423499 244.566351,85.4048553 244.756352,84.9298529 C244.946353,84.4548506 245.20135,84.0548546 245.521352,83.7298529 C245.841354,83.4048513 246.21635,83.1573538 246.646352,82.9873529 C247.076354,82.8173521 247.53135,82.7323529 248.011352,82.7323529 C248.521354,82.7323529 248.99885,82.8448518 249.443852,83.0698529 C249.888854,83.2948541 250.231351,83.6423506 250.471352,84.1123529 L250.651352,84.1123529 L250.651352,79.8823529 L251.821352,79.8823529 L251.821352,90.3823529 L250.651352,90.3823529 L250.651352,89.2423529 Z M248.161352,89.4823529 C248.511354,89.4823529 248.83635,89.4173536 249.136352,89.2873529 C249.436353,89.1573523 249.698851,88.9723541 249.923852,88.7323529 C250.148853,88.4923517 250.326351,88.2048546 250.456352,87.8698529 C250.586353,87.5348513 250.651352,87.162355 250.651352,86.7523529 L250.651352,86.5723529 C250.651352,86.1723509 250.586353,85.8048546 250.456352,85.4698529 C250.326351,85.1348513 250.148853,84.8473541 249.923852,84.6073529 C249.698851,84.3673517 249.433853,84.1798536 249.128852,84.0448529 C248.82385,83.9098523 248.501354,83.8423529 248.161352,83.8423529 C247.81135,83.8423529 247.483853,83.9073523 247.178852,84.0373529 C246.87385,84.1673536 246.608853,84.3523517 246.383852,84.5923529 C246.158851,84.8323541 245.983853,85.1173513 245.858852,85.4473529 C245.733851,85.7773546 245.671352,86.1423509 245.671352,86.5423529 L245.671352,86.7823529 C245.671352,87.202355 245.733851,87.5773513 245.858852,87.9073529 C245.983853,88.2373546 246.158851,88.5198518 246.383852,88.7548529 C246.608853,88.9898541 246.87135,89.1698523 247.171352,89.2948529 C247.471353,89.4198536 247.80135,89.4823529 248.161352,89.4823529 Z M254.926352,87.0223529 C254.956352,87.7623566 255.18635,88.3573507 255.616352,88.8073529 C256.046354,89.2573552 256.646348,89.4823529 257.416352,89.4823529 C257.766354,89.4823529 258.071351,89.4423533 258.331352,89.3623529 C258.591353,89.2823525 258.813851,89.1723536 258.998852,89.0323529 C259.183853,88.8923522 259.333851,88.7298539 259.448852,88.5448529 C259.563853,88.359852 259.656352,88.162354 259.726352,87.9523529 L260.836352,88.2523529 C260.626351,88.9423564 260.238855,89.5048508 259.673852,89.9398529 C259.108849,90.3748551 258.346357,90.5923529 257.386352,90.5923529 C256.856349,90.5923529 256.368854,90.4998539 255.923852,90.3148529 C255.47885,90.129852 255.096354,89.8673546 254.776352,89.5273529 C254.45635,89.1873512 254.206353,88.7823553 254.026352,88.3123529 C253.846351,87.8423506 253.756352,87.3223558 253.756352,86.7523529 L253.756352,86.3923529 C253.756352,85.8723503 253.848851,85.3873552 254.033852,84.9373529 C254.218853,84.4873507 254.47635,84.0998546 254.806352,83.7748529 C255.136354,83.4498513 255.52385,83.1948539 255.968852,83.0098529 C256.413854,82.824852 256.896349,82.7323529 257.416352,82.7323529 C258.026355,82.7323529 258.55385,82.8448518 258.998852,83.0698529 C259.443854,83.2948541 259.808851,83.5723513 260.093852,83.9023529 C260.378853,84.2323546 260.588851,84.592351 260.723852,84.9823529 C260.858853,85.3723549 260.926352,85.7323513 260.926352,86.0623529 L260.926352,87.0223529 L254.926352,87.0223529 Z M257.416352,83.8423529 C257.08635,83.8423529 256.778853,83.8948524 256.493852,83.9998529 C256.208851,84.1048535 255.958853,84.252352 255.743852,84.4423529 C255.528851,84.6323539 255.353853,84.8548517 255.218852,85.1098529 C255.083851,85.3648542 254.996352,85.6423514 254.956352,85.9423529 L259.756352,85.9423529 C259.736352,85.6223513 259.658853,85.3323542 259.523852,85.0723529 C259.388851,84.8123516 259.213853,84.5923538 258.998852,84.4123529 C258.783851,84.232352 258.538853,84.0923534 258.263852,83.9923529 C257.988851,83.8923524 257.706353,83.8423529 257.416352,83.8423529 Z M263.251352,89.3023529 L265.951352,89.3023529 L265.951352,80.9623529 L263.341352,80.9623529 L263.341352,79.8823529 L267.121352,79.8823529 L267.121352,89.3023529 L269.821352,89.3023529 L269.821352,90.3823529 L263.251352,90.3823529 L263.251352,89.3023529 Z" id="Identify-a-modelling" fill="#343434" mask="url(#mask-2)"></path>
            <path d="M33.9463519,51.6102941 C36.7296992,49.8769521 38.7421791,48.3394675 39.9838519,46.9977941 C41.2255248,45.6561207 41.8463519,44.3936334 41.8463519,43.2102941 C41.8463519,42.5436241 41.6546872,42.0061295 41.2713519,41.5977941 C40.8880167,41.1894587 40.3380222,40.9852941 39.6213519,40.9852941 C38.8380147,40.9852941 38.2255208,41.2727912 37.7838519,41.8477941 C37.3421831,42.422797 37.1130187,43.2602886 37.0963519,44.3602941 L33.4213519,43.2352941 C33.4546854,41.4519519 34.0671793,40.0686324 35.2588519,39.0852941 C36.4505246,38.1019559 37.9963424,37.6102941 39.8963519,37.6102941 C41.2796922,37.6102941 42.4380139,37.8644582 43.3713519,38.3727941 C44.3046899,38.88113 44.9963497,39.5352901 45.4463519,40.3352941 C45.8963542,41.1352981 46.1213519,41.9936229 46.1213519,42.9102941 C46.1213519,44.4603019 45.5421911,45.8852876 44.3838519,47.1852941 C43.2255128,48.4853006 41.4713637,49.8102874 39.1213519,51.1602941 L39.1213519,51.1852941 C40.2213574,51.1186271 41.3296797,51.0852941 42.4463519,51.0852941 L46.3213519,51.0852941 L46.3213519,54.3602941 L33.9463519,54.3602941 L33.9463519,51.6102941 Z" id="1" fill="#FFABCC" mask="url(#mask-2)"></path>
        </g>
    </g>
</svg>