<?xml version="1.0" encoding="UTF-8"?>
<svg width="432px" height="126px" viewBox="0 0 432 126" version="1.1" xmlns="http://www.w3.org/2000/svg" xmlns:xlink="http://www.w3.org/1999/xlink">
    <!-- Generator: Sketch 52.6 (67491) - http://www.bohemiancoding.com/sketch -->
    <title>flow4</title>
    <desc>Created with Sketch.</desc>
    <defs>
        <rect id="path-1" x="0" y="0" width="432" height="126"></rect>
    </defs>
    <g id="Page-4" stroke="none" stroke-width="1" fill="none" fill-rule="evenodd">
        <g id="flow4">
            <mask id="mask-2" fill="white">
                <use xlink:href="#path-1"></use>
            </mask>
            <rect stroke="#F1F1F1" stroke-width="2" x="1" y="1" width="430" height="124"></rect>
            <path d="M0,123 L434,123" id="Line-2" stroke="#FFABCC" stroke-width="6" mask="url(#mask-2)"></path>
            <path d="M37.0963519,89.4223529 C37.5263541,89.4223529 37.8938504,89.3498537 38.1988519,89.2048529 C38.5038535,89.0598522 38.753851,88.8648542 38.9488519,88.6198529 C39.1438529,88.3748517 39.2888515,88.0948545 39.3838519,87.7798529 C39.4788524,87.4648514 39.5263519,87.1323547 39.5263519,86.7823529 L39.5263519,86.6023529 L40.7863519,86.6023529 L40.7863519,86.7823529 C40.7863519,87.3123556 40.7063527,87.8098506 40.5463519,88.2748529 C40.3863511,88.7398553 40.1513535,89.1448512 39.8413519,89.4898529 C39.5313504,89.8348547 39.1463542,90.104852 38.6863519,90.2998529 C38.2263496,90.4948539 37.6963549,90.5923529 37.0963519,90.5923529 C35.9363461,90.5923529 35.0313552,90.2273566 34.3813519,89.4973529 C33.7313487,88.7673493 33.4063519,87.7023599 33.4063519,86.3023529 L33.4063519,83.9623529 C33.4063519,82.6023461 33.7313487,81.5473567 34.3813519,80.7973529 C35.0313552,80.0473492 35.9363461,79.6723529 37.0963519,79.6723529 C37.6963549,79.6723529 38.2263496,79.769852 38.6863519,79.9648529 C39.1463542,80.1598539 39.5313504,80.4298512 39.8413519,80.7748529 C40.1513535,81.1198547 40.3863511,81.5248506 40.5463519,81.9898529 C40.7063527,82.4548553 40.7863519,82.9523503 40.7863519,83.4823529 L40.7863519,83.6623529 L39.5263519,83.6623529 L39.5263519,83.4823529 C39.5163519,83.1423512 39.4638524,82.8123545 39.3688519,82.4923529 C39.2738515,82.1723513 39.1288529,81.8898542 38.9338519,81.6448529 C38.738851,81.3998517 38.4913534,81.2048537 38.1913519,81.0598529 C37.8913504,80.9148522 37.5263541,80.8423529 37.0963519,80.8423529 C36.2863479,80.8423529 35.678854,81.13735 35.2738519,81.7273529 C34.8688499,82.3173559 34.6663519,83.0923481 34.6663519,84.0523529 L34.6663519,86.2123529 C34.6663519,87.2423581 34.8688499,88.0348502 35.2738519,88.5898529 C35.678854,89.1448557 36.2863479,89.4223529 37.0963519,89.4223529 Z M42.5113519,82.9423529 L45.2113519,82.9423529 L45.2113519,83.9323529 L45.3913519,83.9323529 C45.5813529,83.5223509 45.8513502,83.2198539 46.2013519,83.0248529 C46.5513537,82.829852 46.9513497,82.7323529 47.4013519,82.7323529 C48.1513557,82.7323529 48.7563496,82.9773505 49.2163519,83.4673529 C49.6763542,83.9573554 49.9213518,84.6723482 49.9513519,85.6123529 L48.7213519,85.7923529 C48.7213519,85.1023495 48.5563536,84.6048545 48.2263519,84.2998529 C47.8963503,83.9948514 47.4913543,83.8423529 47.0113519,83.8423529 C46.7013504,83.8423529 46.4338531,83.9023523 46.2088519,84.0223529 C45.9838508,84.1423535 45.7963527,84.3073519 45.6463519,84.5173529 C45.4963512,84.727354 45.3863523,84.9723515 45.3163519,85.2523529 C45.2463516,85.5323543 45.2113519,85.8323513 45.2113519,86.1523529 L45.2113519,89.3023529 L47.1013519,89.3023529 L47.1013519,90.3823529 L42.3313519,90.3823529 L42.3313519,89.3023529 L44.0413519,89.3023529 L44.0413519,84.0223529 L42.5113519,84.0223529 L42.5113519,82.9423529 Z M52.9663519,87.0223529 C52.9963521,87.7623566 53.2263498,88.3573507 53.6563519,88.8073529 C54.0863541,89.2573552 54.6863481,89.4823529 55.4563519,89.4823529 C55.8063537,89.4823529 56.1113506,89.4423533 56.3713519,89.3623529 C56.6313532,89.2823525 56.853851,89.1723536 57.0388519,89.0323529 C57.2238529,88.8923522 57.3738514,88.7298539 57.4888519,88.5448529 C57.6038525,88.359852 57.6963516,88.162354 57.7663519,87.9523529 L58.8763519,88.2523529 C58.6663509,88.9423564 58.2788548,89.5048508 57.7138519,89.9398529 C57.1488491,90.3748551 56.3863567,90.5923529 55.4263519,90.5923529 C54.8963493,90.5923529 54.4088542,90.4998539 53.9638519,90.3148529 C53.5188497,90.129852 53.1363535,89.8673546 52.8163519,89.5273529 C52.4963503,89.1873512 52.2463528,88.7823553 52.0663519,88.3123529 C51.886351,87.8423506 51.7963519,87.3223558 51.7963519,86.7523529 L51.7963519,86.3923529 C51.7963519,85.8723503 51.888851,85.3873552 52.0738519,84.9373529 C52.2588529,84.4873507 52.5163503,84.0998546 52.8463519,83.7748529 C53.1763536,83.4498513 53.5638497,83.1948539 54.0088519,83.0098529 C54.4538542,82.824852 54.9363493,82.7323529 55.4563519,82.7323529 C56.066355,82.7323529 56.5938497,82.8448518 57.0388519,83.0698529 C57.4838542,83.2948541 57.8488505,83.5723513 58.1338519,83.9023529 C58.4188534,84.2323546 58.6288513,84.592351 58.7638519,84.9823529 C58.8988526,85.3723549 58.9663519,85.7323513 58.9663519,86.0623529 L58.9663519,87.0223529 L52.9663519,87.0223529 Z M55.4563519,83.8423529 C55.1263503,83.8423529 54.8188534,83.8948524 54.5338519,83.9998529 C54.2488505,84.1048535 53.998853,84.252352 53.7838519,84.4423529 C53.5688509,84.6323539 53.3938526,84.8548517 53.2588519,85.1098529 C53.1238513,85.3648542 53.0363521,85.6423514 52.9963519,85.9423529 L57.7963519,85.9423529 C57.7763518,85.6223513 57.6988526,85.3323542 57.5638519,85.0723529 C57.4288513,84.8123516 57.253853,84.5923538 57.0388519,84.4123529 C56.8238509,84.232352 56.5788533,84.0923534 56.3038519,83.9923529 C56.0288506,83.8923524 55.7463534,83.8423529 55.4563519,83.8423529 Z M66.6913519,89.1223529 L66.5113519,89.1223529 C66.2713507,89.6223554 65.9388541,89.9923517 65.5138519,90.2323529 C65.0888498,90.4723541 64.6413543,90.5923529 64.1713519,90.5923529 C63.6813495,90.5923529 63.226354,90.5098538 62.8063519,90.3448529 C62.3863498,90.1798521 62.0188535,89.9348546 61.7038519,89.6098529 C61.3888504,89.2848513 61.1413528,88.8873553 60.9613519,88.4173529 C60.781351,87.9473506 60.6913519,87.402356 60.6913519,86.7823529 L60.6913519,86.5423529 C60.6913519,85.9323499 60.781351,85.3923553 60.9613519,84.9223529 C61.1413528,84.4523506 61.3888504,84.0548546 61.7038519,83.7298529 C62.0188535,83.4048513 62.3863498,83.1573538 62.8063519,82.9873529 C63.226354,82.8173521 63.6713496,82.7323529 64.1413519,82.7323529 C64.6513545,82.7323529 65.1138499,82.8448518 65.5288519,83.0698529 C65.943854,83.2948541 66.2713507,83.6423506 66.5113519,84.1123529 L66.6913519,84.1123529 L66.6913519,82.9423529 L67.8613519,82.9423529 L67.8613519,88.8523529 C67.8613519,89.1523544 67.9963506,89.3023529 68.2663519,89.3023529 L68.6413519,89.3023529 L68.6413519,90.3823529 L67.8463519,90.3823529 C67.5063502,90.3823529 67.228853,90.272354 67.0138519,90.0523529 C66.7988509,89.8323518 66.6913519,89.5523546 66.6913519,89.2123529 L66.6913519,89.1223529 Z M64.2913519,89.4823529 C64.6413537,89.4823529 64.9638505,89.4173536 65.2588519,89.2873529 C65.5538534,89.1573523 65.8063509,88.9723541 66.0163519,88.7323529 C66.226353,88.4923517 66.3913513,88.2048546 66.5113519,87.8698529 C66.6313525,87.5348513 66.6913519,87.162355 66.6913519,86.7523529 L66.6913519,86.5723529 C66.6913519,86.1723509 66.6313525,85.8048546 66.5113519,85.4698529 C66.3913513,85.1348513 66.223853,84.8473541 66.0088519,84.6073529 C65.7938509,84.3673517 65.5388534,84.1798536 65.2438519,84.0448529 C64.9488505,83.9098523 64.6313536,83.8423529 64.2913519,83.8423529 C63.9413502,83.8423529 63.6213534,83.9073523 63.3313519,84.0373529 C63.0413505,84.1673536 62.788853,84.3498518 62.5738519,84.5848529 C62.3588509,84.8198541 62.1913525,85.1048513 62.0713519,85.4398529 C61.9513513,85.7748546 61.8913519,86.1423509 61.8913519,86.5423529 L61.8913519,86.7823529 C61.8913519,87.6323572 62.1138497,88.2948506 62.5588519,88.7698529 C63.0038542,89.2448553 63.5813484,89.4823529 64.2913519,89.4823529 Z M70.2163519,82.9423529 L72.5563519,82.9423529 L72.5563519,79.8823529 L73.7263519,79.8823529 L73.7263519,82.9423529 L76.6063519,82.9423529 L76.6063519,84.0223529 L73.7263519,84.0223529 L73.7263519,88.8523529 C73.7263519,89.1523544 73.8613506,89.3023529 74.1313519,89.3023529 L76.2463519,89.3023529 L76.2463519,90.3823529 L73.7113519,90.3823529 C73.3713502,90.3823529 73.093853,90.272354 72.8788519,90.0523529 C72.6638509,89.8323518 72.5563519,89.5523546 72.5563519,89.2123529 L72.5563519,84.0223529 L70.2163519,84.0223529 L70.2163519,82.9423529 Z M80.5063519,87.0223529 C80.5363521,87.7623566 80.7663498,88.3573507 81.1963519,88.8073529 C81.6263541,89.2573552 82.2263481,89.4823529 82.9963519,89.4823529 C83.3463537,89.4823529 83.6513506,89.4423533 83.9113519,89.3623529 C84.1713532,89.2823525 84.393851,89.1723536 84.5788519,89.0323529 C84.7638529,88.8923522 84.9138514,88.7298539 85.0288519,88.5448529 C85.1438525,88.359852 85.2363516,88.162354 85.3063519,87.9523529 L86.4163519,88.2523529 C86.2063509,88.9423564 85.8188548,89.5048508 85.2538519,89.9398529 C84.6888491,90.3748551 83.9263567,90.5923529 82.9663519,90.5923529 C82.4363493,90.5923529 81.9488542,90.4998539 81.5038519,90.3148529 C81.0588497,90.129852 80.6763535,89.8673546 80.3563519,89.5273529 C80.0363503,89.1873512 79.7863528,88.7823553 79.6063519,88.3123529 C79.426351,87.8423506 79.3363519,87.3223558 79.3363519,86.7523529 L79.3363519,86.3923529 C79.3363519,85.8723503 79.428851,85.3873552 79.6138519,84.9373529 C79.7988529,84.4873507 80.0563503,84.0998546 80.3863519,83.7748529 C80.7163536,83.4498513 81.1038497,83.1948539 81.5488519,83.0098529 C81.9938542,82.824852 82.4763493,82.7323529 82.9963519,82.7323529 C83.606355,82.7323529 84.1338497,82.8448518 84.5788519,83.0698529 C85.0238542,83.2948541 85.3888505,83.5723513 85.6738519,83.9023529 C85.9588534,84.2323546 86.1688513,84.592351 86.3038519,84.9823529 C86.4388526,85.3723549 86.5063519,85.7323513 86.5063519,86.0623529 L86.5063519,87.0223529 L80.5063519,87.0223529 Z M82.9963519,83.8423529 C82.6663503,83.8423529 82.3588534,83.8948524 82.0738519,83.9998529 C81.7888505,84.1048535 81.538853,84.252352 81.3238519,84.4423529 C81.1088509,84.6323539 80.9338526,84.8548517 80.7988519,85.1098529 C80.6638513,85.3648542 80.5763521,85.6423514 80.5363519,85.9423529 L85.3363519,85.9423529 C85.3163518,85.6223513 85.2388526,85.3323542 85.1038519,85.0723529 C84.9688513,84.8123516 84.793853,84.5923538 84.5788519,84.4123529 C84.3638509,84.232352 84.1188533,84.0923534 83.8438519,83.9923529 C83.5688506,83.8923524 83.2863534,83.8423529 82.9963519,83.8423529 Z M102.436352,90.3823529 L100.126352,90.3823529 L97.5313519,82.9423529 L98.9113519,82.9423529 L101.191352,89.8423529 L101.371352,89.8423529 L103.651352,82.9423529 L105.031352,82.9423529 L102.436352,90.3823529 Z M112.591352,89.1223529 L112.411352,89.1223529 C112.171351,89.6223554 111.838854,89.9923517 111.413852,90.2323529 C110.98885,90.4723541 110.541354,90.5923529 110.071352,90.5923529 C109.581349,90.5923529 109.126354,90.5098538 108.706352,90.3448529 C108.28635,90.1798521 107.918854,89.9348546 107.603852,89.6098529 C107.28885,89.2848513 107.041353,88.8873553 106.861352,88.4173529 C106.681351,87.9473506 106.591352,87.402356 106.591352,86.7823529 L106.591352,86.5423529 C106.591352,85.9323499 106.681351,85.3923553 106.861352,84.9223529 C107.041353,84.4523506 107.28885,84.0548546 107.603852,83.7298529 C107.918854,83.4048513 108.28635,83.1573538 108.706352,82.9873529 C109.126354,82.8173521 109.57135,82.7323529 110.041352,82.7323529 C110.551354,82.7323529 111.01385,82.8448518 111.428852,83.0698529 C111.843854,83.2948541 112.171351,83.6423506 112.411352,84.1123529 L112.591352,84.1123529 L112.591352,82.9423529 L113.761352,82.9423529 L113.761352,88.8523529 C113.761352,89.1523544 113.896351,89.3023529 114.166352,89.3023529 L114.541352,89.3023529 L114.541352,90.3823529 L113.746352,90.3823529 C113.40635,90.3823529 113.128853,90.272354 112.913852,90.0523529 C112.698851,89.8323518 112.591352,89.5523546 112.591352,89.2123529 L112.591352,89.1223529 Z M110.191352,89.4823529 C110.541354,89.4823529 110.86385,89.4173536 111.158852,89.2873529 C111.453853,89.1573523 111.706351,88.9723541 111.916352,88.7323529 C112.126353,88.4923517 112.291351,88.2048546 112.411352,87.8698529 C112.531353,87.5348513 112.591352,87.162355 112.591352,86.7523529 L112.591352,86.5723529 C112.591352,86.1723509 112.531353,85.8048546 112.411352,85.4698529 C112.291351,85.1348513 112.123853,84.8473541 111.908852,84.6073529 C111.693851,84.3673517 111.438853,84.1798536 111.143852,84.0448529 C110.84885,83.9098523 110.531354,83.8423529 110.191352,83.8423529 C109.84135,83.8423529 109.521353,83.9073523 109.231352,84.0373529 C108.94135,84.1673536 108.688853,84.3498518 108.473852,84.5848529 C108.258851,84.8198541 108.091353,85.1048513 107.971352,85.4398529 C107.851351,85.7748546 107.791352,86.1423509 107.791352,86.5423529 L107.791352,86.7823529 C107.791352,87.6323572 108.01385,88.2948506 108.458852,88.7698529 C108.903854,89.2448553 109.481348,89.4823529 110.191352,89.4823529 Z M115.951352,82.9423529 L118.651352,82.9423529 L118.651352,83.9323529 L118.831352,83.9323529 C119.021353,83.5223509 119.29135,83.2198539 119.641352,83.0248529 C119.991354,82.829852 120.39135,82.7323529 120.841352,82.7323529 C121.591356,82.7323529 122.19635,82.9773505 122.656352,83.4673529 C123.116354,83.9573554 123.361352,84.6723482 123.391352,85.6123529 L122.161352,85.7923529 C122.161352,85.1023495 121.996354,84.6048545 121.666352,84.2998529 C121.33635,83.9948514 120.931354,83.8423529 120.451352,83.8423529 C120.14135,83.8423529 119.873853,83.9023523 119.648852,84.0223529 C119.423851,84.1423535 119.236353,84.3073519 119.086352,84.5173529 C118.936351,84.727354 118.826352,84.9723515 118.756352,85.2523529 C118.686352,85.5323543 118.651352,85.8323513 118.651352,86.1523529 L118.651352,89.3023529 L120.541352,89.3023529 L120.541352,90.3823529 L115.771352,90.3823529 L115.771352,89.3023529 L117.481352,89.3023529 L117.481352,84.0223529 L115.951352,84.0223529 L115.951352,82.9423529 Z M127.861352,80.7223529 C127.861352,80.4323515 127.963851,80.184854 128.168852,79.9798529 C128.373853,79.7748519 128.62135,79.6723529 128.911352,79.6723529 C129.201353,79.6723529 129.448851,79.7748519 129.653852,79.9798529 C129.858853,80.184854 129.961352,80.4323515 129.961352,80.7223529 C129.961352,81.0123544 129.858853,81.2598519 129.653852,81.4648529 C129.448851,81.669854 129.201353,81.7723529 128.911352,81.7723529 C128.62135,81.7723529 128.373853,81.669854 128.168852,81.4648529 C127.963851,81.2598519 127.861352,81.0123544 127.861352,80.7223529 Z M125.731352,89.3023529 L128.341352,89.3023529 L128.341352,84.0223529 L126.001352,84.0223529 L126.001352,82.9423529 L129.511352,82.9423529 L129.511352,89.3023529 L131.941352,89.3023529 L131.941352,90.3823529 L125.731352,90.3823529 L125.731352,89.3023529 Z M140.131352,89.1223529 L139.951352,89.1223529 C139.711351,89.6223554 139.378854,89.9923517 138.953852,90.2323529 C138.52885,90.4723541 138.081354,90.5923529 137.611352,90.5923529 C137.121349,90.5923529 136.666354,90.5098538 136.246352,90.3448529 C135.82635,90.1798521 135.458854,89.9348546 135.143852,89.6098529 C134.82885,89.2848513 134.581353,88.8873553 134.401352,88.4173529 C134.221351,87.9473506 134.131352,87.402356 134.131352,86.7823529 L134.131352,86.5423529 C134.131352,85.9323499 134.221351,85.3923553 134.401352,84.9223529 C134.581353,84.4523506 134.82885,84.0548546 135.143852,83.7298529 C135.458854,83.4048513 135.82635,83.1573538 136.246352,82.9873529 C136.666354,82.8173521 137.11135,82.7323529 137.581352,82.7323529 C138.091354,82.7323529 138.55385,82.8448518 138.968852,83.0698529 C139.383854,83.2948541 139.711351,83.6423506 139.951352,84.1123529 L140.131352,84.1123529 L140.131352,82.9423529 L141.301352,82.9423529 L141.301352,88.8523529 C141.301352,89.1523544 141.436351,89.3023529 141.706352,89.3023529 L142.081352,89.3023529 L142.081352,90.3823529 L141.286352,90.3823529 C140.94635,90.3823529 140.668853,90.272354 140.453852,90.0523529 C140.238851,89.8323518 140.131352,89.5523546 140.131352,89.2123529 L140.131352,89.1223529 Z M137.731352,89.4823529 C138.081354,89.4823529 138.40385,89.4173536 138.698852,89.2873529 C138.993853,89.1573523 139.246351,88.9723541 139.456352,88.7323529 C139.666353,88.4923517 139.831351,88.2048546 139.951352,87.8698529 C140.071353,87.5348513 140.131352,87.162355 140.131352,86.7523529 L140.131352,86.5723529 C140.131352,86.1723509 140.071353,85.8048546 139.951352,85.4698529 C139.831351,85.1348513 139.663853,84.8473541 139.448852,84.6073529 C139.233851,84.3673517 138.978853,84.1798536 138.683852,84.0448529 C138.38885,83.9098523 138.071354,83.8423529 137.731352,83.8423529 C137.38135,83.8423529 137.061353,83.9073523 136.771352,84.0373529 C136.48135,84.1673536 136.228853,84.3498518 136.013852,84.5848529 C135.798851,84.8198541 135.631353,85.1048513 135.511352,85.4398529 C135.391351,85.7748546 135.331352,86.1423509 135.331352,86.5423529 L135.331352,86.7823529 C135.331352,87.6323572 135.55385,88.2948506 135.998852,88.7698529 C136.443854,89.2448553 137.021348,89.4823529 137.731352,89.4823529 Z M144.811352,90.3823529 L143.641352,90.3823529 L143.641352,79.8823529 L144.811352,79.8823529 L144.811352,84.1123529 L144.991352,84.1123529 C145.251353,83.6623507 145.61135,83.3198541 146.071352,83.0848529 C146.531354,82.8498518 147.031349,82.7323529 147.571352,82.7323529 C148.031354,82.7323529 148.46635,82.8173521 148.876352,82.9873529 C149.286354,83.1573538 149.64885,83.4023513 149.963852,83.7223529 C150.278854,84.0423545 150.528851,84.4373506 150.713852,84.9073529 C150.898853,85.3773553 150.991352,85.9123499 150.991352,86.5123529 L150.991352,86.8123529 C150.991352,87.422356 150.901353,87.9623506 150.721352,88.4323529 C150.541351,88.9023553 150.293854,89.2973513 149.978852,89.6173529 C149.66385,89.9373545 149.296354,90.1798521 148.876352,90.3448529 C148.45635,90.5098538 148.011354,90.5923529 147.541352,90.5923529 C147.301351,90.5923529 147.056353,90.5648532 146.806352,90.5098529 C146.556351,90.4548527 146.318853,90.3698535 146.093852,90.2548529 C145.868851,90.1398524 145.661353,89.9998538 145.471352,89.8348529 C145.281351,89.6698521 145.121353,89.4723541 144.991352,89.2423529 L144.811352,89.2423529 L144.811352,90.3823529 Z M147.301352,89.4823529 C147.661354,89.4823529 147.99135,89.4198536 148.291352,89.2948529 C148.591353,89.1698523 148.853851,88.9923541 149.078852,88.7623529 C149.303853,88.5323518 149.478851,88.2523546 149.603852,87.9223529 C149.728853,87.5923513 149.791352,87.222355 149.791352,86.8123529 L149.791352,86.5123529 C149.791352,86.1123509 149.728853,85.7498546 149.603852,85.4248529 C149.478851,85.0998513 149.303853,84.8198541 149.078852,84.5848529 C148.853851,84.3498518 148.588853,84.1673536 148.283852,84.0373529 C147.97885,83.9073523 147.651354,83.8423529 147.301352,83.8423529 C146.95135,83.8423529 146.626353,83.9098523 146.326352,84.0448529 C146.02635,84.1798536 145.763853,84.3673517 145.538852,84.6073529 C145.313851,84.8473541 145.136353,85.1348513 145.006352,85.4698529 C144.876351,85.8048546 144.811352,86.1723509 144.811352,86.5723529 L144.811352,86.7523529 C144.811352,87.162355 144.876351,87.5348513 145.006352,87.8698529 C145.136353,88.2048546 145.313851,88.4923517 145.538852,88.7323529 C145.763853,88.9723541 146.02635,89.1573523 146.326352,89.2873529 C146.626353,89.4173536 146.95135,89.4823529 147.301352,89.4823529 Z M153.091352,89.3023529 L155.791352,89.3023529 L155.791352,80.9623529 L153.181352,80.9623529 L153.181352,79.8823529 L156.961352,79.8823529 L156.961352,89.3023529 L159.661352,89.3023529 L159.661352,90.3823529 L153.091352,90.3823529 L153.091352,89.3023529 Z M163.126352,87.0223529 C163.156352,87.7623566 163.38635,88.3573507 163.816352,88.8073529 C164.246354,89.2573552 164.846348,89.4823529 165.616352,89.4823529 C165.966354,89.4823529 166.271351,89.4423533 166.531352,89.3623529 C166.791353,89.2823525 167.013851,89.1723536 167.198852,89.0323529 C167.383853,88.8923522 167.533851,88.7298539 167.648852,88.5448529 C167.763853,88.359852 167.856352,88.162354 167.926352,87.9523529 L169.036352,88.2523529 C168.826351,88.9423564 168.438855,89.5048508 167.873852,89.9398529 C167.308849,90.3748551 166.546357,90.5923529 165.586352,90.5923529 C165.056349,90.5923529 164.568854,90.4998539 164.123852,90.3148529 C163.67885,90.129852 163.296354,89.8673546 162.976352,89.5273529 C162.65635,89.1873512 162.406353,88.7823553 162.226352,88.3123529 C162.046351,87.8423506 161.956352,87.3223558 161.956352,86.7523529 L161.956352,86.3923529 C161.956352,85.8723503 162.048851,85.3873552 162.233852,84.9373529 C162.418853,84.4873507 162.67635,84.0998546 163.006352,83.7748529 C163.336354,83.4498513 163.72385,83.1948539 164.168852,83.0098529 C164.613854,82.824852 165.096349,82.7323529 165.616352,82.7323529 C166.226355,82.7323529 166.75385,82.8448518 167.198852,83.0698529 C167.643854,83.2948541 168.008851,83.5723513 168.293852,83.9023529 C168.578853,84.2323546 168.788851,84.592351 168.923852,84.9823529 C169.058853,85.3723549 169.126352,85.7323513 169.126352,86.0623529 L169.126352,87.0223529 L163.126352,87.0223529 Z M165.616352,83.8423529 C165.28635,83.8423529 164.978853,83.8948524 164.693852,83.9998529 C164.408851,84.1048535 164.158853,84.252352 163.943852,84.4423529 C163.728851,84.6323539 163.553853,84.8548517 163.418852,85.1098529 C163.283851,85.3648542 163.196352,85.6423514 163.156352,85.9423529 L167.956352,85.9423529 C167.936352,85.6223513 167.858853,85.3323542 167.723852,85.0723529 C167.588851,84.8123516 167.413853,84.5923538 167.198852,84.4123529 C166.983851,84.232352 166.738853,84.0923534 166.463852,83.9923529 C166.188851,83.8923524 165.906353,83.8423529 165.616352,83.8423529 Z M172.996352,84.8623529 C172.996352,85.2223547 173.14885,85.497352 173.453852,85.6873529 C173.758853,85.8773539 174.316348,86.0023526 175.126352,86.0623529 C175.996356,86.1323533 176.65885,86.3398512 177.113852,86.6848529 C177.568854,87.0298547 177.796352,87.5323496 177.796352,88.1923529 L177.796352,88.2823529 C177.796352,88.6423547 177.723853,88.9648515 177.578852,89.2498529 C177.433851,89.5348544 177.233853,89.7773519 176.978852,89.9773529 C176.723851,90.1773539 176.413854,90.3298524 176.048852,90.4348529 C175.68385,90.5398535 175.286354,90.5923529 174.856352,90.5923529 C174.276349,90.5923529 173.778854,90.5148537 173.363852,90.3598529 C172.94885,90.2048522 172.603853,89.9998542 172.328852,89.7448529 C172.053851,89.4898517 171.846353,89.1998546 171.706352,88.8748529 C171.566351,88.5498513 171.486352,88.2223546 171.466352,87.8923529 L172.576352,87.6223529 C172.626352,88.1923558 172.84635,88.6498512 173.236352,88.9948529 C173.626354,89.3398547 174.146349,89.5123529 174.796352,89.5123529 C175.346355,89.5123529 175.78885,89.404854 176.123852,89.1898529 C176.458854,88.9748519 176.626352,88.6723549 176.626352,88.2823529 C176.626352,87.8623508 176.461354,87.5623538 176.131352,87.3823529 C175.80135,87.202352 175.266356,87.0873532 174.526352,87.0373529 C173.666348,86.9773526 173.006354,86.7773546 172.546352,86.4373529 C172.08635,86.0973512 171.856352,85.6023562 171.856352,84.9523529 L171.856352,84.8623529 C171.856352,84.5123512 171.931351,84.2048543 172.081352,83.9398529 C172.231353,83.6748516 172.433851,83.4523538 172.688852,83.2723529 C172.943853,83.092352 173.23135,82.9573534 173.551352,82.8673529 C173.871354,82.7773525 174.20635,82.7323529 174.556352,82.7323529 C175.046354,82.7323529 175.47635,82.7998523 175.846352,82.9348529 C176.216354,83.0698536 176.526351,83.2448519 176.776352,83.4598529 C177.026353,83.674854 177.218851,83.9223515 177.353852,84.2023529 C177.488853,84.4823543 177.576352,84.7623515 177.616352,85.0423529 L176.506352,85.3123529 C176.456352,84.8323505 176.263854,84.4573543 175.928852,84.1873529 C175.59385,83.9173516 175.156355,83.7823529 174.616352,83.7823529 C174.406351,83.7823529 174.203853,83.8048527 174.008852,83.8498529 C173.813851,83.8948532 173.641353,83.9623525 173.491352,84.0523529 C173.341351,84.1423534 173.221352,84.2548523 173.131352,84.3898529 C173.041351,84.5248536 172.996352,84.682352 172.996352,84.8623529 Z M189.556352,82.9423529 L191.896352,82.9423529 L191.896352,79.8823529 L193.066352,79.8823529 L193.066352,82.9423529 L195.946352,82.9423529 L195.946352,84.0223529 L193.066352,84.0223529 L193.066352,88.8523529 C193.066352,89.1523544 193.201351,89.3023529 193.471352,89.3023529 L195.586352,89.3023529 L195.586352,90.3823529 L193.051352,90.3823529 C192.71135,90.3823529 192.433853,90.272354 192.218852,90.0523529 C192.003851,89.8323518 191.896352,89.5523546 191.896352,89.2123529 L191.896352,84.0223529 L189.556352,84.0223529 L189.556352,82.9423529 Z M206.011352,86.7523529 C206.011352,87.372356 205.908853,87.9198506 205.703852,88.3948529 C205.498851,88.8698553 205.226354,89.2698513 204.886352,89.5948529 C204.54635,89.9198546 204.148854,90.1673521 203.693852,90.3373529 C203.23885,90.5073538 202.766354,90.5923529 202.276352,90.5923529 C201.776349,90.5923529 201.301354,90.5073538 200.851352,90.3373529 C200.40135,90.1673521 200.006354,89.9198546 199.666352,89.5948529 C199.32635,89.2698513 199.053853,88.8698553 198.848852,88.3948529 C198.643851,87.9198506 198.541352,87.372356 198.541352,86.7523529 L198.541352,86.5723529 C198.541352,85.9623499 198.643851,85.4198553 198.848852,84.9448529 C199.053853,84.4698506 199.32885,84.0673546 199.673852,83.7373529 C200.018854,83.4073513 200.41635,83.1573538 200.866352,82.9873529 C201.316354,82.8173521 201.786349,82.7323529 202.276352,82.7323529 C202.766354,82.7323529 203.23635,82.8173521 203.686352,82.9873529 C204.136354,83.1573538 204.53385,83.4073513 204.878852,83.7373529 C205.223854,84.0673546 205.498851,84.4698506 205.703852,84.9448529 C205.908853,85.4198553 206.011352,85.9623499 206.011352,86.5723529 L206.011352,86.7523529 Z M202.276352,89.4823529 C202.636354,89.4823529 202.96885,89.4198536 203.273852,89.2948529 C203.578853,89.1698523 203.846351,88.9873541 204.076352,88.7473529 C204.306353,88.5073517 204.486351,88.2198546 204.616352,87.8848529 C204.746353,87.5498513 204.811352,87.172355 204.811352,86.7523529 L204.811352,86.5723529 C204.811352,86.1723509 204.746353,85.8048546 204.616352,85.4698529 C204.486351,85.1348513 204.306353,84.8473541 204.076352,84.6073529 C203.846351,84.3673517 203.576353,84.1798536 203.266352,84.0448529 C202.95635,83.9098523 202.626354,83.8423529 202.276352,83.8423529 C201.92635,83.8423529 201.596353,83.9098523 201.286352,84.0448529 C200.97635,84.1798536 200.706353,84.3673517 200.476352,84.6073529 C200.246351,84.8473541 200.066353,85.1348513 199.936352,85.4698529 C199.806351,85.8048546 199.741352,86.1723509 199.741352,86.5723529 L199.741352,86.7523529 C199.741352,87.172355 199.806351,87.5498513 199.936352,87.8848529 C200.066353,88.2198546 200.246351,88.5073517 200.476352,88.7473529 C200.706353,88.9873541 200.97385,89.1698523 201.278852,89.2948529 C201.583853,89.4198536 201.91635,89.4823529 202.276352,89.4823529 Z M217.096352,82.9423529 L219.436352,82.9423529 L219.436352,79.8823529 L220.606352,79.8823529 L220.606352,82.9423529 L223.486352,82.9423529 L223.486352,84.0223529 L220.606352,84.0223529 L220.606352,88.8523529 C220.606352,89.1523544 220.741351,89.3023529 221.011352,89.3023529 L223.126352,89.3023529 L223.126352,90.3823529 L220.591352,90.3823529 C220.25135,90.3823529 219.973853,90.272354 219.758852,90.0523529 C219.543851,89.8323518 219.436352,89.5523546 219.436352,89.2123529 L219.436352,84.0223529 L217.096352,84.0223529 L217.096352,82.9423529 Z M226.111352,82.9423529 L228.811352,82.9423529 L228.811352,83.9323529 L228.991352,83.9323529 C229.181353,83.5223509 229.45135,83.2198539 229.801352,83.0248529 C230.151354,82.829852 230.55135,82.7323529 231.001352,82.7323529 C231.751356,82.7323529 232.35635,82.9773505 232.816352,83.4673529 C233.276354,83.9573554 233.521352,84.6723482 233.551352,85.6123529 L232.321352,85.7923529 C232.321352,85.1023495 232.156354,84.6048545 231.826352,84.2998529 C231.49635,83.9948514 231.091354,83.8423529 230.611352,83.8423529 C230.30135,83.8423529 230.033853,83.9023523 229.808852,84.0223529 C229.583851,84.1423535 229.396353,84.3073519 229.246352,84.5173529 C229.096351,84.727354 228.986352,84.9723515 228.916352,85.2523529 C228.846352,85.5323543 228.811352,85.8323513 228.811352,86.1523529 L228.811352,89.3023529 L230.701352,89.3023529 L230.701352,90.3823529 L225.931352,90.3823529 L225.931352,89.3023529 L227.641352,89.3023529 L227.641352,84.0223529 L226.111352,84.0223529 L226.111352,82.9423529 Z M241.111352,89.1223529 L240.931352,89.1223529 C240.691351,89.6223554 240.358854,89.9923517 239.933852,90.2323529 C239.50885,90.4723541 239.061354,90.5923529 238.591352,90.5923529 C238.101349,90.5923529 237.646354,90.5098538 237.226352,90.3448529 C236.80635,90.1798521 236.438854,89.9348546 236.123852,89.6098529 C235.80885,89.2848513 235.561353,88.8873553 235.381352,88.4173529 C235.201351,87.9473506 235.111352,87.402356 235.111352,86.7823529 L235.111352,86.5423529 C235.111352,85.9323499 235.201351,85.3923553 235.381352,84.9223529 C235.561353,84.4523506 235.80885,84.0548546 236.123852,83.7298529 C236.438854,83.4048513 236.80635,83.1573538 237.226352,82.9873529 C237.646354,82.8173521 238.09135,82.7323529 238.561352,82.7323529 C239.071354,82.7323529 239.53385,82.8448518 239.948852,83.0698529 C240.363854,83.2948541 240.691351,83.6423506 240.931352,84.1123529 L241.111352,84.1123529 L241.111352,82.9423529 L242.281352,82.9423529 L242.281352,88.8523529 C242.281352,89.1523544 242.416351,89.3023529 242.686352,89.3023529 L243.061352,89.3023529 L243.061352,90.3823529 L242.266352,90.3823529 C241.92635,90.3823529 241.648853,90.272354 241.433852,90.0523529 C241.218851,89.8323518 241.111352,89.5523546 241.111352,89.2123529 L241.111352,89.1223529 Z M238.711352,89.4823529 C239.061354,89.4823529 239.38385,89.4173536 239.678852,89.2873529 C239.973853,89.1573523 240.226351,88.9723541 240.436352,88.7323529 C240.646353,88.4923517 240.811351,88.2048546 240.931352,87.8698529 C241.051353,87.5348513 241.111352,87.162355 241.111352,86.7523529 L241.111352,86.5723529 C241.111352,86.1723509 241.051353,85.8048546 240.931352,85.4698529 C240.811351,85.1348513 240.643853,84.8473541 240.428852,84.6073529 C240.213851,84.3673517 239.958853,84.1798536 239.663852,84.0448529 C239.36885,83.9098523 239.051354,83.8423529 238.711352,83.8423529 C238.36135,83.8423529 238.041353,83.9073523 237.751352,84.0373529 C237.46135,84.1673536 237.208853,84.3498518 236.993852,84.5848529 C236.778851,84.8198541 236.611353,85.1048513 236.491352,85.4398529 C236.371351,85.7748546 236.311352,86.1423509 236.311352,86.5423529 L236.311352,86.7823529 C236.311352,87.6323572 236.53385,88.2948506 236.978852,88.7698529 C237.423854,89.2448553 238.001348,89.4823529 238.711352,89.4823529 Z M251.851352,87.7423529 C251.771352,88.152355 251.633853,88.5323512 251.438852,88.8823529 C251.243851,89.2323547 250.996353,89.5348517 250.696352,89.7898529 C250.39635,90.0448542 250.046354,90.2423522 249.646352,90.3823529 C249.24635,90.5223536 248.801354,90.5923529 248.311352,90.5923529 C247.791349,90.5923529 247.298854,90.5073538 246.833852,90.3373529 C246.36885,90.1673521 245.961354,89.9198546 245.611352,89.5948529 C245.26135,89.2698513 244.983853,88.8723553 244.778852,88.4023529 C244.573851,87.9323506 244.471352,87.392356 244.471352,86.7823529 L244.471352,86.6023529 C244.471352,86.0023499 244.573851,85.4623553 244.778852,84.9823529 C244.983853,84.5023505 245.26135,84.0973546 245.611352,83.7673529 C245.961354,83.4373513 246.36885,83.1823538 246.833852,83.0023529 C247.298854,82.822352 247.791349,82.7323529 248.311352,82.7323529 C248.781354,82.7323529 249.21635,82.8023522 249.616352,82.9423529 C250.016354,83.0823536 250.36885,83.2798517 250.673852,83.5348529 C250.978853,83.7898542 251.228851,84.0923512 251.423852,84.4423529 C251.618853,84.7923547 251.751352,85.1723509 251.821352,85.5823529 L250.651352,85.8523529 C250.621352,85.5923516 250.548853,85.3398542 250.433852,85.0948529 C250.318851,84.8498517 250.163853,84.6348539 249.968852,84.4498529 C249.773851,84.264852 249.536353,84.1173535 249.256352,84.0073529 C248.976351,83.8973524 248.651354,83.8423529 248.281352,83.8423529 C247.92135,83.8423529 247.583854,83.9098523 247.268852,84.0448529 C246.95385,84.1798536 246.676353,84.3698517 246.436352,84.6148529 C246.196351,84.8598542 246.008853,85.1523512 245.873852,85.4923529 C245.738851,85.8323546 245.671352,86.2023509 245.671352,86.6023529 L245.671352,86.7823529 C245.671352,87.202355 245.738851,87.5798513 245.873852,87.9148529 C246.008853,88.2498546 246.196351,88.5323518 246.436352,88.7623529 C246.676353,88.9923541 246.95635,89.1698523 247.276352,89.2948529 C247.596354,89.4198536 247.94135,89.4823529 248.311352,89.4823529 C248.681354,89.4823529 249.003851,89.4248535 249.278852,89.3098529 C249.553853,89.1948524 249.788851,89.0448539 249.983852,88.8598529 C250.178853,88.674852 250.333851,88.4623541 250.448852,88.2223529 C250.563853,87.9823517 250.641352,87.7323542 250.681352,87.4723529 L251.851352,87.7423529 Z M255.991352,86.0323529 L256.246352,86.0323529 L259.081352,82.9423529 L260.521352,82.9423529 L260.521352,83.0323529 L257.431352,86.4373529 L257.431352,86.7073529 L260.881352,90.2923529 L260.881352,90.3823529 L259.441352,90.3823529 L256.276352,87.1123529 L255.991352,87.1123529 L255.991352,90.3823529 L254.821352,90.3823529 L254.821352,79.8823529 L255.991352,79.8823529 L255.991352,86.0323529 Z M273.976352,84.8623529 C273.976352,85.2223547 274.12885,85.497352 274.433852,85.6873529 C274.738853,85.8773539 275.296348,86.0023526 276.106352,86.0623529 C276.976356,86.1323533 277.63885,86.3398512 278.093852,86.6848529 C278.548854,87.0298547 278.776352,87.5323496 278.776352,88.1923529 L278.776352,88.2823529 C278.776352,88.6423547 278.703853,88.9648515 278.558852,89.2498529 C278.413851,89.5348544 278.213853,89.7773519 277.958852,89.9773529 C277.703851,90.1773539 277.393854,90.3298524 277.028852,90.4348529 C276.66385,90.5398535 276.266354,90.5923529 275.836352,90.5923529 C275.256349,90.5923529 274.758854,90.5148537 274.343852,90.3598529 C273.92885,90.2048522 273.583853,89.9998542 273.308852,89.7448529 C273.033851,89.4898517 272.826353,89.1998546 272.686352,88.8748529 C272.546351,88.5498513 272.466352,88.2223546 272.446352,87.8923529 L273.556352,87.6223529 C273.606352,88.1923558 273.82635,88.6498512 274.216352,88.9948529 C274.606354,89.3398547 275.126349,89.5123529 275.776352,89.5123529 C276.326355,89.5123529 276.76885,89.404854 277.103852,89.1898529 C277.438854,88.9748519 277.606352,88.6723549 277.606352,88.2823529 C277.606352,87.8623508 277.441354,87.5623538 277.111352,87.3823529 C276.78135,87.202352 276.246356,87.0873532 275.506352,87.0373529 C274.646348,86.9773526 273.986354,86.7773546 273.526352,86.4373529 C273.06635,86.0973512 272.836352,85.6023562 272.836352,84.9523529 L272.836352,84.8623529 C272.836352,84.5123512 272.911351,84.2048543 273.061352,83.9398529 C273.211353,83.6748516 273.413851,83.4523538 273.668852,83.2723529 C273.923853,83.092352 274.21135,82.9573534 274.531352,82.8673529 C274.851354,82.7773525 275.18635,82.7323529 275.536352,82.7323529 C276.026354,82.7323529 276.45635,82.7998523 276.826352,82.9348529 C277.196354,83.0698536 277.506351,83.2448519 277.756352,83.4598529 C278.006353,83.674854 278.198851,83.9223515 278.333852,84.2023529 C278.468853,84.4823543 278.556352,84.7623515 278.596352,85.0423529 L277.486352,85.3123529 C277.436352,84.8323505 277.243854,84.4573543 276.908852,84.1873529 C276.57385,83.9173516 276.136355,83.7823529 275.596352,83.7823529 C275.386351,83.7823529 275.183853,83.8048527 274.988852,83.8498529 C274.793851,83.8948532 274.621353,83.9623525 274.471352,84.0523529 C274.321351,84.1423534 274.201352,84.2548523 274.111352,84.3898529 C274.021351,84.5248536 273.976352,84.682352 273.976352,84.8623529 Z M283.921352,80.7223529 C283.921352,80.4323515 284.023851,80.184854 284.228852,79.9798529 C284.433853,79.7748519 284.68135,79.6723529 284.971352,79.6723529 C285.261353,79.6723529 285.508851,79.7748519 285.713852,79.9798529 C285.918853,80.184854 286.021352,80.4323515 286.021352,80.7223529 C286.021352,81.0123544 285.918853,81.2598519 285.713852,81.4648529 C285.508851,81.669854 285.261353,81.7723529 284.971352,81.7723529 C284.68135,81.7723529 284.433853,81.669854 284.228852,81.4648529 C284.023851,81.2598519 283.921352,81.0123544 283.921352,80.7223529 Z M281.791352,89.3023529 L284.401352,89.3023529 L284.401352,84.0223529 L282.061352,84.0223529 L282.061352,82.9423529 L285.571352,82.9423529 L285.571352,89.3023529 L288.001352,89.3023529 L288.001352,90.3823529 L281.791352,90.3823529 L281.791352,89.3023529 Z M297.946352,90.3823529 L296.776352,90.3823529 L296.776352,85.0423529 C296.776352,84.6923512 296.696353,84.4048541 296.536352,84.1798529 C296.376351,83.9548518 296.121354,83.8423529 295.771352,83.8423529 C295.44135,83.8423529 295.173853,83.9648517 294.968852,84.2098529 C294.763851,84.4548542 294.661352,84.8323504 294.661352,85.3423529 L294.661352,90.3823529 L293.491352,90.3823529 L293.491352,84.9823529 C293.491352,84.6523513 293.401353,84.379854 293.221352,84.1648529 C293.041351,83.9498519 292.801353,83.8423529 292.501352,83.8423529 C292.14135,83.8423529 291.863853,83.9723516 291.668852,84.2323529 C291.473851,84.4923542 291.376352,84.8323508 291.376352,85.2523529 L291.376352,90.3823529 L290.206352,90.3823529 L290.206352,82.9423529 L291.376352,82.9423529 L291.376352,83.7523529 L291.556352,83.7523529 C291.686353,83.4023512 291.876351,83.1448538 292.126352,82.9798529 C292.376353,82.8148521 292.67135,82.7323529 293.011352,82.7323529 C293.371354,82.7323529 293.668851,82.827352 293.903852,83.0173529 C294.138853,83.2073539 294.301351,83.4523514 294.391352,83.7523529 L294.571352,83.7523529 C294.911354,83.0723495 295.451348,82.7323529 296.191352,82.7323529 C296.751355,82.7323529 297.18385,82.9098512 297.488852,83.2648529 C297.793853,83.6198547 297.946352,84.0823501 297.946352,84.6523529 L297.946352,90.3823529 Z M305.281352,82.9423529 L306.451352,82.9423529 L306.451352,90.3823529 L305.281352,90.3823529 L305.281352,89.0323529 L305.101352,89.0323529 C304.861351,89.5123553 304.546354,89.8923515 304.156352,90.1723529 C303.76635,90.4523543 303.271355,90.5923529 302.671352,90.5923529 C302.26135,90.5923529 301.883854,90.5248536 301.538852,90.3898529 C301.19385,90.2548523 300.898853,90.0523543 300.653852,89.7823529 C300.408851,89.5123516 300.218853,89.1773549 300.083852,88.7773529 C299.948851,88.3773509 299.881352,87.9123556 299.881352,87.3823529 L299.881352,82.9423529 L301.051352,82.9423529 L301.051352,87.2323529 C301.051352,88.0123568 301.21135,88.5823511 301.531352,88.9423529 C301.851354,89.3023547 302.341349,89.4823529 303.001352,89.4823529 C303.711355,89.4823529 304.26885,89.2398554 304.673852,88.7548529 C305.078854,88.2698505 305.281352,87.622357 305.281352,86.8123529 L305.281352,82.9423529 Z M309.151352,89.3023529 L311.851352,89.3023529 L311.851352,80.9623529 L309.241352,80.9623529 L309.241352,79.8823529 L313.021352,79.8823529 L313.021352,89.3023529 L315.721352,89.3023529 L315.721352,90.3823529 L309.151352,90.3823529 L309.151352,89.3023529 Z M323.731352,89.1223529 L323.551352,89.1223529 C323.311351,89.6223554 322.978854,89.9923517 322.553852,90.2323529 C322.12885,90.4723541 321.681354,90.5923529 321.211352,90.5923529 C320.721349,90.5923529 320.266354,90.5098538 319.846352,90.3448529 C319.42635,90.1798521 319.058854,89.9348546 318.743852,89.6098529 C318.42885,89.2848513 318.181353,88.8873553 318.001352,88.4173529 C317.821351,87.9473506 317.731352,87.402356 317.731352,86.7823529 L317.731352,86.5423529 C317.731352,85.9323499 317.821351,85.3923553 318.001352,84.9223529 C318.181353,84.4523506 318.42885,84.0548546 318.743852,83.7298529 C319.058854,83.4048513 319.42635,83.1573538 319.846352,82.9873529 C320.266354,82.8173521 320.71135,82.7323529 321.181352,82.7323529 C321.691354,82.7323529 322.15385,82.8448518 322.568852,83.0698529 C322.983854,83.2948541 323.311351,83.6423506 323.551352,84.1123529 L323.731352,84.1123529 L323.731352,82.9423529 L324.901352,82.9423529 L324.901352,88.8523529 C324.901352,89.1523544 325.036351,89.3023529 325.306352,89.3023529 L325.681352,89.3023529 L325.681352,90.3823529 L324.886352,90.3823529 C324.54635,90.3823529 324.268853,90.272354 324.053852,90.0523529 C323.838851,89.8323518 323.731352,89.5523546 323.731352,89.2123529 L323.731352,89.1223529 Z M321.331352,89.4823529 C321.681354,89.4823529 322.00385,89.4173536 322.298852,89.2873529 C322.593853,89.1573523 322.846351,88.9723541 323.056352,88.7323529 C323.266353,88.4923517 323.431351,88.2048546 323.551352,87.8698529 C323.671353,87.5348513 323.731352,87.162355 323.731352,86.7523529 L323.731352,86.5723529 C323.731352,86.1723509 323.671353,85.8048546 323.551352,85.4698529 C323.431351,85.1348513 323.263853,84.8473541 323.048852,84.6073529 C322.833851,84.3673517 322.578853,84.1798536 322.283852,84.0448529 C321.98885,83.9098523 321.671354,83.8423529 321.331352,83.8423529 C320.98135,83.8423529 320.661353,83.9073523 320.371352,84.0373529 C320.08135,84.1673536 319.828853,84.3498518 319.613852,84.5848529 C319.398851,84.8198541 319.231353,85.1048513 319.111352,85.4398529 C318.991351,85.7748546 318.931352,86.1423509 318.931352,86.5423529 L318.931352,86.7823529 C318.931352,87.6323572 319.15385,88.2948506 319.598852,88.7698529 C320.043854,89.2448553 320.621348,89.4823529 321.331352,89.4823529 Z M327.256352,82.9423529 L329.596352,82.9423529 L329.596352,79.8823529 L330.766352,79.8823529 L330.766352,82.9423529 L333.646352,82.9423529 L333.646352,84.0223529 L330.766352,84.0223529 L330.766352,88.8523529 C330.766352,89.1523544 330.901351,89.3023529 331.171352,89.3023529 L333.286352,89.3023529 L333.286352,90.3823529 L330.751352,90.3823529 C330.41135,90.3823529 330.133853,90.272354 329.918852,90.0523529 C329.703851,89.8323518 329.596352,89.5523546 329.596352,89.2123529 L329.596352,84.0223529 L327.256352,84.0223529 L327.256352,82.9423529 Z M339.001352,80.7223529 C339.001352,80.4323515 339.103851,80.184854 339.308852,79.9798529 C339.513853,79.7748519 339.76135,79.6723529 340.051352,79.6723529 C340.341353,79.6723529 340.588851,79.7748519 340.793852,79.9798529 C340.998853,80.184854 341.101352,80.4323515 341.101352,80.7223529 C341.101352,81.0123544 340.998853,81.2598519 340.793852,81.4648529 C340.588851,81.669854 340.341353,81.7723529 340.051352,81.7723529 C339.76135,81.7723529 339.513853,81.669854 339.308852,81.4648529 C339.103851,81.2598519 339.001352,81.0123544 339.001352,80.7223529 Z M336.871352,89.3023529 L339.481352,89.3023529 L339.481352,84.0223529 L337.141352,84.0223529 L337.141352,82.9423529 L340.651352,82.9423529 L340.651352,89.3023529 L343.081352,89.3023529 L343.081352,90.3823529 L336.871352,90.3823529 L336.871352,89.3023529 Z M352.891352,86.7523529 C352.891352,87.372356 352.788853,87.9198506 352.583852,88.3948529 C352.378851,88.8698553 352.106354,89.2698513 351.766352,89.5948529 C351.42635,89.9198546 351.028854,90.1673521 350.573852,90.3373529 C350.11885,90.5073538 349.646354,90.5923529 349.156352,90.5923529 C348.656349,90.5923529 348.181354,90.5073538 347.731352,90.3373529 C347.28135,90.1673521 346.886354,89.9198546 346.546352,89.5948529 C346.20635,89.2698513 345.933853,88.8698553 345.728852,88.3948529 C345.523851,87.9198506 345.421352,87.372356 345.421352,86.7523529 L345.421352,86.5723529 C345.421352,85.9623499 345.523851,85.4198553 345.728852,84.9448529 C345.933853,84.4698506 346.20885,84.0673546 346.553852,83.7373529 C346.898854,83.4073513 347.29635,83.1573538 347.746352,82.9873529 C348.196354,82.8173521 348.666349,82.7323529 349.156352,82.7323529 C349.646354,82.7323529 350.11635,82.8173521 350.566352,82.9873529 C351.016354,83.1573538 351.41385,83.4073513 351.758852,83.7373529 C352.103854,84.0673546 352.378851,84.4698506 352.583852,84.9448529 C352.788853,85.4198553 352.891352,85.9623499 352.891352,86.5723529 L352.891352,86.7523529 Z M349.156352,89.4823529 C349.516354,89.4823529 349.84885,89.4198536 350.153852,89.2948529 C350.458853,89.1698523 350.726351,88.9873541 350.956352,88.7473529 C351.186353,88.5073517 351.366351,88.2198546 351.496352,87.8848529 C351.626353,87.5498513 351.691352,87.172355 351.691352,86.7523529 L351.691352,86.5723529 C351.691352,86.1723509 351.626353,85.8048546 351.496352,85.4698529 C351.366351,85.1348513 351.186353,84.8473541 350.956352,84.6073529 C350.726351,84.3673517 350.456353,84.1798536 350.146352,84.0448529 C349.83635,83.9098523 349.506354,83.8423529 349.156352,83.8423529 C348.80635,83.8423529 348.476353,83.9098523 348.166352,84.0448529 C347.85635,84.1798536 347.586353,84.3673517 347.356352,84.6073529 C347.126351,84.8473541 346.946353,85.1348513 346.816352,85.4698529 C346.686351,85.8048546 346.621352,86.1723509 346.621352,86.5723529 L346.621352,86.7523529 C346.621352,87.172355 346.686351,87.5498513 346.816352,87.8848529 C346.946353,88.2198546 347.126351,88.5073517 347.356352,88.7473529 C347.586353,88.9873541 347.85385,89.1698523 348.158852,89.2948529 C348.463853,89.4198536 348.79635,89.4823529 349.156352,89.4823529 Z M356.221352,90.3823529 L355.051352,90.3823529 L355.051352,82.9423529 L356.221352,82.9423529 L356.221352,84.2023529 L356.401352,84.2023529 C356.861354,83.222348 357.661346,82.7323529 358.801352,82.7323529 C359.661356,82.7323529 360.346349,82.9998503 360.856352,83.5348529 C361.366354,84.0698556 361.621352,84.8723476 361.621352,85.9423529 L361.621352,90.3823529 L360.451352,90.3823529 L360.451352,86.1823529 C360.451352,85.402349 360.276354,84.8173549 359.926352,84.4273529 C359.57635,84.037351 359.101355,83.8423529 358.501352,83.8423529 C357.791348,83.8423529 357.233854,84.0848505 356.828852,84.5698529 C356.42385,85.0548554 356.221352,85.7023489 356.221352,86.5123529 L356.221352,90.3823529 Z" id="Identify-a-modelling" fill="#343434" mask="url(#mask-2)"></path>
            <path d="M47.8963519,50.7352941 L45.3713519,50.7352941 L45.3713519,54.3602941 L41.5713519,54.3602941 L41.5713519,50.7352941 L33.2713519,50.7352941 L33.2713519,48.7102941 L40.3463519,37.8602941 L45.3713519,37.8602941 L45.3713519,47.7852941 L47.8963519,47.7852941 L47.8963519,50.7352941 Z M37.2713519,47.7852941 L41.5713519,47.7852941 L41.5713519,43.3852941 L41.6713519,40.6852941 L41.6213519,40.6852941 C41.3213504,41.4352979 40.8380219,42.3352889 40.1713519,43.3852941 L37.2713519,47.7852941 Z" id="1" fill="#FFABCC" mask="url(#mask-2)"></path>
        </g>
    </g>
</svg>