<?xml version="1.0" encoding="UTF-8"?>
<svg width="432px" height="126px" viewBox="0 0 432 126" version="1.1" xmlns="http://www.w3.org/2000/svg" xmlns:xlink="http://www.w3.org/1999/xlink">
    <!-- Generator: Sketch 52.6 (67491) - http://www.bohemiancoding.com/sketch -->
    <title>flow6</title>
    <desc>Created with Sketch.</desc>
    <defs>
        <rect id="path-1" x="0" y="0" width="432" height="126"></rect>
    </defs>
    <g id="Page-4" stroke="none" stroke-width="1" fill="none" fill-rule="evenodd">
        <g id="flow6">
            <mask id="mask-2" fill="white">
                <use xlink:href="#path-1"></use>
            </mask>
            <rect stroke="#F1F1F1" stroke-width="2" x="1" y="1" width="430" height="124"></rect>
            <path d="M0,123 L434,123" id="Line-2" stroke="#FFABCC" stroke-width="6" mask="url(#mask-2)"></path>
            <path d="M33.3463519,79.8823529 L40.7263519,79.8823529 L40.7263519,81.0523529 L37.6663519,81.0523529 L37.6663519,90.3823529 L36.4063519,90.3823529 L36.4063519,81.0523529 L33.3463519,81.0523529 L33.3463519,79.8823529 Z M43.7863519,87.0223529 C43.8163521,87.7623566 44.0463498,88.3573507 44.4763519,88.8073529 C44.9063541,89.2573552 45.5063481,89.4823529 46.2763519,89.4823529 C46.6263537,89.4823529 46.9313506,89.4423533 47.1913519,89.3623529 C47.4513532,89.2823525 47.673851,89.1723536 47.8588519,89.0323529 C48.0438529,88.8923522 48.1938514,88.7298539 48.3088519,88.5448529 C48.4238525,88.359852 48.5163516,88.162354 48.5863519,87.9523529 L49.6963519,88.2523529 C49.4863509,88.9423564 49.0988548,89.5048508 48.5338519,89.9398529 C47.9688491,90.3748551 47.2063567,90.5923529 46.2463519,90.5923529 C45.7163493,90.5923529 45.2288542,90.4998539 44.7838519,90.3148529 C44.3388497,90.129852 43.9563535,89.8673546 43.6363519,89.5273529 C43.3163503,89.1873512 43.0663528,88.7823553 42.8863519,88.3123529 C42.706351,87.8423506 42.6163519,87.3223558 42.6163519,86.7523529 L42.6163519,86.3923529 C42.6163519,85.8723503 42.708851,85.3873552 42.8938519,84.9373529 C43.0788529,84.4873507 43.3363503,84.0998546 43.6663519,83.7748529 C43.9963536,83.4498513 44.3838497,83.1948539 44.8288519,83.0098529 C45.2738542,82.824852 45.7563493,82.7323529 46.2763519,82.7323529 C46.886355,82.7323529 47.4138497,82.8448518 47.8588519,83.0698529 C48.3038542,83.2948541 48.6688505,83.5723513 48.9538519,83.9023529 C49.2388534,84.2323546 49.4488513,84.592351 49.5838519,84.9823529 C49.7188526,85.3723549 49.7863519,85.7323513 49.7863519,86.0623529 L49.7863519,87.0223529 L43.7863519,87.0223529 Z M46.2763519,83.8423529 C45.9463503,83.8423529 45.6388534,83.8948524 45.3538519,83.9998529 C45.0688505,84.1048535 44.818853,84.252352 44.6038519,84.4423529 C44.3888509,84.6323539 44.2138526,84.8548517 44.0788519,85.1098529 C43.9438513,85.3648542 43.8563521,85.6423514 43.8163519,85.9423529 L48.6163519,85.9423529 C48.5963518,85.6223513 48.5188526,85.3323542 48.3838519,85.0723529 C48.2488513,84.8123516 48.073853,84.5923538 47.8588519,84.4123529 C47.6438509,84.232352 47.3988533,84.0923534 47.1238519,83.9923529 C46.8488506,83.8923524 46.5663534,83.8423529 46.2763519,83.8423529 Z M53.6563519,84.8623529 C53.6563519,85.2223547 53.8088504,85.497352 54.1138519,85.6873529 C54.4188535,85.8773539 54.9763479,86.0023526 55.7863519,86.0623529 C56.6563563,86.1323533 57.3188497,86.3398512 57.7738519,86.6848529 C58.2288542,87.0298547 58.4563519,87.5323496 58.4563519,88.1923529 L58.4563519,88.2823529 C58.4563519,88.6423547 58.3838527,88.9648515 58.2388519,89.2498529 C58.0938512,89.5348544 57.8938532,89.7773519 57.6388519,89.9773529 C57.3838507,90.1773539 57.0738538,90.3298524 56.7088519,90.4348529 C56.3438501,90.5398535 55.9463541,90.5923529 55.5163519,90.5923529 C54.936349,90.5923529 54.438854,90.5148537 54.0238519,90.3598529 C53.6088499,90.2048522 53.2638533,89.9998542 52.9888519,89.7448529 C52.7138506,89.4898517 52.5063526,89.1998546 52.3663519,88.8748529 C52.2263512,88.5498513 52.146352,88.2223546 52.1263519,87.8923529 L53.2363519,87.6223529 C53.2863522,88.1923558 53.50635,88.6498512 53.8963519,88.9948529 C54.2863539,89.3398547 54.8063487,89.5123529 55.4563519,89.5123529 C56.0063547,89.5123529 56.4488503,89.404854 56.7838519,89.1898529 C57.1188536,88.9748519 57.2863519,88.6723549 57.2863519,88.2823529 C57.2863519,87.8623508 57.1213536,87.5623538 56.7913519,87.3823529 C56.4613503,87.202352 55.9263556,87.0873532 55.1863519,87.0373529 C54.3263476,86.9773526 53.6663542,86.7773546 53.2063519,86.4373529 C52.7463496,86.0973512 52.5163519,85.6023562 52.5163519,84.9523529 L52.5163519,84.8623529 C52.5163519,84.5123512 52.5913512,84.2048543 52.7413519,83.9398529 C52.8913527,83.6748516 53.0938507,83.4523538 53.3488519,83.2723529 C53.6038532,83.092352 53.8913503,82.9573534 54.2113519,82.8673529 C54.5313535,82.7773525 54.8663502,82.7323529 55.2163519,82.7323529 C55.7063544,82.7323529 56.1363501,82.7998523 56.5063519,82.9348529 C56.8763538,83.0698536 57.1863507,83.2448519 57.4363519,83.4598529 C57.6863532,83.674854 57.8788513,83.9223515 58.0138519,84.2023529 C58.1488526,84.4823543 58.2363517,84.7623515 58.2763519,85.0423529 L57.1663519,85.3123529 C57.1163517,84.8323505 56.9238536,84.4573543 56.5888519,84.1873529 C56.2538503,83.9173516 55.8163546,83.7823529 55.2763519,83.7823529 C55.0663509,83.7823529 54.8638529,83.8048527 54.6688519,83.8498529 C54.473851,83.8948532 54.3013527,83.9623525 54.1513519,84.0523529 C54.0013512,84.1423534 53.8813524,84.2548523 53.7913519,84.3898529 C53.7013515,84.5248536 53.6563519,84.682352 53.6563519,84.8623529 Z M61.0363519,82.9423529 L63.3763519,82.9423529 L63.3763519,79.8823529 L64.5463519,79.8823529 L64.5463519,82.9423529 L67.4263519,82.9423529 L67.4263519,84.0223529 L64.5463519,84.0223529 L64.5463519,88.8523529 C64.5463519,89.1523544 64.6813506,89.3023529 64.9513519,89.3023529 L67.0663519,89.3023529 L67.0663519,90.3823529 L64.5313519,90.3823529 C64.1913502,90.3823529 63.913853,90.272354 63.6988519,90.0523529 C63.4838509,89.8323518 63.3763519,89.5523546 63.3763519,89.2123529 L63.3763519,84.0223529 L61.0363519,84.0223529 L61.0363519,82.9423529 Z M85.0513519,89.1223529 L84.8713519,89.1223529 C84.6313507,89.6223554 84.2988541,89.9923517 83.8738519,90.2323529 C83.4488498,90.4723541 83.0013543,90.5923529 82.5313519,90.5923529 C82.0413495,90.5923529 81.586354,90.5098538 81.1663519,90.3448529 C80.7463498,90.1798521 80.3788535,89.9348546 80.0638519,89.6098529 C79.7488504,89.2848513 79.5013528,88.8873553 79.3213519,88.4173529 C79.141351,87.9473506 79.0513519,87.402356 79.0513519,86.7823529 L79.0513519,86.5423529 C79.0513519,85.9323499 79.141351,85.3923553 79.3213519,84.9223529 C79.5013528,84.4523506 79.7488504,84.0548546 80.0638519,83.7298529 C80.3788535,83.4048513 80.7463498,83.1573538 81.1663519,82.9873529 C81.586354,82.8173521 82.0313496,82.7323529 82.5013519,82.7323529 C83.0113545,82.7323529 83.4738499,82.8448518 83.8888519,83.0698529 C84.303854,83.2948541 84.6313507,83.6423506 84.8713519,84.1123529 L85.0513519,84.1123529 L85.0513519,82.9423529 L86.2213519,82.9423529 L86.2213519,88.8523529 C86.2213519,89.1523544 86.3563506,89.3023529 86.6263519,89.3023529 L87.0013519,89.3023529 L87.0013519,90.3823529 L86.2063519,90.3823529 C85.8663502,90.3823529 85.588853,90.272354 85.3738519,90.0523529 C85.1588509,89.8323518 85.0513519,89.5523546 85.0513519,89.2123529 L85.0513519,89.1223529 Z M82.6513519,89.4823529 C83.0013537,89.4823529 83.3238505,89.4173536 83.6188519,89.2873529 C83.9138534,89.1573523 84.1663509,88.9723541 84.3763519,88.7323529 C84.586353,88.4923517 84.7513513,88.2048546 84.8713519,87.8698529 C84.9913525,87.5348513 85.0513519,87.162355 85.0513519,86.7523529 L85.0513519,86.5723529 C85.0513519,86.1723509 84.9913525,85.8048546 84.8713519,85.4698529 C84.7513513,85.1348513 84.583853,84.8473541 84.3688519,84.6073529 C84.1538509,84.3673517 83.8988534,84.1798536 83.6038519,84.0448529 C83.3088505,83.9098523 82.9913536,83.8423529 82.6513519,83.8423529 C82.3013502,83.8423529 81.9813534,83.9073523 81.6913519,84.0373529 C81.4013505,84.1673536 81.148853,84.3498518 80.9338519,84.5848529 C80.7188509,84.8198541 80.5513525,85.1048513 80.4313519,85.4398529 C80.3113513,85.7748546 80.2513519,86.1423509 80.2513519,86.5423529 L80.2513519,86.7823529 C80.2513519,87.6323572 80.4738497,88.2948506 80.9188519,88.7698529 C81.3638542,89.2448553 81.9413484,89.4823529 82.6513519,89.4823529 Z M90.0013519,90.3823529 L88.8313519,90.3823529 L88.8313519,82.9423529 L90.0013519,82.9423529 L90.0013519,84.2023529 L90.1813519,84.2023529 C90.6413542,83.222348 91.4413462,82.7323529 92.5813519,82.7323529 C93.4413562,82.7323529 94.1263494,82.9998503 94.6363519,83.5348529 C95.1463545,84.0698556 95.4013519,84.8723476 95.4013519,85.9423529 L95.4013519,90.3823529 L94.2313519,90.3823529 L94.2313519,86.1823529 C94.2313519,85.402349 94.0563537,84.8173549 93.7063519,84.4273529 C93.3563502,84.037351 92.8813549,83.8423529 92.2813519,83.8423529 C91.5713484,83.8423529 91.013854,84.0848505 90.6088519,84.5698529 C90.2038499,85.0548554 90.0013519,85.7023489 90.0013519,86.5123529 L90.0013519,90.3823529 Z M103.771352,89.2423529 L103.591352,89.2423529 C103.471351,89.4723541 103.318853,89.6723521 103.133852,89.8423529 C102.948851,90.0123538 102.748853,90.1523524 102.533852,90.2623529 C102.318851,90.3723535 102.091353,90.4548527 101.851352,90.5098529 C101.611351,90.5648532 101.381353,90.5923529 101.161352,90.5923529 C100.661349,90.5923529 100.196354,90.5073538 99.7663519,90.3373529 C99.3363498,90.1673521 98.9588536,89.9223545 98.6338519,89.6023529 C98.3088503,89.2823513 98.0538529,88.8848553 97.8688519,88.4098529 C97.683851,87.9348506 97.5913519,87.392356 97.5913519,86.7823529 L97.5913519,86.5423529 C97.5913519,85.9423499 97.686351,85.4048553 97.8763519,84.9298529 C98.0663529,84.4548506 98.3213503,84.0548546 98.6413519,83.7298529 C98.9613535,83.4048513 99.3363498,83.1573538 99.7663519,82.9873529 C100.196354,82.8173521 100.65135,82.7323529 101.131352,82.7323529 C101.641354,82.7323529 102.11885,82.8448518 102.563852,83.0698529 C103.008854,83.2948541 103.351351,83.6423506 103.591352,84.1123529 L103.771352,84.1123529 L103.771352,79.8823529 L104.941352,79.8823529 L104.941352,90.3823529 L103.771352,90.3823529 L103.771352,89.2423529 Z M101.281352,89.4823529 C101.631354,89.4823529 101.95635,89.4173536 102.256352,89.2873529 C102.556353,89.1573523 102.818851,88.9723541 103.043852,88.7323529 C103.268853,88.4923517 103.446351,88.2048546 103.576352,87.8698529 C103.706353,87.5348513 103.771352,87.162355 103.771352,86.7523529 L103.771352,86.5723529 C103.771352,86.1723509 103.706353,85.8048546 103.576352,85.4698529 C103.446351,85.1348513 103.268853,84.8473541 103.043852,84.6073529 C102.818851,84.3673517 102.553853,84.1798536 102.248852,84.0448529 C101.94385,83.9098523 101.621354,83.8423529 101.281352,83.8423529 C100.93135,83.8423529 100.603853,83.9073523 100.298852,84.0373529 C99.9938504,84.1673536 99.7288531,84.3523517 99.5038519,84.5923529 C99.2788508,84.8323541 99.1038526,85.1173513 98.9788519,85.4473529 C98.8538513,85.7773546 98.7913519,86.1423509 98.7913519,86.5423529 L98.7913519,86.7823529 C98.7913519,87.202355 98.8538513,87.5773513 98.9788519,87.9073529 C99.1038526,88.2373546 99.2788508,88.5198518 99.5038519,88.7548529 C99.7288531,88.9898541 99.9913504,89.1698523 100.291352,89.2948529 C100.591353,89.4198536 100.92135,89.4823529 101.281352,89.4823529 Z M122.131352,89.2423529 L121.951352,89.2423529 C121.831351,89.4723541 121.678853,89.6723521 121.493852,89.8423529 C121.308851,90.0123538 121.108853,90.1523524 120.893852,90.2623529 C120.678851,90.3723535 120.451353,90.4548527 120.211352,90.5098529 C119.971351,90.5648532 119.741353,90.5923529 119.521352,90.5923529 C119.021349,90.5923529 118.556354,90.5073538 118.126352,90.3373529 C117.69635,90.1673521 117.318854,89.9223545 116.993852,89.6023529 C116.66885,89.2823513 116.413853,88.8848553 116.228852,88.4098529 C116.043851,87.9348506 115.951352,87.392356 115.951352,86.7823529 L115.951352,86.5423529 C115.951352,85.9423499 116.046351,85.4048553 116.236352,84.9298529 C116.426353,84.4548506 116.68135,84.0548546 117.001352,83.7298529 C117.321354,83.4048513 117.69635,83.1573538 118.126352,82.9873529 C118.556354,82.8173521 119.01135,82.7323529 119.491352,82.7323529 C120.001354,82.7323529 120.47885,82.8448518 120.923852,83.0698529 C121.368854,83.2948541 121.711351,83.6423506 121.951352,84.1123529 L122.131352,84.1123529 L122.131352,79.8823529 L123.301352,79.8823529 L123.301352,90.3823529 L122.131352,90.3823529 L122.131352,89.2423529 Z M119.641352,89.4823529 C119.991354,89.4823529 120.31635,89.4173536 120.616352,89.2873529 C120.916353,89.1573523 121.178851,88.9723541 121.403852,88.7323529 C121.628853,88.4923517 121.806351,88.2048546 121.936352,87.8698529 C122.066353,87.5348513 122.131352,87.162355 122.131352,86.7523529 L122.131352,86.5723529 C122.131352,86.1723509 122.066353,85.8048546 121.936352,85.4698529 C121.806351,85.1348513 121.628853,84.8473541 121.403852,84.6073529 C121.178851,84.3673517 120.913853,84.1798536 120.608852,84.0448529 C120.30385,83.9098523 119.981354,83.8423529 119.641352,83.8423529 C119.29135,83.8423529 118.963853,83.9073523 118.658852,84.0373529 C118.35385,84.1673536 118.088853,84.3523517 117.863852,84.5923529 C117.638851,84.8323541 117.463853,85.1173513 117.338852,85.4473529 C117.213851,85.7773546 117.151352,86.1423509 117.151352,86.5423529 L117.151352,86.7823529 C117.151352,87.202355 117.213851,87.5773513 117.338852,87.9073529 C117.463853,88.2373546 117.638851,88.5198518 117.863852,88.7548529 C118.088853,88.9898541 118.35135,89.1698523 118.651352,89.2948529 C118.951353,89.4198536 119.28135,89.4823529 119.641352,89.4823529 Z M126.406352,87.0223529 C126.436352,87.7623566 126.66635,88.3573507 127.096352,88.8073529 C127.526354,89.2573552 128.126348,89.4823529 128.896352,89.4823529 C129.246354,89.4823529 129.551351,89.4423533 129.811352,89.3623529 C130.071353,89.2823525 130.293851,89.1723536 130.478852,89.0323529 C130.663853,88.8923522 130.813851,88.7298539 130.928852,88.5448529 C131.043853,88.359852 131.136352,88.162354 131.206352,87.9523529 L132.316352,88.2523529 C132.106351,88.9423564 131.718855,89.5048508 131.153852,89.9398529 C130.588849,90.3748551 129.826357,90.5923529 128.866352,90.5923529 C128.336349,90.5923529 127.848854,90.4998539 127.403852,90.3148529 C126.95885,90.129852 126.576354,89.8673546 126.256352,89.5273529 C125.93635,89.1873512 125.686353,88.7823553 125.506352,88.3123529 C125.326351,87.8423506 125.236352,87.3223558 125.236352,86.7523529 L125.236352,86.3923529 C125.236352,85.8723503 125.328851,85.3873552 125.513852,84.9373529 C125.698853,84.4873507 125.95635,84.0998546 126.286352,83.7748529 C126.616354,83.4498513 127.00385,83.1948539 127.448852,83.0098529 C127.893854,82.824852 128.376349,82.7323529 128.896352,82.7323529 C129.506355,82.7323529 130.03385,82.8448518 130.478852,83.0698529 C130.923854,83.2948541 131.288851,83.5723513 131.573852,83.9023529 C131.858853,84.2323546 132.068851,84.592351 132.203852,84.9823529 C132.338853,85.3723549 132.406352,85.7323513 132.406352,86.0623529 L132.406352,87.0223529 L126.406352,87.0223529 Z M128.896352,83.8423529 C128.56635,83.8423529 128.258853,83.8948524 127.973852,83.9998529 C127.688851,84.1048535 127.438853,84.252352 127.223852,84.4423529 C127.008851,84.6323539 126.833853,84.8548517 126.698852,85.1098529 C126.563851,85.3648542 126.476352,85.6423514 126.436352,85.9423529 L131.236352,85.9423529 C131.216352,85.6223513 131.138853,85.3323542 131.003852,85.0723529 C130.868851,84.8123516 130.693853,84.5923538 130.478852,84.4123529 C130.263851,84.232352 130.018853,84.0923534 129.743852,83.9923529 C129.468851,83.8923524 129.186353,83.8423529 128.896352,83.8423529 Z M135.631352,90.3823529 L134.461352,90.3823529 L134.461352,79.8823529 L135.631352,79.8823529 L135.631352,84.1123529 L135.811352,84.1123529 C136.071353,83.6623507 136.43135,83.3198541 136.891352,83.0848529 C137.351354,82.8498518 137.851349,82.7323529 138.391352,82.7323529 C138.851354,82.7323529 139.28635,82.8173521 139.696352,82.9873529 C140.106354,83.1573538 140.46885,83.4023513 140.783852,83.7223529 C141.098854,84.0423545 141.348851,84.4373506 141.533852,84.9073529 C141.718853,85.3773553 141.811352,85.9123499 141.811352,86.5123529 L141.811352,86.8123529 C141.811352,87.422356 141.721353,87.9623506 141.541352,88.4323529 C141.361351,88.9023553 141.113854,89.2973513 140.798852,89.6173529 C140.48385,89.9373545 140.116354,90.1798521 139.696352,90.3448529 C139.27635,90.5098538 138.831354,90.5923529 138.361352,90.5923529 C138.121351,90.5923529 137.876353,90.5648532 137.626352,90.5098529 C137.376351,90.4548527 137.138853,90.3698535 136.913852,90.2548529 C136.688851,90.1398524 136.481353,89.9998538 136.291352,89.8348529 C136.101351,89.6698521 135.941353,89.4723541 135.811352,89.2423529 L135.631352,89.2423529 L135.631352,90.3823529 Z M138.121352,89.4823529 C138.481354,89.4823529 138.81135,89.4198536 139.111352,89.2948529 C139.411353,89.1698523 139.673851,88.9923541 139.898852,88.7623529 C140.123853,88.5323518 140.298851,88.2523546 140.423852,87.9223529 C140.548853,87.5923513 140.611352,87.222355 140.611352,86.8123529 L140.611352,86.5123529 C140.611352,86.1123509 140.548853,85.7498546 140.423852,85.4248529 C140.298851,85.0998513 140.123853,84.8198541 139.898852,84.5848529 C139.673851,84.3498518 139.408853,84.1673536 139.103852,84.0373529 C138.79885,83.9073523 138.471354,83.8423529 138.121352,83.8423529 C137.77135,83.8423529 137.446353,83.9098523 137.146352,84.0448529 C136.84635,84.1798536 136.583853,84.3673517 136.358852,84.6073529 C136.133851,84.8473541 135.956353,85.1348513 135.826352,85.4698529 C135.696351,85.8048546 135.631352,86.1723509 135.631352,86.5723529 L135.631352,86.7523529 C135.631352,87.162355 135.696351,87.5348513 135.826352,87.8698529 C135.956353,88.2048546 136.133851,88.4923517 136.358852,88.7323529 C136.583853,88.9723541 136.84635,89.1573523 137.146352,89.2873529 C137.446353,89.4173536 137.77135,89.4823529 138.121352,89.4823529 Z M149.221352,82.9423529 L150.391352,82.9423529 L150.391352,90.3823529 L149.221352,90.3823529 L149.221352,89.0323529 L149.041352,89.0323529 C148.801351,89.5123553 148.486354,89.8923515 148.096352,90.1723529 C147.70635,90.4523543 147.211355,90.5923529 146.611352,90.5923529 C146.20135,90.5923529 145.823854,90.5248536 145.478852,90.3898529 C145.13385,90.2548523 144.838853,90.0523543 144.593852,89.7823529 C144.348851,89.5123516 144.158853,89.1773549 144.023852,88.7773529 C143.888851,88.3773509 143.821352,87.9123556 143.821352,87.3823529 L143.821352,82.9423529 L144.991352,82.9423529 L144.991352,87.2323529 C144.991352,88.0123568 145.15135,88.5823511 145.471352,88.9423529 C145.791354,89.3023547 146.281349,89.4823529 146.941352,89.4823529 C147.651355,89.4823529 148.20885,89.2398554 148.613852,88.7548529 C149.018854,88.2698505 149.221352,87.622357 149.221352,86.8123529 L149.221352,82.9423529 Z M158.746352,89.2423529 L158.566352,89.2423529 C158.326351,89.6923552 157.998854,90.0298518 157.583852,90.2548529 C157.16885,90.4798541 156.716354,90.5923529 156.226352,90.5923529 C155.726349,90.5923529 155.256354,90.5073538 154.816352,90.3373529 C154.37635,90.1673521 153.988854,89.9223545 153.653852,89.6023529 C153.31885,89.2823513 153.053853,88.8848553 152.858852,88.4098529 C152.663851,87.9348506 152.566352,87.392356 152.566352,86.7823529 L152.566352,86.5423529 C152.566352,85.9423499 152.666351,85.4048553 152.866352,84.9298529 C153.066353,84.4548506 153.33135,84.0548546 153.661352,83.7298529 C153.991354,83.4048513 154.37635,83.1573538 154.816352,82.9873529 C155.256354,82.8173521 155.71635,82.7323529 156.196352,82.7323529 C156.736355,82.7323529 157.20885,82.8498518 157.613852,83.0848529 C158.018854,83.3198541 158.336351,83.6623507 158.566352,84.1123529 L158.746352,84.1123529 L158.746352,82.9423529 L159.916352,82.9423529 L159.916352,92.2123529 C159.916352,92.5523546 159.808853,92.8323518 159.593852,93.0523529 C159.378851,93.272354 159.101354,93.3823529 158.761352,93.3823529 L153.916352,93.3823529 L153.916352,92.3023529 L158.341352,92.3023529 C158.611353,92.3023529 158.746352,92.1523544 158.746352,91.8523529 L158.746352,89.2423529 Z M156.256352,89.4823529 C156.606354,89.4823529 156.93135,89.4173536 157.231352,89.2873529 C157.531353,89.1573523 157.793851,88.9723541 158.018852,88.7323529 C158.243853,88.4923517 158.421351,88.2048546 158.551352,87.8698529 C158.681353,87.5348513 158.746352,87.162355 158.746352,86.7523529 L158.746352,86.5723529 C158.746352,86.1723509 158.681353,85.8048546 158.551352,85.4698529 C158.421351,85.1348513 158.243853,84.8473541 158.018852,84.6073529 C157.793851,84.3673517 157.528853,84.1798536 157.223852,84.0448529 C156.91885,83.9098523 156.596354,83.8423529 156.256352,83.8423529 C155.90635,83.8423529 155.578853,83.9073523 155.273852,84.0373529 C154.96885,84.1673536 154.703853,84.3523517 154.478852,84.5923529 C154.253851,84.8323541 154.078853,85.1173513 153.953852,85.4473529 C153.828851,85.7773546 153.766352,86.1423509 153.766352,86.5423529 L153.766352,86.7823529 C153.766352,87.202355 153.828851,87.5773513 153.953852,87.9073529 C154.078853,88.2373546 154.253851,88.5198518 154.478852,88.7548529 C154.703853,88.9898541 154.96635,89.1698523 155.266352,89.2948529 C155.566353,89.4198536 155.89635,89.4823529 156.256352,89.4823529 Z M171.196352,82.9423529 L173.536352,82.9423529 L173.536352,79.8823529 L174.706352,79.8823529 L174.706352,82.9423529 L177.586352,82.9423529 L177.586352,84.0223529 L174.706352,84.0223529 L174.706352,88.8523529 C174.706352,89.1523544 174.841351,89.3023529 175.111352,89.3023529 L177.226352,89.3023529 L177.226352,90.3823529 L174.691352,90.3823529 C174.35135,90.3823529 174.073853,90.272354 173.858852,90.0523529 C173.643851,89.8323518 173.536352,89.5523546 173.536352,89.2123529 L173.536352,84.0223529 L171.196352,84.0223529 L171.196352,82.9423529 Z M181.801352,90.3823529 L180.631352,90.3823529 L180.631352,79.8823529 L181.801352,79.8823529 L181.801352,84.2923529 L181.981352,84.2923529 C182.211353,83.8123505 182.53385,83.4323543 182.948852,83.1523529 C183.363854,82.8723515 183.871349,82.7323529 184.471352,82.7323529 C185.281356,82.7323529 185.938849,82.9998503 186.443852,83.5348529 C186.948854,84.0698556 187.201352,84.8723476 187.201352,85.9423529 L187.201352,90.3823529 L186.031352,90.3823529 L186.031352,86.1823529 C186.031352,85.402349 185.856354,84.8173549 185.506352,84.4273529 C185.15635,84.037351 184.681355,83.8423529 184.081352,83.8423529 C183.371348,83.8423529 182.813854,84.0848505 182.408852,84.5698529 C182.00385,85.0548554 181.801352,85.7023489 181.801352,86.5123529 L181.801352,90.3823529 Z M190.666352,87.0223529 C190.696352,87.7623566 190.92635,88.3573507 191.356352,88.8073529 C191.786354,89.2573552 192.386348,89.4823529 193.156352,89.4823529 C193.506354,89.4823529 193.811351,89.4423533 194.071352,89.3623529 C194.331353,89.2823525 194.553851,89.1723536 194.738852,89.0323529 C194.923853,88.8923522 195.073851,88.7298539 195.188852,88.5448529 C195.303853,88.359852 195.396352,88.162354 195.466352,87.9523529 L196.576352,88.2523529 C196.366351,88.9423564 195.978855,89.5048508 195.413852,89.9398529 C194.848849,90.3748551 194.086357,90.5923529 193.126352,90.5923529 C192.596349,90.5923529 192.108854,90.4998539 191.663852,90.3148529 C191.21885,90.129852 190.836354,89.8673546 190.516352,89.5273529 C190.19635,89.1873512 189.946353,88.7823553 189.766352,88.3123529 C189.586351,87.8423506 189.496352,87.3223558 189.496352,86.7523529 L189.496352,86.3923529 C189.496352,85.8723503 189.588851,85.3873552 189.773852,84.9373529 C189.958853,84.4873507 190.21635,84.0998546 190.546352,83.7748529 C190.876354,83.4498513 191.26385,83.1948539 191.708852,83.0098529 C192.153854,82.824852 192.636349,82.7323529 193.156352,82.7323529 C193.766355,82.7323529 194.29385,82.8448518 194.738852,83.0698529 C195.183854,83.2948541 195.548851,83.5723513 195.833852,83.9023529 C196.118853,84.2323546 196.328851,84.592351 196.463852,84.9823529 C196.598853,85.3723549 196.666352,85.7323513 196.666352,86.0623529 L196.666352,87.0223529 L190.666352,87.0223529 Z M193.156352,83.8423529 C192.82635,83.8423529 192.518853,83.8948524 192.233852,83.9998529 C191.948851,84.1048535 191.698853,84.252352 191.483852,84.4423529 C191.268851,84.6323539 191.093853,84.8548517 190.958852,85.1098529 C190.823851,85.3648542 190.736352,85.6423514 190.696352,85.9423529 L195.496352,85.9423529 C195.476352,85.6223513 195.398853,85.3323542 195.263852,85.0723529 C195.128851,84.8123516 194.953853,84.5923538 194.738852,84.4123529 C194.523851,84.232352 194.278853,84.0923534 194.003852,83.9923529 C193.728851,83.8923524 193.446353,83.8423529 193.156352,83.8423529 Z M215.326352,90.3823529 L214.156352,90.3823529 L214.156352,85.0423529 C214.156352,84.6923512 214.076353,84.4048541 213.916352,84.1798529 C213.756351,83.9548518 213.501354,83.8423529 213.151352,83.8423529 C212.82135,83.8423529 212.553853,83.9648517 212.348852,84.2098529 C212.143851,84.4548542 212.041352,84.8323504 212.041352,85.3423529 L212.041352,90.3823529 L210.871352,90.3823529 L210.871352,84.9823529 C210.871352,84.6523513 210.781353,84.379854 210.601352,84.1648529 C210.421351,83.9498519 210.181353,83.8423529 209.881352,83.8423529 C209.52135,83.8423529 209.243853,83.9723516 209.048852,84.2323529 C208.853851,84.4923542 208.756352,84.8323508 208.756352,85.2523529 L208.756352,90.3823529 L207.586352,90.3823529 L207.586352,82.9423529 L208.756352,82.9423529 L208.756352,83.7523529 L208.936352,83.7523529 C209.066353,83.4023512 209.256351,83.1448538 209.506352,82.9798529 C209.756353,82.8148521 210.05135,82.7323529 210.391352,82.7323529 C210.751354,82.7323529 211.048851,82.827352 211.283852,83.0173529 C211.518853,83.2073539 211.681351,83.4523514 211.771352,83.7523529 L211.951352,83.7523529 C212.291354,83.0723495 212.831348,82.7323529 213.571352,82.7323529 C214.131355,82.7323529 214.56385,82.9098512 214.868852,83.2648529 C215.173853,83.6198547 215.326352,84.0823501 215.326352,84.6523529 L215.326352,90.3823529 Z M224.371352,86.7523529 C224.371352,87.372356 224.268853,87.9198506 224.063852,88.3948529 C223.858851,88.8698553 223.586354,89.2698513 223.246352,89.5948529 C222.90635,89.9198546 222.508854,90.1673521 222.053852,90.3373529 C221.59885,90.5073538 221.126354,90.5923529 220.636352,90.5923529 C220.136349,90.5923529 219.661354,90.5073538 219.211352,90.3373529 C218.76135,90.1673521 218.366354,89.9198546 218.026352,89.5948529 C217.68635,89.2698513 217.413853,88.8698553 217.208852,88.3948529 C217.003851,87.9198506 216.901352,87.372356 216.901352,86.7523529 L216.901352,86.5723529 C216.901352,85.9623499 217.003851,85.4198553 217.208852,84.9448529 C217.413853,84.4698506 217.68885,84.0673546 218.033852,83.7373529 C218.378854,83.4073513 218.77635,83.1573538 219.226352,82.9873529 C219.676354,82.8173521 220.146349,82.7323529 220.636352,82.7323529 C221.126354,82.7323529 221.59635,82.8173521 222.046352,82.9873529 C222.496354,83.1573538 222.89385,83.4073513 223.238852,83.7373529 C223.583854,84.0673546 223.858851,84.4698506 224.063852,84.9448529 C224.268853,85.4198553 224.371352,85.9623499 224.371352,86.5723529 L224.371352,86.7523529 Z M220.636352,89.4823529 C220.996354,89.4823529 221.32885,89.4198536 221.633852,89.2948529 C221.938853,89.1698523 222.206351,88.9873541 222.436352,88.7473529 C222.666353,88.5073517 222.846351,88.2198546 222.976352,87.8848529 C223.106353,87.5498513 223.171352,87.172355 223.171352,86.7523529 L223.171352,86.5723529 C223.171352,86.1723509 223.106353,85.8048546 222.976352,85.4698529 C222.846351,85.1348513 222.666353,84.8473541 222.436352,84.6073529 C222.206351,84.3673517 221.936353,84.1798536 221.626352,84.0448529 C221.31635,83.9098523 220.986354,83.8423529 220.636352,83.8423529 C220.28635,83.8423529 219.956353,83.9098523 219.646352,84.0448529 C219.33635,84.1798536 219.066353,84.3673517 218.836352,84.6073529 C218.606351,84.8473541 218.426353,85.1348513 218.296352,85.4698529 C218.166351,85.8048546 218.101352,86.1723509 218.101352,86.5723529 L218.101352,86.7523529 C218.101352,87.172355 218.166351,87.5498513 218.296352,87.8848529 C218.426353,88.2198546 218.606351,88.5073517 218.836352,88.7473529 C219.066353,88.9873541 219.33385,89.1698523 219.638852,89.2948529 C219.943853,89.4198536 220.27635,89.4823529 220.636352,89.4823529 Z M232.291352,89.2423529 L232.111352,89.2423529 C231.991351,89.4723541 231.838853,89.6723521 231.653852,89.8423529 C231.468851,90.0123538 231.268853,90.1523524 231.053852,90.2623529 C230.838851,90.3723535 230.611353,90.4548527 230.371352,90.5098529 C230.131351,90.5648532 229.901353,90.5923529 229.681352,90.5923529 C229.181349,90.5923529 228.716354,90.5073538 228.286352,90.3373529 C227.85635,90.1673521 227.478854,89.9223545 227.153852,89.6023529 C226.82885,89.2823513 226.573853,88.8848553 226.388852,88.4098529 C226.203851,87.9348506 226.111352,87.392356 226.111352,86.7823529 L226.111352,86.5423529 C226.111352,85.9423499 226.206351,85.4048553 226.396352,84.9298529 C226.586353,84.4548506 226.84135,84.0548546 227.161352,83.7298529 C227.481354,83.4048513 227.85635,83.1573538 228.286352,82.9873529 C228.716354,82.8173521 229.17135,82.7323529 229.651352,82.7323529 C230.161354,82.7323529 230.63885,82.8448518 231.083852,83.0698529 C231.528854,83.2948541 231.871351,83.6423506 232.111352,84.1123529 L232.291352,84.1123529 L232.291352,79.8823529 L233.461352,79.8823529 L233.461352,90.3823529 L232.291352,90.3823529 L232.291352,89.2423529 Z M229.801352,89.4823529 C230.151354,89.4823529 230.47635,89.4173536 230.776352,89.2873529 C231.076353,89.1573523 231.338851,88.9723541 231.563852,88.7323529 C231.788853,88.4923517 231.966351,88.2048546 232.096352,87.8698529 C232.226353,87.5348513 232.291352,87.162355 232.291352,86.7523529 L232.291352,86.5723529 C232.291352,86.1723509 232.226353,85.8048546 232.096352,85.4698529 C231.966351,85.1348513 231.788853,84.8473541 231.563852,84.6073529 C231.338851,84.3673517 231.073853,84.1798536 230.768852,84.0448529 C230.46385,83.9098523 230.141354,83.8423529 229.801352,83.8423529 C229.45135,83.8423529 229.123853,83.9073523 228.818852,84.0373529 C228.51385,84.1673536 228.248853,84.3523517 228.023852,84.5923529 C227.798851,84.8323541 227.623853,85.1173513 227.498852,85.4473529 C227.373851,85.7773546 227.311352,86.1423509 227.311352,86.5423529 L227.311352,86.7823529 C227.311352,87.202355 227.373851,87.5773513 227.498852,87.9073529 C227.623853,88.2373546 227.798851,88.5198518 228.023852,88.7548529 C228.248853,88.9898541 228.51135,89.1698523 228.811352,89.2948529 C229.111353,89.4198536 229.44135,89.4823529 229.801352,89.4823529 Z M236.566352,87.0223529 C236.596352,87.7623566 236.82635,88.3573507 237.256352,88.8073529 C237.686354,89.2573552 238.286348,89.4823529 239.056352,89.4823529 C239.406354,89.4823529 239.711351,89.4423533 239.971352,89.3623529 C240.231353,89.2823525 240.453851,89.1723536 240.638852,89.0323529 C240.823853,88.8923522 240.973851,88.7298539 241.088852,88.5448529 C241.203853,88.359852 241.296352,88.162354 241.366352,87.9523529 L242.476352,88.2523529 C242.266351,88.9423564 241.878855,89.5048508 241.313852,89.9398529 C240.748849,90.3748551 239.986357,90.5923529 239.026352,90.5923529 C238.496349,90.5923529 238.008854,90.4998539 237.563852,90.3148529 C237.11885,90.129852 236.736354,89.8673546 236.416352,89.5273529 C236.09635,89.1873512 235.846353,88.7823553 235.666352,88.3123529 C235.486351,87.8423506 235.396352,87.3223558 235.396352,86.7523529 L235.396352,86.3923529 C235.396352,85.8723503 235.488851,85.3873552 235.673852,84.9373529 C235.858853,84.4873507 236.11635,84.0998546 236.446352,83.7748529 C236.776354,83.4498513 237.16385,83.1948539 237.608852,83.0098529 C238.053854,82.824852 238.536349,82.7323529 239.056352,82.7323529 C239.666355,82.7323529 240.19385,82.8448518 240.638852,83.0698529 C241.083854,83.2948541 241.448851,83.5723513 241.733852,83.9023529 C242.018853,84.2323546 242.228851,84.592351 242.363852,84.9823529 C242.498853,85.3723549 242.566352,85.7323513 242.566352,86.0623529 L242.566352,87.0223529 L236.566352,87.0223529 Z M239.056352,83.8423529 C238.72635,83.8423529 238.418853,83.8948524 238.133852,83.9998529 C237.848851,84.1048535 237.598853,84.252352 237.383852,84.4423529 C237.168851,84.6323539 236.993853,84.8548517 236.858852,85.1098529 C236.723851,85.3648542 236.636352,85.6423514 236.596352,85.9423529 L241.396352,85.9423529 C241.376352,85.6223513 241.298853,85.3323542 241.163852,85.0723529 C241.028851,84.8123516 240.853853,84.5923538 240.638852,84.4123529 C240.423851,84.232352 240.178853,84.0923534 239.903852,83.9923529 C239.628851,83.8923524 239.346353,83.8423529 239.056352,83.8423529 Z M244.891352,89.3023529 L247.591352,89.3023529 L247.591352,80.9623529 L244.981352,80.9623529 L244.981352,79.8823529 L248.761352,79.8823529 L248.761352,89.3023529 L251.461352,89.3023529 L251.461352,90.3823529 L244.891352,90.3823529 L244.891352,89.3023529 Z" id="Identify-a-modelling" fill="#343434" mask="url(#mask-2)"></path>
            <path d="M40.9463519,37.6102941 C43.9463669,37.6102941 45.8630144,38.8269486 46.6963519,41.2602941 L43.1713519,42.9102941 C42.8213502,41.6436211 41.9880252,41.0102941 40.6713519,41.0102941 C39.7380139,41.0102941 38.9796882,41.4477897 38.3963519,42.3227941 C37.8130157,43.1977985 37.5213519,44.3769534 37.5213519,45.8602941 L37.5213519,46.2602941 L37.5713519,46.2602941 C37.8546867,45.5602906 38.3463484,45.022796 39.0463519,44.6477941 C39.7463554,44.2727922 40.5880137,44.0852941 41.5713519,44.0852941 C42.5880237,44.0852941 43.5046812,44.297792 44.3213519,44.7227941 C45.1380227,45.1477962 45.7755163,45.7477902 46.2338519,46.5227941 C46.6921876,47.297798 46.9213519,48.1936224 46.9213519,49.2102941 C46.9213519,50.8769691 46.3630242,52.1936226 45.2463519,53.1602941 C44.1296797,54.1269656 42.5713619,54.6102941 40.5713519,54.6102941 C38.3546742,54.6102941 36.6546912,53.8853014 35.4713519,52.4352941 C34.2880127,50.9852869 33.6963519,48.8769746 33.6963519,46.1102941 C33.6963519,44.2269514 34.0088488,42.6478005 34.6338519,41.3727941 C35.2588551,40.0977877 36.1130132,39.1519639 37.1963519,38.5352941 C38.2796907,37.9186244 39.5296782,37.6102941 40.9463519,37.6102941 Z M40.6463519,46.9852941 C39.9296817,46.9852941 39.3588541,47.1811255 38.9338519,47.5727941 C38.5088498,47.9644627 38.2963519,48.5019574 38.2963519,49.1852941 C38.2963519,49.8686309 38.5088498,50.4061255 38.9338519,50.7977941 C39.3588541,51.1894627 39.9296817,51.3852941 40.6463519,51.3852941 C41.3963557,51.3852941 41.9755166,51.1936294 42.3838519,50.8102941 C42.7921873,50.4269589 42.9963519,49.8852976 42.9963519,49.1852941 C42.9963519,48.4852906 42.7921873,47.9436294 42.3838519,47.5602941 C41.9755166,47.1769589 41.3963557,46.9852941 40.6463519,46.9852941 Z" id="1" fill="#FFABCC" mask="url(#mask-2)"></path>
        </g>
    </g>
</svg>