<?xml version="1.0" encoding="UTF-8"?>
<svg width="432px" height="126px" viewBox="0 0 432 126" version="1.1" xmlns="http://www.w3.org/2000/svg" xmlns:xlink="http://www.w3.org/1999/xlink">
    <!-- Generator: Sketch 52.6 (67491) - http://www.bohemiancoding.com/sketch -->
    <title>flow5</title>
    <desc>Created with Sketch.</desc>
    <defs>
        <rect id="path-1" x="0" y="0" width="432" height="126"></rect>
    </defs>
    <g id="Page-4" stroke="none" stroke-width="1" fill="none" fill-rule="evenodd">
        <g id="flow5">
            <mask id="mask-2" fill="white">
                <use xlink:href="#path-1"></use>
            </mask>
            <rect stroke="#F1F1F1" stroke-width="2" x="1" y="1" width="430" height="124"></rect>
            <path d="M0,123 L434,123" id="Line-2" stroke="#FFABCC" stroke-width="6" mask="url(#mask-2)"></path>
            <path d="M40.3963519,90.3823529 L38.1013519,90.3823529 L37.1263519,80.4223529 L36.9463519,80.4223529 L35.9713519,90.3823529 L33.6763519,90.3823529 L32.6113519,79.8823529 L33.7513519,79.8823529 L34.7563519,89.8423529 L34.9363519,89.8423529 L35.8813519,79.8823529 L38.1913519,79.8823529 L39.1363519,89.8423529 L39.3163519,89.8423529 L40.3213519,79.8823529 L41.4613519,79.8823529 L40.3963519,90.3823529 Z M42.5113519,82.9423529 L45.2113519,82.9423529 L45.2113519,83.9323529 L45.3913519,83.9323529 C45.5813529,83.5223509 45.8513502,83.2198539 46.2013519,83.0248529 C46.5513537,82.829852 46.9513497,82.7323529 47.4013519,82.7323529 C48.1513557,82.7323529 48.7563496,82.9773505 49.2163519,83.4673529 C49.6763542,83.9573554 49.9213518,84.6723482 49.9513519,85.6123529 L48.7213519,85.7923529 C48.7213519,85.1023495 48.5563536,84.6048545 48.2263519,84.2998529 C47.8963503,83.9948514 47.4913543,83.8423529 47.0113519,83.8423529 C46.7013504,83.8423529 46.4338531,83.9023523 46.2088519,84.0223529 C45.9838508,84.1423535 45.7963527,84.3073519 45.6463519,84.5173529 C45.4963512,84.727354 45.3863523,84.9723515 45.3163519,85.2523529 C45.2463516,85.5323543 45.2113519,85.8323513 45.2113519,86.1523529 L45.2113519,89.3023529 L47.1013519,89.3023529 L47.1013519,90.3823529 L42.3313519,90.3823529 L42.3313519,89.3023529 L44.0413519,89.3023529 L44.0413519,84.0223529 L42.5113519,84.0223529 L42.5113519,82.9423529 Z M54.4213519,80.7223529 C54.4213519,80.4323515 54.5238509,80.184854 54.7288519,79.9798529 C54.933853,79.7748519 55.1813505,79.6723529 55.4713519,79.6723529 C55.7613534,79.6723529 56.0088509,79.7748519 56.2138519,79.9798529 C56.418853,80.184854 56.5213519,80.4323515 56.5213519,80.7223529 C56.5213519,81.0123544 56.418853,81.2598519 56.2138519,81.4648529 C56.0088509,81.669854 55.7613534,81.7723529 55.4713519,81.7723529 C55.1813505,81.7723529 54.933853,81.669854 54.7288519,81.4648529 C54.5238509,81.2598519 54.4213519,81.0123544 54.4213519,80.7223529 Z M52.2913519,89.3023529 L54.9013519,89.3023529 L54.9013519,84.0223529 L52.5613519,84.0223529 L52.5613519,82.9423529 L56.0713519,82.9423529 L56.0713519,89.3023529 L58.5013519,89.3023529 L58.5013519,90.3823529 L52.2913519,90.3823529 L52.2913519,89.3023529 Z M61.0363519,82.9423529 L63.3763519,82.9423529 L63.3763519,79.8823529 L64.5463519,79.8823529 L64.5463519,82.9423529 L67.4263519,82.9423529 L67.4263519,84.0223529 L64.5463519,84.0223529 L64.5463519,88.8523529 C64.5463519,89.1523544 64.6813506,89.3023529 64.9513519,89.3023529 L67.0663519,89.3023529 L67.0663519,90.3823529 L64.5313519,90.3823529 C64.1913502,90.3823529 63.913853,90.272354 63.6988519,90.0523529 C63.4838509,89.8323518 63.3763519,89.5523546 63.3763519,89.2123529 L63.3763519,84.0223529 L61.0363519,84.0223529 L61.0363519,82.9423529 Z M71.3263519,87.0223529 C71.3563521,87.7623566 71.5863498,88.3573507 72.0163519,88.8073529 C72.4463541,89.2573552 73.0463481,89.4823529 73.8163519,89.4823529 C74.1663537,89.4823529 74.4713506,89.4423533 74.7313519,89.3623529 C74.9913532,89.2823525 75.213851,89.1723536 75.3988519,89.0323529 C75.5838529,88.8923522 75.7338514,88.7298539 75.8488519,88.5448529 C75.9638525,88.359852 76.0563516,88.162354 76.1263519,87.9523529 L77.2363519,88.2523529 C77.0263509,88.9423564 76.6388548,89.5048508 76.0738519,89.9398529 C75.5088491,90.3748551 74.7463567,90.5923529 73.7863519,90.5923529 C73.2563493,90.5923529 72.7688542,90.4998539 72.3238519,90.3148529 C71.8788497,90.129852 71.4963535,89.8673546 71.1763519,89.5273529 C70.8563503,89.1873512 70.6063528,88.7823553 70.4263519,88.3123529 C70.246351,87.8423506 70.1563519,87.3223558 70.1563519,86.7523529 L70.1563519,86.3923529 C70.1563519,85.8723503 70.248851,85.3873552 70.4338519,84.9373529 C70.6188529,84.4873507 70.8763503,84.0998546 71.2063519,83.7748529 C71.5363536,83.4498513 71.9238497,83.1948539 72.3688519,83.0098529 C72.8138542,82.824852 73.2963493,82.7323529 73.8163519,82.7323529 C74.426355,82.7323529 74.9538497,82.8448518 75.3988519,83.0698529 C75.8438542,83.2948541 76.2088505,83.5723513 76.4938519,83.9023529 C76.7788534,84.2323546 76.9888513,84.592351 77.1238519,84.9823529 C77.2588526,85.3723549 77.3263519,85.7323513 77.3263519,86.0623529 L77.3263519,87.0223529 L71.3263519,87.0223529 Z M73.8163519,83.8423529 C73.4863503,83.8423529 73.1788534,83.8948524 72.8938519,83.9998529 C72.6088505,84.1048535 72.358853,84.252352 72.1438519,84.4423529 C71.9288509,84.6323539 71.7538526,84.8548517 71.6188519,85.1098529 C71.4838513,85.3648542 71.3963521,85.6423514 71.3563519,85.9423529 L76.1563519,85.9423529 C76.1363518,85.6223513 76.0588526,85.3323542 75.9238519,85.0723529 C75.7888513,84.8123516 75.613853,84.5923538 75.3988519,84.4123529 C75.1838509,84.232352 74.9388533,84.0923534 74.6638519,83.9923529 C74.3888506,83.8923524 74.1063534,83.8423529 73.8163519,83.8423529 Z M88.6213519,79.8823529 L89.8813519,79.8823529 L89.8813519,84.5323529 L94.3513519,84.5323529 L94.3513519,79.8823529 L95.6113519,79.8823529 L95.6113519,90.3823529 L94.3513519,90.3823529 L94.3513519,85.7023529 L89.8813519,85.7023529 L89.8813519,90.3823529 L88.6213519,90.3823529 L88.6213519,79.8823529 Z M97.6063519,79.8823529 L104.986352,79.8823529 L104.986352,81.0523529 L101.926352,81.0523529 L101.926352,90.3823529 L100.666352,90.3823529 L100.666352,81.0523529 L97.6063519,81.0523529 L97.6063519,79.8823529 Z M106.576352,79.8823529 L108.976352,79.8823529 L110.386352,89.8423529 L110.566352,89.8423529 L111.976352,79.8823529 L114.376352,79.8823529 L114.376352,90.3823529 L113.206352,90.3823529 L113.206352,80.4223529 L113.026352,80.4223529 L111.616352,90.3823529 L109.336352,90.3823529 L107.926352,80.4223529 L107.746352,80.4223529 L107.746352,90.3823529 L106.576352,90.3823529 L106.576352,79.8823529 Z M116.371352,79.8823529 L117.631352,79.8823529 L117.631352,89.2123529 L123.121352,89.2123529 L123.121352,90.3823529 L116.371352,90.3823529 L116.371352,79.8823529 Z M130.501352,78.2923529 L131.551352,78.6223529 L127.186352,91.9723529 L126.121352,91.6423529 L130.501352,78.2923529 Z M138.076352,89.4223529 C138.506354,89.4223529 138.87385,89.3498537 139.178852,89.2048529 C139.483853,89.0598522 139.733851,88.8648542 139.928852,88.6198529 C140.123853,88.3748517 140.268851,88.0948545 140.363852,87.7798529 C140.458852,87.4648514 140.506352,87.1323547 140.506352,86.7823529 L140.506352,86.6023529 L141.766352,86.6023529 L141.766352,86.7823529 C141.766352,87.3123556 141.686353,87.8098506 141.526352,88.2748529 C141.366351,88.7398553 141.131353,89.1448512 140.821352,89.4898529 C140.51135,89.8348547 140.126354,90.104852 139.666352,90.2998529 C139.20635,90.4948539 138.676355,90.5923529 138.076352,90.5923529 C136.916346,90.5923529 136.011355,90.2273566 135.361352,89.4973529 C134.711349,88.7673493 134.386352,87.7023599 134.386352,86.3023529 L134.386352,83.9623529 C134.386352,82.6023461 134.711349,81.5473567 135.361352,80.7973529 C136.011355,80.0473492 136.916346,79.6723529 138.076352,79.6723529 C138.676355,79.6723529 139.20635,79.769852 139.666352,79.9648529 C140.126354,80.1598539 140.51135,80.4298512 140.821352,80.7748529 C141.131353,81.1198547 141.366351,81.5248506 141.526352,81.9898529 C141.686353,82.4548553 141.766352,82.9523503 141.766352,83.4823529 L141.766352,83.6623529 L140.506352,83.6623529 L140.506352,83.4823529 C140.496352,83.1423512 140.443852,82.8123545 140.348852,82.4923529 C140.253851,82.1723513 140.108853,81.8898542 139.913852,81.6448529 C139.718851,81.3998517 139.471353,81.2048537 139.171352,81.0598529 C138.87135,80.9148522 138.506354,80.8423529 138.076352,80.8423529 C137.266348,80.8423529 136.658854,81.13735 136.253852,81.7273529 C135.84885,82.3173559 135.646352,83.0923481 135.646352,84.0523529 L135.646352,86.2123529 C135.646352,87.2423581 135.84885,88.0348502 136.253852,88.5898529 C136.658854,89.1448557 137.266348,89.4223529 138.076352,89.4223529 Z M149.671352,82.9123529 C149.671352,82.5723512 149.603853,82.2723542 149.468852,82.0123529 C149.333851,81.7523516 149.151353,81.5373538 148.921352,81.3673529 C148.691351,81.1973521 148.426353,81.0673534 148.126352,80.9773529 C147.82635,80.8873525 147.511354,80.8423529 147.181352,80.8423529 C146.89135,80.8423529 146.616353,80.8798526 146.356352,80.9548529 C146.096351,81.0298533 145.863853,81.1373522 145.658852,81.2773529 C145.453851,81.4173536 145.291353,81.5898519 145.171352,81.7948529 C145.051351,81.999854 144.991352,82.2373516 144.991352,82.5073529 L144.991352,82.5973529 C144.991352,82.8873544 145.051351,83.1348519 145.171352,83.3398529 C145.291353,83.544854 145.468851,83.7198522 145.703852,83.8648529 C145.938853,84.0098537 146.23135,84.1298525 146.581352,84.2248529 C146.931354,84.3198534 147.34135,84.4023526 147.811352,84.4723529 C148.911357,84.6423538 149.721349,84.9648506 150.241352,85.4398529 C150.761355,85.9148553 151.021352,86.5523489 151.021352,87.3523529 L151.021352,87.5323529 C151.021352,87.9823552 150.943853,88.3948511 150.788852,88.7698529 C150.633851,89.1448548 150.403853,89.4673516 150.098852,89.7373529 C149.79385,90.0073543 149.416354,90.2173522 148.966352,90.3673529 C148.51635,90.5173537 147.996355,90.5923529 147.406352,90.5923529 C146.736349,90.5923529 146.143855,90.4948539 145.628852,90.2998529 C145.113849,90.104852 144.683854,89.8348547 144.338852,89.4898529 C143.99385,89.1448512 143.731353,88.7398553 143.551352,88.2748529 C143.371351,87.8098506 143.281352,87.3023557 143.281352,86.7523529 L143.281352,86.3023529 L144.541352,86.3023529 L144.541352,86.6623529 C144.541352,87.5823575 144.793849,88.2723506 145.298852,88.7323529 C145.803854,89.1923552 146.506347,89.4223529 147.406352,89.4223529 C148.186356,89.4223529 148.77385,89.2498547 149.168852,88.9048529 C149.563854,88.5598512 149.761352,88.1023558 149.761352,87.5323529 L149.761352,87.4423529 C149.761352,86.8923502 149.558854,86.4723544 149.153852,86.1823529 C148.74885,85.8923515 148.091356,85.6823536 147.181352,85.5523529 C146.651349,85.4823526 146.173854,85.3748537 145.748852,85.2298529 C145.32385,85.0848522 144.961353,84.8948541 144.661352,84.6598529 C144.36135,84.4248518 144.131353,84.1423546 143.971352,83.8123529 C143.811351,83.4823513 143.731352,83.0923552 143.731352,82.6423529 L143.731352,82.4623529 C143.731352,82.0523509 143.816351,81.6773546 143.986352,81.3373529 C144.156353,80.9973512 144.39385,80.7023542 144.698852,80.4523529 C145.003853,80.2023517 145.36885,80.0098536 145.793852,79.8748529 C146.218854,79.7398523 146.686349,79.6723529 147.196352,79.6723529 C147.786355,79.6723529 148.31385,79.7573521 148.778852,79.9273529 C149.243854,80.0973538 149.63635,80.3248515 149.956352,80.6098529 C150.276354,80.8948544 150.518851,81.229851 150.683852,81.6148529 C150.848853,81.9998549 150.931352,82.4023508 150.931352,82.8223529 L150.931352,83.4523529 L149.671352,83.4523529 L149.671352,82.9123529 Z M158.851352,82.9123529 C158.851352,82.5723512 158.783853,82.2723542 158.648852,82.0123529 C158.513851,81.7523516 158.331353,81.5373538 158.101352,81.3673529 C157.871351,81.1973521 157.606353,81.0673534 157.306352,80.9773529 C157.00635,80.8873525 156.691354,80.8423529 156.361352,80.8423529 C156.07135,80.8423529 155.796353,80.8798526 155.536352,80.9548529 C155.276351,81.0298533 155.043853,81.1373522 154.838852,81.2773529 C154.633851,81.4173536 154.471353,81.5898519 154.351352,81.7948529 C154.231351,81.999854 154.171352,82.2373516 154.171352,82.5073529 L154.171352,82.5973529 C154.171352,82.8873544 154.231351,83.1348519 154.351352,83.3398529 C154.471353,83.544854 154.648851,83.7198522 154.883852,83.8648529 C155.118853,84.0098537 155.41135,84.1298525 155.761352,84.2248529 C156.111354,84.3198534 156.52135,84.4023526 156.991352,84.4723529 C158.091357,84.6423538 158.901349,84.9648506 159.421352,85.4398529 C159.941355,85.9148553 160.201352,86.5523489 160.201352,87.3523529 L160.201352,87.5323529 C160.201352,87.9823552 160.123853,88.3948511 159.968852,88.7698529 C159.813851,89.1448548 159.583853,89.4673516 159.278852,89.7373529 C158.97385,90.0073543 158.596354,90.2173522 158.146352,90.3673529 C157.69635,90.5173537 157.176355,90.5923529 156.586352,90.5923529 C155.916349,90.5923529 155.323855,90.4948539 154.808852,90.2998529 C154.293849,90.104852 153.863854,89.8348547 153.518852,89.4898529 C153.17385,89.1448512 152.911353,88.7398553 152.731352,88.2748529 C152.551351,87.8098506 152.461352,87.3023557 152.461352,86.7523529 L152.461352,86.3023529 L153.721352,86.3023529 L153.721352,86.6623529 C153.721352,87.5823575 153.973849,88.2723506 154.478852,88.7323529 C154.983854,89.1923552 155.686347,89.4223529 156.586352,89.4223529 C157.366356,89.4223529 157.95385,89.2498547 158.348852,88.9048529 C158.743854,88.5598512 158.941352,88.1023558 158.941352,87.5323529 L158.941352,87.4423529 C158.941352,86.8923502 158.738854,86.4723544 158.333852,86.1823529 C157.92885,85.8923515 157.271356,85.6823536 156.361352,85.5523529 C155.831349,85.4823526 155.353854,85.3748537 154.928852,85.2298529 C154.50385,85.0848522 154.141353,84.8948541 153.841352,84.6598529 C153.54135,84.4248518 153.311353,84.1423546 153.151352,83.8123529 C152.991351,83.4823513 152.911352,83.0923552 152.911352,82.6423529 L152.911352,82.4623529 C152.911352,82.0523509 152.996351,81.6773546 153.166352,81.3373529 C153.336353,80.9973512 153.57385,80.7023542 153.878852,80.4523529 C154.183853,80.2023517 154.54885,80.0098536 154.973852,79.8748529 C155.398854,79.7398523 155.866349,79.6723529 156.376352,79.6723529 C156.966355,79.6723529 157.49385,79.7573521 157.958852,79.9273529 C158.423854,80.0973538 158.81635,80.3248515 159.136352,80.6098529 C159.456354,80.8948544 159.698851,81.229851 159.863852,81.6148529 C160.028853,81.9998549 160.111352,82.4023508 160.111352,82.8223529 L160.111352,83.4523529 L158.851352,83.4523529 L158.851352,82.9123529 Z M167.221352,78.2923529 L168.271352,78.6223529 L163.906352,91.9723529 L162.841352,91.6423529 L167.221352,78.2923529 Z M177.721352,87.2323529 C177.721352,88.3223584 177.453855,89.1548501 176.918852,89.7298529 C176.383849,90.3048558 175.601357,90.5923529 174.571352,90.5923529 C173.541347,90.5923529 172.728855,90.3048558 172.133852,89.7298529 C171.538849,89.1548501 171.241352,88.3223584 171.241352,87.2323529 L171.241352,86.4223529 L172.501352,86.4223529 L172.501352,87.2323529 C172.501352,87.8923562 172.67135,88.4223509 173.011352,88.8223529 C173.351354,89.2223549 173.871348,89.4223529 174.571352,89.4223529 C175.271355,89.4223529 175.761351,89.2223549 176.041352,88.8223529 C176.321353,88.4223509 176.461352,87.8923562 176.461352,87.2323529 L176.461352,81.0523529 L175.381352,81.0523529 L175.381352,79.8823529 L178.621352,79.8823529 L178.621352,81.0523529 L177.721352,81.0523529 L177.721352,87.2323529 Z M186.391352,82.9123529 C186.391352,82.5723512 186.323853,82.2723542 186.188852,82.0123529 C186.053851,81.7523516 185.871353,81.5373538 185.641352,81.3673529 C185.411351,81.1973521 185.146353,81.0673534 184.846352,80.9773529 C184.54635,80.8873525 184.231354,80.8423529 183.901352,80.8423529 C183.61135,80.8423529 183.336353,80.8798526 183.076352,80.9548529 C182.816351,81.0298533 182.583853,81.1373522 182.378852,81.2773529 C182.173851,81.4173536 182.011353,81.5898519 181.891352,81.7948529 C181.771351,81.999854 181.711352,82.2373516 181.711352,82.5073529 L181.711352,82.5973529 C181.711352,82.8873544 181.771351,83.1348519 181.891352,83.3398529 C182.011353,83.544854 182.188851,83.7198522 182.423852,83.8648529 C182.658853,84.0098537 182.95135,84.1298525 183.301352,84.2248529 C183.651354,84.3198534 184.06135,84.4023526 184.531352,84.4723529 C185.631357,84.6423538 186.441349,84.9648506 186.961352,85.4398529 C187.481355,85.9148553 187.741352,86.5523489 187.741352,87.3523529 L187.741352,87.5323529 C187.741352,87.9823552 187.663853,88.3948511 187.508852,88.7698529 C187.353851,89.1448548 187.123853,89.4673516 186.818852,89.7373529 C186.51385,90.0073543 186.136354,90.2173522 185.686352,90.3673529 C185.23635,90.5173537 184.716355,90.5923529 184.126352,90.5923529 C183.456349,90.5923529 182.863855,90.4948539 182.348852,90.2998529 C181.833849,90.104852 181.403854,89.8348547 181.058852,89.4898529 C180.71385,89.1448512 180.451353,88.7398553 180.271352,88.2748529 C180.091351,87.8098506 180.001352,87.3023557 180.001352,86.7523529 L180.001352,86.3023529 L181.261352,86.3023529 L181.261352,86.6623529 C181.261352,87.5823575 181.513849,88.2723506 182.018852,88.7323529 C182.523854,89.1923552 183.226347,89.4223529 184.126352,89.4223529 C184.906356,89.4223529 185.49385,89.2498547 185.888852,88.9048529 C186.283854,88.5598512 186.481352,88.1023558 186.481352,87.5323529 L186.481352,87.4423529 C186.481352,86.8923502 186.278854,86.4723544 185.873852,86.1823529 C185.46885,85.8923515 184.811356,85.6823536 183.901352,85.5523529 C183.371349,85.4823526 182.893854,85.3748537 182.468852,85.2298529 C182.04385,85.0848522 181.681353,84.8948541 181.381352,84.6598529 C181.08135,84.4248518 180.851353,84.1423546 180.691352,83.8123529 C180.531351,83.4823513 180.451352,83.0923552 180.451352,82.6423529 L180.451352,82.4623529 C180.451352,82.0523509 180.536351,81.6773546 180.706352,81.3373529 C180.876353,80.9973512 181.11385,80.7023542 181.418852,80.4523529 C181.723853,80.2023517 182.08885,80.0098536 182.513852,79.8748529 C182.938854,79.7398523 183.406349,79.6723529 183.916352,79.6723529 C184.506355,79.6723529 185.03385,79.7573521 185.498852,79.9273529 C185.963854,80.0973538 186.35635,80.3248515 186.676352,80.6098529 C186.996354,80.8948544 187.238851,81.229851 187.403852,81.6148529 C187.568853,81.9998549 187.651352,82.4023508 187.651352,82.8223529 L187.651352,83.4523529 L186.391352,83.4523529 L186.391352,82.9123529 Z M198.736352,82.9423529 L201.076352,82.9423529 L201.076352,79.8823529 L202.246352,79.8823529 L202.246352,82.9423529 L205.126352,82.9423529 L205.126352,84.0223529 L202.246352,84.0223529 L202.246352,88.8523529 C202.246352,89.1523544 202.381351,89.3023529 202.651352,89.3023529 L204.766352,89.3023529 L204.766352,90.3823529 L202.231352,90.3823529 C201.89135,90.3823529 201.613853,90.272354 201.398852,90.0523529 C201.183851,89.8323518 201.076352,89.5523546 201.076352,89.2123529 L201.076352,84.0223529 L198.736352,84.0223529 L198.736352,82.9423529 Z M215.191352,86.7523529 C215.191352,87.372356 215.088853,87.9198506 214.883852,88.3948529 C214.678851,88.8698553 214.406354,89.2698513 214.066352,89.5948529 C213.72635,89.9198546 213.328854,90.1673521 212.873852,90.3373529 C212.41885,90.5073538 211.946354,90.5923529 211.456352,90.5923529 C210.956349,90.5923529 210.481354,90.5073538 210.031352,90.3373529 C209.58135,90.1673521 209.186354,89.9198546 208.846352,89.5948529 C208.50635,89.2698513 208.233853,88.8698553 208.028852,88.3948529 C207.823851,87.9198506 207.721352,87.372356 207.721352,86.7523529 L207.721352,86.5723529 C207.721352,85.9623499 207.823851,85.4198553 208.028852,84.9448529 C208.233853,84.4698506 208.50885,84.0673546 208.853852,83.7373529 C209.198854,83.4073513 209.59635,83.1573538 210.046352,82.9873529 C210.496354,82.8173521 210.966349,82.7323529 211.456352,82.7323529 C211.946354,82.7323529 212.41635,82.8173521 212.866352,82.9873529 C213.316354,83.1573538 213.71385,83.4073513 214.058852,83.7373529 C214.403854,84.0673546 214.678851,84.4698506 214.883852,84.9448529 C215.088853,85.4198553 215.191352,85.9623499 215.191352,86.5723529 L215.191352,86.7523529 Z M211.456352,89.4823529 C211.816354,89.4823529 212.14885,89.4198536 212.453852,89.2948529 C212.758853,89.1698523 213.026351,88.9873541 213.256352,88.7473529 C213.486353,88.5073517 213.666351,88.2198546 213.796352,87.8848529 C213.926353,87.5498513 213.991352,87.172355 213.991352,86.7523529 L213.991352,86.5723529 C213.991352,86.1723509 213.926353,85.8048546 213.796352,85.4698529 C213.666351,85.1348513 213.486353,84.8473541 213.256352,84.6073529 C213.026351,84.3673517 212.756353,84.1798536 212.446352,84.0448529 C212.13635,83.9098523 211.806354,83.8423529 211.456352,83.8423529 C211.10635,83.8423529 210.776353,83.9098523 210.466352,84.0448529 C210.15635,84.1798536 209.886353,84.3673517 209.656352,84.6073529 C209.426351,84.8473541 209.246353,85.1348513 209.116352,85.4698529 C208.986351,85.8048546 208.921352,86.1723509 208.921352,86.5723529 L208.921352,86.7523529 C208.921352,87.172355 208.986351,87.5498513 209.116352,87.8848529 C209.246353,88.2198546 209.426351,88.5073517 209.656352,88.7473529 C209.886353,88.9873541 210.15385,89.1698523 210.458852,89.2948529 C210.763853,89.4198536 211.09635,89.4823529 211.456352,89.4823529 Z M232.291352,89.2423529 L232.111352,89.2423529 C231.991351,89.4723541 231.838853,89.6723521 231.653852,89.8423529 C231.468851,90.0123538 231.268853,90.1523524 231.053852,90.2623529 C230.838851,90.3723535 230.611353,90.4548527 230.371352,90.5098529 C230.131351,90.5648532 229.901353,90.5923529 229.681352,90.5923529 C229.181349,90.5923529 228.716354,90.5073538 228.286352,90.3373529 C227.85635,90.1673521 227.478854,89.9223545 227.153852,89.6023529 C226.82885,89.2823513 226.573853,88.8848553 226.388852,88.4098529 C226.203851,87.9348506 226.111352,87.392356 226.111352,86.7823529 L226.111352,86.5423529 C226.111352,85.9423499 226.206351,85.4048553 226.396352,84.9298529 C226.586353,84.4548506 226.84135,84.0548546 227.161352,83.7298529 C227.481354,83.4048513 227.85635,83.1573538 228.286352,82.9873529 C228.716354,82.8173521 229.17135,82.7323529 229.651352,82.7323529 C230.161354,82.7323529 230.63885,82.8448518 231.083852,83.0698529 C231.528854,83.2948541 231.871351,83.6423506 232.111352,84.1123529 L232.291352,84.1123529 L232.291352,79.8823529 L233.461352,79.8823529 L233.461352,90.3823529 L232.291352,90.3823529 L232.291352,89.2423529 Z M229.801352,89.4823529 C230.151354,89.4823529 230.47635,89.4173536 230.776352,89.2873529 C231.076353,89.1573523 231.338851,88.9723541 231.563852,88.7323529 C231.788853,88.4923517 231.966351,88.2048546 232.096352,87.8698529 C232.226353,87.5348513 232.291352,87.162355 232.291352,86.7523529 L232.291352,86.5723529 C232.291352,86.1723509 232.226353,85.8048546 232.096352,85.4698529 C231.966351,85.1348513 231.788853,84.8473541 231.563852,84.6073529 C231.338851,84.3673517 231.073853,84.1798536 230.768852,84.0448529 C230.46385,83.9098523 230.141354,83.8423529 229.801352,83.8423529 C229.45135,83.8423529 229.123853,83.9073523 228.818852,84.0373529 C228.51385,84.1673536 228.248853,84.3523517 228.023852,84.5923529 C227.798851,84.8323541 227.623853,85.1173513 227.498852,85.4473529 C227.373851,85.7773546 227.311352,86.1423509 227.311352,86.5423529 L227.311352,86.7823529 C227.311352,87.202355 227.373851,87.5773513 227.498852,87.9073529 C227.623853,88.2373546 227.798851,88.5198518 228.023852,88.7548529 C228.248853,88.9898541 228.51135,89.1698523 228.811352,89.2948529 C229.111353,89.4198536 229.44135,89.4823529 229.801352,89.4823529 Z M235.291352,82.9423529 L237.991352,82.9423529 L237.991352,83.9323529 L238.171352,83.9323529 C238.361353,83.5223509 238.63135,83.2198539 238.981352,83.0248529 C239.331354,82.829852 239.73135,82.7323529 240.181352,82.7323529 C240.931356,82.7323529 241.53635,82.9773505 241.996352,83.4673529 C242.456354,83.9573554 242.701352,84.6723482 242.731352,85.6123529 L241.501352,85.7923529 C241.501352,85.1023495 241.336354,84.6048545 241.006352,84.2998529 C240.67635,83.9948514 240.271354,83.8423529 239.791352,83.8423529 C239.48135,83.8423529 239.213853,83.9023523 238.988852,84.0223529 C238.763851,84.1423535 238.576353,84.3073519 238.426352,84.5173529 C238.276351,84.727354 238.166352,84.9723515 238.096352,85.2523529 C238.026352,85.5323543 237.991352,85.8323513 237.991352,86.1523529 L237.991352,89.3023529 L239.881352,89.3023529 L239.881352,90.3823529 L235.111352,90.3823529 L235.111352,89.3023529 L236.821352,89.3023529 L236.821352,84.0223529 L235.291352,84.0223529 L235.291352,82.9423529 Z M250.291352,89.1223529 L250.111352,89.1223529 C249.871351,89.6223554 249.538854,89.9923517 249.113852,90.2323529 C248.68885,90.4723541 248.241354,90.5923529 247.771352,90.5923529 C247.281349,90.5923529 246.826354,90.5098538 246.406352,90.3448529 C245.98635,90.1798521 245.618854,89.9348546 245.303852,89.6098529 C244.98885,89.2848513 244.741353,88.8873553 244.561352,88.4173529 C244.381351,87.9473506 244.291352,87.402356 244.291352,86.7823529 L244.291352,86.5423529 C244.291352,85.9323499 244.381351,85.3923553 244.561352,84.9223529 C244.741353,84.4523506 244.98885,84.0548546 245.303852,83.7298529 C245.618854,83.4048513 245.98635,83.1573538 246.406352,82.9873529 C246.826354,82.8173521 247.27135,82.7323529 247.741352,82.7323529 C248.251354,82.7323529 248.71385,82.8448518 249.128852,83.0698529 C249.543854,83.2948541 249.871351,83.6423506 250.111352,84.1123529 L250.291352,84.1123529 L250.291352,82.9423529 L251.461352,82.9423529 L251.461352,88.8523529 C251.461352,89.1523544 251.596351,89.3023529 251.866352,89.3023529 L252.241352,89.3023529 L252.241352,90.3823529 L251.446352,90.3823529 C251.10635,90.3823529 250.828853,90.272354 250.613852,90.0523529 C250.398851,89.8323518 250.291352,89.5523546 250.291352,89.2123529 L250.291352,89.1223529 Z M247.891352,89.4823529 C248.241354,89.4823529 248.56385,89.4173536 248.858852,89.2873529 C249.153853,89.1573523 249.406351,88.9723541 249.616352,88.7323529 C249.826353,88.4923517 249.991351,88.2048546 250.111352,87.8698529 C250.231353,87.5348513 250.291352,87.162355 250.291352,86.7523529 L250.291352,86.5723529 C250.291352,86.1723509 250.231353,85.8048546 250.111352,85.4698529 C249.991351,85.1348513 249.823853,84.8473541 249.608852,84.6073529 C249.393851,84.3673517 249.138853,84.1798536 248.843852,84.0448529 C248.54885,83.9098523 248.231354,83.8423529 247.891352,83.8423529 C247.54135,83.8423529 247.221353,83.9073523 246.931352,84.0373529 C246.64135,84.1673536 246.388853,84.3498518 246.173852,84.5848529 C245.958851,84.8198541 245.791353,85.1048513 245.671352,85.4398529 C245.551351,85.7748546 245.491352,86.1423509 245.491352,86.5423529 L245.491352,86.7823529 C245.491352,87.6323572 245.71385,88.2948506 246.158852,88.7698529 C246.603854,89.2448553 247.181348,89.4823529 247.891352,89.4823529 Z M260.506352,90.3823529 L258.346352,90.3823529 L257.446352,83.4823529 L257.266352,83.4823529 L256.366352,90.3823529 L254.206352,90.3823529 L253.036352,82.9423529 L254.236352,82.9423529 L255.226352,89.8423529 L255.406352,89.8423529 L256.276352,82.9423529 L258.436352,82.9423529 L259.306352,89.8423529 L259.486352,89.8423529 L260.476352,82.9423529 L261.676352,82.9423529 L260.506352,90.3823529 Z M279.391352,87.7423529 C279.311352,88.152355 279.173853,88.5323512 278.978852,88.8823529 C278.783851,89.2323547 278.536353,89.5348517 278.236352,89.7898529 C277.93635,90.0448542 277.586354,90.2423522 277.186352,90.3823529 C276.78635,90.5223536 276.341354,90.5923529 275.851352,90.5923529 C275.331349,90.5923529 274.838854,90.5073538 274.373852,90.3373529 C273.90885,90.1673521 273.501354,89.9198546 273.151352,89.5948529 C272.80135,89.2698513 272.523853,88.8723553 272.318852,88.4023529 C272.113851,87.9323506 272.011352,87.392356 272.011352,86.7823529 L272.011352,86.6023529 C272.011352,86.0023499 272.113851,85.4623553 272.318852,84.9823529 C272.523853,84.5023505 272.80135,84.0973546 273.151352,83.7673529 C273.501354,83.4373513 273.90885,83.1823538 274.373852,83.0023529 C274.838854,82.822352 275.331349,82.7323529 275.851352,82.7323529 C276.321354,82.7323529 276.75635,82.8023522 277.156352,82.9423529 C277.556354,83.0823536 277.90885,83.2798517 278.213852,83.5348529 C278.518853,83.7898542 278.768851,84.0923512 278.963852,84.4423529 C279.158853,84.7923547 279.291352,85.1723509 279.361352,85.5823529 L278.191352,85.8523529 C278.161352,85.5923516 278.088853,85.3398542 277.973852,85.0948529 C277.858851,84.8498517 277.703853,84.6348539 277.508852,84.4498529 C277.313851,84.264852 277.076353,84.1173535 276.796352,84.0073529 C276.516351,83.8973524 276.191354,83.8423529 275.821352,83.8423529 C275.46135,83.8423529 275.123854,83.9098523 274.808852,84.0448529 C274.49385,84.1798536 274.216353,84.3698517 273.976352,84.6148529 C273.736351,84.8598542 273.548853,85.1523512 273.413852,85.4923529 C273.278851,85.8323546 273.211352,86.2023509 273.211352,86.6023529 L273.211352,86.7823529 C273.211352,87.202355 273.278851,87.5798513 273.413852,87.9148529 C273.548853,88.2498546 273.736351,88.5323518 273.976352,88.7623529 C274.216353,88.9923541 274.49635,89.1698523 274.816352,89.2948529 C275.136354,89.4198536 275.48135,89.4823529 275.851352,89.4823529 C276.221354,89.4823529 276.543851,89.4248535 276.818852,89.3098529 C277.093853,89.1948524 277.328851,89.0448539 277.523852,88.8598529 C277.718853,88.674852 277.873851,88.4623541 277.988852,88.2223529 C278.103853,87.9823517 278.181352,87.7323542 278.221352,87.4723529 L279.391352,87.7423529 Z M282.781352,90.3823529 L281.611352,90.3823529 L281.611352,79.8823529 L282.781352,79.8823529 L282.781352,84.2923529 L282.961352,84.2923529 C283.191353,83.8123505 283.51385,83.4323543 283.928852,83.1523529 C284.343854,82.8723515 284.851349,82.7323529 285.451352,82.7323529 C286.261356,82.7323529 286.918849,82.9998503 287.423852,83.5348529 C287.928854,84.0698556 288.181352,84.8723476 288.181352,85.9423529 L288.181352,90.3823529 L287.011352,90.3823529 L287.011352,86.1823529 C287.011352,85.402349 286.836354,84.8173549 286.486352,84.4273529 C286.13635,84.037351 285.661355,83.8423529 285.061352,83.8423529 C284.351348,83.8423529 283.793854,84.0848505 283.388852,84.5698529 C282.98385,85.0548554 282.781352,85.7023489 282.781352,86.5123529 L282.781352,90.3823529 Z M296.191352,89.1223529 L296.011352,89.1223529 C295.771351,89.6223554 295.438854,89.9923517 295.013852,90.2323529 C294.58885,90.4723541 294.141354,90.5923529 293.671352,90.5923529 C293.181349,90.5923529 292.726354,90.5098538 292.306352,90.3448529 C291.88635,90.1798521 291.518854,89.9348546 291.203852,89.6098529 C290.88885,89.2848513 290.641353,88.8873553 290.461352,88.4173529 C290.281351,87.9473506 290.191352,87.402356 290.191352,86.7823529 L290.191352,86.5423529 C290.191352,85.9323499 290.281351,85.3923553 290.461352,84.9223529 C290.641353,84.4523506 290.88885,84.0548546 291.203852,83.7298529 C291.518854,83.4048513 291.88635,83.1573538 292.306352,82.9873529 C292.726354,82.8173521 293.17135,82.7323529 293.641352,82.7323529 C294.151354,82.7323529 294.61385,82.8448518 295.028852,83.0698529 C295.443854,83.2948541 295.771351,83.6423506 296.011352,84.1123529 L296.191352,84.1123529 L296.191352,82.9423529 L297.361352,82.9423529 L297.361352,88.8523529 C297.361352,89.1523544 297.496351,89.3023529 297.766352,89.3023529 L298.141352,89.3023529 L298.141352,90.3823529 L297.346352,90.3823529 C297.00635,90.3823529 296.728853,90.272354 296.513852,90.0523529 C296.298851,89.8323518 296.191352,89.5523546 296.191352,89.2123529 L296.191352,89.1223529 Z M293.791352,89.4823529 C294.141354,89.4823529 294.46385,89.4173536 294.758852,89.2873529 C295.053853,89.1573523 295.306351,88.9723541 295.516352,88.7323529 C295.726353,88.4923517 295.891351,88.2048546 296.011352,87.8698529 C296.131353,87.5348513 296.191352,87.162355 296.191352,86.7523529 L296.191352,86.5723529 C296.191352,86.1723509 296.131353,85.8048546 296.011352,85.4698529 C295.891351,85.1348513 295.723853,84.8473541 295.508852,84.6073529 C295.293851,84.3673517 295.038853,84.1798536 294.743852,84.0448529 C294.44885,83.9098523 294.131354,83.8423529 293.791352,83.8423529 C293.44135,83.8423529 293.121353,83.9073523 292.831352,84.0373529 C292.54135,84.1673536 292.288853,84.3498518 292.073852,84.5848529 C291.858851,84.8198541 291.691353,85.1048513 291.571352,85.4398529 C291.451351,85.7748546 291.391352,86.1423509 291.391352,86.5423529 L291.391352,86.7823529 C291.391352,87.6323572 291.61385,88.2948506 292.058852,88.7698529 C292.503854,89.2448553 293.081348,89.4823529 293.791352,89.4823529 Z M299.551352,82.9423529 L302.251352,82.9423529 L302.251352,83.9323529 L302.431352,83.9323529 C302.621353,83.5223509 302.89135,83.2198539 303.241352,83.0248529 C303.591354,82.829852 303.99135,82.7323529 304.441352,82.7323529 C305.191356,82.7323529 305.79635,82.9773505 306.256352,83.4673529 C306.716354,83.9573554 306.961352,84.6723482 306.991352,85.6123529 L305.761352,85.7923529 C305.761352,85.1023495 305.596354,84.6048545 305.266352,84.2998529 C304.93635,83.9948514 304.531354,83.8423529 304.051352,83.8423529 C303.74135,83.8423529 303.473853,83.9023523 303.248852,84.0223529 C303.023851,84.1423535 302.836353,84.3073519 302.686352,84.5173529 C302.536351,84.727354 302.426352,84.9723515 302.356352,85.2523529 C302.286352,85.5323543 302.251352,85.8323513 302.251352,86.1523529 L302.251352,89.3023529 L304.141352,89.3023529 L304.141352,90.3823529 L299.371352,90.3823529 L299.371352,89.3023529 L301.081352,89.3023529 L301.081352,84.0223529 L299.551352,84.0223529 L299.551352,82.9423529 Z M308.896352,82.9423529 L311.236352,82.9423529 L311.236352,79.8823529 L312.406352,79.8823529 L312.406352,82.9423529 L315.286352,82.9423529 L315.286352,84.0223529 L312.406352,84.0223529 L312.406352,88.8523529 C312.406352,89.1523544 312.541351,89.3023529 312.811352,89.3023529 L314.926352,89.3023529 L314.926352,90.3823529 L312.391352,90.3823529 C312.05135,90.3823529 311.773853,90.272354 311.558852,90.0523529 C311.343851,89.8323518 311.236352,89.5523546 311.236352,89.2123529 L311.236352,84.0223529 L308.896352,84.0223529 L308.896352,82.9423529 Z M319.876352,84.8623529 C319.876352,85.2223547 320.02885,85.497352 320.333852,85.6873529 C320.638853,85.8773539 321.196348,86.0023526 322.006352,86.0623529 C322.876356,86.1323533 323.53885,86.3398512 323.993852,86.6848529 C324.448854,87.0298547 324.676352,87.5323496 324.676352,88.1923529 L324.676352,88.2823529 C324.676352,88.6423547 324.603853,88.9648515 324.458852,89.2498529 C324.313851,89.5348544 324.113853,89.7773519 323.858852,89.9773529 C323.603851,90.1773539 323.293854,90.3298524 322.928852,90.4348529 C322.56385,90.5398535 322.166354,90.5923529 321.736352,90.5923529 C321.156349,90.5923529 320.658854,90.5148537 320.243852,90.3598529 C319.82885,90.2048522 319.483853,89.9998542 319.208852,89.7448529 C318.933851,89.4898517 318.726353,89.1998546 318.586352,88.8748529 C318.446351,88.5498513 318.366352,88.2223546 318.346352,87.8923529 L319.456352,87.6223529 C319.506352,88.1923558 319.72635,88.6498512 320.116352,88.9948529 C320.506354,89.3398547 321.026349,89.5123529 321.676352,89.5123529 C322.226355,89.5123529 322.66885,89.404854 323.003852,89.1898529 C323.338854,88.9748519 323.506352,88.6723549 323.506352,88.2823529 C323.506352,87.8623508 323.341354,87.5623538 323.011352,87.3823529 C322.68135,87.202352 322.146356,87.0873532 321.406352,87.0373529 C320.546348,86.9773526 319.886354,86.7773546 319.426352,86.4373529 C318.96635,86.0973512 318.736352,85.6023562 318.736352,84.9523529 L318.736352,84.8623529 C318.736352,84.5123512 318.811351,84.2048543 318.961352,83.9398529 C319.111353,83.6748516 319.313851,83.4523538 319.568852,83.2723529 C319.823853,83.092352 320.11135,82.9573534 320.431352,82.8673529 C320.751354,82.7773525 321.08635,82.7323529 321.436352,82.7323529 C321.926354,82.7323529 322.35635,82.7998523 322.726352,82.9348529 C323.096354,83.0698536 323.406351,83.2448519 323.656352,83.4598529 C323.906353,83.674854 324.098851,83.9223515 324.233852,84.2023529 C324.368853,84.4823543 324.456352,84.7623515 324.496352,85.0423529 L323.386352,85.3123529 C323.336352,84.8323505 323.143854,84.4573543 322.808852,84.1873529 C322.47385,83.9173516 322.036355,83.7823529 321.496352,83.7823529 C321.286351,83.7823529 321.083853,83.8048527 320.888852,83.8498529 C320.693851,83.8948532 320.521353,83.9623525 320.371352,84.0523529 C320.221351,84.1423534 320.101352,84.2548523 320.011352,84.3898529 C319.921351,84.5248536 319.876352,84.682352 319.876352,84.8623529 Z" id="Identify-a-modelling" fill="#343434" mask="url(#mask-2)"></path>
            <path d="M40.8963519,43.7102941 C41.9630239,43.7102941 42.8838481,43.922792 43.6588519,44.3477941 C44.4338558,44.7727962 45.0296832,45.364457 45.4463519,46.1227941 C45.8630207,46.8811312 46.0713519,47.7436226 46.0713519,48.7102941 C46.0713519,50.0103006 45.7880214,51.1019564 45.2213519,51.9852941 C44.6546824,52.8686319 43.8880234,53.5269586 42.9213519,53.9602941 C41.9546804,54.3936296 40.8630247,54.6102941 39.6463519,54.6102941 C38.1463444,54.6102941 36.8713572,54.3519634 35.8213519,53.8352941 C34.7713467,53.3186249 33.8963554,52.4769666 33.1963519,51.3102941 L36.9713519,49.1602941 C37.1380194,49.8936311 37.4213499,50.4436256 37.8213519,50.8102941 C38.2213539,51.1769626 38.8380144,51.3602941 39.6713519,51.3602941 C40.4546892,51.3602941 41.0713497,51.1602961 41.5213519,50.7602941 C41.9713542,50.3602921 42.1963519,49.7769646 42.1963519,49.0102941 C42.1796852,48.2602904 41.9630207,47.6852961 41.5463519,47.2852941 C41.1296832,46.8852921 40.5046894,46.6852941 39.6713519,46.6852941 C38.4713459,46.6852941 37.5963547,47.0102909 37.0463519,47.6602941 L33.7963519,47.1852941 L34.8463519,37.8602941 L45.1463519,37.8602941 L45.1463519,41.1852941 L37.9713519,41.1852941 L37.5963519,44.2852941 C37.5463517,44.5686289 37.5046854,44.7686269 37.4713519,44.8852941 L37.4963519,44.8852941 C37.8296869,44.5186256 38.2963489,44.2311285 38.8963519,44.0227941 C39.4963549,43.8144597 40.1630149,43.7102941 40.8963519,43.7102941 Z" id="1" fill="#FFABCC" mask="url(#mask-2)"></path>
        </g>
    </g>
</svg>