<?xml version="1.0" encoding="UTF-8"?>
<svg width="432px" height="126px" viewBox="0 0 432 126" version="1.1" xmlns="http://www.w3.org/2000/svg" xmlns:xlink="http://www.w3.org/1999/xlink">
    <!-- Generator: Sketch 52.6 (67491) - http://www.bohemiancoding.com/sketch -->
    <title>flow3</title>
    <desc>Created with Sketch.</desc>
    <defs>
        <rect id="path-1" x="0" y="0" width="432" height="126"></rect>
    </defs>
    <g id="Page-4" stroke="none" stroke-width="1" fill="none" fill-rule="evenodd">
        <g id="flow3">
            <mask id="mask-2" fill="white">
                <use xlink:href="#path-1"></use>
            </mask>
            <rect stroke="#F1F1F1" stroke-width="2" x="1" y="1" width="430" height="124"></rect>
            <path d="M0,123 L434,123" id="Line-2" stroke="#FFABCC" stroke-width="6" mask="url(#mask-2)"></path>
            <path d="M33.3013519,89.2123529 L34.2013519,89.2123529 L34.2013519,81.0523529 L33.3013519,81.0523529 L33.3013519,79.8823529 L37.5463519,79.8823529 C38.0463544,79.8823529 38.48885,79.9523522 38.8738519,80.0923529 C39.2588539,80.2323536 39.5838506,80.4223517 39.8488519,80.6623529 C40.1138533,80.9023541 40.3138513,81.1898513 40.4488519,81.5248529 C40.5838526,81.8598546 40.6513519,82.222351 40.6513519,82.6123529 L40.6513519,82.7923529 C40.6513519,83.0823544 40.6063524,83.3473517 40.5163519,83.5873529 C40.4263515,83.8273541 40.3013527,84.042352 40.1413519,84.2323529 C39.9813511,84.4223539 39.793853,84.5848523 39.5788519,84.7198529 C39.3638509,84.8548536 39.1313532,84.9573526 38.8813519,85.0273529 L38.8813519,85.2073529 C39.3813544,85.3473536 39.8013502,85.614851 40.1413519,86.0098529 C40.4813536,86.4048549 40.6513519,86.8873501 40.6513519,87.4573529 L40.6513519,87.6373529 C40.6513519,88.0273549 40.5838526,88.3898513 40.4488519,88.7248529 C40.3138513,89.0598546 40.1138533,89.3498517 39.8488519,89.5948529 C39.5838506,89.8398542 39.2588539,90.0323522 38.8738519,90.1723529 C38.48885,90.3123536 38.0463544,90.3823529 37.5463519,90.3823529 L33.3013519,90.3823529 L33.3013519,89.2123529 Z M35.4613519,89.2123529 L37.4563519,89.2123529 C38.0463549,89.2123529 38.5263501,89.0648544 38.8963519,88.7698529 C39.2663538,88.4748515 39.4513519,88.0673555 39.4513519,87.5473529 L39.4513519,87.4573529 C39.4513519,86.9173502 39.2763537,86.4898545 38.9263519,86.1748529 C38.5763502,85.8598514 38.1013549,85.7023529 37.5013519,85.7023529 L35.4613519,85.7023529 L35.4613519,89.2123529 Z M35.4613519,84.5323529 L37.5013519,84.5323529 C38.1013549,84.5323529 38.5763502,84.3773545 38.9263519,84.0673529 C39.2763537,83.7573514 39.4513519,83.3323556 39.4513519,82.7923529 L39.4513519,82.7023529 C39.4513519,82.1923504 39.2663538,81.7898544 38.8963519,81.4948529 C38.5263501,81.1998515 38.0463549,81.0523529 37.4563519,81.0523529 L35.4613519,81.0523529 L35.4613519,84.5323529 Z M48.2413519,82.9423529 L49.4113519,82.9423529 L49.4113519,90.3823529 L48.2413519,90.3823529 L48.2413519,89.0323529 L48.0613519,89.0323529 C47.8213507,89.5123553 47.5063539,89.8923515 47.1163519,90.1723529 C46.72635,90.4523543 46.2313549,90.5923529 45.6313519,90.5923529 C45.2213499,90.5923529 44.8438537,90.5248536 44.4988519,90.3898529 C44.1538502,90.2548523 43.8588532,90.0523543 43.6138519,89.7823529 C43.3688507,89.5123516 43.1788526,89.1773549 43.0438519,88.7773529 C42.9088513,88.3773509 42.8413519,87.9123556 42.8413519,87.3823529 L42.8413519,82.9423529 L44.0113519,82.9423529 L44.0113519,87.2323529 C44.0113519,88.0123568 44.1713503,88.5823511 44.4913519,88.9423529 C44.8113535,89.3023547 45.3013486,89.4823529 45.9613519,89.4823529 C46.6713555,89.4823529 47.2288499,89.2398554 47.6338519,88.7548529 C48.038854,88.2698505 48.2413519,87.622357 48.2413519,86.8123529 L48.2413519,82.9423529 Z M54.4213519,80.7223529 C54.4213519,80.4323515 54.5238509,80.184854 54.7288519,79.9798529 C54.933853,79.7748519 55.1813505,79.6723529 55.4713519,79.6723529 C55.7613534,79.6723529 56.0088509,79.7748519 56.2138519,79.9798529 C56.418853,80.184854 56.5213519,80.4323515 56.5213519,80.7223529 C56.5213519,81.0123544 56.418853,81.2598519 56.2138519,81.4648529 C56.0088509,81.669854 55.7613534,81.7723529 55.4713519,81.7723529 C55.1813505,81.7723529 54.933853,81.669854 54.7288519,81.4648529 C54.5238509,81.2598519 54.4213519,81.0123544 54.4213519,80.7223529 Z M52.2913519,89.3023529 L54.9013519,89.3023529 L54.9013519,84.0223529 L52.5613519,84.0223529 L52.5613519,82.9423529 L56.0713519,82.9423529 L56.0713519,89.3023529 L58.5013519,89.3023529 L58.5013519,90.3823529 L52.2913519,90.3823529 L52.2913519,89.3023529 Z M61.2913519,89.3023529 L63.9913519,89.3023529 L63.9913519,80.9623529 L61.3813519,80.9623529 L61.3813519,79.8823529 L65.1613519,79.8823529 L65.1613519,89.3023529 L67.8613519,89.3023529 L67.8613519,90.3823529 L61.2913519,90.3823529 L61.2913519,89.3023529 Z M76.2313519,89.2423529 L76.0513519,89.2423529 C75.9313513,89.4723541 75.7788529,89.6723521 75.5938519,89.8423529 C75.408851,90.0123538 75.208853,90.1523524 74.9938519,90.2623529 C74.7788509,90.3723535 74.5513531,90.4548527 74.3113519,90.5098529 C74.0713507,90.5648532 73.841353,90.5923529 73.6213519,90.5923529 C73.1213494,90.5923529 72.6563541,90.5073538 72.2263519,90.3373529 C71.7963498,90.1673521 71.4188536,89.9223545 71.0938519,89.6023529 C70.7688503,89.2823513 70.5138529,88.8848553 70.3288519,88.4098529 C70.143851,87.9348506 70.0513519,87.392356 70.0513519,86.7823529 L70.0513519,86.5423529 C70.0513519,85.9423499 70.146351,85.4048553 70.3363519,84.9298529 C70.5263529,84.4548506 70.7813503,84.0548546 71.1013519,83.7298529 C71.4213535,83.4048513 71.7963498,83.1573538 72.2263519,82.9873529 C72.6563541,82.8173521 73.1113495,82.7323529 73.5913519,82.7323529 C74.1013545,82.7323529 74.5788497,82.8448518 75.0238519,83.0698529 C75.4688542,83.2948541 75.8113507,83.6423506 76.0513519,84.1123529 L76.2313519,84.1123529 L76.2313519,79.8823529 L77.4013519,79.8823529 L77.4013519,90.3823529 L76.2313519,90.3823529 L76.2313519,89.2423529 Z M73.7413519,89.4823529 C74.0913537,89.4823529 74.4163504,89.4173536 74.7163519,89.2873529 C75.0163534,89.1573523 75.2788508,88.9723541 75.5038519,88.7323529 C75.7288531,88.4923517 75.9063513,88.2048546 76.0363519,87.8698529 C76.1663526,87.5348513 76.2313519,87.162355 76.2313519,86.7523529 L76.2313519,86.5723529 C76.2313519,86.1723509 76.1663526,85.8048546 76.0363519,85.4698529 C75.9063513,85.1348513 75.7288531,84.8473541 75.5038519,84.6073529 C75.2788508,84.3673517 75.0138535,84.1798536 74.7088519,84.0448529 C74.4038504,83.9098523 74.0813536,83.8423529 73.7413519,83.8423529 C73.3913502,83.8423529 73.0638535,83.9073523 72.7588519,84.0373529 C72.4538504,84.1673536 72.1888531,84.3523517 71.9638519,84.5923529 C71.7388508,84.8323541 71.5638526,85.1173513 71.4388519,85.4473529 C71.3138513,85.7773546 71.2513519,86.1423509 71.2513519,86.5423529 L71.2513519,86.7823529 C71.2513519,87.202355 71.3138513,87.5773513 71.4388519,87.9073529 C71.5638526,88.2373546 71.7388508,88.5198518 71.9638519,88.7548529 C72.1888531,88.9898541 72.4513504,89.1698523 72.7513519,89.2948529 C73.0513534,89.4198536 73.3813501,89.4823529 73.7413519,89.4823529 Z M88.5763519,82.9423529 L90.9163519,82.9423529 L90.9163519,79.8823529 L92.0863519,79.8823529 L92.0863519,82.9423529 L94.9663519,82.9423529 L94.9663519,84.0223529 L92.0863519,84.0223529 L92.0863519,88.8523529 C92.0863519,89.1523544 92.2213506,89.3023529 92.4913519,89.3023529 L94.6063519,89.3023529 L94.6063519,90.3823529 L92.0713519,90.3823529 C91.7313502,90.3823529 91.453853,90.272354 91.2388519,90.0523529 C91.0238509,89.8323518 90.9163519,89.5523546 90.9163519,89.2123529 L90.9163519,84.0223529 L88.5763519,84.0223529 L88.5763519,82.9423529 Z M99.1813519,90.3823529 L98.0113519,90.3823529 L98.0113519,79.8823529 L99.1813519,79.8823529 L99.1813519,84.2923529 L99.3613519,84.2923529 C99.5913531,83.8123505 99.9138499,83.4323543 100.328852,83.1523529 C100.743854,82.8723515 101.251349,82.7323529 101.851352,82.7323529 C102.661356,82.7323529 103.318849,82.9998503 103.823852,83.5348529 C104.328854,84.0698556 104.581352,84.8723476 104.581352,85.9423529 L104.581352,90.3823529 L103.411352,90.3823529 L103.411352,86.1823529 C103.411352,85.402349 103.236354,84.8173549 102.886352,84.4273529 C102.53635,84.037351 102.061355,83.8423529 101.461352,83.8423529 C100.751348,83.8423529 100.193854,84.0848505 99.7888519,84.5698529 C99.3838499,85.0548554 99.1813519,85.7023489 99.1813519,86.5123529 L99.1813519,90.3823529 Z M108.046352,87.0223529 C108.076352,87.7623566 108.30635,88.3573507 108.736352,88.8073529 C109.166354,89.2573552 109.766348,89.4823529 110.536352,89.4823529 C110.886354,89.4823529 111.191351,89.4423533 111.451352,89.3623529 C111.711353,89.2823525 111.933851,89.1723536 112.118852,89.0323529 C112.303853,88.8923522 112.453851,88.7298539 112.568852,88.5448529 C112.683853,88.359852 112.776352,88.162354 112.846352,87.9523529 L113.956352,88.2523529 C113.746351,88.9423564 113.358855,89.5048508 112.793852,89.9398529 C112.228849,90.3748551 111.466357,90.5923529 110.506352,90.5923529 C109.976349,90.5923529 109.488854,90.4998539 109.043852,90.3148529 C108.59885,90.129852 108.216354,89.8673546 107.896352,89.5273529 C107.57635,89.1873512 107.326353,88.7823553 107.146352,88.3123529 C106.966351,87.8423506 106.876352,87.3223558 106.876352,86.7523529 L106.876352,86.3923529 C106.876352,85.8723503 106.968851,85.3873552 107.153852,84.9373529 C107.338853,84.4873507 107.59635,84.0998546 107.926352,83.7748529 C108.256354,83.4498513 108.64385,83.1948539 109.088852,83.0098529 C109.533854,82.824852 110.016349,82.7323529 110.536352,82.7323529 C111.146355,82.7323529 111.67385,82.8448518 112.118852,83.0698529 C112.563854,83.2948541 112.928851,83.5723513 113.213852,83.9023529 C113.498853,84.2323546 113.708851,84.592351 113.843852,84.9823529 C113.978853,85.3723549 114.046352,85.7323513 114.046352,86.0623529 L114.046352,87.0223529 L108.046352,87.0223529 Z M110.536352,83.8423529 C110.20635,83.8423529 109.898853,83.8948524 109.613852,83.9998529 C109.328851,84.1048535 109.078853,84.252352 108.863852,84.4423529 C108.648851,84.6323539 108.473853,84.8548517 108.338852,85.1098529 C108.203851,85.3648542 108.116352,85.6423514 108.076352,85.9423529 L112.876352,85.9423529 C112.856352,85.6223513 112.778853,85.3323542 112.643852,85.0723529 C112.508851,84.8123516 112.333853,84.5923538 112.118852,84.4123529 C111.903851,84.232352 111.658853,84.0923534 111.383852,83.9923529 C111.108851,83.8923524 110.826353,83.8423529 110.536352,83.8423529 Z M132.706352,90.3823529 L131.536352,90.3823529 L131.536352,85.0423529 C131.536352,84.6923512 131.456353,84.4048541 131.296352,84.1798529 C131.136351,83.9548518 130.881354,83.8423529 130.531352,83.8423529 C130.20135,83.8423529 129.933853,83.9648517 129.728852,84.2098529 C129.523851,84.4548542 129.421352,84.8323504 129.421352,85.3423529 L129.421352,90.3823529 L128.251352,90.3823529 L128.251352,84.9823529 C128.251352,84.6523513 128.161353,84.379854 127.981352,84.1648529 C127.801351,83.9498519 127.561353,83.8423529 127.261352,83.8423529 C126.90135,83.8423529 126.623853,83.9723516 126.428852,84.2323529 C126.233851,84.4923542 126.136352,84.8323508 126.136352,85.2523529 L126.136352,90.3823529 L124.966352,90.3823529 L124.966352,82.9423529 L126.136352,82.9423529 L126.136352,83.7523529 L126.316352,83.7523529 C126.446353,83.4023512 126.636351,83.1448538 126.886352,82.9798529 C127.136353,82.8148521 127.43135,82.7323529 127.771352,82.7323529 C128.131354,82.7323529 128.428851,82.827352 128.663852,83.0173529 C128.898853,83.2073539 129.061351,83.4523514 129.151352,83.7523529 L129.331352,83.7523529 C129.671354,83.0723495 130.211348,82.7323529 130.951352,82.7323529 C131.511355,82.7323529 131.94385,82.9098512 132.248852,83.2648529 C132.553853,83.6198547 132.706352,84.0823501 132.706352,84.6523529 L132.706352,90.3823529 Z M141.751352,86.7523529 C141.751352,87.372356 141.648853,87.9198506 141.443852,88.3948529 C141.238851,88.8698553 140.966354,89.2698513 140.626352,89.5948529 C140.28635,89.9198546 139.888854,90.1673521 139.433852,90.3373529 C138.97885,90.5073538 138.506354,90.5923529 138.016352,90.5923529 C137.516349,90.5923529 137.041354,90.5073538 136.591352,90.3373529 C136.14135,90.1673521 135.746354,89.9198546 135.406352,89.5948529 C135.06635,89.2698513 134.793853,88.8698553 134.588852,88.3948529 C134.383851,87.9198506 134.281352,87.372356 134.281352,86.7523529 L134.281352,86.5723529 C134.281352,85.9623499 134.383851,85.4198553 134.588852,84.9448529 C134.793853,84.4698506 135.06885,84.0673546 135.413852,83.7373529 C135.758854,83.4073513 136.15635,83.1573538 136.606352,82.9873529 C137.056354,82.8173521 137.526349,82.7323529 138.016352,82.7323529 C138.506354,82.7323529 138.97635,82.8173521 139.426352,82.9873529 C139.876354,83.1573538 140.27385,83.4073513 140.618852,83.7373529 C140.963854,84.0673546 141.238851,84.4698506 141.443852,84.9448529 C141.648853,85.4198553 141.751352,85.9623499 141.751352,86.5723529 L141.751352,86.7523529 Z M138.016352,89.4823529 C138.376354,89.4823529 138.70885,89.4198536 139.013852,89.2948529 C139.318853,89.1698523 139.586351,88.9873541 139.816352,88.7473529 C140.046353,88.5073517 140.226351,88.2198546 140.356352,87.8848529 C140.486353,87.5498513 140.551352,87.172355 140.551352,86.7523529 L140.551352,86.5723529 C140.551352,86.1723509 140.486353,85.8048546 140.356352,85.4698529 C140.226351,85.1348513 140.046353,84.8473541 139.816352,84.6073529 C139.586351,84.3673517 139.316353,84.1798536 139.006352,84.0448529 C138.69635,83.9098523 138.366354,83.8423529 138.016352,83.8423529 C137.66635,83.8423529 137.336353,83.9098523 137.026352,84.0448529 C136.71635,84.1798536 136.446353,84.3673517 136.216352,84.6073529 C135.986351,84.8473541 135.806353,85.1348513 135.676352,85.4698529 C135.546351,85.8048546 135.481352,86.1723509 135.481352,86.5723529 L135.481352,86.7523529 C135.481352,87.172355 135.546351,87.5498513 135.676352,87.8848529 C135.806353,88.2198546 135.986351,88.5073517 136.216352,88.7473529 C136.446353,88.9873541 136.71385,89.1698523 137.018852,89.2948529 C137.323853,89.4198536 137.65635,89.4823529 138.016352,89.4823529 Z M149.671352,89.2423529 L149.491352,89.2423529 C149.371351,89.4723541 149.218853,89.6723521 149.033852,89.8423529 C148.848851,90.0123538 148.648853,90.1523524 148.433852,90.2623529 C148.218851,90.3723535 147.991353,90.4548527 147.751352,90.5098529 C147.511351,90.5648532 147.281353,90.5923529 147.061352,90.5923529 C146.561349,90.5923529 146.096354,90.5073538 145.666352,90.3373529 C145.23635,90.1673521 144.858854,89.9223545 144.533852,89.6023529 C144.20885,89.2823513 143.953853,88.8848553 143.768852,88.4098529 C143.583851,87.9348506 143.491352,87.392356 143.491352,86.7823529 L143.491352,86.5423529 C143.491352,85.9423499 143.586351,85.4048553 143.776352,84.9298529 C143.966353,84.4548506 144.22135,84.0548546 144.541352,83.7298529 C144.861354,83.4048513 145.23635,83.1573538 145.666352,82.9873529 C146.096354,82.8173521 146.55135,82.7323529 147.031352,82.7323529 C147.541354,82.7323529 148.01885,82.8448518 148.463852,83.0698529 C148.908854,83.2948541 149.251351,83.6423506 149.491352,84.1123529 L149.671352,84.1123529 L149.671352,79.8823529 L150.841352,79.8823529 L150.841352,90.3823529 L149.671352,90.3823529 L149.671352,89.2423529 Z M147.181352,89.4823529 C147.531354,89.4823529 147.85635,89.4173536 148.156352,89.2873529 C148.456353,89.1573523 148.718851,88.9723541 148.943852,88.7323529 C149.168853,88.4923517 149.346351,88.2048546 149.476352,87.8698529 C149.606353,87.5348513 149.671352,87.162355 149.671352,86.7523529 L149.671352,86.5723529 C149.671352,86.1723509 149.606353,85.8048546 149.476352,85.4698529 C149.346351,85.1348513 149.168853,84.8473541 148.943852,84.6073529 C148.718851,84.3673517 148.453853,84.1798536 148.148852,84.0448529 C147.84385,83.9098523 147.521354,83.8423529 147.181352,83.8423529 C146.83135,83.8423529 146.503853,83.9073523 146.198852,84.0373529 C145.89385,84.1673536 145.628853,84.3523517 145.403852,84.5923529 C145.178851,84.8323541 145.003853,85.1173513 144.878852,85.4473529 C144.753851,85.7773546 144.691352,86.1423509 144.691352,86.5423529 L144.691352,86.7823529 C144.691352,87.202355 144.753851,87.5773513 144.878852,87.9073529 C145.003853,88.2373546 145.178851,88.5198518 145.403852,88.7548529 C145.628853,88.9898541 145.89135,89.1698523 146.191352,89.2948529 C146.491353,89.4198536 146.82135,89.4823529 147.181352,89.4823529 Z M153.946352,87.0223529 C153.976352,87.7623566 154.20635,88.3573507 154.636352,88.8073529 C155.066354,89.2573552 155.666348,89.4823529 156.436352,89.4823529 C156.786354,89.4823529 157.091351,89.4423533 157.351352,89.3623529 C157.611353,89.2823525 157.833851,89.1723536 158.018852,89.0323529 C158.203853,88.8923522 158.353851,88.7298539 158.468852,88.5448529 C158.583853,88.359852 158.676352,88.162354 158.746352,87.9523529 L159.856352,88.2523529 C159.646351,88.9423564 159.258855,89.5048508 158.693852,89.9398529 C158.128849,90.3748551 157.366357,90.5923529 156.406352,90.5923529 C155.876349,90.5923529 155.388854,90.4998539 154.943852,90.3148529 C154.49885,90.129852 154.116354,89.8673546 153.796352,89.5273529 C153.47635,89.1873512 153.226353,88.7823553 153.046352,88.3123529 C152.866351,87.8423506 152.776352,87.3223558 152.776352,86.7523529 L152.776352,86.3923529 C152.776352,85.8723503 152.868851,85.3873552 153.053852,84.9373529 C153.238853,84.4873507 153.49635,84.0998546 153.826352,83.7748529 C154.156354,83.4498513 154.54385,83.1948539 154.988852,83.0098529 C155.433854,82.824852 155.916349,82.7323529 156.436352,82.7323529 C157.046355,82.7323529 157.57385,82.8448518 158.018852,83.0698529 C158.463854,83.2948541 158.828851,83.5723513 159.113852,83.9023529 C159.398853,84.2323546 159.608851,84.592351 159.743852,84.9823529 C159.878853,85.3723549 159.946352,85.7323513 159.946352,86.0623529 L159.946352,87.0223529 L153.946352,87.0223529 Z M156.436352,83.8423529 C156.10635,83.8423529 155.798853,83.8948524 155.513852,83.9998529 C155.228851,84.1048535 154.978853,84.252352 154.763852,84.4423529 C154.548851,84.6323539 154.373853,84.8548517 154.238852,85.1098529 C154.103851,85.3648542 154.016352,85.6423514 153.976352,85.9423529 L158.776352,85.9423529 C158.756352,85.6223513 158.678853,85.3323542 158.543852,85.0723529 C158.408851,84.8123516 158.233853,84.5923538 158.018852,84.4123529 C157.803851,84.232352 157.558853,84.0923534 157.283852,83.9923529 C157.008851,83.8923524 156.726353,83.8423529 156.436352,83.8423529 Z M162.271352,89.3023529 L164.971352,89.3023529 L164.971352,80.9623529 L162.361352,80.9623529 L162.361352,79.8823529 L166.141352,79.8823529 L166.141352,89.3023529 L168.841352,89.3023529 L168.841352,90.3823529 L162.271352,90.3823529 L162.271352,89.3023529 Z M185.941352,82.9423529 L187.111352,82.9423529 L187.111352,90.3823529 L185.941352,90.3823529 L185.941352,89.0323529 L185.761352,89.0323529 C185.521351,89.5123553 185.206354,89.8923515 184.816352,90.1723529 C184.42635,90.4523543 183.931355,90.5923529 183.331352,90.5923529 C182.92135,90.5923529 182.543854,90.5248536 182.198852,90.3898529 C181.85385,90.2548523 181.558853,90.0523543 181.313852,89.7823529 C181.068851,89.5123516 180.878853,89.1773549 180.743852,88.7773529 C180.608851,88.3773509 180.541352,87.9123556 180.541352,87.3823529 L180.541352,82.9423529 L181.711352,82.9423529 L181.711352,87.2323529 C181.711352,88.0123568 181.87135,88.5823511 182.191352,88.9423529 C182.511354,89.3023547 183.001349,89.4823529 183.661352,89.4823529 C184.371355,89.4823529 184.92885,89.2398554 185.333852,88.7548529 C185.738854,88.2698505 185.941352,87.622357 185.941352,86.8123529 L185.941352,82.9423529 Z M191.356352,84.8623529 C191.356352,85.2223547 191.50885,85.497352 191.813852,85.6873529 C192.118853,85.8773539 192.676348,86.0023526 193.486352,86.0623529 C194.356356,86.1323533 195.01885,86.3398512 195.473852,86.6848529 C195.928854,87.0298547 196.156352,87.5323496 196.156352,88.1923529 L196.156352,88.2823529 C196.156352,88.6423547 196.083853,88.9648515 195.938852,89.2498529 C195.793851,89.5348544 195.593853,89.7773519 195.338852,89.9773529 C195.083851,90.1773539 194.773854,90.3298524 194.408852,90.4348529 C194.04385,90.5398535 193.646354,90.5923529 193.216352,90.5923529 C192.636349,90.5923529 192.138854,90.5148537 191.723852,90.3598529 C191.30885,90.2048522 190.963853,89.9998542 190.688852,89.7448529 C190.413851,89.4898517 190.206353,89.1998546 190.066352,88.8748529 C189.926351,88.5498513 189.846352,88.2223546 189.826352,87.8923529 L190.936352,87.6223529 C190.986352,88.1923558 191.20635,88.6498512 191.596352,88.9948529 C191.986354,89.3398547 192.506349,89.5123529 193.156352,89.5123529 C193.706355,89.5123529 194.14885,89.404854 194.483852,89.1898529 C194.818854,88.9748519 194.986352,88.6723549 194.986352,88.2823529 C194.986352,87.8623508 194.821354,87.5623538 194.491352,87.3823529 C194.16135,87.202352 193.626356,87.0873532 192.886352,87.0373529 C192.026348,86.9773526 191.366354,86.7773546 190.906352,86.4373529 C190.44635,86.0973512 190.216352,85.6023562 190.216352,84.9523529 L190.216352,84.8623529 C190.216352,84.5123512 190.291351,84.2048543 190.441352,83.9398529 C190.591353,83.6748516 190.793851,83.4523538 191.048852,83.2723529 C191.303853,83.092352 191.59135,82.9573534 191.911352,82.8673529 C192.231354,82.7773525 192.56635,82.7323529 192.916352,82.7323529 C193.406354,82.7323529 193.83635,82.7998523 194.206352,82.9348529 C194.576354,83.0698536 194.886351,83.2448519 195.136352,83.4598529 C195.386353,83.674854 195.578851,83.9223515 195.713852,84.2023529 C195.848853,84.4823543 195.936352,84.7623515 195.976352,85.0423529 L194.866352,85.3123529 C194.816352,84.8323505 194.623854,84.4573543 194.288852,84.1873529 C193.95385,83.9173516 193.516355,83.7823529 192.976352,83.7823529 C192.766351,83.7823529 192.563853,83.8048527 192.368852,83.8498529 C192.173851,83.8948532 192.001353,83.9623525 191.851352,84.0523529 C191.701351,84.1423534 191.581352,84.2548523 191.491352,84.3898529 C191.401351,84.5248536 191.356352,84.682352 191.356352,84.8623529 Z M201.301352,80.7223529 C201.301352,80.4323515 201.403851,80.184854 201.608852,79.9798529 C201.813853,79.7748519 202.06135,79.6723529 202.351352,79.6723529 C202.641353,79.6723529 202.888851,79.7748519 203.093852,79.9798529 C203.298853,80.184854 203.401352,80.4323515 203.401352,80.7223529 C203.401352,81.0123544 203.298853,81.2598519 203.093852,81.4648529 C202.888851,81.669854 202.641353,81.7723529 202.351352,81.7723529 C202.06135,81.7723529 201.813853,81.669854 201.608852,81.4648529 C201.403851,81.2598519 201.301352,81.0123544 201.301352,80.7223529 Z M199.171352,89.3023529 L201.781352,89.3023529 L201.781352,84.0223529 L199.441352,84.0223529 L199.441352,82.9423529 L202.951352,82.9423529 L202.951352,89.3023529 L205.381352,89.3023529 L205.381352,90.3823529 L199.171352,90.3823529 L199.171352,89.3023529 Z M209.341352,90.3823529 L208.171352,90.3823529 L208.171352,82.9423529 L209.341352,82.9423529 L209.341352,84.2023529 L209.521352,84.2023529 C209.981354,83.222348 210.781346,82.7323529 211.921352,82.7323529 C212.781356,82.7323529 213.466349,82.9998503 213.976352,83.5348529 C214.486354,84.0698556 214.741352,84.8723476 214.741352,85.9423529 L214.741352,90.3823529 L213.571352,90.3823529 L213.571352,86.1823529 C213.571352,85.402349 213.396354,84.8173549 213.046352,84.4273529 C212.69635,84.037351 212.221355,83.8423529 211.621352,83.8423529 C210.911348,83.8423529 210.353854,84.0848505 209.948852,84.5698529 C209.54385,85.0548554 209.341352,85.7023489 209.341352,86.5123529 L209.341352,90.3823529 Z M223.006352,89.2423529 L222.826352,89.2423529 C222.586351,89.6923552 222.258854,90.0298518 221.843852,90.2548529 C221.42885,90.4798541 220.976354,90.5923529 220.486352,90.5923529 C219.986349,90.5923529 219.516354,90.5073538 219.076352,90.3373529 C218.63635,90.1673521 218.248854,89.9223545 217.913852,89.6023529 C217.57885,89.2823513 217.313853,88.8848553 217.118852,88.4098529 C216.923851,87.9348506 216.826352,87.392356 216.826352,86.7823529 L216.826352,86.5423529 C216.826352,85.9423499 216.926351,85.4048553 217.126352,84.9298529 C217.326353,84.4548506 217.59135,84.0548546 217.921352,83.7298529 C218.251354,83.4048513 218.63635,83.1573538 219.076352,82.9873529 C219.516354,82.8173521 219.97635,82.7323529 220.456352,82.7323529 C220.996355,82.7323529 221.46885,82.8498518 221.873852,83.0848529 C222.278854,83.3198541 222.596351,83.6623507 222.826352,84.1123529 L223.006352,84.1123529 L223.006352,82.9423529 L224.176352,82.9423529 L224.176352,92.2123529 C224.176352,92.5523546 224.068853,92.8323518 223.853852,93.0523529 C223.638851,93.272354 223.361354,93.3823529 223.021352,93.3823529 L218.176352,93.3823529 L218.176352,92.3023529 L222.601352,92.3023529 C222.871353,92.3023529 223.006352,92.1523544 223.006352,91.8523529 L223.006352,89.2423529 Z M220.516352,89.4823529 C220.866354,89.4823529 221.19135,89.4173536 221.491352,89.2873529 C221.791353,89.1573523 222.053851,88.9723541 222.278852,88.7323529 C222.503853,88.4923517 222.681351,88.2048546 222.811352,87.8698529 C222.941353,87.5348513 223.006352,87.162355 223.006352,86.7523529 L223.006352,86.5723529 C223.006352,86.1723509 222.941353,85.8048546 222.811352,85.4698529 C222.681351,85.1348513 222.503853,84.8473541 222.278852,84.6073529 C222.053851,84.3673517 221.788853,84.1798536 221.483852,84.0448529 C221.17885,83.9098523 220.856354,83.8423529 220.516352,83.8423529 C220.16635,83.8423529 219.838853,83.9073523 219.533852,84.0373529 C219.22885,84.1673536 218.963853,84.3523517 218.738852,84.5923529 C218.513851,84.8323541 218.338853,85.1173513 218.213852,85.4473529 C218.088851,85.7773546 218.026352,86.1423509 218.026352,86.5423529 L218.026352,86.7823529 C218.026352,87.202355 218.088851,87.5773513 218.213852,87.9073529 C218.338853,88.2373546 218.513851,88.5198518 218.738852,88.7548529 C218.963853,88.9898541 219.22635,89.1698523 219.526352,89.2948529 C219.826353,89.4198536 220.15635,89.4823529 220.516352,89.4823529 Z M241.471352,82.9123529 C241.471352,82.5723512 241.403853,82.2723542 241.268852,82.0123529 C241.133851,81.7523516 240.951353,81.5373538 240.721352,81.3673529 C240.491351,81.1973521 240.226353,81.0673534 239.926352,80.9773529 C239.62635,80.8873525 239.311354,80.8423529 238.981352,80.8423529 C238.69135,80.8423529 238.416353,80.8798526 238.156352,80.9548529 C237.896351,81.0298533 237.663853,81.1373522 237.458852,81.2773529 C237.253851,81.4173536 237.091353,81.5898519 236.971352,81.7948529 C236.851351,81.999854 236.791352,82.2373516 236.791352,82.5073529 L236.791352,82.5973529 C236.791352,82.8873544 236.851351,83.1348519 236.971352,83.3398529 C237.091353,83.544854 237.268851,83.7198522 237.503852,83.8648529 C237.738853,84.0098537 238.03135,84.1298525 238.381352,84.2248529 C238.731354,84.3198534 239.14135,84.4023526 239.611352,84.4723529 C240.711357,84.6423538 241.521349,84.9648506 242.041352,85.4398529 C242.561355,85.9148553 242.821352,86.5523489 242.821352,87.3523529 L242.821352,87.5323529 C242.821352,87.9823552 242.743853,88.3948511 242.588852,88.7698529 C242.433851,89.1448548 242.203853,89.4673516 241.898852,89.7373529 C241.59385,90.0073543 241.216354,90.2173522 240.766352,90.3673529 C240.31635,90.5173537 239.796355,90.5923529 239.206352,90.5923529 C238.536349,90.5923529 237.943855,90.4948539 237.428852,90.2998529 C236.913849,90.104852 236.483854,89.8348547 236.138852,89.4898529 C235.79385,89.1448512 235.531353,88.7398553 235.351352,88.2748529 C235.171351,87.8098506 235.081352,87.3023557 235.081352,86.7523529 L235.081352,86.3023529 L236.341352,86.3023529 L236.341352,86.6623529 C236.341352,87.5823575 236.593849,88.2723506 237.098852,88.7323529 C237.603854,89.1923552 238.306347,89.4223529 239.206352,89.4223529 C239.986356,89.4223529 240.57385,89.2498547 240.968852,88.9048529 C241.363854,88.5598512 241.561352,88.1023558 241.561352,87.5323529 L241.561352,87.4423529 C241.561352,86.8923502 241.358854,86.4723544 240.953852,86.1823529 C240.54885,85.8923515 239.891356,85.6823536 238.981352,85.5523529 C238.451349,85.4823526 237.973854,85.3748537 237.548852,85.2298529 C237.12385,85.0848522 236.761353,84.8948541 236.461352,84.6598529 C236.16135,84.4248518 235.931353,84.1423546 235.771352,83.8123529 C235.611351,83.4823513 235.531352,83.0923552 235.531352,82.6423529 L235.531352,82.4623529 C235.531352,82.0523509 235.616351,81.6773546 235.786352,81.3373529 C235.956353,80.9973512 236.19385,80.7023542 236.498852,80.4523529 C236.803853,80.2023517 237.16885,80.0098536 237.593852,79.8748529 C238.018854,79.7398523 238.486349,79.6723529 238.996352,79.6723529 C239.586355,79.6723529 240.11385,79.7573521 240.578852,79.9273529 C241.043854,80.0973538 241.43635,80.3248515 241.756352,80.6098529 C242.076354,80.8948544 242.318851,81.229851 242.483852,81.6148529 C242.648853,81.9998549 242.731352,82.4023508 242.731352,82.8223529 L242.731352,83.4523529 L241.471352,83.4523529 L241.471352,82.9123529 Z M247.201352,80.7223529 C247.201352,80.4323515 247.303851,80.184854 247.508852,79.9798529 C247.713853,79.7748519 247.96135,79.6723529 248.251352,79.6723529 C248.541353,79.6723529 248.788851,79.7748519 248.993852,79.9798529 C249.198853,80.184854 249.301352,80.4323515 249.301352,80.7223529 C249.301352,81.0123544 249.198853,81.2598519 248.993852,81.4648529 C248.788851,81.669854 248.541353,81.7723529 248.251352,81.7723529 C247.96135,81.7723529 247.713853,81.669854 247.508852,81.4648529 C247.303851,81.2598519 247.201352,81.0123544 247.201352,80.7223529 Z M245.071352,89.3023529 L247.681352,89.3023529 L247.681352,84.0223529 L245.341352,84.0223529 L245.341352,82.9423529 L248.851352,82.9423529 L248.851352,89.3023529 L251.281352,89.3023529 L251.281352,90.3823529 L245.071352,90.3823529 L245.071352,89.3023529 Z M261.226352,90.3823529 L260.056352,90.3823529 L260.056352,85.0423529 C260.056352,84.6923512 259.976353,84.4048541 259.816352,84.1798529 C259.656351,83.9548518 259.401354,83.8423529 259.051352,83.8423529 C258.72135,83.8423529 258.453853,83.9648517 258.248852,84.2098529 C258.043851,84.4548542 257.941352,84.8323504 257.941352,85.3423529 L257.941352,90.3823529 L256.771352,90.3823529 L256.771352,84.9823529 C256.771352,84.6523513 256.681353,84.379854 256.501352,84.1648529 C256.321351,83.9498519 256.081353,83.8423529 255.781352,83.8423529 C255.42135,83.8423529 255.143853,83.9723516 254.948852,84.2323529 C254.753851,84.4923542 254.656352,84.8323508 254.656352,85.2523529 L254.656352,90.3823529 L253.486352,90.3823529 L253.486352,82.9423529 L254.656352,82.9423529 L254.656352,83.7523529 L254.836352,83.7523529 C254.966353,83.4023512 255.156351,83.1448538 255.406352,82.9798529 C255.656353,82.8148521 255.95135,82.7323529 256.291352,82.7323529 C256.651354,82.7323529 256.948851,82.827352 257.183852,83.0173529 C257.418853,83.2073539 257.581351,83.4523514 257.671352,83.7523529 L257.851352,83.7523529 C258.191354,83.0723495 258.731348,82.7323529 259.471352,82.7323529 C260.031355,82.7323529 260.46385,82.9098512 260.768852,83.2648529 C261.073853,83.6198547 261.226352,84.0823501 261.226352,84.6523529 L261.226352,90.3823529 Z M268.561352,82.9423529 L269.731352,82.9423529 L269.731352,90.3823529 L268.561352,90.3823529 L268.561352,89.0323529 L268.381352,89.0323529 C268.141351,89.5123553 267.826354,89.8923515 267.436352,90.1723529 C267.04635,90.4523543 266.551355,90.5923529 265.951352,90.5923529 C265.54135,90.5923529 265.163854,90.5248536 264.818852,90.3898529 C264.47385,90.2548523 264.178853,90.0523543 263.933852,89.7823529 C263.688851,89.5123516 263.498853,89.1773549 263.363852,88.7773529 C263.228851,88.3773509 263.161352,87.9123556 263.161352,87.3823529 L263.161352,82.9423529 L264.331352,82.9423529 L264.331352,87.2323529 C264.331352,88.0123568 264.49135,88.5823511 264.811352,88.9423529 C265.131354,89.3023547 265.621349,89.4823529 266.281352,89.4823529 C266.991355,89.4823529 267.54885,89.2398554 267.953852,88.7548529 C268.358854,88.2698505 268.561352,87.622357 268.561352,86.8123529 L268.561352,82.9423529 Z M278.191352,89.2423529 L278.011352,89.2423529 C277.891351,89.4723541 277.738853,89.6723521 277.553852,89.8423529 C277.368851,90.0123538 277.168853,90.1523524 276.953852,90.2623529 C276.738851,90.3723535 276.511353,90.4548527 276.271352,90.5098529 C276.031351,90.5648532 275.801353,90.5923529 275.581352,90.5923529 C275.081349,90.5923529 274.616354,90.5073538 274.186352,90.3373529 C273.75635,90.1673521 273.378854,89.9223545 273.053852,89.6023529 C272.72885,89.2823513 272.473853,88.8848553 272.288852,88.4098529 C272.103851,87.9348506 272.011352,87.392356 272.011352,86.7823529 L272.011352,86.5423529 C272.011352,85.9423499 272.106351,85.4048553 272.296352,84.9298529 C272.486353,84.4548506 272.74135,84.0548546 273.061352,83.7298529 C273.381354,83.4048513 273.75635,83.1573538 274.186352,82.9873529 C274.616354,82.8173521 275.07135,82.7323529 275.551352,82.7323529 C276.061354,82.7323529 276.53885,82.8448518 276.983852,83.0698529 C277.428854,83.2948541 277.771351,83.6423506 278.011352,84.1123529 L278.191352,84.1123529 L278.191352,79.8823529 L279.361352,79.8823529 L279.361352,90.3823529 L278.191352,90.3823529 L278.191352,89.2423529 Z M275.701352,89.4823529 C276.051354,89.4823529 276.37635,89.4173536 276.676352,89.2873529 C276.976353,89.1573523 277.238851,88.9723541 277.463852,88.7323529 C277.688853,88.4923517 277.866351,88.2048546 277.996352,87.8698529 C278.126353,87.5348513 278.191352,87.162355 278.191352,86.7523529 L278.191352,86.5723529 C278.191352,86.1723509 278.126353,85.8048546 277.996352,85.4698529 C277.866351,85.1348513 277.688853,84.8473541 277.463852,84.6073529 C277.238851,84.3673517 276.973853,84.1798536 276.668852,84.0448529 C276.36385,83.9098523 276.041354,83.8423529 275.701352,83.8423529 C275.35135,83.8423529 275.023853,83.9073523 274.718852,84.0373529 C274.41385,84.1673536 274.148853,84.3523517 273.923852,84.5923529 C273.698851,84.8323541 273.523853,85.1173513 273.398852,85.4473529 C273.273851,85.7773546 273.211352,86.1423509 273.211352,86.5423529 L273.211352,86.7823529 C273.211352,87.202355 273.273851,87.5773513 273.398852,87.9073529 C273.523853,88.2373546 273.698851,88.5198518 273.923852,88.7548529 C274.148853,88.9898541 274.41135,89.1698523 274.711352,89.2948529 C275.011353,89.4198536 275.34135,89.4823529 275.701352,89.4823529 Z M287.011352,89.0323529 L286.831352,89.0323529 C286.591351,89.5123553 286.276354,89.8923515 285.886352,90.1723529 C285.49635,90.4523543 285.001355,90.5923529 284.401352,90.5923529 C283.99135,90.5923529 283.613854,90.5248536 283.268852,90.3898529 C282.92385,90.2548523 282.628853,90.0523543 282.383852,89.7823529 C282.138851,89.5123516 281.948853,89.1773549 281.813852,88.7773529 C281.678851,88.3773509 281.611352,87.9123556 281.611352,87.3823529 L281.611352,82.9423529 L282.781352,82.9423529 L282.781352,87.2323529 C282.781352,88.0123568 282.94135,88.5823511 283.261352,88.9423529 C283.581354,89.3023547 284.071349,89.4823529 284.731352,89.4823529 C285.441355,89.4823529 285.99885,89.2398554 286.403852,88.7548529 C286.808854,88.2698505 287.011352,87.622357 287.011352,86.8123529 L287.011352,82.9423529 L288.181352,82.9423529 L288.181352,92.2123529 C288.181352,92.5523546 288.073853,92.8323518 287.858852,93.0523529 C287.643851,93.272354 287.366354,93.3823529 287.026352,93.3823529 L282.781352,93.3823529 L282.781352,92.3023529 L286.606352,92.3023529 C286.876353,92.3023529 287.011352,92.1523544 287.011352,91.8523529 L287.011352,89.0323529 Z M291.961352,90.3823529 L290.791352,90.3823529 L290.791352,82.9423529 L291.961352,82.9423529 L291.961352,84.2023529 L292.141352,84.2023529 C292.601354,83.222348 293.401346,82.7323529 294.541352,82.7323529 C295.401356,82.7323529 296.086349,82.9998503 296.596352,83.5348529 C297.106354,84.0698556 297.361352,84.8723476 297.361352,85.9423529 L297.361352,90.3823529 L296.191352,90.3823529 L296.191352,86.1823529 C296.191352,85.402349 296.016354,84.8173549 295.666352,84.4273529 C295.31635,84.037351 294.841355,83.8423529 294.241352,83.8423529 C293.531348,83.8423529 292.973854,84.0848505 292.568852,84.5698529 C292.16385,85.0548554 291.961352,85.7023489 291.961352,86.5123529 L291.961352,90.3823529 Z M300.826352,87.0223529 C300.856352,87.7623566 301.08635,88.3573507 301.516352,88.8073529 C301.946354,89.2573552 302.546348,89.4823529 303.316352,89.4823529 C303.666354,89.4823529 303.971351,89.4423533 304.231352,89.3623529 C304.491353,89.2823525 304.713851,89.1723536 304.898852,89.0323529 C305.083853,88.8923522 305.233851,88.7298539 305.348852,88.5448529 C305.463853,88.359852 305.556352,88.162354 305.626352,87.9523529 L306.736352,88.2523529 C306.526351,88.9423564 306.138855,89.5048508 305.573852,89.9398529 C305.008849,90.3748551 304.246357,90.5923529 303.286352,90.5923529 C302.756349,90.5923529 302.268854,90.4998539 301.823852,90.3148529 C301.37885,90.129852 300.996354,89.8673546 300.676352,89.5273529 C300.35635,89.1873512 300.106353,88.7823553 299.926352,88.3123529 C299.746351,87.8423506 299.656352,87.3223558 299.656352,86.7523529 L299.656352,86.3923529 C299.656352,85.8723503 299.748851,85.3873552 299.933852,84.9373529 C300.118853,84.4873507 300.37635,84.0998546 300.706352,83.7748529 C301.036354,83.4498513 301.42385,83.1948539 301.868852,83.0098529 C302.313854,82.824852 302.796349,82.7323529 303.316352,82.7323529 C303.926355,82.7323529 304.45385,82.8448518 304.898852,83.0698529 C305.343854,83.2948541 305.708851,83.5723513 305.993852,83.9023529 C306.278853,84.2323546 306.488851,84.592351 306.623852,84.9823529 C306.758853,85.3723549 306.826352,85.7323513 306.826352,86.0623529 L306.826352,87.0223529 L300.826352,87.0223529 Z M303.316352,83.8423529 C302.98635,83.8423529 302.678853,83.8948524 302.393852,83.9998529 C302.108851,84.1048535 301.858853,84.252352 301.643852,84.4423529 C301.428851,84.6323539 301.253853,84.8548517 301.118852,85.1098529 C300.983851,85.3648542 300.896352,85.6423514 300.856352,85.9423529 L305.656352,85.9423529 C305.636352,85.6223513 305.558853,85.3323542 305.423852,85.0723529 C305.288851,84.8123516 305.113853,84.5923538 304.898852,84.4123529 C304.683851,84.232352 304.438853,84.0923534 304.163852,83.9923529 C303.888851,83.8923524 303.606353,83.8423529 303.316352,83.8423529 Z M324.091352,82.9123529 C324.091352,82.5723512 324.023853,82.2723542 323.888852,82.0123529 C323.753851,81.7523516 323.571353,81.5373538 323.341352,81.3673529 C323.111351,81.1973521 322.846353,81.0673534 322.546352,80.9773529 C322.24635,80.8873525 321.931354,80.8423529 321.601352,80.8423529 C321.31135,80.8423529 321.036353,80.8798526 320.776352,80.9548529 C320.516351,81.0298533 320.283853,81.1373522 320.078852,81.2773529 C319.873851,81.4173536 319.711353,81.5898519 319.591352,81.7948529 C319.471351,81.999854 319.411352,82.2373516 319.411352,82.5073529 L319.411352,82.5973529 C319.411352,82.8873544 319.471351,83.1348519 319.591352,83.3398529 C319.711353,83.544854 319.888851,83.7198522 320.123852,83.8648529 C320.358853,84.0098537 320.65135,84.1298525 321.001352,84.2248529 C321.351354,84.3198534 321.76135,84.4023526 322.231352,84.4723529 C323.331357,84.6423538 324.141349,84.9648506 324.661352,85.4398529 C325.181355,85.9148553 325.441352,86.5523489 325.441352,87.3523529 L325.441352,87.5323529 C325.441352,87.9823552 325.363853,88.3948511 325.208852,88.7698529 C325.053851,89.1448548 324.823853,89.4673516 324.518852,89.7373529 C324.21385,90.0073543 323.836354,90.2173522 323.386352,90.3673529 C322.93635,90.5173537 322.416355,90.5923529 321.826352,90.5923529 C321.156349,90.5923529 320.563855,90.4948539 320.048852,90.2998529 C319.533849,90.104852 319.103854,89.8348547 318.758852,89.4898529 C318.41385,89.1448512 318.151353,88.7398553 317.971352,88.2748529 C317.791351,87.8098506 317.701352,87.3023557 317.701352,86.7523529 L317.701352,86.3023529 L318.961352,86.3023529 L318.961352,86.6623529 C318.961352,87.5823575 319.213849,88.2723506 319.718852,88.7323529 C320.223854,89.1923552 320.926347,89.4223529 321.826352,89.4223529 C322.606356,89.4223529 323.19385,89.2498547 323.588852,88.9048529 C323.983854,88.5598512 324.181352,88.1023558 324.181352,87.5323529 L324.181352,87.4423529 C324.181352,86.8923502 323.978854,86.4723544 323.573852,86.1823529 C323.16885,85.8923515 322.511356,85.6823536 321.601352,85.5523529 C321.071349,85.4823526 320.593854,85.3748537 320.168852,85.2298529 C319.74385,85.0848522 319.381353,84.8948541 319.081352,84.6598529 C318.78135,84.4248518 318.551353,84.1423546 318.391352,83.8123529 C318.231351,83.4823513 318.151352,83.0923552 318.151352,82.6423529 L318.151352,82.4623529 C318.151352,82.0523509 318.236351,81.6773546 318.406352,81.3373529 C318.576353,80.9973512 318.81385,80.7023542 319.118852,80.4523529 C319.423853,80.2023517 319.78885,80.0098536 320.213852,79.8748529 C320.638854,79.7398523 321.106349,79.6723529 321.616352,79.6723529 C322.206355,79.6723529 322.73385,79.7573521 323.198852,79.9273529 C323.663854,80.0973538 324.05635,80.3248515 324.376352,80.6098529 C324.696354,80.8948544 324.938851,81.229851 325.103852,81.6148529 C325.268853,81.9998549 325.351352,82.4023508 325.351352,82.8223529 L325.351352,83.4523529 L324.091352,83.4523529 L324.091352,82.9123529 Z M327.301352,79.8823529 L330.751352,79.8823529 C332.051358,79.8823529 333.001349,80.1923498 333.601352,80.8123529 C334.201355,81.432356 334.501352,82.4223461 334.501352,83.7823529 L334.501352,86.4823529 C334.501352,87.8423597 334.201355,88.8323498 333.601352,89.4523529 C333.001349,90.072356 332.051358,90.3823529 330.751352,90.3823529 L327.301352,90.3823529 L327.301352,89.1973529 L328.201352,89.1973529 L328.201352,81.0523529 L327.301352,81.0523529 L327.301352,79.8823529 Z M330.571352,89.2123529 C331.031354,89.2123529 331.42885,89.1673534 331.763852,89.0773529 C332.098854,88.9873525 332.376351,88.834854 332.596352,88.6198529 C332.816353,88.4048519 332.978851,88.1173547 333.083852,87.7573529 C333.188852,87.3973511 333.241352,86.9423557 333.241352,86.3923529 L333.241352,83.8723529 C333.241352,83.3223502 333.188852,82.8673547 333.083852,82.5073529 C332.978851,82.1473511 332.816353,81.859854 332.596352,81.6448529 C332.376351,81.4298519 332.098854,81.2773534 331.763852,81.1873529 C331.42885,81.0973525 331.031354,81.0523529 330.571352,81.0523529 L329.461352,81.0523529 L329.461352,89.2123529 L330.571352,89.2123529 Z M337.981352,90.3823529 L336.721352,90.3823529 L336.721352,79.8823529 L337.981352,79.8823529 L337.981352,84.5323529 L338.326352,84.5323529 L342.361352,79.8823529 L343.921352,79.8823529 L343.921352,79.9723529 L339.571352,85.0423529 L339.571352,85.2223529 L344.101352,90.2923529 L344.101352,90.3823529 L342.511352,90.3823529 L338.326352,85.7023529 L337.981352,85.7023529 L337.981352,90.3823529 Z" id="Identify-a-modelling" fill="#343434" mask="url(#mask-2)"></path>
            <path d="M39.9213519,37.6102941 C41.7713612,37.6102941 43.2130134,38.0269566 44.2463519,38.8602941 C45.2796904,39.6936316 45.7963519,40.8186204 45.7963519,42.2352941 C45.7963519,43.0852984 45.6171871,43.7977912 45.2588519,44.3727941 C44.9005168,44.947797 44.4755211,45.3686261 43.9838519,45.6352941 C43.4921828,45.9019621 43.0630204,46.0352941 42.6963519,46.0352941 L42.6963519,46.1102941 C43.1630209,46.1102941 43.6588493,46.2311262 44.1838519,46.4727941 C44.7088546,46.714462 45.1630167,47.114458 45.5463519,47.6727941 C45.9296872,48.2311302 46.1213519,48.9602896 46.1213519,49.8602941 C46.1213519,50.7936321 45.8463547,51.6186239 45.2963519,52.3352941 C44.7463492,53.0519644 43.9880234,53.6102921 43.0213519,54.0102941 C42.0546804,54.4102961 40.9546914,54.6102941 39.7213519,54.6102941 C37.9546764,54.6102941 36.5421906,54.2852974 35.4838519,53.6352941 C34.4255133,52.9852909 33.6713542,51.9436346 33.2213519,50.5102941 L37.1213519,48.8352941 C37.2046857,49.7019651 37.4588498,50.3269589 37.8838519,50.7102941 C38.3088541,51.0936294 38.9046814,51.2852941 39.6713519,51.2852941 C40.3880222,51.2852941 40.9505166,51.1144625 41.3588519,50.7727941 C41.7671873,50.4311257 41.9713519,49.9519639 41.9713519,49.3352941 C41.9713519,48.6852909 41.7755206,48.2186289 41.3838519,47.9352941 C40.9921833,47.6519594 40.3713562,47.5102941 39.5213519,47.5102941 L38.5963519,47.5102941 L38.5963519,44.7852941 L39.3213519,44.7852941 C40.1213559,44.7852941 40.7046834,44.6227957 41.0713519,44.2977941 C41.4380204,43.9727925 41.6213519,43.4769641 41.6213519,42.8102941 C41.6213519,42.2102911 41.4505203,41.7477957 41.1088519,41.4227941 C40.7671836,41.0977925 40.2880217,40.9352941 39.6713519,40.9352941 C38.2713449,40.9352941 37.5046859,41.6769534 37.3713519,43.1602941 L33.5963519,41.8852941 C33.8630199,40.4186201 34.5588463,39.3394642 35.6838519,38.6477941 C36.8088576,37.956124 38.2213434,37.6102941 39.9213519,37.6102941 Z" id="1" fill="#FFABCC" mask="url(#mask-2)"></path>
        </g>
    </g>
</svg>