<?xml version="1.0" encoding="UTF-8"?>
<svg width="28px" height="87px" viewBox="0 0 28 87" version="1.1" xmlns="http://www.w3.org/2000/svg" xmlns:xlink="http://www.w3.org/1999/xlink">
    <!-- Generator: Sketch 52.6 (67491) - http://www.bohemiancoding.com/sketch -->
    <title>al-n</title>
    <desc>Created with Sketch.</desc>
    <g id="Page-4" stroke="none" stroke-width="1" fill="none" fill-rule="evenodd">
        <g id="Artboard" transform="translate(-29.000000, -736.000000)" fill="#E5E5E5">
            <path d="M14.963,788.892 L14.519,788.892 C13.926997,790.125339 13.1068386,791.037997 12.0585,791.63 C11.0101614,792.222003 9.90633913,792.518 8.747,792.518 C7.53832729,792.518 6.41600518,792.314502 5.38,791.9075 C4.34399482,791.500498 3.43750389,790.896171 2.6605,790.0945 C1.88349612,789.292829 1.27300222,788.312339 0.829,787.153 C0.38499778,785.993661 0.163,784.649341 0.163,783.12 L0.163,782.528 C0.163,781.023326 0.38499778,779.691339 0.829,778.532 C1.27300222,777.372661 1.88349612,776.392171 2.6605,775.5905 C3.43750389,774.788829 4.34399482,774.178335 5.38,773.759 C6.41600518,773.339665 7.51366087,773.13 8.673,773.13 C9.93100629,773.13 11.0718282,773.407497 12.0955,773.9625 C13.1191718,774.517503 13.926997,775.374661 14.519,776.534 L14.963,776.534 L14.963,773.648 L17.849,773.648 L17.849,788.226 C17.849,788.966004 18.1819967,789.336 18.848,789.336 L19.773,789.336 L19.773,792 L17.812,792 C16.9733291,792 16.288836,791.728669 15.7585,791.186 C15.228164,790.643331 14.963,789.952671 14.963,789.114 L14.963,788.892 Z M9.043,789.78 C9.90633765,789.78 10.7018297,789.619668 11.4295,789.299 C12.1571703,788.978332 12.7799974,788.522003 13.298,787.93 C13.8160026,787.337997 14.2229985,786.628837 14.519,785.8025 C14.8150015,784.976163 14.963,784.057338 14.963,783.046 L14.963,782.602 C14.963,781.615328 14.8150015,780.708837 14.519,779.8825 C14.2229985,779.056163 13.809836,778.347003 13.2795,777.755 C12.749164,777.162997 12.1201703,776.700502 11.3925,776.3675 C10.6648297,776.034498 9.88167086,775.868 9.043,775.868 C8.17966235,775.868 7.39033691,776.028332 6.675,776.349 C5.95966309,776.669668 5.33683599,777.11983 4.8065,777.6995 C4.27616402,778.27917 3.86300148,778.982163 3.567,779.8085 C3.27099852,780.634837 3.123,781.541328 3.123,782.528 L3.123,783.12 C3.123,785.216677 3.67182785,786.850827 4.7695,788.0225 C5.86717216,789.194173 7.29165791,789.78 9.043,789.78 Z M24.287,789.336 L30.947,789.336 L30.947,768.764 L24.509,768.764 L24.509,766.1 L33.833,766.1 L33.833,789.336 L40.493,789.336 L40.493,792 L24.287,792 L24.287,789.336 Z M49.484,781.048 L60.584,781.048 L60.584,783.712 L49.484,783.712 L49.484,781.048 Z M72.461,792 L69.575,792 L69.575,773.648 L72.461,773.648 L72.461,776.756 L72.905,776.756 C74.0396723,774.338655 76.0129859,773.13 78.825,773.13 C80.9463439,773.13 82.6359937,773.789827 83.894,775.1095 C85.1520063,776.429173 85.781,778.408653 85.781,781.048 L85.781,792 L82.895,792 L82.895,781.64 C82.895,779.71599 82.4633376,778.273005 81.6,777.311 C80.7366623,776.348995 79.5650074,775.868 78.085,775.868 C76.3336579,775.868 74.958505,776.466161 73.9595,777.6625 C72.960495,778.858839 72.461,780.45599 72.461,782.454 L72.461,792 Z" id="al-n" transform="translate(42.972000, 779.309000) rotate(-90.000000) translate(-42.972000, -779.309000) "></path>
        </g>
    </g>
</svg>