<?xml version="1.0" encoding="UTF-8"?>
<svg width="1672px" height="1600px" viewBox="0 0 1672 1600" version="1.1" xmlns="http://www.w3.org/2000/svg" xmlns:xlink="http://www.w3.org/1999/xlink">
    <!-- Generator: Sketch 52.6 (67491) - http://www.bohemiancoding.com/sketch -->
    <title>Star</title>
    <desc>Created with Sketch.</desc>
    <g id="Page-4" stroke="none" stroke-width="1" fill="none" fill-rule="evenodd">
        <path d="M789.465887,1397.96443 L428.149748,1587.91957 C379.26529,1613.61965 318.802574,1594.825 293.102493,1545.94054 C282.868586,1526.47449 279.337119,1504.17768 283.054803,1482.50192 L352.060045,1080.17048 C357.623839,1047.73108 346.868991,1014.63106 323.300382,991.657342 L30.9894853,706.724639 C-8.55887248,668.174518 -9.36810312,604.863191 29.1820181,565.314834 C44.5328786,549.56647 64.6471196,539.317752 86.4108227,536.155301 L490.374547,477.455936 C522.945563,472.723091 551.102122,452.266153 565.668323,422.751806 L746.326392,56.6985751 C770.768622,7.17320908 830.731205,-13.1606908 880.256571,11.2815385 C899.977832,21.0145624 915.940584,36.9773146 925.673608,56.6985751 L1106.33168,422.751806 C1120.89788,452.266153 1149.05444,472.723091 1181.62545,477.455936 L1585.58918,536.155301 C1640.24366,544.097063 1678.11181,594.841348 1670.17005,649.495834 C1667.0076,671.259538 1656.75888,691.373779 1641.01051,706.724639 L1348.69962,991.657342 C1325.13101,1014.63106 1314.37616,1047.73108 1319.93995,1080.17048 L1388.9452,1482.50192 C1398.2813,1536.93556 1361.72252,1588.63116 1307.28887,1597.96726 C1285.61311,1601.68494 1263.3163,1598.15347 1243.85025,1587.91957 L882.534113,1397.96443 C853.40171,1382.64862 818.59829,1382.64862 789.465887,1397.96443 Z" id="Star" stroke="#979797"></path>
    </g>
</svg>