<?xml version="1.0" encoding="UTF-8"?>
<svg width="191px" height="218px" viewBox="0 0 191 218" version="1.1" xmlns="http://www.w3.org/2000/svg" xmlns:xlink="http://www.w3.org/1999/xlink">
    <!-- Generator: Sketch 52.6 (67491) - http://www.bohemiancoding.com/sketch -->
    <title>Group 37</title>
    <desc>Created with Sketch.</desc>
    <g id="Page-4" stroke="none" stroke-width="1" fill="none" fill-rule="evenodd">
        <g id="Group-37" transform="translate(-22.000000, -25.000000)">
            <rect id="Rectangle" x="0" y="0" width="235" height="299"></rect>
            <g id="Group-31" transform="translate(23.000000, 26.000000)">
                <g id="Group-2" fill="#FFFFFF" fill-rule="nonzero" stroke="#B3B3B3">
                    <circle id="Oval-Copy-24" cx="172.5" cy="172.5" r="16.5"></circle>
                    <circle id="Oval-Copy-23" cx="133.5" cy="172.5" r="16.5"></circle>
                    <circle id="Oval-Copy-22" cx="94.5" cy="172.5" r="16.5"></circle>
                    <circle id="Oval-Copy-21" cx="55.5" cy="172.5" r="16.5"></circle>
                    <circle id="Oval-Copy-20" cx="16.5" cy="172.5" r="16.5"></circle>
                    <circle id="Oval-Copy-19" cx="172.5" cy="133.5" r="16.5"></circle>
                    <circle id="Oval-Copy-18" cx="133.5" cy="133.5" r="16.5"></circle>
                    <circle id="Oval-Copy-17" cx="94.5" cy="133.5" r="16.5"></circle>
                    <circle id="Oval-Copy-16" cx="55.5" cy="133.5" r="16.5"></circle>
                    <circle id="Oval-Copy-15" cx="16.5" cy="133.5" r="16.5"></circle>
                    <circle id="Oval-Copy-14" cx="172.5" cy="94.5" r="16.5"></circle>
                    <circle id="Oval-Copy-13" cx="133.5" cy="94.5" r="16.5"></circle>
                    <circle id="Oval-Copy-12" cx="94.5" cy="94.5" r="16.5"></circle>
                    <circle id="Oval-Copy-11" cx="55.5" cy="94.5" r="16.5"></circle>
                    <circle id="Oval-Copy-10" cx="16.5" cy="94.5" r="16.5"></circle>
                    <circle id="Oval-Copy-9" cx="172.5" cy="55.5" r="16.5"></circle>
                    <circle id="Oval-Copy-8" cx="133.5" cy="55.5" r="16.5"></circle>
                    <circle id="Oval-Copy-7" cx="94.5" cy="55.5" r="16.5"></circle>
                    <circle id="Oval-Copy-6" cx="55.5" cy="55.5" r="16.5"></circle>
                    <circle id="Oval-Copy-5" cx="16.5" cy="55.5" r="16.5"></circle>
                    <circle id="Oval-Copy-4" cx="172.5" cy="16.5" r="16.5"></circle>
                    <circle id="Oval-Copy-3" cx="133.5" cy="16.5" r="16.5"></circle>
                    <circle id="Oval-Copy-2" cx="94.5" cy="16.5" r="16.5"></circle>
                    <circle id="Oval-Copy" cx="55.5" cy="16.5" r="16.5"></circle>
                    <circle id="Oval" cx="16.5" cy="16.5" r="16.5"></circle>
                </g>
                <path d="M78.292,214.48 L74.692,214.48 L74.08,216.568 L73,216.568 L75.544,208.168 L77.44,208.168 L79.984,216.568 L78.904,216.568 L78.292,214.48 Z M76.42,208.6 L74.968,213.544 L78.016,213.544 L76.564,208.6 L76.42,208.6 Z M83.032,212.536 L86.776,212.536 L86.776,216.568 L85.84,216.568 L85.84,215.56 L85.696,215.56 C85.5599993,215.912002 85.3200017,216.195999 84.976,216.412 C84.6319983,216.628001 84.2320023,216.736 83.776,216.736 C82.8719955,216.736 82.1620026,216.444003 81.646,215.86 C81.1299974,215.275997 80.872,214.424006 80.872,213.304 L80.872,211.432 C80.872,210.343995 81.1319974,209.500003 81.652,208.9 C82.1720026,208.299997 82.8959954,208 83.824,208 C84.3040024,208 84.7279982,208.077999 85.096,208.234 C85.4640018,208.390001 85.7719988,208.605999 86.02,208.882 C86.2680012,209.158001 86.4559994,209.481998 86.584,209.854 C86.7120006,210.226002 86.776,210.623998 86.776,211.048 L86.776,211.192 L85.768,211.192 L85.768,211.048 C85.768,210.775999 85.7300004,210.512001 85.654,210.256 C85.5779996,209.999999 85.4620008,209.774001 85.306,209.578 C85.1499992,209.381999 84.9500012,209.226001 84.706,209.11 C84.4619988,208.993999 84.1680017,208.936 83.824,208.936 C83.1759968,208.936 82.6900016,209.171998 82.366,209.644 C82.0419984,210.116002 81.88,210.735996 81.88,211.504 L81.88,213.232 C81.88,214.056004 82.0419984,214.689998 82.366,215.134 C82.6900016,215.578002 83.1839967,215.8 83.848,215.8 C84.448003,215.8 84.9179983,215.608002 85.258,215.224 C85.5980017,214.839998 85.768,214.304003 85.768,213.616 L85.768,213.472 L83.032,213.472 L83.032,212.536 Z M88.636,208.168 L93.724,208.168 L93.724,209.104 L89.644,209.104 L89.644,211.888 L93.652,211.888 L93.652,212.824 L89.644,212.824 L89.644,215.632 L93.796,215.632 L93.796,216.568 L88.636,216.568 L88.636,208.168 Z M100.168,216.136 L100.312,216.136 L100.312,208.168 L101.32,208.168 L101.32,216.568 L99.304,216.568 L96.88,208.6 L96.736,208.6 L96.736,216.568 L95.728,216.568 L95.728,208.168 L97.744,208.168 L100.168,216.136 Z M102.916,208.168 L108.82,208.168 L108.82,209.104 L106.372,209.104 L106.372,216.568 L105.364,216.568 L105.364,209.104 L102.916,209.104 L102.916,208.168 Z M115.192,210.592 C115.192,210.319999 115.138001,210.080001 115.03,209.872 C114.921999,209.663999 114.776001,209.492001 114.592,209.356 C114.407999,209.219999 114.196001,209.116 113.956,209.044 C113.715999,208.972 113.464001,208.936 113.2,208.936 C112.967999,208.936 112.748001,208.966 112.54,209.026 C112.331999,209.086 112.146001,209.171999 111.982,209.284 C111.817999,209.396001 111.688,209.533999 111.592,209.698 C111.496,209.862001 111.448,210.051999 111.448,210.268 L111.448,210.34 C111.448,210.572001 111.496,210.769999 111.592,210.934 C111.688,211.098001 111.829999,211.237999 112.018,211.354 C112.206001,211.470001 112.439999,211.566 112.72,211.642 C113.000001,211.718 113.327998,211.784 113.704,211.84 C114.584004,211.976001 115.231998,212.233998 115.648,212.614 C116.064002,212.994002 116.272,213.503997 116.272,214.144 L116.272,214.288 C116.272,214.648002 116.210001,214.977998 116.086,215.278 C115.961999,215.578001 115.778001,215.835999 115.534,216.052 C115.289999,216.268001 114.988002,216.435999 114.628,216.556 C114.267998,216.676001 113.852002,216.736 113.38,216.736 C112.843997,216.736 112.370002,216.658001 111.958,216.502 C111.545998,216.345999 111.202001,216.130001 110.926,215.854 C110.649999,215.577999 110.440001,215.254002 110.296,214.882 C110.151999,214.509998 110.08,214.104002 110.08,213.664 L110.08,213.304 L111.088,213.304 L111.088,213.592 C111.088,214.328004 111.289998,214.879998 111.694,215.248 C112.098002,215.616002 112.659996,215.8 113.38,215.8 C114.004003,215.8 114.473998,215.662001 114.79,215.386 C115.106002,215.109999 115.264,214.744002 115.264,214.288 L115.264,214.216 C115.264,213.775998 115.102002,213.440001 114.778,213.208 C114.453998,212.975999 113.928004,212.808001 113.2,212.704 C112.775998,212.648 112.394002,212.562001 112.054,212.446 C111.713998,212.329999 111.424001,212.178001 111.184,211.99 C110.943999,211.801999 110.760001,211.576001 110.632,211.312 C110.503999,211.047999 110.44,210.736002 110.44,210.376 L110.44,210.232 C110.44,209.903998 110.507999,209.604001 110.644,209.332 C110.780001,209.059999 110.969999,208.824001 111.214,208.624 C111.458001,208.423999 111.749998,208.270001 112.09,208.162 C112.430002,208.053999 112.803998,208 113.212,208 C113.684002,208 114.105998,208.067999 114.478,208.204 C114.850002,208.340001 115.163999,208.521999 115.42,208.75 C115.676001,208.978001 115.869999,209.245998 116.002,209.554 C116.134001,209.862002 116.2,210.183998 116.2,210.52 L116.2,211.024 L115.192,211.024 L115.192,210.592 Z" id="AGENTS" fill="#343434" opacity="0.5"></path>
            </g>
        </g>
    </g>
</svg>