<?xml version="1.0" encoding="UTF-8"?>
<svg width="190px" height="215px" viewBox="0 0 190 215" version="1.1" xmlns="http://www.w3.org/2000/svg" xmlns:xlink="http://www.w3.org/1999/xlink">
    <!-- Generator: Sketch 52.6 (67491) - http://www.bohemiancoding.com/sketch -->
    <title>Group 36</title>
    <desc>Created with Sketch.</desc>
    <defs>
        <rect id="path-1" x="0" y="0" width="190" height="186"></rect>
        <polygon id="path-3" points="0 0 13.3783784 0 13.3783784 16.9459459 0 16.9459459"></polygon>
    </defs>
    <g id="Page-4" stroke="none" stroke-width="1" fill="none" fill-rule="evenodd">
        <g id="Group-36" transform="translate(-22.000000, -29.000000)">
            <rect id="Rectangle" x="0" y="0" width="235" height="299"></rect>
            <g id="Group-33" transform="translate(22.000000, 29.000000)">
                <g id="Group-4">
                    <mask id="mask-2" fill="white">
                        <use xlink:href="#path-1"></use>
                    </mask>
                    <rect stroke="#E4EDF7" stroke-width="2" x="1" y="1" width="188" height="184"></rect>
                    <path d="M97.78,24 L96.832,21.516 L93.34,21.516 L92.392,24 L91.24,24 L94.528,15.456 L95.644,15.456 L98.944,24 L97.78,24 Z M96.412,20.46 L95.092,17.004 L93.76,20.46 L96.412,20.46 Z M101.648,24 C100.64,24 99.824,23.196 99.824,22.176 L99.824,19.488 L99.008,19.488 L99.008,18.504 L99.824,18.504 L99.824,16.38 L100.856,16.38 L100.856,18.504 L102.548,18.504 L102.548,19.488 L100.856,19.488 L100.856,22.152 C100.856,22.596 101.24,23.016 101.672,23.016 L102.596,23.016 L102.86,24 L101.648,24 Z M105.768,24 C104.76,24 103.944,23.196 103.944,22.176 L103.944,19.488 L103.128,19.488 L103.128,18.504 L103.944,18.504 L103.944,16.38 L104.976,16.38 L104.976,18.504 L106.668,18.504 L106.668,19.488 L104.976,19.488 L104.976,22.152 C104.976,22.596 105.36,23.016 105.792,23.016 L106.716,23.016 L106.98,24 L105.768,24 Z M108.856,18.504 L108.856,19.068 C109.204,18.684 110.224,18.384 110.86,18.384 L110.608,19.416 C109.648,19.416 108.856,20.148 108.856,21.072 L108.856,24 L107.824,24 L107.824,18.504 L108.856,18.504 Z M112.412,17.616 C112.028,17.616 111.728,17.304 111.728,16.932 C111.728,16.56 112.028,16.26 112.412,16.26 C112.784,16.26 113.084,16.56 113.084,16.932 C113.084,17.304 112.784,17.616 112.412,17.616 Z M111.896,24 L111.896,18.504 L112.928,18.504 L112.928,24 L111.896,24 Z M119.436,19.212 C119.988,19.764 120.288,20.484 120.288,21.252 C120.288,22.02 119.988,22.74 119.436,23.292 C118.896,23.832 118.176,24.12 117.408,24.12 C116.724,24.12 116.076,23.796 115.56,23.364 L115.56,24 L114.528,24 L114.528,15.192 L115.56,15.192 L115.56,19.14 C116.076,18.708 116.724,18.384 117.408,18.384 C118.176,18.384 118.896,18.672 119.436,19.212 Z M117.408,23.112 C118.428,23.112 119.256,22.272 119.256,21.252 C119.256,20.232 118.428,19.392 117.408,19.392 C116.388,19.392 115.56,20.232 115.56,21.252 C115.56,22.272 116.388,23.112 117.408,23.112 Z M121.996,23.412 C121.516,22.944 121.252,22.32 121.252,21.648 L121.252,18.504 L122.284,18.504 L122.284,21.648 C122.284,22.452 122.956,23.112 123.796,23.112 C124.624,23.112 125.308,22.452 125.308,21.648 L125.308,18.504 L126.34,18.504 L126.34,21.648 C126.34,22.32 126.064,22.944 125.584,23.412 C125.104,23.88 124.468,24.12 123.796,24.12 C123.112,24.12 122.476,23.88 121.996,23.412 Z M130.1,24 C129.092,24 128.276,23.196 128.276,22.176 L128.276,19.488 L127.46,19.488 L127.46,18.504 L128.276,18.504 L128.276,16.38 L129.308,16.38 L129.308,18.504 L131,18.504 L131,19.488 L129.308,19.488 L129.308,22.152 C129.308,22.596 129.692,23.016 130.124,23.016 L131.048,23.016 L131.312,24 L130.1,24 Z M136.74,20.628 C136.824,21.12 136.812,21.396 136.8,21.504 L132.564,21.504 L132.564,21.528 C132.684,22.44 133.368,23.124 134.16,23.136 C134.652,23.112 135.156,22.908 135.504,22.56 L136.368,23.076 C136.152,23.316 135.912,23.52 135.636,23.688 C135.216,23.94 134.7,24.072 134.184,24.096 C133.464,24.096 132.804,23.796 132.324,23.256 C131.892,22.788 131.628,22.188 131.58,21.528 C131.568,21.444 131.568,21.36 131.568,21.276 C131.568,21.06 131.592,20.844 131.64,20.628 C131.748,20.124 131.988,19.668 132.324,19.296 C132.804,18.768 133.476,18.468 134.184,18.468 C134.904,18.468 135.564,18.768 136.056,19.296 C136.392,19.668 136.644,20.124 136.74,20.628 Z M132.648,20.64 L135.72,20.64 L135.708,20.616 C135.468,19.908 134.856,19.428 134.184,19.428 C133.524,19.428 132.912,19.908 132.66,20.616 L132.648,20.64 Z M141.16,21.54 C141.328,21.78 141.412,22.068 141.412,22.38 C141.412,22.692 141.328,22.992 141.148,23.244 C140.98,23.496 140.74,23.688 140.416,23.844 C140.128,23.976 139.78,24.048 139.432,24.048 C139.24,24.048 139.06,24.024 138.868,23.988 C138.268,23.868 137.704,23.604 137.224,23.196 L137.872,22.488 C138.508,23.028 139.048,23.136 139.384,23.136 C139.612,23.136 139.828,23.088 140.02,23.004 C140.176,22.932 140.452,22.752 140.452,22.38 C140.452,22.008 140.128,21.78 139.384,21.648 C139.348,21.636 138.436,21.468 138.1,21.276 C137.596,20.988 137.332,20.544 137.332,19.992 C137.332,19.692 137.428,19.404 137.596,19.152 C137.752,18.936 137.968,18.768 138.28,18.624 C138.568,18.492 138.88,18.42 139.228,18.42 C139.36,18.42 139.504,18.432 139.636,18.444 C140.164,18.528 140.68,18.756 141.112,19.104 L140.512,19.8 C139.972,19.38 139.504,19.32 139.276,19.32 C139.06,19.32 138.856,19.356 138.688,19.44 C138.448,19.56 138.292,19.776 138.292,19.992 C138.292,20.352 138.58,20.544 139.312,20.7 C139.324,20.7 140.308,20.916 140.584,21.072 C140.908,21.24 141.028,21.372 141.16,21.54 Z" id="Attributes" fill="#3A3941" mask="url(#mask-2)"></path>
                    <path d="M92.9,39.12 C92.9,39.3600012 93.0016657,39.5433327 93.205,39.67 C93.4083344,39.7966673 93.7799973,39.8799998 94.32,39.92 C94.9000029,39.9666669 95.3416651,40.1049988 95.645,40.335 C95.9483348,40.5650011 96.1,40.8999978 96.1,41.34 L96.1,41.4 C96.1,41.6400012 96.0516672,41.854999 95.955,42.045 C95.8583328,42.2350009 95.7250009,42.396666 95.555,42.53 C95.3849991,42.663334 95.1783346,42.7649996 94.935,42.835 C94.6916655,42.9050003 94.4266681,42.94 94.14,42.94 C93.7533314,42.94 93.421668,42.8883338 93.145,42.785 C92.8683319,42.6816661 92.6383342,42.5450008 92.455,42.375 C92.2716657,42.2049991 92.1333338,42.0116677 92.04,41.795 C91.9466662,41.5783322 91.8933334,41.3600011 91.88,41.14 L92.62,40.96 C92.6533335,41.3400019 92.7999987,41.6449988 93.06,41.875 C93.3200013,42.1050011 93.6666645,42.22 94.1,42.22 C94.4666685,42.22 94.7616656,42.148334 94.985,42.005 C95.2083344,41.8616659 95.32,41.6600013 95.32,41.4 C95.32,41.1199986 95.2100011,40.9200006 94.99,40.8 C94.7699989,40.6799994 94.4133358,40.6033335 93.92,40.57 C93.3466638,40.5299998 92.9066682,40.3966678 92.6,40.17 C92.2933318,39.9433322 92.14,39.6133355 92.14,39.18 L92.14,39.12 C92.14,38.8866655 92.1899995,38.6816675 92.29,38.505 C92.3900005,38.3283324 92.5249991,38.1800006 92.695,38.06 C92.8650009,37.9399994 93.0566656,37.8500003 93.27,37.79 C93.4833344,37.7299997 93.7066655,37.7 93.94,37.7 C94.2666683,37.7 94.5533321,37.7449995 94.8,37.835 C95.0466679,37.9250004 95.2533325,38.0416659 95.42,38.185 C95.5866675,38.328334 95.7149996,38.4933324 95.805,38.68 C95.8950004,38.8666676 95.9533332,39.0533324 95.98,39.24 L95.24,39.42 C95.2066665,39.0999984 95.0783344,38.8500009 94.855,38.67 C94.6316655,38.4899991 94.3400018,38.4 93.98,38.4 C93.8399993,38.4 93.7050007,38.4149998 93.575,38.445 C93.4449994,38.4750001 93.3300005,38.5199997 93.23,38.58 C93.1299995,38.6400003 93.0500003,38.7149995 92.99,38.805 C92.9299997,38.8950004 92.9,38.9999994 92.9,39.12 Z M101.45,41.96 L101.33,41.96 C101.169999,42.293335 100.948335,42.5399992 100.665,42.7 C100.381665,42.8600008 100.083335,42.94 99.77,42.94 C99.4433317,42.94 99.1400014,42.8850005 98.86,42.775 C98.5799986,42.6649994 98.3350011,42.5016677 98.125,42.285 C97.9149989,42.0683322 97.7500006,41.8033349 97.63,41.49 C97.5099994,41.1766651 97.45,40.8133354 97.45,40.4 L97.45,40.24 C97.45,39.8333313 97.5099994,39.4733349 97.63,39.16 C97.7500006,38.8466651 97.9149989,38.5816677 98.125,38.365 C98.3350011,38.1483322 98.5799986,37.9833339 98.86,37.87 C99.1400014,37.7566661 99.4366651,37.7 99.75,37.7 C100.090002,37.7 100.398332,37.7749992 100.675,37.925 C100.951668,38.0750007 101.169999,38.3066651 101.33,38.62 L101.45,38.62 L101.45,37.84 L102.23,37.84 L102.23,41.78 C102.23,41.980001 102.319999,42.08 102.5,42.08 L102.75,42.08 L102.75,42.8 L102.22,42.8 C101.993332,42.8 101.808334,42.7266674 101.665,42.58 C101.521666,42.4333326 101.45,42.2466678 101.45,42.02 L101.45,41.96 Z M99.85,42.2 C100.083335,42.2 100.298332,42.1566671 100.495,42.07 C100.691668,41.9833329 100.859999,41.8600008 101,41.7 C101.140001,41.5399992 101.25,41.3483344 101.33,41.125 C101.41,40.9016655 101.45,40.6533347 101.45,40.38 L101.45,40.26 C101.45,39.993332 101.41,39.7483344 101.33,39.525 C101.25,39.3016655 101.138334,39.1100008 100.995,38.95 C100.851666,38.7899992 100.681668,38.6650004 100.485,38.575 C100.288332,38.4849995 100.076668,38.44 99.85,38.44 C99.6166655,38.44 99.4033343,38.4833329 99.21,38.57 C99.0166657,38.6566671 98.8483341,38.7783325 98.705,38.935 C98.561666,39.0916674 98.4500004,39.2816655 98.37,39.505 C98.2899996,39.7283344 98.25,39.973332 98.25,40.24 L98.25,40.4 C98.25,40.9666695 98.3983319,41.4083317 98.695,41.725 C98.9916681,42.0416682 99.3766643,42.2 99.85,42.2 Z M103.83,42.08 L105.63,42.08 L105.63,36.52 L103.89,36.52 L103.89,35.8 L106.41,35.8 L106.41,42.08 L108.21,42.08 L108.21,42.8 L103.83,42.8 L103.83,42.08 Z M113.41,41.96 L113.29,41.96 C113.129999,42.293335 112.908335,42.5399992 112.625,42.7 C112.341665,42.8600008 112.043335,42.94 111.73,42.94 C111.403332,42.94 111.100001,42.8850005 110.82,42.775 C110.539999,42.6649994 110.295001,42.5016677 110.085,42.285 C109.874999,42.0683322 109.710001,41.8033349 109.59,41.49 C109.469999,41.1766651 109.41,40.8133354 109.41,40.4 L109.41,40.24 C109.41,39.8333313 109.469999,39.4733349 109.59,39.16 C109.710001,38.8466651 109.874999,38.5816677 110.085,38.365 C110.295001,38.1483322 110.539999,37.9833339 110.82,37.87 C111.100001,37.7566661 111.396665,37.7 111.71,37.7 C112.050002,37.7 112.358332,37.7749992 112.635,37.925 C112.911668,38.0750007 113.129999,38.3066651 113.29,38.62 L113.41,38.62 L113.41,37.84 L114.19,37.84 L114.19,41.78 C114.19,41.980001 114.279999,42.08 114.46,42.08 L114.71,42.08 L114.71,42.8 L114.18,42.8 C113.953332,42.8 113.768334,42.7266674 113.625,42.58 C113.481666,42.4333326 113.41,42.2466678 113.41,42.02 L113.41,41.96 Z M111.81,42.2 C112.043335,42.2 112.258332,42.1566671 112.455,42.07 C112.651668,41.9833329 112.819999,41.8600008 112.96,41.7 C113.100001,41.5399992 113.21,41.3483344 113.29,41.125 C113.37,40.9016655 113.41,40.6533347 113.41,40.38 L113.41,40.26 C113.41,39.993332 113.37,39.7483344 113.29,39.525 C113.21,39.3016655 113.098334,39.1100008 112.955,38.95 C112.811666,38.7899992 112.641668,38.6650004 112.445,38.575 C112.248332,38.4849995 112.036668,38.44 111.81,38.44 C111.576666,38.44 111.363334,38.4833329 111.17,38.57 C110.976666,38.6566671 110.808334,38.7783325 110.665,38.935 C110.521666,39.0916674 110.41,39.2816655 110.33,39.505 C110.25,39.7283344 110.21,39.973332 110.21,40.24 L110.21,40.4 C110.21,40.9666695 110.358332,41.4083317 110.655,41.725 C110.951668,42.0416682 111.336664,42.2 111.81,42.2 Z M115.51,37.84 L117.31,37.84 L117.31,38.5 L117.43,38.5 C117.556667,38.2266653 117.736666,38.0250006 117.97,37.895 C118.203335,37.7649993 118.469999,37.7 118.77,37.7 C119.270003,37.7 119.673332,37.8633317 119.98,38.19 C120.286668,38.5166683 120.45,38.9933302 120.47,39.62 L119.65,39.74 C119.65,39.2799977 119.540001,38.9483343 119.32,38.745 C119.099999,38.5416656 118.830002,38.44 118.51,38.44 C118.303332,38.44 118.125001,38.4799996 117.975,38.56 C117.824999,38.6400004 117.700001,38.7499993 117.6,38.89 C117.5,39.0300007 117.426667,39.1933324 117.38,39.38 C117.333333,39.5666676 117.31,39.7666656 117.31,39.98 L117.31,42.08 L118.57,42.08 L118.57,42.8 L115.39,42.8 L115.39,42.08 L116.53,42.08 L116.53,38.56 L115.51,38.56 L115.51,37.84 Z M125.37,41.9 L125.25,41.9 C125.089999,42.2200016 124.880001,42.4733324 124.62,42.66 C124.359999,42.8466676 124.030002,42.94 123.63,42.94 C123.356665,42.94 123.105001,42.8950004 122.875,42.805 C122.644999,42.7149995 122.448334,42.5800009 122.285,42.4 C122.121666,42.2199991 121.995,41.996668 121.905,41.73 C121.815,41.463332 121.77,41.1533351 121.77,40.8 L121.77,37.84 L122.55,37.84 L122.55,40.7 C122.55,41.2200026 122.656666,41.5999988 122.87,41.84 C123.083334,42.0800012 123.409998,42.2 123.85,42.2 C124.323336,42.2 124.694999,42.0383349 124.965,41.715 C125.235001,41.391665 125.37,40.9600027 125.37,40.42 L125.37,37.84 L126.15,37.84 L126.15,44.02 C126.15,44.2466678 126.078334,44.4333326 125.935,44.58 C125.791666,44.7266674 125.606668,44.8 125.38,44.8 L122.55,44.8 L122.55,44.08 L125.1,44.08 C125.280001,44.08 125.37,43.980001 125.37,43.78 L125.37,41.9 Z" id="salary" fill="#000000" opacity="0.5" mask="url(#mask-2)"></path>
                    <path d="M95.47,62.76 L95.35,62.76 C95.1899992,63.093335 94.9683347,63.3399992 94.685,63.5 C94.4016653,63.6600008 94.1033349,63.74 93.79,63.74 C93.4633317,63.74 93.1600014,63.6850005 92.88,63.575 C92.5999986,63.4649994 92.355001,63.3016677 92.145,63.085 C91.9349989,62.8683322 91.7700006,62.6033349 91.65,62.29 C91.5299994,61.9766651 91.47,61.6133354 91.47,61.2 L91.47,61.04 C91.47,60.6333313 91.5299994,60.2733349 91.65,59.96 C91.7700006,59.6466651 91.9349989,59.3816677 92.145,59.165 C92.355001,58.9483322 92.5999986,58.7833339 92.88,58.67 C93.1600014,58.5566661 93.4566651,58.5 93.77,58.5 C94.1100017,58.5 94.4183319,58.5749992 94.695,58.725 C94.9716681,58.8750007 95.1899992,59.1066651 95.35,59.42 L95.47,59.42 L95.47,58.64 L96.25,58.64 L96.25,62.58 C96.25,62.780001 96.3399991,62.88 96.52,62.88 L96.77,62.88 L96.77,63.6 L96.24,63.6 C96.0133322,63.6 95.828334,63.5266674 95.685,63.38 C95.5416659,63.2333326 95.47,63.0466678 95.47,62.82 L95.47,62.76 Z M93.87,63 C94.1033345,63 94.3183324,62.9566671 94.515,62.87 C94.7116676,62.7833329 94.8799993,62.6600008 95.02,62.5 C95.1600007,62.3399992 95.2699996,62.1483344 95.35,61.925 C95.4300004,61.7016655 95.47,61.4533347 95.47,61.18 L95.47,61.06 C95.47,60.793332 95.4300004,60.5483344 95.35,60.325 C95.2699996,60.1016655 95.1583341,59.9100008 95.015,59.75 C94.8716659,59.5899992 94.7016677,59.4650004 94.505,59.375 C94.3083324,59.2849995 94.0966678,59.24 93.87,59.24 C93.6366655,59.24 93.4233343,59.2833329 93.23,59.37 C93.0366657,59.4566671 92.8683341,59.5783325 92.725,59.735 C92.581666,59.8916674 92.4700004,60.0816655 92.39,60.305 C92.3099996,60.5283344 92.27,60.773332 92.27,61.04 L92.27,61.2 C92.27,61.7666695 92.4183319,62.2083317 92.715,62.525 C93.0116682,62.8416682 93.3966643,63 93.87,63 Z M101.62,62.84 L101.5,62.84 C101.339999,63.1400015 101.121668,63.3649992 100.845,63.515 C100.568332,63.6650007 100.266668,63.74 99.94,63.74 C99.606665,63.74 99.2933348,63.6833339 99,63.57 C98.7066652,63.4566661 98.4483345,63.2933344 98.225,63.08 C98.0016655,62.8666656 97.8250006,62.6016682 97.695,62.285 C97.5649993,61.9683317 97.5,61.6066687 97.5,61.2 L97.5,61.04 C97.5,60.639998 97.566666,60.2816682 97.7,59.965 C97.833334,59.6483317 98.0099989,59.3816677 98.23,59.165 C98.4500011,58.9483322 98.7066652,58.7833339 99,58.67 C99.2933348,58.5566661 99.5999984,58.5 99.92,58.5 C100.280002,58.5 100.594999,58.5783325 100.865,58.735 C101.135001,58.8916674 101.346666,59.1199985 101.5,59.42 L101.62,59.42 L101.62,58.64 L102.4,58.64 L102.4,64.82 C102.4,65.0466678 102.328334,65.2333326 102.185,65.38 C102.041666,65.5266674 101.856668,65.6 101.63,65.6 L98.4,65.6 L98.4,64.88 L101.35,64.88 C101.530001,64.88 101.62,64.780001 101.62,64.58 L101.62,62.84 Z M99.96,63 C100.193335,63 100.409999,62.9566671 100.61,62.87 C100.810001,62.7833329 100.984999,62.6600008 101.135,62.5 C101.285001,62.3399992 101.403333,62.1483344 101.49,61.925 C101.576667,61.7016655 101.62,61.4533347 101.62,61.18 L101.62,61.06 C101.62,60.793332 101.576667,60.5483344 101.49,60.325 C101.403333,60.1016655 101.285001,59.9100008 101.135,59.75 C100.984999,59.5899992 100.808334,59.4650004 100.605,59.375 C100.401666,59.2849995 100.186668,59.24 99.96,59.24 C99.7266655,59.24 99.5083343,59.2833329 99.305,59.37 C99.1016657,59.4566671 98.9250007,59.5799992 98.775,59.74 C98.6249993,59.9000008 98.5083338,60.0899989 98.425,60.31 C98.3416663,60.5300011 98.3,60.773332 98.3,61.04 L98.3,61.2 C98.3,61.4800014 98.3416663,61.7299989 98.425,61.95 C98.5083338,62.1700011 98.6249993,62.3583325 98.775,62.515 C98.9250007,62.6716674 99.099999,62.7916662 99.3,62.875 C99.500001,62.9583337 99.7199988,63 99.96,63 Z M104.4,61.36 C104.42,61.8533358 104.573332,62.2499985 104.86,62.55 C105.146668,62.8500015 105.546664,63 106.06,63 C106.293335,63 106.496666,62.9733336 106.67,62.92 C106.843334,62.8666664 106.991666,62.7933338 107.115,62.7 C107.238334,62.6066662 107.338333,62.4983339 107.415,62.375 C107.491667,62.251666 107.553333,62.1200007 107.6,61.98 L108.34,62.18 C108.199999,62.6400023 107.941669,63.0149985 107.565,63.305 C107.188331,63.5950014 106.680003,63.74 106.04,63.74 C105.686665,63.74 105.361668,63.6783339 105.065,63.555 C104.768332,63.431666 104.513334,63.2566678 104.3,63.03 C104.086666,62.8033322 103.920001,62.5333349 103.8,62.22 C103.679999,61.9066651 103.62,61.5600019 103.62,61.18 L103.62,60.94 C103.62,60.5933316 103.681666,60.2700015 103.805,59.97 C103.928334,59.6699985 104.099999,59.4116677 104.32,59.195 C104.540001,58.9783322 104.798332,58.8083339 105.095,58.685 C105.391668,58.561666 105.713332,58.5 106.06,58.5 C106.466669,58.5 106.818332,58.5749992 107.115,58.725 C107.411668,58.8750007 107.654999,59.0599989 107.845,59.28 C108.035001,59.5000011 108.175,59.7399987 108.265,60 C108.355,60.2600013 108.4,60.4999989 108.4,60.72 L108.4,61.36 L104.4,61.36 Z M106.06,59.24 C105.839999,59.24 105.635001,59.2749996 105.445,59.345 C105.254999,59.4150003 105.088334,59.5133327 104.945,59.64 C104.801666,59.7666673 104.685,59.9149991 104.595,60.085 C104.505,60.2550008 104.446667,60.439999 104.42,60.64 L107.62,60.64 C107.606667,60.4266656 107.555,60.2333342 107.465,60.06 C107.375,59.8866658 107.258334,59.7400006 107.115,59.62 C106.971666,59.4999994 106.808334,59.406667 106.625,59.34 C106.441666,59.273333 106.253334,59.24 106.06,59.24 Z M109.78,56.6 L114.22,56.6 L114.22,57.38 L112.42,57.38 L112.42,62.82 L114.22,62.82 L114.22,63.6 L109.78,63.6 L109.78,62.82 L111.58,62.82 L111.58,57.38 L109.78,57.38 L109.78,56.6 Z M116.57,63.6 L115.79,63.6 L115.79,58.64 L116.57,58.64 L116.57,59.48 L116.69,59.48 C116.996668,58.8266634 117.529996,58.5 118.29,58.5 C118.863336,58.5 119.319998,58.6783315 119.66,59.035 C120.000002,59.3916684 120.17,59.9266631 120.17,60.64 L120.17,63.6 L119.39,63.6 L119.39,60.8 C119.39,60.2799974 119.273335,59.8900013 119.04,59.63 C118.806666,59.3699987 118.490002,59.24 118.09,59.24 C117.616664,59.24 117.245001,59.401665 116.975,59.725 C116.704999,60.0483349 116.57,60.4799973 116.57,61.02 L116.57,63.6 Z M123.54,61.14 L123.36,61.14 L121.17,56.6 L122.11,56.6 L123.9,60.42 L124.02,60.42 L125.81,56.6 L126.75,56.6 L124.56,61.14 L124.38,61.14 L124.38,63.6 L123.54,63.6 L123.54,61.14 Z M128.32,61.36 C128.34,61.8533358 128.493332,62.2499985 128.78,62.55 C129.066668,62.8500015 129.466664,63 129.98,63 C130.213335,63 130.416666,62.9733336 130.59,62.92 C130.763334,62.8666664 130.911666,62.7933338 131.035,62.7 C131.158334,62.6066662 131.258333,62.4983339 131.335,62.375 C131.411667,62.251666 131.473333,62.1200007 131.52,61.98 L132.26,62.18 C132.119999,62.6400023 131.861669,63.0149985 131.485,63.305 C131.108331,63.5950014 130.600003,63.74 129.96,63.74 C129.606665,63.74 129.281668,63.6783339 128.985,63.555 C128.688332,63.431666 128.433334,63.2566678 128.22,63.03 C128.006666,62.8033322 127.840001,62.5333349 127.72,62.22 C127.599999,61.9066651 127.54,61.5600019 127.54,61.18 L127.54,60.94 C127.54,60.5933316 127.601666,60.2700015 127.725,59.97 C127.848334,59.6699985 128.019999,59.4116677 128.24,59.195 C128.460001,58.9783322 128.718332,58.8083339 129.015,58.685 C129.311668,58.561666 129.633332,58.5 129.98,58.5 C130.386669,58.5 130.738332,58.5749992 131.035,58.725 C131.331668,58.8750007 131.574999,59.0599989 131.765,59.28 C131.955001,59.5000011 132.095,59.7399987 132.185,60 C132.275,60.2600013 132.32,60.4999989 132.32,60.72 L132.32,61.36 L128.32,61.36 Z M129.98,59.24 C129.759999,59.24 129.555001,59.2749996 129.365,59.345 C129.174999,59.4150003 129.008334,59.5133327 128.865,59.64 C128.721666,59.7666673 128.605,59.9149991 128.515,60.085 C128.425,60.2550008 128.366667,60.439999 128.34,60.64 L131.54,60.64 C131.526667,60.4266656 131.475,60.2333342 131.385,60.06 C131.295,59.8866658 131.178334,59.7400006 131.035,59.62 C130.891666,59.4999994 130.728334,59.406667 130.545,59.34 C130.361666,59.273333 130.173334,59.24 129.98,59.24 Z M137.33,62.76 L137.21,62.76 C137.049999,63.093335 136.828335,63.3399992 136.545,63.5 C136.261665,63.6600008 135.963335,63.74 135.65,63.74 C135.323332,63.74 135.020001,63.6850005 134.74,63.575 C134.459999,63.4649994 134.215001,63.3016677 134.005,63.085 C133.794999,62.8683322 133.630001,62.6033349 133.51,62.29 C133.389999,61.9766651 133.33,61.6133354 133.33,61.2 L133.33,61.04 C133.33,60.6333313 133.389999,60.2733349 133.51,59.96 C133.630001,59.6466651 133.794999,59.3816677 134.005,59.165 C134.215001,58.9483322 134.459999,58.7833339 134.74,58.67 C135.020001,58.5566661 135.316665,58.5 135.63,58.5 C135.970002,58.5 136.278332,58.5749992 136.555,58.725 C136.831668,58.8750007 137.049999,59.1066651 137.21,59.42 L137.33,59.42 L137.33,58.64 L138.11,58.64 L138.11,62.58 C138.11,62.780001 138.199999,62.88 138.38,62.88 L138.63,62.88 L138.63,63.6 L138.1,63.6 C137.873332,63.6 137.688334,63.5266674 137.545,63.38 C137.401666,63.2333326 137.33,63.0466678 137.33,62.82 L137.33,62.76 Z M135.73,63 C135.963335,63 136.178332,62.9566671 136.375,62.87 C136.571668,62.7833329 136.739999,62.6600008 136.88,62.5 C137.020001,62.3399992 137.13,62.1483344 137.21,61.925 C137.29,61.7016655 137.33,61.4533347 137.33,61.18 L137.33,61.06 C137.33,60.793332 137.29,60.5483344 137.21,60.325 C137.13,60.1016655 137.018334,59.9100008 136.875,59.75 C136.731666,59.5899992 136.561668,59.4650004 136.365,59.375 C136.168332,59.2849995 135.956668,59.24 135.73,59.24 C135.496666,59.24 135.283334,59.2833329 135.09,59.37 C134.896666,59.4566671 134.728334,59.5783325 134.585,59.735 C134.441666,59.8916674 134.33,60.0816655 134.25,60.305 C134.17,60.5283344 134.13,60.773332 134.13,61.04 L134.13,61.2 C134.13,61.7666695 134.278332,62.2083317 134.575,62.525 C134.871668,62.8416682 135.256664,63 135.73,63 Z M139.43,58.64 L141.23,58.64 L141.23,59.3 L141.35,59.3 C141.476667,59.0266653 141.656666,58.8250006 141.89,58.695 C142.123334,58.5649993 142.389998,58.5 142.69,58.5 C143.190002,58.5 143.593332,58.6633317 143.9,58.99 C144.206668,59.3166683 144.37,59.7933302 144.39,60.42 L143.57,60.54 C143.57,60.0799977 143.460001,59.7483343 143.24,59.545 C143.019999,59.3416656 142.750002,59.24 142.43,59.24 C142.223332,59.24 142.045001,59.2799996 141.895,59.36 C141.744999,59.4400004 141.620001,59.5499993 141.52,59.69 C141.42,59.8300007 141.346667,59.9933324 141.3,60.18 C141.253333,60.3666676 141.23,60.5666656 141.23,60.78 L141.23,62.88 L142.49,62.88 L142.49,63.6 L139.31,63.6 L139.31,62.88 L140.45,62.88 L140.45,59.36 L139.43,59.36 L139.43,58.64 Z M146.72,59.92 C146.72,60.1600012 146.821666,60.3433327 147.025,60.47 C147.228334,60.5966673 147.599997,60.6799998 148.14,60.72 C148.720003,60.7666669 149.161665,60.9049988 149.465,61.135 C149.768335,61.3650011 149.92,61.6999978 149.92,62.14 L149.92,62.2 C149.92,62.4400012 149.871667,62.654999 149.775,62.845 C149.678333,63.0350009 149.545001,63.196666 149.375,63.33 C149.204999,63.463334 148.998335,63.5649996 148.755,63.635 C148.511665,63.7050003 148.246668,63.74 147.96,63.74 C147.573331,63.74 147.241668,63.6883338 146.965,63.585 C146.688332,63.4816661 146.458334,63.3450008 146.275,63.175 C146.091666,63.0049991 145.953334,62.8116677 145.86,62.595 C145.766666,62.3783322 145.713333,62.1600011 145.7,61.94 L146.44,61.76 C146.473334,62.1400019 146.619999,62.4449988 146.88,62.675 C147.140001,62.9050011 147.486665,63.02 147.92,63.02 C148.286669,63.02 148.581666,62.948334 148.805,62.805 C149.028334,62.6616659 149.14,62.4600013 149.14,62.2 C149.14,61.9199986 149.030001,61.7200006 148.81,61.6 C148.589999,61.4799994 148.233336,61.4033335 147.74,61.37 C147.166664,61.3299998 146.726668,61.1966678 146.42,60.97 C146.113332,60.7433322 145.96,60.4133355 145.96,59.98 L145.96,59.92 C145.96,59.6866655 146.009999,59.4816675 146.11,59.305 C146.210001,59.1283324 146.344999,58.9800006 146.515,58.86 C146.685001,58.7399994 146.876666,58.6500003 147.09,58.59 C147.303334,58.5299997 147.526666,58.5 147.76,58.5 C148.086668,58.5 148.373332,58.5449995 148.62,58.635 C148.866668,58.7250004 149.073332,58.8416659 149.24,58.985 C149.406668,59.128334 149.535,59.2933324 149.625,59.48 C149.715,59.6666676 149.773333,59.8533324 149.8,60.04 L149.06,60.22 C149.026667,59.8999984 148.898334,59.6500009 148.675,59.47 C148.451666,59.2899991 148.160002,59.2 147.8,59.2 C147.659999,59.2 147.525001,59.2149998 147.395,59.245 C147.264999,59.2750001 147.150001,59.3199997 147.05,59.38 C146.949999,59.4400003 146.87,59.5149995 146.81,59.605 C146.75,59.6950004 146.72,59.7999994 146.72,59.92 Z" id="ageInYears" fill="#000000" opacity="0.5" mask="url(#mask-2)"></path>
                    <path d="M92.47,106.2 L91.69,106.2 L91.69,99.2 L92.47,99.2 L92.47,102.02 L92.59,102.02 C92.7633342,101.719999 93.0033318,101.491667 93.31,101.335 C93.6166682,101.178333 93.9499982,101.1 94.31,101.1 C94.6166682,101.1 94.9066653,101.156666 95.18,101.27 C95.4533347,101.383334 95.6949989,101.546666 95.905,101.76 C96.1150011,101.973334 96.281666,102.236665 96.405,102.55 C96.528334,102.863335 96.59,103.219998 96.59,103.62 L96.59,103.82 C96.59,104.226669 96.5300006,104.586665 96.41,104.9 C96.2899994,105.213335 96.125001,105.476666 95.915,105.69 C95.704999,105.903334 95.4600014,106.064999 95.18,106.175 C94.8999986,106.285001 94.6033349,106.34 94.29,106.34 C94.1299992,106.34 93.9666675,106.321667 93.8,106.285 C93.6333325,106.248333 93.4750008,106.191667 93.325,106.115 C93.1749992,106.038333 93.0366673,105.945001 92.91,105.835 C92.7833327,105.724999 92.6766671,105.593334 92.59,105.44 L92.47,105.44 L92.47,106.2 Z M94.13,105.6 C94.3700012,105.6 94.589999,105.558334 94.79,105.475 C94.990001,105.391666 95.1649992,105.273334 95.315,105.12 C95.4650008,104.966666 95.5816662,104.780001 95.665,104.56 C95.7483338,104.339999 95.79,104.093335 95.79,103.82 L95.79,103.62 C95.79,103.353332 95.7483338,103.111668 95.665,102.895 C95.5816662,102.678332 95.4650008,102.491667 95.315,102.335 C95.1649992,102.178333 94.9883344,102.056667 94.785,101.97 C94.5816657,101.883333 94.3633345,101.84 94.13,101.84 C93.8966655,101.84 93.680001,101.885 93.48,101.975 C93.279999,102.065 93.1050008,102.189999 92.955,102.35 C92.8049992,102.510001 92.6866671,102.701666 92.6,102.925 C92.5133329,103.148334 92.47,103.393332 92.47,103.66 L92.47,103.78 C92.47,104.053335 92.5133329,104.301666 92.6,104.525 C92.6866671,104.748334 92.8049992,104.939999 92.955,105.1 C93.1050008,105.260001 93.279999,105.383333 93.48,105.47 C93.680001,105.556667 93.8966655,105.6 94.13,105.6 Z M101.45,105.36 L101.33,105.36 C101.169999,105.693335 100.948335,105.939999 100.665,106.1 C100.381665,106.260001 100.083335,106.34 99.77,106.34 C99.4433317,106.34 99.1400014,106.285001 98.86,106.175 C98.5799986,106.064999 98.3350011,105.901668 98.125,105.685 C97.9149989,105.468332 97.7500006,105.203335 97.63,104.89 C97.5099994,104.576665 97.45,104.213335 97.45,103.8 L97.45,103.64 C97.45,103.233331 97.5099994,102.873335 97.63,102.56 C97.7500006,102.246665 97.9149989,101.981668 98.125,101.765 C98.3350011,101.548332 98.5799986,101.383334 98.86,101.27 C99.1400014,101.156666 99.4366651,101.1 99.75,101.1 C100.090002,101.1 100.398332,101.174999 100.675,101.325 C100.951668,101.475001 101.169999,101.706665 101.33,102.02 L101.45,102.02 L101.45,101.24 L102.23,101.24 L102.23,105.18 C102.23,105.380001 102.319999,105.48 102.5,105.48 L102.75,105.48 L102.75,106.2 L102.22,106.2 C101.993332,106.2 101.808334,106.126667 101.665,105.98 C101.521666,105.833333 101.45,105.646668 101.45,105.42 L101.45,105.36 Z M99.85,105.6 C100.083335,105.6 100.298332,105.556667 100.495,105.47 C100.691668,105.383333 100.859999,105.260001 101,105.1 C101.140001,104.939999 101.25,104.748334 101.33,104.525 C101.41,104.301666 101.45,104.053335 101.45,103.78 L101.45,103.66 C101.45,103.393332 101.41,103.148334 101.33,102.925 C101.25,102.701666 101.138334,102.510001 100.995,102.35 C100.851666,102.189999 100.681668,102.065 100.485,101.975 C100.288332,101.885 100.076668,101.84 99.85,101.84 C99.6166655,101.84 99.4033343,101.883333 99.21,101.97 C99.0166657,102.056667 98.8483341,102.178333 98.705,102.335 C98.561666,102.491667 98.4500004,102.681666 98.37,102.905 C98.2899996,103.128334 98.25,103.373332 98.25,103.64 L98.25,103.8 C98.25,104.36667 98.3983319,104.808332 98.695,105.125 C98.9916681,105.441668 99.3766643,105.6 99.85,105.6 Z M104.61,106.2 L103.83,106.2 L103.83,101.24 L104.61,101.24 L104.61,102.08 L104.73,102.08 C105.036668,101.426663 105.569996,101.1 106.33,101.1 C106.903336,101.1 107.359998,101.278332 107.7,101.635 C108.040002,101.991668 108.21,102.526663 108.21,103.24 L108.21,106.2 L107.43,106.2 L107.43,103.4 C107.43,102.879997 107.313334,102.490001 107.08,102.23 C106.846666,101.969999 106.530002,101.84 106.13,101.84 C105.656664,101.84 105.285001,102.001665 105.015,102.325 C104.744999,102.648335 104.61,103.079997 104.61,103.62 L104.61,106.2 Z M111.09,103.3 L111.26,103.3 L113.15,101.24 L114.11,101.24 L114.11,101.3 L112.05,103.57 L112.05,103.75 L114.35,106.14 L114.35,106.2 L113.39,106.2 L111.28,104.02 L111.09,104.02 L111.09,106.2 L110.31,106.2 L110.31,99.2 L111.09,99.2 L111.09,103.3 Z M119.48,104.46 L116.48,104.46 L115.97,106.2 L115.07,106.2 L117.19,99.2 L118.77,99.2 L120.89,106.2 L119.99,106.2 L119.48,104.46 Z M117.92,99.56 L116.71,103.68 L119.25,103.68 L118.04,99.56 L117.92,99.56 Z M126.41,104.44 C126.356666,104.713335 126.265001,104.966666 126.135,105.2 C126.004999,105.433335 125.840001,105.634999 125.64,105.805 C125.439999,105.975001 125.206668,106.106666 124.94,106.2 C124.673332,106.293334 124.376668,106.34 124.05,106.34 C123.703332,106.34 123.375002,106.283334 123.065,106.17 C122.754998,106.056666 122.483334,105.891668 122.25,105.675 C122.016666,105.458332 121.831667,105.193335 121.695,104.88 C121.558333,104.566665 121.49,104.206669 121.49,103.8 L121.49,103.68 C121.49,103.279998 121.558333,102.920002 121.695,102.6 C121.831667,102.279998 122.016666,102.010001 122.25,101.79 C122.483334,101.569999 122.754998,101.400001 123.065,101.28 C123.375002,101.159999 123.703332,101.1 124.05,101.1 C124.363335,101.1 124.653332,101.146666 124.92,101.24 C125.186668,101.333334 125.421666,101.464999 125.625,101.635 C125.828334,101.805001 125.994999,102.006666 126.125,102.24 C126.255001,102.473335 126.343333,102.726665 126.39,103 L125.61,103.18 C125.59,103.006666 125.541667,102.838334 125.465,102.675 C125.388333,102.511666 125.285001,102.368334 125.155,102.245 C125.024999,102.121666 124.866668,102.023334 124.68,101.95 C124.493332,101.876666 124.276668,101.84 124.03,101.84 C123.789999,101.84 123.565001,101.885 123.355,101.975 C123.144999,102.065 122.960001,102.191666 122.8,102.355 C122.639999,102.518334 122.515,102.713332 122.425,102.94 C122.335,103.166668 122.29,103.413332 122.29,103.68 L122.29,103.8 C122.29,104.080001 122.335,104.331666 122.425,104.555 C122.515,104.778334 122.639999,104.966666 122.8,105.12 C122.960001,105.273334 123.146666,105.391666 123.36,105.475 C123.573334,105.558334 123.803332,105.6 124.05,105.6 C124.296668,105.6 124.511666,105.561667 124.695,105.485 C124.878334,105.408333 125.034999,105.308334 125.165,105.185 C125.295001,105.061666 125.398333,104.920001 125.475,104.76 C125.551667,104.599999 125.603333,104.433334 125.63,104.26 L126.41,104.44 Z M132.39,104.44 C132.336666,104.713335 132.245001,104.966666 132.115,105.2 C131.984999,105.433335 131.820001,105.634999 131.62,105.805 C131.419999,105.975001 131.186668,106.106666 130.92,106.2 C130.653332,106.293334 130.356668,106.34 130.03,106.34 C129.683332,106.34 129.355002,106.283334 129.045,106.17 C128.734998,106.056666 128.463335,105.891668 128.23,105.675 C127.996666,105.458332 127.811667,105.193335 127.675,104.88 C127.538333,104.566665 127.47,104.206669 127.47,103.8 L127.47,103.68 C127.47,103.279998 127.538333,102.920002 127.675,102.6 C127.811667,102.279998 127.996666,102.010001 128.23,101.79 C128.463335,101.569999 128.734998,101.400001 129.045,101.28 C129.355002,101.159999 129.683332,101.1 130.03,101.1 C130.343335,101.1 130.633332,101.146666 130.9,101.24 C131.166668,101.333334 131.401666,101.464999 131.605,101.635 C131.808334,101.805001 131.974999,102.006666 132.105,102.24 C132.235001,102.473335 132.323333,102.726665 132.37,103 L131.59,103.18 C131.57,103.006666 131.521667,102.838334 131.445,102.675 C131.368333,102.511666 131.265001,102.368334 131.135,102.245 C131.004999,102.121666 130.846668,102.023334 130.66,101.95 C130.473332,101.876666 130.256668,101.84 130.01,101.84 C129.769999,101.84 129.545001,101.885 129.335,101.975 C129.124999,102.065 128.940001,102.191666 128.78,102.355 C128.619999,102.518334 128.495,102.713332 128.405,102.94 C128.315,103.166668 128.27,103.413332 128.27,103.68 L128.27,103.8 C128.27,104.080001 128.315,104.331666 128.405,104.555 C128.495,104.778334 128.619999,104.966666 128.78,105.12 C128.940001,105.273334 129.126666,105.391666 129.34,105.475 C129.553334,105.558334 129.783332,105.6 130.03,105.6 C130.276668,105.6 130.491666,105.561667 130.675,105.485 C130.858334,105.408333 131.014999,105.308334 131.145,105.185 C131.275001,105.061666 131.378333,104.920001 131.455,104.76 C131.531667,104.599999 131.583333,104.433334 131.61,104.26 L132.39,104.44 Z M138.41,103.78 C138.41,104.193335 138.341667,104.558332 138.205,104.875 C138.068333,105.191668 137.886668,105.458332 137.66,105.675 C137.433332,105.891668 137.168335,106.056666 136.865,106.17 C136.561665,106.283334 136.246668,106.34 135.92,106.34 C135.586665,106.34 135.270002,106.283334 134.97,106.17 C134.669998,106.056666 134.406668,105.891668 134.18,105.675 C133.953332,105.458332 133.771667,105.191668 133.635,104.875 C133.498333,104.558332 133.43,104.193335 133.43,103.78 L133.43,103.66 C133.43,103.253331 133.498333,102.891668 133.635,102.575 C133.771667,102.258332 133.954999,101.990001 134.185,101.77 C134.415001,101.549999 134.679999,101.383334 134.98,101.27 C135.280001,101.156666 135.593332,101.1 135.92,101.1 C136.246668,101.1 136.559999,101.156666 136.86,101.27 C137.160001,101.383334 137.424999,101.549999 137.655,101.77 C137.885001,101.990001 138.068333,102.258332 138.205,102.575 C138.341667,102.891668 138.41,103.253331 138.41,103.66 L138.41,103.78 Z M135.92,105.6 C136.160001,105.6 136.381666,105.558334 136.585,105.475 C136.788334,105.391666 136.966666,105.270001 137.12,105.11 C137.273334,104.949999 137.393333,104.758334 137.48,104.535 C137.566667,104.311666 137.61,104.060001 137.61,103.78 L137.61,103.66 C137.61,103.393332 137.566667,103.148334 137.48,102.925 C137.393333,102.701666 137.273334,102.510001 137.12,102.35 C136.966666,102.189999 136.786668,102.065 136.58,101.975 C136.373332,101.885 136.153334,101.84 135.92,101.84 C135.686666,101.84 135.466668,101.885 135.26,101.975 C135.053332,102.065 134.873334,102.189999 134.72,102.35 C134.566666,102.510001 134.446667,102.701666 134.36,102.925 C134.273333,103.148334 134.23,103.393332 134.23,103.66 L134.23,103.78 C134.23,104.060001 134.273333,104.311666 134.36,104.535 C134.446667,104.758334 134.566666,104.949999 134.72,105.11 C134.873334,105.270001 135.051666,105.391666 135.255,105.475 C135.458334,105.558334 135.679999,105.6 135.92,105.6 Z M143.25,101.24 L144.03,101.24 L144.03,106.2 L143.25,106.2 L143.25,105.3 L143.13,105.3 C142.969999,105.620002 142.760001,105.873332 142.5,106.06 C142.239999,106.246668 141.910002,106.34 141.51,106.34 C141.236665,106.34 140.985001,106.295 140.755,106.205 C140.524999,106.115 140.328334,105.980001 140.165,105.8 C140.001666,105.619999 139.875,105.396668 139.785,105.13 C139.695,104.863332 139.65,104.553335 139.65,104.2 L139.65,101.24 L140.43,101.24 L140.43,104.1 C140.43,104.620003 140.536666,104.999999 140.75,105.24 C140.963334,105.480001 141.289998,105.6 141.73,105.6 C142.203336,105.6 142.574999,105.438335 142.845,105.115 C143.115001,104.791665 143.25,104.360003 143.25,103.82 L143.25,101.24 Z M146.47,106.2 L145.69,106.2 L145.69,101.24 L146.47,101.24 L146.47,102.08 L146.59,102.08 C146.896668,101.426663 147.429996,101.1 148.19,101.1 C148.763336,101.1 149.219998,101.278332 149.56,101.635 C149.900002,101.991668 150.07,102.526663 150.07,103.24 L150.07,106.2 L149.29,106.2 L149.29,103.4 C149.29,102.879997 149.173335,102.490001 148.94,102.23 C148.706666,101.969999 148.390002,101.84 147.99,101.84 C147.516664,101.84 147.145001,102.001665 146.875,102.325 C146.604999,102.648335 146.47,103.079997 146.47,103.62 L146.47,106.2 Z M151.5,101.24 L153.06,101.24 L153.06,99.2 L153.84,99.2 L153.84,101.24 L155.76,101.24 L155.76,101.96 L153.84,101.96 L153.84,105.18 C153.84,105.380001 153.929999,105.48 154.11,105.48 L155.52,105.48 L155.52,106.2 L153.83,106.2 C153.603332,106.2 153.418334,106.126667 153.275,105.98 C153.131666,105.833333 153.06,105.646668 153.06,105.42 L153.06,101.96 L151.5,101.96 L151.5,101.24 Z M158.68,102.52 C158.68,102.760001 158.781666,102.943333 158.985,103.07 C159.188334,103.196667 159.559997,103.28 160.1,103.32 C160.680003,103.366667 161.121665,103.504999 161.425,103.735 C161.728335,103.965001 161.88,104.299998 161.88,104.74 L161.88,104.8 C161.88,105.040001 161.831667,105.254999 161.735,105.445 C161.638333,105.635001 161.505001,105.796666 161.335,105.93 C161.164999,106.063334 160.958335,106.165 160.715,106.235 C160.471665,106.305 160.206668,106.34 159.92,106.34 C159.533331,106.34 159.201668,106.288334 158.925,106.185 C158.648332,106.081666 158.418334,105.945001 158.235,105.775 C158.051666,105.604999 157.913334,105.411668 157.82,105.195 C157.726666,104.978332 157.673333,104.760001 157.66,104.54 L158.4,104.36 C158.433334,104.740002 158.579999,105.044999 158.84,105.275 C159.100001,105.505001 159.446664,105.62 159.88,105.62 C160.246669,105.62 160.541666,105.548334 160.765,105.405 C160.988334,105.261666 161.1,105.060001 161.1,104.8 C161.1,104.519999 160.990001,104.320001 160.77,104.2 C160.549999,104.079999 160.193336,104.003334 159.7,103.97 C159.126664,103.93 158.686668,103.796668 158.38,103.57 C158.073332,103.343332 157.92,103.013336 157.92,102.58 L157.92,102.52 C157.92,102.286666 157.97,102.081668 158.07,101.905 C158.170001,101.728332 158.304999,101.580001 158.475,101.46 C158.645001,101.339999 158.836666,101.25 159.05,101.19 C159.263334,101.13 159.486666,101.1 159.72,101.1 C160.046668,101.1 160.333332,101.145 160.58,101.235 C160.826668,101.325 161.033333,101.441666 161.2,101.585 C161.366668,101.728334 161.495,101.893332 161.585,102.08 C161.675,102.266668 161.733333,102.453332 161.76,102.64 L161.02,102.82 C160.986667,102.499998 160.858334,102.250001 160.635,102.07 C160.411666,101.889999 160.120002,101.8 159.76,101.8 C159.619999,101.8 159.485001,101.815 159.355,101.845 C159.224999,101.875 159.110001,101.92 159.01,101.98 C158.91,102.04 158.83,102.115 158.77,102.205 C158.71,102.295 158.68,102.399999 158.68,102.52 Z" id="bankAccounts" fill="#000000" opacity="0.5" mask="url(#mask-2)"></path>
                    <path d="M95.64,148.04 L95.52,148.04 C95.3599992,148.340002 95.141668,148.564999 94.865,148.715 C94.5883319,148.865001 94.2866683,148.94 93.96,148.94 C93.626665,148.94 93.3133348,148.883334 93.02,148.77 C92.7266652,148.656666 92.4683345,148.493334 92.245,148.28 C92.0216655,148.066666 91.8450007,147.801668 91.715,147.485 C91.5849994,147.168332 91.52,146.806669 91.52,146.4 L91.52,146.24 C91.52,145.839998 91.586666,145.481668 91.72,145.165 C91.853334,144.848332 92.0299989,144.581668 92.25,144.365 C92.4700011,144.148332 92.7266652,143.983334 93.02,143.87 C93.3133348,143.756666 93.6199984,143.7 93.94,143.7 C94.3000018,143.7 94.6149987,143.778333 94.885,143.935 C95.1550014,144.091667 95.3666659,144.319999 95.52,144.62 L95.64,144.62 L95.64,143.84 L96.42,143.84 L96.42,150.02 C96.42,150.246668 96.3483341,150.433333 96.205,150.58 C96.061666,150.726667 95.8766678,150.8 95.65,150.8 L92.42,150.8 L92.42,150.08 L95.37,150.08 C95.5500009,150.08 95.64,149.980001 95.64,149.78 L95.64,148.04 Z M93.98,148.2 C94.2133345,148.2 94.429999,148.156667 94.63,148.07 C94.830001,147.983333 95.0049992,147.860001 95.155,147.7 C95.3050008,147.539999 95.4233329,147.348334 95.51,147.125 C95.5966671,146.901666 95.64,146.653335 95.64,146.38 L95.64,146.26 C95.64,145.993332 95.5966671,145.748334 95.51,145.525 C95.4233329,145.301666 95.3050008,145.110001 95.155,144.95 C95.0049992,144.789999 94.8283344,144.665 94.625,144.575 C94.4216656,144.485 94.2066678,144.44 93.98,144.44 C93.7466655,144.44 93.5283343,144.483333 93.325,144.57 C93.1216656,144.656667 92.9450008,144.779999 92.795,144.94 C92.6449992,145.100001 92.5283338,145.289999 92.445,145.51 C92.3616662,145.730001 92.32,145.973332 92.32,146.24 L92.32,146.4 C92.32,146.680001 92.3616662,146.929999 92.445,147.15 C92.5283338,147.370001 92.6449992,147.558333 92.795,147.715 C92.9450008,147.871667 93.119999,147.991666 93.32,148.075 C93.520001,148.158334 93.7399988,148.2 93.98,148.2 Z M98.42,146.56 C98.4400001,147.053336 98.5933319,147.449999 98.88,147.75 C99.1666681,148.050002 99.5666641,148.2 100.08,148.2 C100.313334,148.2 100.516666,148.173334 100.69,148.12 C100.863334,148.066666 101.011666,147.993334 101.135,147.9 C101.258334,147.806666 101.358333,147.698334 101.435,147.575 C101.511667,147.451666 101.573333,147.320001 101.62,147.18 L102.36,147.38 C102.219999,147.840002 101.961669,148.214999 101.585,148.505 C101.208331,148.795001 100.700003,148.94 100.06,148.94 C99.7066649,148.94 99.3816681,148.878334 99.085,148.755 C98.7883319,148.631666 98.5333344,148.456668 98.32,148.23 C98.1066656,148.003332 97.9400006,147.733335 97.82,147.42 C97.6999994,147.106665 97.64,146.760002 97.64,146.38 L97.64,146.14 C97.64,145.793332 97.7016661,145.470002 97.825,145.17 C97.948334,144.869999 98.1199989,144.611668 98.34,144.395 C98.5600011,144.178332 98.8183318,144.008334 99.115,143.885 C99.4116681,143.761666 99.7333316,143.7 100.08,143.7 C100.486669,143.7 100.838332,143.774999 101.135,143.925 C101.431668,144.075001 101.674999,144.259999 101.865,144.48 C102.055001,144.700001 102.195,144.939999 102.285,145.2 C102.375,145.460001 102.42,145.699999 102.42,145.92 L102.42,146.56 L98.42,146.56 Z M100.08,144.44 C99.8599989,144.44 99.655001,144.475 99.465,144.545 C99.2749991,144.615 99.108334,144.713333 98.965,144.84 C98.8216659,144.966667 98.7050005,145.114999 98.615,145.285 C98.5249996,145.455001 98.4666668,145.639999 98.44,145.84 L101.64,145.84 C101.626667,145.626666 101.575,145.433334 101.485,145.26 C101.395,145.086666 101.278334,144.940001 101.135,144.82 C100.991666,144.699999 100.828334,144.606667 100.645,144.54 C100.461666,144.473333 100.273334,144.44 100.08,144.44 Z M103.66,143.84 L105.22,143.84 L105.22,141.8 L106,141.8 L106,143.84 L107.92,143.84 L107.92,144.56 L106,144.56 L106,147.78 C106,147.980001 106.089999,148.08 106.27,148.08 L107.68,148.08 L107.68,148.8 L105.99,148.8 C105.763332,148.8 105.578334,148.726667 105.435,148.58 C105.291666,148.433333 105.22,148.246668 105.22,148.02 L105.22,144.56 L103.66,144.56 L103.66,143.84 Z M110.63,145.92 L110.63,148.8 L109.79,148.8 L109.79,141.8 L112.29,141.8 C112.650002,141.8 112.963332,141.851666 113.23,141.955 C113.496668,142.058334 113.718332,142.196666 113.895,142.37 C114.071668,142.543334 114.205,142.744999 114.295,142.975 C114.385,143.205001 114.43,143.446665 114.43,143.7 L114.43,144 C114.43,144.253335 114.385,144.496666 114.295,144.73 C114.205,144.963335 114.070001,145.168332 113.89,145.345 C113.709999,145.521668 113.486668,145.661666 113.22,145.765 C112.953332,145.868334 112.643335,145.92 112.29,145.92 L110.63,145.92 Z M110.63,145.14 L112.19,145.14 C113.123338,145.14 113.59,144.740004 113.59,143.94 L113.59,143.76 C113.59,143.406665 113.475001,143.121668 113.245,142.905 C113.014999,142.688332 112.663336,142.58 112.19,142.58 L110.63,142.58 L110.63,145.14 Z M119.39,147.96 L119.27,147.96 C119.109999,148.293335 118.888335,148.539999 118.605,148.7 C118.321665,148.860001 118.023335,148.94 117.71,148.94 C117.383332,148.94 117.080001,148.885001 116.8,148.775 C116.519999,148.664999 116.275001,148.501668 116.065,148.285 C115.854999,148.068332 115.690001,147.803335 115.57,147.49 C115.449999,147.176665 115.39,146.813335 115.39,146.4 L115.39,146.24 C115.39,145.833331 115.449999,145.473335 115.57,145.16 C115.690001,144.846665 115.854999,144.581668 116.065,144.365 C116.275001,144.148332 116.519999,143.983334 116.8,143.87 C117.080001,143.756666 117.376665,143.7 117.69,143.7 C118.030002,143.7 118.338332,143.774999 118.615,143.925 C118.891668,144.075001 119.109999,144.306665 119.27,144.62 L119.39,144.62 L119.39,143.84 L120.17,143.84 L120.17,147.78 C120.17,147.980001 120.259999,148.08 120.44,148.08 L120.69,148.08 L120.69,148.8 L120.16,148.8 C119.933332,148.8 119.748334,148.726667 119.605,148.58 C119.461666,148.433333 119.39,148.246668 119.39,148.02 L119.39,147.96 Z M117.79,148.2 C118.023335,148.2 118.238332,148.156667 118.435,148.07 C118.631668,147.983333 118.799999,147.860001 118.94,147.7 C119.080001,147.539999 119.19,147.348334 119.27,147.125 C119.35,146.901666 119.39,146.653335 119.39,146.38 L119.39,146.26 C119.39,145.993332 119.35,145.748334 119.27,145.525 C119.19,145.301666 119.078334,145.110001 118.935,144.95 C118.791666,144.789999 118.621668,144.665 118.425,144.575 C118.228332,144.485 118.016668,144.44 117.79,144.44 C117.556666,144.44 117.343334,144.483333 117.15,144.57 C116.956666,144.656667 116.788334,144.778333 116.645,144.935 C116.501666,145.091667 116.39,145.281666 116.31,145.505 C116.23,145.728334 116.19,145.973332 116.19,146.24 L116.19,146.4 C116.19,146.96667 116.338332,147.408332 116.635,147.725 C116.931668,148.041668 117.316664,148.2 117.79,148.2 Z M123.31,142.36 C123.31,142.166666 123.378333,142.001667 123.515,141.865 C123.651667,141.728333 123.816666,141.66 124.01,141.66 C124.203334,141.66 124.368333,141.728333 124.505,141.865 C124.641667,142.001667 124.71,142.166666 124.71,142.36 C124.71,142.553334 124.641667,142.718333 124.505,142.855 C124.368333,142.991667 124.203334,143.06 124.01,143.06 C123.816666,143.06 123.651667,142.991667 123.515,142.855 C123.378333,142.718333 123.31,142.553334 123.31,142.36 Z M121.89,148.08 L123.63,148.08 L123.63,144.56 L122.07,144.56 L122.07,143.84 L124.41,143.84 L124.41,148.08 L126.03,148.08 L126.03,148.8 L121.89,148.8 L121.89,148.08 Z M131.59,148.04 L131.47,148.04 C131.39,148.193334 131.288334,148.326666 131.165,148.44 C131.041666,148.553334 130.908334,148.646666 130.765,148.72 C130.621666,148.793334 130.470001,148.848333 130.31,148.885 C130.149999,148.921667 129.996667,148.94 129.85,148.94 C129.516665,148.94 129.206668,148.883334 128.92,148.77 C128.633332,148.656666 128.381668,148.493334 128.165,148.28 C127.948332,148.066666 127.778334,147.801668 127.655,147.485 C127.531666,147.168332 127.47,146.806669 127.47,146.4 L127.47,146.24 C127.47,145.839998 127.533333,145.481668 127.66,145.165 C127.786667,144.848332 127.956666,144.581668 128.17,144.365 C128.383334,144.148332 128.633332,143.983334 128.92,143.87 C129.206668,143.756666 129.509998,143.7 129.83,143.7 C130.170002,143.7 130.488332,143.774999 130.785,143.925 C131.081668,144.075001 131.309999,144.306665 131.47,144.62 L131.59,144.62 L131.59,141.8 L132.37,141.8 L132.37,148.8 L131.59,148.8 L131.59,148.04 Z M129.93,148.2 C130.163334,148.2 130.379999,148.156667 130.58,148.07 C130.780001,147.983333 130.954999,147.860001 131.105,147.7 C131.255001,147.539999 131.373333,147.348334 131.46,147.125 C131.546667,146.901666 131.59,146.653335 131.59,146.38 L131.59,146.26 C131.59,145.993332 131.546667,145.748334 131.46,145.525 C131.373333,145.301666 131.255001,145.110001 131.105,144.95 C130.954999,144.789999 130.778334,144.665 130.575,144.575 C130.371666,144.485 130.156668,144.44 129.93,144.44 C129.696665,144.44 129.478334,144.483333 129.275,144.57 C129.071666,144.656667 128.895001,144.779999 128.745,144.94 C128.594999,145.100001 128.478334,145.289999 128.395,145.51 C128.311666,145.730001 128.27,145.973332 128.27,146.24 L128.27,146.4 C128.27,146.680001 128.311666,146.929999 128.395,147.15 C128.478334,147.370001 128.594999,147.558333 128.745,147.715 C128.895001,147.871667 129.069999,147.991666 129.27,148.075 C129.470001,148.158334 129.689999,148.2 129.93,148.2 Z M138.32,149.62 L138.32,150.36 L137.96,150.36 C137.493331,150.36 137.046669,150.273334 136.62,150.1 C136.193331,149.926666 135.816668,149.675002 135.49,149.345 C135.163332,149.014998 134.903334,148.616669 134.71,148.15 C134.516666,147.683331 134.42,147.153336 134.42,146.56 L134.42,144.04 C134.42,143.45333 134.516666,142.925002 134.71,142.455 C134.903334,141.984998 135.163332,141.585002 135.49,141.255 C135.816668,140.924998 136.193331,140.673334 136.62,140.5 C137.046669,140.326666 137.493331,140.24 137.96,140.24 L138.32,140.24 L138.32,140.98 L137.96,140.98 C137.599998,140.98 137.253335,141.051666 136.92,141.195 C136.586665,141.338334 136.293335,141.543332 136.04,141.81 C135.786665,142.076668 135.583334,142.401665 135.43,142.785 C135.276666,143.168335 135.2,143.599998 135.2,144.08 L135.2,146.52 C135.2,147.000002 135.276666,147.431665 135.43,147.815 C135.583334,148.198335 135.786665,148.523332 136.04,148.79 C136.293335,149.056668 136.586665,149.261666 136.92,149.405 C137.253335,149.548334 137.599998,149.62 137.96,149.62 L138.32,149.62 Z M139.86,149.62 C140.220002,149.62 140.566665,149.548334 140.9,149.405 C141.233335,149.261666 141.526665,149.056668 141.78,148.79 C142.033335,148.523332 142.236666,148.198335 142.39,147.815 C142.543334,147.431665 142.62,147.000002 142.62,146.52 L142.62,144.08 C142.62,143.599998 142.543334,143.168335 142.39,142.785 C142.236666,142.401665 142.033335,142.076668 141.78,141.81 C141.526665,141.543332 141.233335,141.338334 140.9,141.195 C140.566665,141.051666 140.220002,140.98 139.86,140.98 L139.5,140.98 L139.5,140.24 L139.86,140.24 C140.326669,140.24 140.773331,140.326666 141.2,140.5 C141.626669,140.673334 142.003332,140.924998 142.33,141.255 C142.656668,141.585002 142.916666,141.984998 143.11,142.455 C143.303334,142.925002 143.4,143.45333 143.4,144.04 L143.4,146.56 C143.4,147.153336 143.303334,147.683331 143.11,148.15 C142.916666,148.616669 142.656668,149.014998 142.33,149.345 C142.003332,149.675002 141.626669,149.926666 141.2,150.1 C140.773331,150.273334 140.326669,150.36 139.86,150.36 L139.5,150.36 L139.5,149.62 L139.86,149.62 Z" id="getPaid()" fill="#000000" opacity="0.5" mask="url(#mask-2)"></path>
                    <path d="M92.47,171.6 L91.69,171.6 L91.69,164.64 L92.47,164.64 L92.47,165.42 L92.59,165.42 C92.7633342,165.119999 93.0033318,164.891667 93.31,164.735 C93.6166682,164.578333 93.9499982,164.5 94.31,164.5 C94.6166682,164.5 94.9066653,164.556666 95.18,164.67 C95.4533347,164.783334 95.6949989,164.946666 95.905,165.16 C96.1150011,165.373334 96.281666,165.636665 96.405,165.95 C96.528334,166.263335 96.59,166.619998 96.59,167.02 L96.59,167.22 C96.59,167.626669 96.5300006,167.986665 96.41,168.3 C96.2899994,168.613335 96.125001,168.876666 95.915,169.09 C95.704999,169.303334 95.4600014,169.464999 95.18,169.575 C94.8999986,169.685001 94.6033349,169.74 94.29,169.74 C94.1299992,169.74 93.9666675,169.721667 93.8,169.685 C93.6333325,169.648333 93.4750008,169.591667 93.325,169.515 C93.1749992,169.438333 93.0366673,169.345001 92.91,169.235 C92.7833327,169.124999 92.6766671,168.993334 92.59,168.84 L92.47,168.84 L92.47,171.6 Z M94.13,169 C94.3700012,169 94.589999,168.958334 94.79,168.875 C94.990001,168.791666 95.1649992,168.673334 95.315,168.52 C95.4650008,168.366666 95.5816662,168.180001 95.665,167.96 C95.7483338,167.739999 95.79,167.493335 95.79,167.22 L95.79,167.02 C95.79,166.753332 95.7483338,166.511668 95.665,166.295 C95.5816662,166.078332 95.4650008,165.891667 95.315,165.735 C95.1649992,165.578333 94.9883344,165.456667 94.785,165.37 C94.5816657,165.283333 94.3633345,165.24 94.13,165.24 C93.8966655,165.24 93.680001,165.285 93.48,165.375 C93.279999,165.465 93.1050008,165.589999 92.955,165.75 C92.8049992,165.910001 92.6866671,166.101666 92.6,166.325 C92.5133329,166.548334 92.47,166.793332 92.47,167.06 L92.47,167.18 C92.47,167.453335 92.5133329,167.701666 92.6,167.925 C92.6866671,168.148334 92.8049992,168.339999 92.955,168.5 C93.1050008,168.660001 93.279999,168.783333 93.48,168.87 C93.680001,168.956667 93.8966655,169 94.13,169 Z M101.45,168.76 L101.33,168.76 C101.169999,169.093335 100.948335,169.339999 100.665,169.5 C100.381665,169.660001 100.083335,169.74 99.77,169.74 C99.4433317,169.74 99.1400014,169.685001 98.86,169.575 C98.5799986,169.464999 98.3350011,169.301668 98.125,169.085 C97.9149989,168.868332 97.7500006,168.603335 97.63,168.29 C97.5099994,167.976665 97.45,167.613335 97.45,167.2 L97.45,167.04 C97.45,166.633331 97.5099994,166.273335 97.63,165.96 C97.7500006,165.646665 97.9149989,165.381668 98.125,165.165 C98.3350011,164.948332 98.5799986,164.783334 98.86,164.67 C99.1400014,164.556666 99.4366651,164.5 99.75,164.5 C100.090002,164.5 100.398332,164.574999 100.675,164.725 C100.951668,164.875001 101.169999,165.106665 101.33,165.42 L101.45,165.42 L101.45,164.64 L102.23,164.64 L102.23,168.58 C102.23,168.780001 102.319999,168.88 102.5,168.88 L102.75,168.88 L102.75,169.6 L102.22,169.6 C101.993332,169.6 101.808334,169.526667 101.665,169.38 C101.521666,169.233333 101.45,169.046668 101.45,168.82 L101.45,168.76 Z M99.85,169 C100.083335,169 100.298332,168.956667 100.495,168.87 C100.691668,168.783333 100.859999,168.660001 101,168.5 C101.140001,168.339999 101.25,168.148334 101.33,167.925 C101.41,167.701666 101.45,167.453335 101.45,167.18 L101.45,167.06 C101.45,166.793332 101.41,166.548334 101.33,166.325 C101.25,166.101666 101.138334,165.910001 100.995,165.75 C100.851666,165.589999 100.681668,165.465 100.485,165.375 C100.288332,165.285 100.076668,165.24 99.85,165.24 C99.6166655,165.24 99.4033343,165.283333 99.21,165.37 C99.0166657,165.456667 98.8483341,165.578333 98.705,165.735 C98.561666,165.891667 98.4500004,166.081666 98.37,166.305 C98.2899996,166.528334 98.25,166.773332 98.25,167.04 L98.25,167.2 C98.25,167.76667 98.3983319,168.208332 98.695,168.525 C98.9916681,168.841668 99.3766643,169 99.85,169 Z M107.43,168.7 L107.31,168.7 C107.149999,169.020002 106.940001,169.273332 106.68,169.46 C106.419999,169.646668 106.090002,169.74 105.69,169.74 C105.416665,169.74 105.165001,169.695 104.935,169.605 C104.704999,169.515 104.508334,169.380001 104.345,169.2 C104.181666,169.019999 104.055,168.796668 103.965,168.53 C103.875,168.263332 103.83,167.953335 103.83,167.6 L103.83,164.64 L104.61,164.64 L104.61,167.5 C104.61,168.020003 104.716666,168.399999 104.93,168.64 C105.143334,168.880001 105.469998,169 105.91,169 C106.383336,169 106.754999,168.838335 107.025,168.515 C107.295001,168.191665 107.43,167.760003 107.43,167.22 L107.43,164.64 L108.21,164.64 L108.21,170.82 C108.21,171.046668 108.138334,171.233333 107.995,171.38 C107.851666,171.526667 107.666668,171.6 107.44,171.6 L104.61,171.6 L104.61,170.88 L107.16,170.88 C107.340001,170.88 107.43,170.780001 107.43,170.58 L107.43,168.7 Z M114.19,169.6 L113.35,169.6 L113.35,167.26 C113.35,167.086666 113.31,166.953334 113.23,166.86 C113.15,166.766666 113.010001,166.72 112.81,166.72 L110.63,166.72 L110.63,169.6 L109.79,169.6 L109.79,162.6 L112.29,162.6 C112.650002,162.6 112.963332,162.651666 113.23,162.755 C113.496668,162.858334 113.718332,162.996666 113.895,163.17 C114.071668,163.343334 114.205,163.544999 114.295,163.775 C114.385,164.005001 114.43,164.246665 114.43,164.5 L114.43,164.8 C114.43,165.060001 114.358334,165.319999 114.215,165.58 C114.071666,165.840001 113.850001,166.039999 113.55,166.18 L113.55,166.3 C113.750001,166.333333 113.906666,166.413333 114.02,166.54 C114.133334,166.666667 114.19,166.846666 114.19,167.08 L114.19,169.6 Z M110.63,165.94 L112.19,165.94 C112.663336,165.94 113.014999,165.838334 113.245,165.635 C113.475001,165.431666 113.59,165.133335 113.59,164.74 L113.59,164.56 C113.59,164.206665 113.475001,163.921668 113.245,163.705 C113.014999,163.488332 112.663336,163.38 112.19,163.38 L110.63,163.38 L110.63,165.94 Z M116.36,167.36 C116.38,167.853336 116.533332,168.249999 116.82,168.55 C117.106668,168.850001 117.506664,169 118.02,169 C118.253334,169 118.456666,168.973334 118.63,168.92 C118.803334,168.866666 118.951666,168.793334 119.075,168.7 C119.198334,168.606666 119.298333,168.498334 119.375,168.375 C119.451667,168.251666 119.513333,168.120001 119.56,167.98 L120.3,168.18 C120.159999,168.640002 119.901669,169.014999 119.525,169.305 C119.148331,169.595001 118.640003,169.74 118,169.74 C117.646665,169.74 117.321668,169.678334 117.025,169.555 C116.728332,169.431666 116.473334,169.256668 116.26,169.03 C116.046666,168.803332 115.880001,168.533335 115.76,168.22 C115.639999,167.906665 115.58,167.560002 115.58,167.18 L115.58,166.94 C115.58,166.593332 115.641666,166.270002 115.765,165.97 C115.888334,165.669998 116.059999,165.411668 116.28,165.195 C116.500001,164.978332 116.758332,164.808334 117.055,164.685 C117.351668,164.561666 117.673332,164.5 118.02,164.5 C118.426669,164.5 118.778332,164.574999 119.075,164.725 C119.371668,164.875001 119.614999,165.059999 119.805,165.28 C119.995001,165.500001 120.135,165.739999 120.225,166 C120.315,166.260001 120.36,166.499999 120.36,166.72 L120.36,167.36 L116.36,167.36 Z M118.02,165.24 C117.799999,165.24 117.595001,165.275 117.405,165.345 C117.214999,165.415 117.048334,165.513333 116.905,165.64 C116.761666,165.766667 116.645,165.914999 116.555,166.085 C116.465,166.255001 116.406667,166.439999 116.38,166.64 L119.58,166.64 C119.566667,166.426666 119.515,166.233334 119.425,166.06 C119.335,165.886666 119.218334,165.740001 119.075,165.62 C118.931666,165.499999 118.768334,165.406667 118.585,165.34 C118.401666,165.273333 118.213334,165.24 118.02,165.24 Z M122.55,169.6 L121.77,169.6 L121.77,164.64 L122.55,164.64 L122.55,165.48 L122.67,165.48 C122.976668,164.826663 123.509996,164.5 124.27,164.5 C124.843336,164.5 125.299998,164.678332 125.64,165.035 C125.980002,165.391668 126.15,165.926663 126.15,166.64 L126.15,169.6 L125.37,169.6 L125.37,166.8 C125.37,166.279997 125.253334,165.890001 125.02,165.63 C124.786665,165.369999 124.470002,165.24 124.07,165.24 C123.596664,165.24 123.225001,165.401665 122.955,165.725 C122.684999,166.048335 122.55,166.479997 122.55,167.02 L122.55,169.6 Z M127.58,164.64 L129.14,164.64 L129.14,162.6 L129.92,162.6 L129.92,164.64 L131.84,164.64 L131.84,165.36 L129.92,165.36 L129.92,168.58 C129.92,168.780001 130.009999,168.88 130.19,168.88 L131.6,168.88 L131.6,169.6 L129.91,169.6 C129.683332,169.6 129.498334,169.526667 129.355,169.38 C129.211666,169.233333 129.14,169.046668 129.14,168.82 L129.14,165.36 L127.58,165.36 L127.58,164.64 Z M138.32,170.42 L138.32,171.16 L137.96,171.16 C137.493331,171.16 137.046669,171.073334 136.62,170.9 C136.193331,170.726666 135.816668,170.475002 135.49,170.145 C135.163332,169.814998 134.903334,169.416669 134.71,168.95 C134.516666,168.483331 134.42,167.953336 134.42,167.36 L134.42,164.84 C134.42,164.25333 134.516666,163.725002 134.71,163.255 C134.903334,162.784998 135.163332,162.385002 135.49,162.055 C135.816668,161.724998 136.193331,161.473334 136.62,161.3 C137.046669,161.126666 137.493331,161.04 137.96,161.04 L138.32,161.04 L138.32,161.78 L137.96,161.78 C137.599998,161.78 137.253335,161.851666 136.92,161.995 C136.586665,162.138334 136.293335,162.343332 136.04,162.61 C135.786665,162.876668 135.583334,163.201665 135.43,163.585 C135.276666,163.968335 135.2,164.399998 135.2,164.88 L135.2,167.32 C135.2,167.800002 135.276666,168.231665 135.43,168.615 C135.583334,168.998335 135.786665,169.323332 136.04,169.59 C136.293335,169.856668 136.586665,170.061666 136.92,170.205 C137.253335,170.348334 137.599998,170.42 137.96,170.42 L138.32,170.42 Z M139.86,170.42 C140.220002,170.42 140.566665,170.348334 140.9,170.205 C141.233335,170.061666 141.526665,169.856668 141.78,169.59 C142.033335,169.323332 142.236666,168.998335 142.39,168.615 C142.543334,168.231665 142.62,167.800002 142.62,167.32 L142.62,164.88 C142.62,164.399998 142.543334,163.968335 142.39,163.585 C142.236666,163.201665 142.033335,162.876668 141.78,162.61 C141.526665,162.343332 141.233335,162.138334 140.9,161.995 C140.566665,161.851666 140.220002,161.78 139.86,161.78 L139.5,161.78 L139.5,161.04 L139.86,161.04 C140.326669,161.04 140.773331,161.126666 141.2,161.3 C141.626669,161.473334 142.003332,161.724998 142.33,162.055 C142.656668,162.385002 142.916666,162.784998 143.11,163.255 C143.303334,163.725002 143.4,164.25333 143.4,164.84 L143.4,167.36 C143.4,167.953336 143.303334,168.483331 143.11,168.95 C142.916666,169.416669 142.656668,169.814998 142.33,170.145 C142.003332,170.475002 141.626669,170.726666 141.2,170.9 C140.773331,171.073334 140.326669,171.16 139.86,171.16 L139.5,171.16 L139.5,170.42 L139.86,170.42 Z" id="payRent()" fill="#000000" opacity="0.5" mask="url(#mask-2)"></path>
                    <path d="M91.9,87.4 L91.9,78.856 L92.98,78.856 L92.98,86.356 L97.66,86.356 L97.66,87.4 L91.9,87.4 Z M99.296,81.016 C98.912,81.016 98.612,80.704 98.612,80.332 C98.612,79.96 98.912,79.66 99.296,79.66 C99.668,79.66 99.968,79.96 99.968,80.332 C99.968,80.704 99.668,81.016 99.296,81.016 Z M98.78,87.4 L98.78,81.904 L99.812,81.904 L99.812,87.4 L98.78,87.4 Z M106.02,82.564 C106.512,83.068 106.788,83.728 106.788,84.448 L106.788,87.4 L105.756,87.4 L105.756,84.448 C105.756,83.548 105.036,82.804 104.136,82.804 C103.248,82.804 102.516,83.548 102.516,84.448 L102.516,87.4 L101.484,87.4 L101.484,81.904 L102.516,81.904 L102.516,82.432 C102.984,82.072 103.548,81.796 104.136,81.796 C104.844,81.796 105.516,82.06 106.02,82.564 Z M110.512,83.896 L113.056,87.4 L111.748,87.4 L109.732,84.616 L108.784,85.504 L108.784,87.4 L107.752,87.4 L107.752,78.592 L108.784,78.592 L108.784,84.124 L111.172,81.904 L112.648,81.904 L110.512,83.896 Z M117.332,84.94 C117.5,85.18 117.584,85.468 117.584,85.78 C117.584,86.092 117.5,86.392 117.32,86.644 C117.152,86.896 116.912,87.088 116.588,87.244 C116.3,87.376 115.952,87.448 115.604,87.448 C115.412,87.448 115.232,87.424 115.04,87.388 C114.44,87.268 113.876,87.004 113.396,86.596 L114.044,85.888 C114.68,86.428 115.22,86.536 115.556,86.536 C115.784,86.536 116,86.488 116.192,86.404 C116.348,86.332 116.624,86.152 116.624,85.78 C116.624,85.408 116.3,85.18 115.556,85.048 C115.52,85.036 114.608,84.868 114.272,84.676 C113.768,84.388 113.504,83.944 113.504,83.392 C113.504,83.092 113.6,82.804 113.768,82.552 C113.924,82.336 114.14,82.168 114.452,82.024 C114.74,81.892 115.052,81.82 115.4,81.82 C115.532,81.82 115.676,81.832 115.808,81.844 C116.336,81.928 116.852,82.156 117.284,82.504 L116.684,83.2 C116.144,82.78 115.676,82.72 115.448,82.72 C115.232,82.72 115.028,82.756 114.86,82.84 C114.62,82.96 114.464,83.176 114.464,83.392 C114.464,83.752 114.752,83.944 115.484,84.1 C115.496,84.1 116.48,84.316 116.756,84.472 C117.08,84.64 117.2,84.772 117.332,84.94 Z" id="Links" fill="#3A3941" mask="url(#mask-2)"></path>
                    <path d="M91.78,130 L91.78,121.456 L94.852,121.456 C95.392,121.456 95.908,121.672 96.28,122.056 C96.664,122.428 96.88,122.944 96.88,123.484 C96.88,123.904 96.76,124.3 96.52,124.636 L96.508,124.648 L96.52,124.66 C96.856,124.792 97.168,124.996 97.42,125.26 C97.948,125.776 98.236,126.472 98.236,127.216 C98.236,127.948 97.948,128.644 97.42,129.172 C96.904,129.688 96.208,130 95.476,130 L91.78,130 Z M92.848,128.956 L95.476,128.956 C96.412,128.932 97.168,128.14 97.168,127.216 C97.168,126.28 96.412,125.512 95.476,125.5 L92.848,125.5 L92.848,128.956 Z M92.848,124.456 L94.852,124.456 C95.38,124.444 95.812,124.012 95.812,123.484 C95.812,122.956 95.392,122.524 94.852,122.5 L92.848,122.5 L92.848,124.456 Z M104.036,126.628 C104.12,127.12 104.108,127.396 104.096,127.504 L99.86,127.504 L99.86,127.528 C99.98,128.44 100.664,129.124 101.456,129.136 C101.948,129.112 102.452,128.908 102.8,128.56 L103.664,129.076 C103.448,129.316 103.208,129.52 102.932,129.688 C102.512,129.94 101.996,130.072 101.48,130.096 C100.76,130.096 100.1,129.796 99.62,129.256 C99.188,128.788 98.924,128.188 98.876,127.528 C98.864,127.444 98.864,127.36 98.864,127.276 C98.864,127.06 98.888,126.844 98.936,126.628 C99.044,126.124 99.284,125.668 99.62,125.296 C100.1,124.768 100.772,124.468 101.48,124.468 C102.2,124.468 102.86,124.768 103.352,125.296 C103.688,125.668 103.94,126.124 104.036,126.628 Z M99.944,126.64 L103.016,126.64 L103.004,126.616 C102.764,125.908 102.152,125.428 101.48,125.428 C100.82,125.428 100.208,125.908 99.956,126.616 L99.944,126.64 Z M109.416,125.164 C109.908,125.668 110.184,126.328 110.184,127.048 L110.184,130 L109.152,130 L109.152,127.048 C109.152,126.148 108.432,125.404 107.532,125.404 C106.644,125.404 105.912,126.148 105.912,127.048 L105.912,130 L104.88,130 L104.88,121.192 L105.912,121.192 L105.912,125.032 C106.38,124.672 106.944,124.396 107.532,124.396 C108.24,124.396 108.912,124.66 109.416,125.164 Z M115.708,125.14 L115.708,124.504 L116.74,124.504 L116.74,130 L115.708,130 L115.708,129.364 C115.192,129.796 114.544,130.12 113.86,130.12 C113.092,130.12 112.372,129.832 111.82,129.292 C111.28,128.74 110.98,128.02 110.98,127.252 C110.98,126.484 111.28,125.764 111.82,125.212 C112.372,124.672 113.092,124.384 113.86,124.384 C114.544,124.384 115.192,124.708 115.708,125.14 Z M113.86,129.112 C114.88,129.112 115.708,128.272 115.708,127.252 C115.708,126.232 114.88,125.392 113.86,125.392 C112.84,125.392 112.012,126.232 112.012,127.252 C112.012,128.272 112.84,129.112 113.86,129.112 Z M121.868,124.504 L122.984,124.504 L120.752,130 L119.636,130 L117.404,124.504 L118.52,124.504 L120.2,128.632 L121.868,124.504 Z M124.44,123.616 C124.056,123.616 123.756,123.304 123.756,122.932 C123.756,122.56 124.056,122.26 124.44,122.26 C124.812,122.26 125.112,122.56 125.112,122.932 C125.112,123.304 124.812,123.616 124.44,123.616 Z M123.924,130 L123.924,124.504 L124.956,124.504 L124.956,130 L123.924,130 Z M131.056,125.212 C131.608,125.764 131.908,126.484 131.908,127.252 C131.908,128.02 131.608,128.74 131.056,129.292 C130.516,129.832 129.796,130.132 129.028,130.132 C128.26,130.132 127.54,129.832 126.988,129.292 C126.448,128.74 126.148,128.02 126.148,127.252 C126.148,126.484 126.448,125.764 126.988,125.212 C127.54,124.672 128.26,124.384 129.028,124.384 C129.796,124.384 130.516,124.672 131.056,125.212 Z M129.028,129.1 C130.048,129.1 130.876,128.272 130.876,127.252 C130.876,126.232 130.048,125.416 129.028,125.416 C128.008,125.416 127.18,126.232 127.18,127.252 C127.18,128.272 128.008,129.1 129.028,129.1 Z M133.628,129.412 C133.148,128.944 132.884,128.32 132.884,127.648 L132.884,124.504 L133.916,124.504 L133.916,127.648 C133.916,128.452 134.588,129.112 135.428,129.112 C136.256,129.112 136.94,128.452 136.94,127.648 L136.94,124.504 L137.972,124.504 L137.972,127.648 C137.972,128.32 137.696,128.944 137.216,129.412 C136.736,129.88 136.1,130.12 135.428,130.12 C134.744,130.12 134.108,129.88 133.628,129.412 Z M140.34,124.504 L140.34,125.068 C140.688,124.684 141.708,124.384 142.344,124.384 L142.092,125.416 C141.132,125.416 140.34,126.148 140.34,127.072 L140.34,130 L139.308,130 L139.308,124.504 L140.34,124.504 Z M146.68,127.54 C146.848,127.78 146.932,128.068 146.932,128.38 C146.932,128.692 146.848,128.992 146.668,129.244 C146.5,129.496 146.26,129.688 145.936,129.844 C145.648,129.976 145.3,130.048 144.952,130.048 C144.76,130.048 144.58,130.024 144.388,129.988 C143.788,129.868 143.224,129.604 142.744,129.196 L143.392,128.488 C144.028,129.028 144.568,129.136 144.904,129.136 C145.132,129.136 145.348,129.088 145.54,129.004 C145.696,128.932 145.972,128.752 145.972,128.38 C145.972,128.008 145.648,127.78 144.904,127.648 C144.868,127.636 143.956,127.468 143.62,127.276 C143.116,126.988 142.852,126.544 142.852,125.992 C142.852,125.692 142.948,125.404 143.116,125.152 C143.272,124.936 143.488,124.768 143.8,124.624 C144.088,124.492 144.4,124.42 144.748,124.42 C144.88,124.42 145.024,124.432 145.156,124.444 C145.684,124.528 146.2,124.756 146.632,125.104 L146.032,125.8 C145.492,125.38 145.024,125.32 144.796,125.32 C144.58,125.32 144.376,125.356 144.208,125.44 C143.968,125.56 143.812,125.776 143.812,125.992 C143.812,126.352 144.1,126.544 144.832,126.7 C144.844,126.7 145.828,126.916 146.104,127.072 C146.428,127.24 146.548,127.372 146.68,127.54 Z" id="Behaviours" fill="#3A3941" mask="url(#mask-2)"></path>
                </g>
                <path d="M4.328,205.6 L9.416,205.6 L9.416,206.536 L5.336,206.536 L5.336,209.32 L9.344,209.32 L9.344,210.256 L5.336,210.256 L5.336,213.064 L9.488,213.064 L9.488,214 L4.328,214 L4.328,205.6 Z M12.224,205.6 L14.108,209.32 L14.324,209.32 L16.208,205.6 L17.312,205.6 L15.212,209.716 L15.212,209.86 L17.312,214 L16.208,214 L14.324,210.256 L14.108,210.256 L12.224,214 L11.12,214 L13.22,209.86 L13.22,209.716 L11.12,205.6 L12.224,205.6 Z M23.36,211.912 L19.76,211.912 L19.148,214 L18.068,214 L20.612,205.6 L22.508,205.6 L25.052,214 L23.972,214 L23.36,211.912 Z M21.488,206.032 L20.036,210.976 L23.084,210.976 L21.632,206.032 L21.488,206.032 Z M25.784,205.6 L27.704,205.6 L28.832,213.568 L28.976,213.568 L30.104,205.6 L32.024,205.6 L32.024,214 L31.088,214 L31.088,206.032 L30.944,206.032 L29.816,214 L27.992,214 L26.864,206.032 L26.72,206.032 L26.72,214 L25.784,214 L25.784,205.6 Z M34.604,210.544 L34.604,214 L33.596,214 L33.596,205.6 L36.596,205.6 C37.0280022,205.6 37.4039984,205.661999 37.724,205.786 C38.0440016,205.910001 38.3099989,206.075999 38.522,206.284 C38.7340011,206.492001 38.8939995,206.733999 39.002,207.01 C39.1100005,207.286001 39.164,207.575998 39.164,207.88 L39.164,208.24 C39.164,208.544002 39.1100005,208.835999 39.002,209.116 C38.8939995,209.396001 38.7320011,209.641999 38.516,209.854 C38.2999989,210.066001 38.0320016,210.233999 37.712,210.358 C37.3919984,210.482001 37.0200021,210.544 36.596,210.544 L34.604,210.544 Z M34.604,209.608 L36.476,209.608 C37.5960056,209.608 38.156,209.128005 38.156,208.168 L38.156,207.952 C38.156,207.527998 38.0180014,207.186001 37.742,206.926 C37.4659986,206.665999 37.0440028,206.536 36.476,206.536 L34.604,206.536 L34.604,209.608 Z M40.964,205.6 L41.972,205.6 L41.972,213.064 L46.364,213.064 L46.364,214 L40.964,214 L40.964,205.6 Z M48.392,205.6 L53.48,205.6 L53.48,206.536 L49.4,206.536 L49.4,209.32 L53.408,209.32 L53.408,210.256 L49.4,210.256 L49.4,213.064 L53.552,213.064 L53.552,214 L48.392,214 L48.392,205.6 Z M62.672,208.864 C62.672,207.775995 62.9319974,206.932003 63.452,206.332 C63.9720026,205.731997 64.6959954,205.432 65.624,205.432 C66.5520046,205.432 67.2759974,205.731997 67.796,206.332 C68.3160026,206.932003 68.576,207.775995 68.576,208.864 L68.576,210.736 C68.576,211.856006 68.3160026,212.707997 67.796,213.292 C67.2759974,213.876003 66.5520046,214.168 65.624,214.168 C64.6959954,214.168 63.9720026,213.876003 63.452,213.292 C62.9319974,212.707997 62.672,211.856006 62.672,210.736 L62.672,208.864 Z M65.624,213.232 C66.2720032,213.232 66.7579984,213.010002 67.082,212.566 C67.4060016,212.121998 67.568,211.488004 67.568,210.664 L67.568,208.936 C67.568,208.167996 67.4060016,207.548002 67.082,207.076 C66.7579984,206.603998 66.2720032,206.368 65.624,206.368 C64.9759968,206.368 64.4900016,206.603998 64.166,207.076 C63.8419984,207.548002 63.68,208.167996 63.68,208.936 L63.68,210.664 C63.68,211.488004 63.8419984,212.121998 64.166,212.566 C64.4900016,213.010002 64.9759968,213.232 65.624,213.232 Z M70.436,205.6 L75.596,205.6 L75.596,206.536 L71.444,206.536 L71.444,209.32 L75.524,209.32 L75.524,210.256 L71.444,210.256 L71.444,214 L70.436,214 L70.436,205.6 Z M89.456,211.912 L85.856,211.912 L85.244,214 L84.164,214 L86.708,205.6 L88.604,205.6 L91.148,214 L90.068,214 L89.456,211.912 Z M87.584,206.032 L86.132,210.976 L89.18,210.976 L87.728,206.032 L87.584,206.032 Z M100.7,210.544 L100.7,214 L99.692,214 L99.692,205.6 L102.692,205.6 C103.124002,205.6 103.499998,205.661999 103.82,205.786 C104.140002,205.910001 104.405999,206.075999 104.618,206.284 C104.830001,206.492001 104.989999,206.733999 105.098,207.01 C105.206001,207.286001 105.26,207.575998 105.26,207.88 L105.26,208.24 C105.26,208.544002 105.206001,208.835999 105.098,209.116 C104.989999,209.396001 104.828001,209.641999 104.612,209.854 C104.395999,210.066001 104.128002,210.233999 103.808,210.358 C103.487998,210.482001 103.116002,210.544 102.692,210.544 L100.7,210.544 Z M100.7,209.608 L102.572,209.608 C103.692006,209.608 104.252,209.128005 104.252,208.168 L104.252,207.952 C104.252,207.527998 104.114001,207.186001 103.838,206.926 C103.561999,206.665999 103.140003,206.536 102.572,206.536 L100.7,206.536 L100.7,209.608 Z M107.144,205.6 L112.232,205.6 L112.232,206.536 L108.152,206.536 L108.152,209.32 L112.16,209.32 L112.16,210.256 L108.152,210.256 L108.152,213.064 L112.304,213.064 L112.304,214 L107.144,214 L107.144,205.6 Z M119.66,214 L118.652,214 L118.652,211.192 C118.652,210.983999 118.604,210.824001 118.508,210.712 C118.412,210.599999 118.244001,210.544 118.004,210.544 L115.388,210.544 L115.388,214 L114.38,214 L114.38,205.6 L117.38,205.6 C117.812002,205.6 118.187998,205.661999 118.508,205.786 C118.828002,205.910001 119.093999,206.075999 119.306,206.284 C119.518001,206.492001 119.677999,206.733999 119.786,207.01 C119.894001,207.286001 119.948,207.575998 119.948,207.88 L119.948,208.24 C119.948,208.552002 119.862001,208.863998 119.69,209.176 C119.517999,209.488002 119.252002,209.727999 118.892,209.896 L118.892,210.04 C119.132001,210.08 119.319999,210.175999 119.456,210.328 C119.592001,210.480001 119.66,210.695999 119.66,210.976 L119.66,214 Z M115.388,209.608 L117.26,209.608 C117.828003,209.608 118.249999,209.486001 118.526,209.242 C118.802001,208.997999 118.94,208.640002 118.94,208.168 L118.94,207.952 C118.94,207.527998 118.802001,207.186001 118.526,206.926 C118.249999,206.665999 117.828003,206.536 117.26,206.536 L115.388,206.536 L115.388,209.608 Z M126.356,208.024 C126.356,207.751999 126.302001,207.512001 126.194,207.304 C126.085999,207.095999 125.940001,206.924001 125.756,206.788 C125.571999,206.651999 125.360001,206.548 125.12,206.476 C124.879999,206.404 124.628001,206.368 124.364,206.368 C124.131999,206.368 123.912001,206.398 123.704,206.458 C123.495999,206.518 123.310001,206.603999 123.146,206.716 C122.981999,206.828001 122.852,206.965999 122.756,207.13 C122.66,207.294001 122.612,207.483999 122.612,207.7 L122.612,207.772 C122.612,208.004001 122.66,208.201999 122.756,208.366 C122.852,208.530001 122.993999,208.669999 123.182,208.786 C123.370001,208.902001 123.603999,208.998 123.884,209.074 C124.164001,209.15 124.491998,209.216 124.868,209.272 C125.748004,209.408001 126.395998,209.665998 126.812,210.046 C127.228002,210.426002 127.436,210.935997 127.436,211.576 L127.436,211.72 C127.436,212.080002 127.374001,212.409999 127.25,212.71 C127.125999,213.010001 126.942001,213.267999 126.698,213.484 C126.453999,213.700001 126.152002,213.867999 125.792,213.988 C125.431998,214.108001 125.016002,214.168 124.544,214.168 C124.007997,214.168 123.534002,214.090001 123.122,213.934 C122.709998,213.777999 122.366001,213.562001 122.09,213.286 C121.813999,213.009999 121.604001,212.686002 121.46,212.314 C121.315999,211.941998 121.244,211.536002 121.244,211.096 L121.244,210.736 L122.252,210.736 L122.252,211.024 C122.252,211.760004 122.453998,212.311998 122.858,212.68 C123.262002,213.048002 123.823996,213.232 124.544,213.232 C125.168003,213.232 125.637998,213.094001 125.954,212.818 C126.270002,212.541999 126.428,212.176002 126.428,211.72 L126.428,211.648 C126.428,211.207998 126.266002,210.872001 125.942,210.64 C125.617998,210.407999 125.092004,210.240001 124.364,210.136 C123.939998,210.08 123.558002,209.994001 123.218,209.878 C122.877998,209.761999 122.588001,209.610001 122.348,209.422 C122.107999,209.233999 121.924001,209.008001 121.796,208.744 C121.667999,208.479999 121.604,208.168002 121.604,207.808 L121.604,207.664 C121.604,207.335998 121.671999,207.036001 121.808,206.764 C121.944001,206.491999 122.133999,206.256001 122.378,206.056 C122.622001,205.855999 122.913998,205.702001 123.254,205.594 C123.594002,205.485999 123.967998,205.432 124.376,205.432 C124.848002,205.432 125.269998,205.499999 125.642,205.636 C126.014002,205.772001 126.327999,205.953999 126.584,206.182 C126.840001,206.410001 127.033999,206.677998 127.166,206.986 C127.298001,207.294002 127.364,207.615998 127.364,207.952 L127.364,208.456 L126.356,208.456 L126.356,208.024 Z M128.768,208.864 C128.768,207.775995 129.027997,206.932003 129.548,206.332 C130.068003,205.731997 130.791995,205.432 131.72,205.432 C132.648005,205.432 133.371997,205.731997 133.892,206.332 C134.412003,206.932003 134.672,207.775995 134.672,208.864 L134.672,210.736 C134.672,211.856006 134.412003,212.707997 133.892,213.292 C133.371997,213.876003 132.648005,214.168 131.72,214.168 C130.791995,214.168 130.068003,213.876003 129.548,213.292 C129.027997,212.707997 128.768,211.856006 128.768,210.736 L128.768,208.864 Z M131.72,213.232 C132.368003,213.232 132.853998,213.010002 133.178,212.566 C133.502002,212.121998 133.664,211.488004 133.664,210.664 L133.664,208.936 C133.664,208.167996 133.502002,207.548002 133.178,207.076 C132.853998,206.603998 132.368003,206.368 131.72,206.368 C131.071997,206.368 130.586002,206.603998 130.262,207.076 C129.937998,207.548002 129.776,208.167996 129.776,208.936 L129.776,210.664 C129.776,211.488004 129.937998,212.121998 130.262,212.566 C130.586002,213.010002 131.071997,213.232 131.72,213.232 Z M140.708,213.568 L140.852,213.568 L140.852,205.6 L141.86,205.6 L141.86,214 L139.844,214 L137.42,206.032 L137.276,206.032 L137.276,214 L136.268,214 L136.268,205.6 L138.284,205.6 L140.708,213.568 Z M155.552,211.912 L151.952,211.912 L151.34,214 L150.26,214 L152.804,205.6 L154.7,205.6 L157.244,214 L156.164,214 L155.552,211.912 Z M153.68,206.032 L152.228,210.976 L155.276,210.976 L153.824,206.032 L153.68,206.032 Z M160.292,209.968 L164.036,209.968 L164.036,214 L163.1,214 L163.1,212.992 L162.956,212.992 C162.819999,213.344002 162.580002,213.627999 162.236,213.844 C161.891998,214.060001 161.492002,214.168 161.036,214.168 C160.131995,214.168 159.422003,213.876003 158.906,213.292 C158.389997,212.707997 158.132,211.856006 158.132,210.736 L158.132,208.864 C158.132,207.775995 158.391997,206.932003 158.912,206.332 C159.432003,205.731997 160.155995,205.432 161.084,205.432 C161.564002,205.432 161.987998,205.509999 162.356,205.666 C162.724002,205.822001 163.031999,206.037999 163.28,206.314 C163.528001,206.590001 163.715999,206.913998 163.844,207.286 C163.972001,207.658002 164.036,208.055998 164.036,208.48 L164.036,208.624 L163.028,208.624 L163.028,208.48 C163.028,208.207999 162.99,207.944001 162.914,207.688 C162.838,207.431999 162.722001,207.206001 162.566,207.01 C162.409999,206.813999 162.210001,206.658001 161.966,206.542 C161.721999,206.425999 161.428002,206.368 161.084,206.368 C160.435997,206.368 159.950002,206.603998 159.626,207.076 C159.301998,207.548002 159.14,208.167996 159.14,208.936 L159.14,210.664 C159.14,211.488004 159.301998,212.121998 159.626,212.566 C159.950002,213.010002 160.443997,213.232 161.108,213.232 C161.708003,213.232 162.177998,213.040002 162.518,212.656 C162.858002,212.271998 163.028,211.736003 163.028,211.048 L163.028,210.904 L160.292,210.904 L160.292,209.968 Z M165.896,205.6 L170.984,205.6 L170.984,206.536 L166.904,206.536 L166.904,209.32 L170.912,209.32 L170.912,210.256 L166.904,210.256 L166.904,213.064 L171.056,213.064 L171.056,214 L165.896,214 L165.896,205.6 Z M177.428,213.568 L177.572,213.568 L177.572,205.6 L178.58,205.6 L178.58,214 L176.564,214 L174.14,206.032 L173.996,206.032 L173.996,214 L172.988,214 L172.988,205.6 L175.004,205.6 L177.428,213.568 Z M180.176,205.6 L186.08,205.6 L186.08,206.536 L183.632,206.536 L183.632,214 L182.624,214 L182.624,206.536 L180.176,206.536 L180.176,205.6 Z" id="EXAMPLE-OF-A-PERSON" fill="#343434" opacity="0.5"></path>
                <g id="Group-6" transform="translate(26.000000, 76.000000)">
                    <g>
                        <circle id="Oval" fill="#1F7BDE" fill-rule="nonzero" opacity="0.100000001" cx="16.5" cy="16.5" r="16.5"></circle>
                        <g id="user" transform="translate(9.810811, 8.027027)">
                            <mask id="mask-4" fill="white">
                                <use xlink:href="#path-3"></use>
                            </mask>
                            <g id="Clip-2"></g>
                            <path d="M11.9282452,12.113527 L9.14939885,10.7649122 C8.88801861,10.6367584 8.72479229,10.3815101 8.72479229,10.0962534 L8.72479229,9.1419848 C8.79168236,9.06184459 8.86111717,8.9721723 8.93346024,8.87296791 C9.29408499,8.37906419 9.58236667,7.82902703 9.79285228,7.23450676 C10.2029175,7.05269088 10.4701143,6.65799155 10.4701143,6.21421959 L10.4701143,5.0830777 C10.4701143,4.81158953 10.3650532,4.54822128 10.1789243,4.34275169 L10.1789243,2.83950507 C10.1945563,2.68487331 10.2599922,1.75955405 9.57109714,0.996986486 C8.97344887,0.335035473 8.00354279,0 6.68828036,0 C5.37338145,0 4.40492951,0.335035473 3.80728124,0.996986486 C3.11838618,1.75955405 3.18236799,2.68487331 3.19945404,2.83950507 L3.19945404,4.34275169 C3.01332514,4.54822128 2.9082641,4.81158953 2.9082641,5.0830777 L2.9082641,6.21421959 C2.9082641,6.557375 3.06858216,6.87722973 3.34414018,7.0911723 C3.60988281,8.11569595 4.16790598,8.88814865 4.36239615,9.13492399 L4.36239615,10.0697753 C4.36239615,10.3430287 4.20898521,10.5940405 3.96178277,10.7250186 L1.36761119,12.0997584 C0.52385107,12.5467078 0,13.4031841 0,14.3366233 L0,15.2509983 C0,16.5914932 4.3751198,16.9459459 6.68828036,16.9459459 C9.00325858,16.9459459 13.3783784,16.5914932 13.3783784,15.2509983 L13.3783784,14.3920507 C13.3783784,13.4211892 12.8218093,12.5481199 11.9282452,12.113527 Z M12.7959985,15.2509983 C12.7959985,15.6344003 10.6406113,16.380375 6.68828036,16.380375 C2.73776711,16.380375 0.582379885,15.6344003 0.582379885,15.2509983 L0.582379885,14.3366233 C0.582379885,13.611478 0.989900392,12.9438784 1.64571395,12.5964865 L4.24024905,11.2213936 C4.674671,10.9912111 4.94477603,10.5499105 4.94477603,10.0697753 L4.94477603,8.93510304 L4.87643182,8.856375 C4.8695247,8.84790203 4.15663646,8.01084291 3.88544083,6.86098986 L3.85817586,6.74907601 L3.75893135,6.68694088 C3.58988849,6.58102872 3.49064398,6.40450845 3.49064398,6.21421959 L3.49064398,5.0830777 C3.49064398,4.92597466 3.55862466,4.77699155 3.68513414,4.66684291 L3.78001626,4.58246622 L3.78001626,2.82432432 L3.77892566,2.78725507 C3.77747153,2.78019426 3.67786348,1.9967973 4.24461145,1.36944426 C4.72738329,0.835646959 5.54969496,0.565570946 6.68828036,0.565570946 C7.82432102,0.565570946 8.64517856,0.832822635 9.1279504,1.36379561 C9.69469837,1.98585304 9.60090685,2.78019426 9.59945272,2.78725507 L9.59654445,4.58246622 L9.69324423,4.66825507 C9.81829959,4.77699155 9.8877344,4.92597466 9.8877344,5.0830777 L9.8877344,6.21421959 C9.8877344,6.45958277 9.72159981,6.67599662 9.47439736,6.75048818 L9.32971122,6.79320608 L9.28281546,6.93265709 C9.0883253,7.52011655 8.81131315,8.06344595 8.45941319,8.54605236 C8.3725288,8.66467399 8.28891621,8.77093919 8.21511901,8.85072635 L8.14241241,8.93086655 L8.14241241,10.0962534 C8.14241241,10.5968649 8.42960348,11.0462855 8.88947274,11.2697601 L11.6672285,12.618375 C12.3644848,12.9562348 12.7959985,13.6361909 12.7959985,14.3920507 L12.7959985,15.2509983 Z" id="Fill-1" fill="#1F7BDE" mask="url(#mask-4)"></path>
                        </g>
                    </g>
                </g>
            </g>
        </g>
    </g>
</svg>