<?xml version="1.0" encoding="UTF-8"?>
<svg width="17px" height="17px" viewBox="0 0 17 17" version="1.1" xmlns="http://www.w3.org/2000/svg" xmlns:xlink="http://www.w3.org/1999/xlink">
    <!-- Generator: Sketch 52.6 (67491) - http://www.bohemiancoding.com/sketch -->
    <title>dribbble</title>
    <desc>Created with Sketch.</desc>
    <g id="Page-3" stroke="none" stroke-width="1" fill="none" fill-rule="evenodd">
        <g id="Artboard-Copy-4" transform="translate(-674.000000, -1104.000000)" fill="#000000" fill-rule="nonzero">
            <g id="dribbble" transform="translate(674.000000, 1104.000000)">
                <path d="M11.3487093,16.4094605 C11.3625881,16.4052112 11.375773,16.3995455 11.3896518,16.3945879 C19.8661398,12.9575956 17.5213135,0 8.32729069,0 C3.71327771,0 0,3.83855314 0,8.49864163 C0,14.3959907 5.85269747,18.6042347 11.3487093,16.4094605 Z M3.66470184,14.2061877 C4.25593948,13.1920165 6.16913452,10.3308071 9.43482035,9.34354825 C10.1176582,11.1204726 10.5964774,13.1934329 10.6436654,15.5440155 C8.16907216,16.3931715 5.55916047,15.8216378 3.66470184,14.2061877 Z M11.6672282,15.1006697 C11.5763219,12.8421557 11.1245664,10.8393092 10.4805893,9.10416985 C11.9253742,8.8739983 13.5977718,9.02768207 15.4943122,9.80318312 C15.0911325,12.112689 13.6442658,14.0539204 11.6672282,15.1006697 Z M15.6032609,8.70473369 C13.5144988,7.90373672 11.6734737,7.80387768 10.0801854,8.1140781 C9.83383636,7.54750199 9.57499641,7.0028807 9.30088976,6.50146085 C11.7456435,5.50499512 13.1904284,4.29039758 13.8371814,3.6473337 C14.9787141,4.99578484 15.6566944,6.74154747 15.6032609,8.70473369 Z M13.0981343,2.89095459 C12.5096724,3.46248824 11.1238725,4.61688707 8.75406434,5.56094451 C7.59240728,3.68557759 6.35025309,2.36262237 5.56332412,1.62182411 C8.08094167,0.563743228 10.9843904,1.01558767 13.0981343,2.89095459 Z M4.56821288,2.14094947 C5.16222629,2.67423923 6.46614122,3.95470124 7.72425605,5.93488474 C5.99634324,6.50287729 3.82985978,6.92001895 1.19496621,6.97880122 C1.61410651,4.92921215 2.86597588,3.19265637 4.56821288,2.14094947 Z M1.06311744,8.04538074 C4.01236623,7.99651355 6.39952289,7.52129784 8.28634818,6.87823396 C8.54726995,7.34495103 8.79500685,7.85345309 9.03302857,8.38178531 C5.74721846,9.44978127 3.69384736,12.2068823 2.90761233,13.4519333 C1.63908838,12.0071642 0.939595966,10.1218822 1.06311744,8.04538074 Z" id="Shape"></path>
            </g>
        </g>
    </g>
</svg>