<?xml version="1.0" encoding="UTF-8"?>
<svg width="19px" height="19px" viewBox="0 0 19 19" version="1.1" xmlns="http://www.w3.org/2000/svg" xmlns:xlink="http://www.w3.org/1999/xlink">
    <!-- Generator: Sketch 52.6 (67491) - http://www.bohemiancoding.com/sketch -->
    <title>github</title>
    <desc>Created with Sketch.</desc>
    <g id="Page-3" stroke="none" stroke-width="1" fill="none" fill-rule="evenodd">
        <g id="Artboard-Copy-4" transform="translate(-581.000000, -1104.000000)" fill="#000000">
            <g id="github" transform="translate(581.000000, 1104.000000)">
                <path d="M9.47845805,2.79505386e-15 C4.24160998,2.79505386e-15 0,4.15397516 0,9.2772112 C0,13.3769015 2.71557823,16.8534954 6.48089569,18.0792328 C6.95481859,18.1665607 7.12859033,17.8794014 7.12859033,17.6331525 C7.12859033,17.412866 7.12069161,16.8291066 7.11674225,16.0557434 C4.48015117,16.6151139 3.92408163,14.8111243 3.92408163,14.8111243 C3.49281179,13.7403743 2.86960317,13.4540018 2.86960317,13.4540018 C2.01101285,12.8788965 2.93595238,12.8906975 2.93595238,12.8906975 C3.88774754,12.95521 4.38773621,13.8465839 4.38773621,13.8465839 C5.23289872,15.265072 6.60648526,14.8551816 7.14833711,14.6183736 C7.23364324,14.0180927 7.47771353,13.6097758 7.74863946,13.3776882 C5.6436319,13.1456006 3.43120181,12.3478485 3.43120181,8.7933675 C3.43120181,7.78083605 3.79849206,6.95318797 4.40669312,6.30412935 C4.30006047,6.06968151 3.98016251,5.12638298 4.48962963,3.84872093 C4.48962963,3.84872093 5.28345049,3.60011181 7.09620559,4.79988683 C7.85448224,4.59376155 8.66015117,4.49148564 9.46582011,4.48676522 C10.271489,4.49148564 11.077158,4.59376155 11.8354346,4.79988683 C13.6363416,3.60011181 14.4301625,3.84872093 14.4301625,3.84872093 C14.9396296,5.12638298 14.6197317,6.06968151 14.5249471,6.30412935 C15.1291988,6.95318797 15.496489,7.78083605 15.496489,8.7933675 C15.496489,12.3572894 13.2808995,13.1416669 11.1719426,13.3698208 C11.5036886,13.648326 11.8117385,14.2171373 11.8117385,15.0864825 C11.8117385,16.3279546 11.7998904,17.3255381 11.7998904,17.6268586 C11.7998904,17.8699606 11.9657634,18.1602668 12.4515344,18.0674317 C16.2437075,16.8495618 18.9569161,13.3706076 18.9569161,9.2772112 C18.9569161,4.15397516 14.7129365,0 9.47845805,0 Z" id="Path"></path>
            </g>
        </g>
    </g>
</svg>