<?xml version="1.0" encoding="UTF-8"?>
<svg width="18px" height="18px" viewBox="0 0 18 18" version="1.1" xmlns="http://www.w3.org/2000/svg" xmlns:xlink="http://www.w3.org/1999/xlink">
    <!-- Generator: Sketch 52.6 (67491) - http://www.bohemiancoding.com/sketch -->
    <title>instagram</title>
    <desc>Created with Sketch.</desc>
    <g id="Page-3" stroke="none" stroke-width="1" fill="none" fill-rule="evenodd">
        <g id="Artboard-Copy-4" transform="translate(-301.000000, -1104.000000)" fill="#000000">
            <g id="instagram" transform="translate(310.000000, 1112.780488) scale(-1, 1) translate(-310.000000, -1112.780488) translate(301.000000, 1104.000000)">
                <path d="M8.97560976,4.29268293 C6.38775656,4.29268293 4.29268293,6.30264815 4.29268293,8.7804878 C4.29268293,11.2605138 6.39003794,13.2682927 8.97560976,13.2682927 C11.563463,13.2682927 13.6585366,11.2583275 13.6585366,8.7804878 C13.6585366,6.30046182 11.5611816,4.29268293 8.97560976,4.29268293 Z M8.97560976,11.693407 C7.29574854,11.693407 5.93604195,10.389626 5.93604195,8.7804878 C5.93604195,7.17134958 7.296509,5.86756866 8.97560976,5.86756866 C10.6547105,5.86756866 12.0151776,7.17134958 12.0151776,8.7804878 C12.015938,10.389626 10.655471,11.693407 8.97560976,11.693407 Z" id="Shape" fill-rule="nonzero"></path>
                <path d="M12.676726,0.0551600051 C11.0252134,-0.0202045324 6.93457823,-0.0165460597 5.28156969,0.0551600051 C3.82901648,0.121744208 2.54774786,0.464908947 1.51480451,1.4753791 C-0.211504864,3.1641301 0.00914559788,5.43970011 0.00914559788,8.7769589 C0.00914559788,12.192509 -0.185325996,14.415397 1.51480451,16.0785387 C3.2478456,17.7731433 5.60768359,17.5514398 8.97877387,17.5514398 C12.4373764,17.5514398 13.6311328,17.5536349 14.8540599,17.0904722 C16.516792,16.4590199 17.7718818,15.0051428 17.8945485,12.393725 C17.9723371,10.7774118 17.9678493,6.77650603 17.8945485,5.1594611 C17.7464509,2.07683201 16.055296,0.207352469 12.676726,0.0551600051 Z M15.290873,14.9612411 C14.1591979,16.068295 12.5892138,15.9695162 8.95708281,15.9695162 C5.21724447,15.9695162 3.71756929,16.0236616 2.6232926,14.9502657 C1.36296708,13.723214 1.59109722,11.7527606 1.59109722,8.76525179 C1.59109722,4.72263947 1.16699955,1.8112269 5.31448027,1.60342565 C6.26739107,1.57049939 6.54787895,1.55952398 8.94661126,1.55952398 L8.98026981,1.58147481 C12.9661895,1.58147481 16.0934423,1.17318926 16.2811822,5.22970378 C16.3238164,6.15529737 16.3335399,6.4333413 16.3335399,8.77622721 C16.332792,12.3922616 16.4031009,13.8680895 15.290873,14.9612411 Z" id="Shape" fill-rule="nonzero"></path>
                <ellipse id="Oval" cx="13.6585366" cy="4.09756098" rx="1.17073171" ry="1"></ellipse>
            </g>
        </g>
    </g>
</svg>