<?xml version="1.0" encoding="UTF-8"?>
<svg width="17px" height="17px" viewBox="0 0 17 17" version="1.1" xmlns="http://www.w3.org/2000/svg" xmlns:xlink="http://www.w3.org/1999/xlink">
    <!-- Generator: Sketch 52.6 (67491) - http://www.bohemiancoding.com/sketch -->
    <title>linkedin</title>
    <desc>Created with Sketch.</desc>
    <g id="Page-3" stroke="none" stroke-width="1" fill="none" fill-rule="evenodd">
        <g id="Artboard-Copy-4" transform="translate(-393.000000, -1104.000000)" fill="#000000" fill-rule="nonzero">
            <g id="linkedin" transform="translate(393.000000, 1104.000000)">
                <path d="M12.835937,17 C12.9075586,17 16.1472229,16.9992912 16.0762965,16.9992912 C16.364174,16.9992912 16.5978136,16.7611491 16.5978136,16.467724 C16.354439,10.8990258 17.8786596,5.02272727 12.1906465,5.02272727 C11.0968513,5.02272727 10.22557,5.40332941 9.59766344,5.90654638 C9.59766344,4.87105342 8.4996961,5.44372852 5.96512299,5.2899284 C5.67724555,5.2899284 5.44360589,5.52807052 5.44360589,5.82149562 C5.65360344,15.8617374 4.97493585,16.9992912 5.96512299,16.9992912 L9.20548258,16.9992912 C10.1462994,16.9992912 9.5475978,15.6469842 9.72699968,11.1959947 C9.72699968,9.35748081 10.2485168,8.99743261 11.1496983,8.99743261 C12.146839,8.99743261 12.3144199,9.70335388 12.3144199,11.2852979 C12.4931264,15.6561981 11.8985969,17 12.835937,17 Z M11.1496983,7.93429816 C8.02685393,7.93429816 8.68396548,11.4341368 8.68396548,15.9361568 L6.48664009,15.9361568 L6.48664009,6.35306285 L8.55462924,6.35306285 L8.55462924,7.27302853 C8.55462924,7.78333306 9.31743492,8.03423279 9.58306096,7.52109323 C9.92517618,6.85911485 10.8138413,6.08586172 12.1906465,6.08586172 C14.6431676,6.08586172 15.5547794,7.31413639 15.5547794,10.619067 L15.5547794,15.9368655 L13.3574541,15.9368655 C13.3574541,10.8735105 13.8831433,7.93429816 11.1496983,7.93429816 Z" id="Shape"></path>
                <path d="M0.928059216,5.42906356 C-0.0358388657,5.42906356 0.623956159,6.53916187 0.418958117,16.4747169 C0.418958117,16.7646732 0.647035409,17 0.928059216,17 L4.09466806,17 C5.05856614,17 4.39877111,15.8899017 4.60376916,5.95434667 C4.60376916,5.04735783 3.3269436,5.58244622 0.928059216,5.42906356 Z M3.58556696,15.9494338 L1.43716032,15.9494338 L1.43716032,6.47962978 L3.58556696,6.47962978 L3.58556696,15.9494338 Z" id="Shape"></path>
                <path d="M2.31792599,0 C-0.782119124,0 -0.763150317,5.02272727 2.31792599,5.02272727 C5.39696993,5.02272727 5.42135839,0 2.31792599,0 Z M2.31792599,3.93539997 C0.578215358,3.93539997 0.56195638,1.08732731 2.31792599,1.08732731 C4.07728289,1.08732731 4.05492679,3.93539997 2.31792599,3.93539997 Z" id="Shape"></path>
            </g>
        </g>
    </g>
</svg>