<?xml version="1.0" encoding="UTF-8"?>
<svg width="23px" height="20px" viewBox="0 0 23 20" version="1.1" xmlns="http://www.w3.org/2000/svg" xmlns:xlink="http://www.w3.org/1999/xlink">
    <!-- Generator: Sketch 52.6 (67491) - http://www.bohemiancoding.com/sketch -->
    <title>medium (1)</title>
    <desc>Created with Sketch.</desc>
    <g id="Page-3" stroke="none" stroke-width="1" fill="none" fill-rule="evenodd">
        <g id="Artboard-Copy-4" transform="translate(-484.000000, -1104.000000)" fill="#000000" fill-rule="nonzero">
            <g id="medium-(1)" transform="translate(484.000000, 1104.000000)">
                <path d="M0.444666667,16.4379953 L7.63216667,19.3573862 C8.10845833,19.5501227 8.62883333,19.2024412 8.625,18.6988698 L8.59241667,13.3636594 C26.91575,22.3580287 20.5955417,19.2553492 21.9630833,19.9270925 C22.4403333,20.1566757 23,19.8165525 23,19.2912511 L23,4.32016119 C23,3.4604053 21.17725,2.92754561 15.7013333,0.150817522 C15.5182917,0.0289400393 15.2988333,-0.0211336554 15.096625,0.00815473205 C14.4804167,0.00720994536 14.7650417,-0.143011139 10.3940833,6.87580919 C10.002125,6.24091253 9.58333333,5.5616109 9.13195833,4.830346 C8.39691667,3.63708041 8.39691667,3.63708041 8.14870833,3.52842994 C8.139125,3.52370601 8.12954167,3.5246508 8.11995833,3.51992686 C8.11516667,3.51898208 8.11229167,3.51520293 8.1075,3.51331336 L1.009125,0.42858481 C0.53475,0.220731738 0,0.56557888 0,1.07670848 L0,15.7823133 C0,16.0695285 0.176333333,16.3284 0.444666667,16.4379953 Z M16.154625,15.5206074 C17.0017917,14.229084 18.4297083,11.549669 21.5625,6.65189475 L21.5625,18.1508936 L16.154625,15.5206074 Z M15.35825,1.56610799 C18.7890833,3.30734986 20.4546667,4.0782958 21.275,4.48455408 L15.0918333,14.4359923 C14.4775417,13.4477454 13.3380833,11.633755 11.2345417,8.23535724 C13.9111667,3.94886002 14.9509583,2.2113973 15.35825,1.56610799 Z M13.1492917,14.0335132 L8.59625,11.7773625 L8.58283333,11.770749 L8.55120833,6.60937934 C10.2167917,9.29635269 13.0735833,13.9106909 13.1492917,14.0335132 Z M1.4375,2.16415796 L7.10125,4.62532729 L7.18079167,17.6416535 L1.4375,15.3089752 L1.4375,2.16415796 Z" id="Shape"></path>
            </g>
        </g>
    </g>
</svg>